  0
SECTION
  2
HEADER
  9
$ACADVER
  1
AC1009
  9
$DWGCODEPAGE
  3
ansi_1252
  9
$INSBASE
 10
0.0
 20
0.0
 30
0.0
  9
$EXTMIN
 10
-298.2499999999999
 20
-198.25
 30
0.0
  9
$EXTMAX
 10
254.75
 20
41.75000000000011
 30
0.0
  9
$LIMMIN
 10
0.0
 20
0.0
  9
$LIMMAX
 10
12.0
 20
9.0
  9
$ORTHOMODE
 70
     0
  9
$REGENMODE
 70
     1
  9
$FILLMODE
 70
     1
  9
$QTEXTMODE
 70
     0
  9
$MIRRTEXT
 70
     1
  9
$DRAGMODE
 70
     2
  9
$LTSCALE
 40
1.0
  9
$OSMODE
 70
    37
  9
$ATTMODE
 70
     1
  9
$TEXTSIZE
 40
0.2
  9
$TRACEWID
 40
0.05
  9
$TEXTSTYLE
  7
STANDARD
  9
$CLAYER
  8
0
  9
$CELTYPE
  6
BYLAYER
  9
$CECOLOR
 62
   256
  9
$DIMSCALE
 40
1.0
  9
$DIMASZ
 40
0.18
  9
$DIMEXO
 40
0.0625
  9
$DIMDLI
 40
0.38
  9
$DIMRND
 40
0.0
  9
$DIMDLE
 40
0.0
  9
$DIMEXE
 40
0.18
  9
$DIMTP
 40
0.0
  9
$DIMTM
 40
0.0
  9
$DIMTXT
 40
0.18
  9
$DIMCEN
 40
0.09
  9
$DIMTSZ
 40
0.0
  9
$DIMTOL
 70
     0
  9
$DIMLIM
 70
     0
  9
$DIMTIH
 70
     1
  9
$DIMTOH
 70
     1
  9
$DIMSE1
 70
     0
  9
$DIMSE2
 70
     0
  9
$DIMTAD
 70
     0
  9
$DIMZIN
 70
     0
  9
$DIMBLK
  1

  9
$DIMASO
 70
     1
  9
$DIMSHO
 70
     1
  9
$DIMPOST
  1

  9
$DIMAPOST
  1

  9
$DIMALT
 70
     0
  9
$DIMALTD
 70
     2
  9
$DIMALTF
 40
25.4
  9
$DIMLFAC
 40
1.0
  9
$DIMTOFL
 70
     0
  9
$DIMTVP
 40
0.0
  9
$DIMTIX
 70
     0
  9
$DIMSOXD
 70
     0
  9
$DIMSAH
 70
     0
  9
$DIMBLK1
  1

  9
$DIMBLK2
  1

  9
$DIMSTYLE
  2
STANDARD
  9
$DIMCLRD
 70
     0
  9
$DIMCLRE
 70
     0
  9
$DIMCLRT
 70
     0
  9
$DIMTFAC
 40
1.0
  9
$DIMGAP
 40
0.09
  9
$LUNITS
 70
     2
  9
$LUPREC
 70
     4
  9
$SKETCHINC
 40
0.1
  9
$FILLETRAD
 40
0.5
  9
$AUNITS
 70
     0
  9
$AUPREC
 70
     0
  9
$MENU
  1
.
  9
$ELEVATION
 40
0.0
  9
$PELEVATION
 40
0.0
  9
$THICKNESS
 40
0.0
  9
$LIMCHECK
 70
     0
  9
$CHAMFERA
 40
0.0
  9
$CHAMFERB
 40
0.0
  9
$SKPOLY
 70
     0
  9
$TDCREATE
 40
2454910.5
  9
$TDUPDATE
 40
2457730.725511377
  9
$TDINDWG
 40
0.0000000116
  9
$TDUSRTIMER
 40
0.0000000116
  9
$USRTIMER
 70
     1
  9
$ANGBASE
 50
0.0
  9
$ANGDIR
 70
     0
  9
$PDMODE
 70
     0
  9
$PDSIZE
 40
0.0
  9
$PLINEWID
 40
0.0
  9
$COORDS
 70
     1
  9
$SPLFRAME
 70
     0
  9
$SPLINETYPE
 70
     6
  9
$SPLINESEGS
 70
     8
  9
$ATTDIA
 70
     0
  9
$ATTREQ
 70
     1
  9
$HANDLING
 70
     1
  9
$HANDSEED
  5
588
  9
$SURFTAB1
 70
     6
  9
$SURFTAB2
 70
     6
  9
$SURFTYPE
 70
     6
  9
$SURFU
 70
     6
  9
$SURFV
 70
     6
  9
$UCSNAME
  2

  9
$UCSORG
 10
0.0
 20
0.0
 30
0.0
  9
$UCSXDIR
 10
1.0
 20
0.0
 30
0.0
  9
$UCSYDIR
 10
0.0
 20
1.0
 30
0.0
  9
$PUCSNAME
  2

  9
$PUCSORG
 10
0.0
 20
0.0
 30
0.0
  9
$PUCSXDIR
 10
1.0
 20
0.0
 30
0.0
  9
$PUCSYDIR
 10
0.0
 20
1.0
 30
0.0
  9
$USERI1
 70
     0
  9
$USERI2
 70
     0
  9
$USERI3
 70
     0
  9
$USERI4
 70
     0
  9
$USERI5
 70
     0
  9
$USERR1
 40
0.0
  9
$USERR2
 40
0.0
  9
$USERR3
 40
0.0
  9
$USERR4
 40
0.0
  9
$USERR5
 40
0.0
  9
$WORLDVIEW
 70
     1
  9
$SHADEDGE
 70
     3
  9
$SHADEDIF
 70
    70
  9
$TILEMODE
 70
     1
  9
$MAXACTVP
 70
    64
  9
$PLIMCHECK
 70
     0
  9
$PEXTMIN
 10
1.000000000000000E+20
 20
1.000000000000000E+20
 30
1.000000000000000E+20
  9
$PEXTMAX
 10
-1.000000000000000E+20
 20
-1.000000000000000E+20
 30
-1.000000000000000E+20
  9
$PLIMMIN
 10
0.0
 20
0.0
  9
$PLIMMAX
 10
12.0
 20
9.0
  9
$UNITMODE
 70
     0
  9
$VISRETAIN
 70
     1
  9
$PLINEGEN
 70
     0
  9
$PSLTSCALE
 70
     1
  0
ENDSEC
  0
SECTION
  2
TABLES
  0
TABLE
  2
VPORT
 70
     1
  0
VPORT
  2
*ACTIVE
 70
     0
 10
0.0
 20
0.0
 11
1.0
 21
1.0
 12
10.42990654205607
 22
4.5
 13
0.0
 23
0.0
 14
0.5
 24
0.5
 15
0.5
 25
0.5
 16
0.0
 26
0.0
 36
1.0
 17
0.0
 27
0.0
 37
0.0
 40
9.0
 41
1.972972972850329
 42
50.0
 43
0.0
 44
0.0
 50
0.0
 51
0.0
 71
     0
 72
   100
 73
     1
 74
     3
 75
     0
 76
     0
 77
     0
 78
     0
  0
ENDTAB
  0
TABLE
  2
LTYPE
 70
     2
  0
LTYPE
  2
CONTINUOUS
 70
     0
  3
Solid line
 72
    65
 73
     0
 40
0.0
  0
LTYPE
  2
CONTINUOUS2
 70
     0
  3
Solid Line
 72
    65
 73
     0
 40
0.0
  0
ENDTAB
  0
TABLE
  2
LAYER
 70
     4
  0
LAYER
  2
0
 70
     0
 62
     7
  6
CONTINUOUS
  0
LAYER
  2
YAXIS_PRINTED_GEARS_VECTOR
 70
     0
 62
    18
  6
CONTINUOUS
  0
LAYER
  2
5MM_MATERIAL
 70
     0
 62
    18
  6
CONTINUOUS
  0
LAYER
  2
TEXT
 70
     0
 62
     1
  6
CONTINUOUS
  0
ENDTAB
  0
TABLE
  2
STYLE
 70
     1
  0
STYLE
  2
STANDARD
 70
     0
 40
0.0
 41
1.0
 50
0.0
 71
     0
 42
0.2
  3
txt
  4

  0
ENDTAB
  0
TABLE
  2
VIEW
 70
     0
  0
ENDTAB
  0
TABLE
  2
UCS
 70
     0
  0
ENDTAB
  0
TABLE
  2
APPID
 70
     1
  0
APPID
  2
ACAD
 70
     0
  0
ENDTAB
  0
TABLE
  2
DIMSTYLE
 70
     1
  0
DIMSTYLE
  2
STANDARD
 70
     0
  3

  4

  5

  6

  7

 40
1.0
 41
0.18
 42
0.0625
 43
0.38
 44
0.18
 45
0.0
 46
0.0
 47
0.0
 48
0.0
140
0.18
141
0.09
142
0.0
143
25.4
144
1.0
145
0.0
146
1.0
147
0.09
 71
     0
 72
     0
 73
     1
 74
     1
 75
     0
 76
     0
 77
     0
 78
     0
170
     0
171
     2
172
     0
173
     0
174
     0
175
     0
176
     0
177
     0
178
     0
  0
ENDTAB
  0
ENDSEC
  0
SECTION
  2
BLOCKS
  0
BLOCK
  8
0
  2
$MODEL_SPACE
 70
     0
 10
0.0
 20
0.0
 30
0.0
  3
$MODEL_SPACE
  1

  0
ENDBLK
  5
21
  8
0
  0
BLOCK
 67
     1
  8
0
  2
$PAPER_SPACE
 70
     0
 10
0.0
 20
0.0
 30
0.0
  3
$PAPER_SPACE
  1

  0
ENDBLK
  5
1D
 67
     1
  8
0
  0
ENDSEC
  0
SECTION
  2
ENTITIES
  0
POLYLINE
  5
70
  8
YAXIS_PRINTED_GEARS_VECTOR
 66
     1
 10
0.0
 20
0.0
 30
0.0
 70
     1
  0
VERTEX
  5
B0
  8
YAXIS_PRINTED_GEARS_VECTOR
 10
-1.517962001278875
 20
18.22376615683913
 30
0.0
  0
VERTEX
  5
B1
  8
YAXIS_PRINTED_GEARS_VECTOR
 10
-1.014581058482236
 20
18.26012459511946
 30
0.0
  0
VERTEX
  5
B2
  8
YAXIS_PRINTED_GEARS_VECTOR
 10
-0.5280138512789563
 20
18.36665664209352
 30
0.0
  0
VERTEX
  5
B3
  8
YAXIS_PRINTED_GEARS_VECTOR
 10
-0.0649592829747689
 20
18.5396030018652
 30
0.0
  0
VERTEX
  5
B4
  8
YAXIS_PRINTED_GEARS_VECTOR
 10
0.3678837431252759
 20
18.77520437853912
 30
0.0
  0
VERTEX
  5
B5
  8
YAXIS_PRINTED_GEARS_VECTOR
 10
0.7638163237163553
 20
19.06970147621962
 30
0.0
  0
VERTEX
  5
B6
  8
YAXIS_PRINTED_GEARS_VECTOR
 10
1.119780956955765
 20
19.4232450624105
 30
0.0
  0
VERTEX
  5
B7
  8
YAXIS_PRINTED_GEARS_VECTOR
 10
1.419780841029478
 20
19.8212775331682
 30
0.0
  0
VERTEX
  5
B8
  8
YAXIS_PRINTED_GEARS_VECTOR
 10
1.65991123165395
 20
20.25707062539925
 30
0.0
  0
VERTEX
  5
B9
  8
YAXIS_PRINTED_GEARS_VECTOR
 10
1.83626738454609
 20
20.72389607601042
 30
0.0
  0
VERTEX
  5
BA
  8
YAXIS_PRINTED_GEARS_VECTOR
 10
1.94494455542258
 20
21.21502562190847
 30
0.0
  0
VERTEX
  5
BB
  8
YAXIS_PRINTED_GEARS_VECTOR
 10
1.982037999999875
 20
21.72373099999993
 30
0.0
 42
0.4142135623730927
  0
VERTEX
  5
BC
  8
YAXIS_PRINTED_GEARS_VECTOR
 10
-1.517961999999898
 20
25.2237309999997
 30
0.0
 42
0.4142135623731046
  0
VERTEX
  5
BD
  8
YAXIS_PRINTED_GEARS_VECTOR
 10
-5.017961999999898
 20
21.72373099999993
 30
0.0
  0
VERTEX
  5
BE
  8
YAXIS_PRINTED_GEARS_VECTOR
 10
-4.980013013294638
 20
21.20652588589712
 30
0.0
  0
VERTEX
  5
BF
  8
YAXIS_PRINTED_GEARS_VECTOR
 10
-4.869775399931086
 20
20.71288210807927
 30
0.0
  0
VERTEX
  5
C0
  8
YAXIS_PRINTED_GEARS_VECTOR
 10
-4.692663180037925
 20
20.24821432058468
 30
0.0
  0
VERTEX
  5
C1
  8
YAXIS_PRINTED_GEARS_VECTOR
 10
-4.454090373743838
 20
19.81793717745143
 30
0.0
  0
VERTEX
  5
C2
  8
YAXIS_PRINTED_GEARS_VECTOR
 10
-4.159471001177963
 20
19.42746533271736
 30
0.0
  0
VERTEX
  5
C3
  8
YAXIS_PRINTED_GEARS_VECTOR
 10
-3.814219082468753
 20
19.08221344042101
 30
0.0
  0
VERTEX
  5
C4
  8
YAXIS_PRINTED_GEARS_VECTOR
 10
-3.423748637744893
 20
18.78759615460046
 30
0.0
  0
VERTEX
  5
C5
  8
YAXIS_PRINTED_GEARS_VECTOR
 10
-2.993473687135292
 20
18.54902812929379
 30
0.0
  0
VERTEX
  5
C6
  8
YAXIS_PRINTED_GEARS_VECTOR
 10
-2.528808250768634
 20
18.37192401853929
 30
0.0
  0
VERTEX
  5
C7
  8
YAXIS_PRINTED_GEARS_VECTOR
 10
-2.0351663487736
 20
18.26169847637505
 30
0.0
  0
SEQEND
  5
551
  8
YAXIS_PRINTED_GEARS_VECTOR
  0
POLYLINE
  5
71
  8
YAXIS_PRINTED_GEARS_VECTOR
 66
     1
 10
0.0
 20
0.0
 30
0.0
 70
     1
  0
VERTEX
  5
C8
  8
YAXIS_PRINTED_GEARS_VECTOR
 10
19.74423100000013
 20
29.33761531148355
 30
0.0
  0
VERTEX
  5
C9
  8
YAXIS_PRINTED_GEARS_VECTOR
 10
19.7442309999999
 20
-185.8376153114835
 30
0.0
  0
VERTEX
  5
CA
  8
YAXIS_PRINTED_GEARS_VECTOR
 10
37.7442309999999
 20
-185.8376153114835
 30
0.0
  0
VERTEX
  5
CB
  8
YAXIS_PRINTED_GEARS_VECTOR
 10
37.74423100000013
 20
29.33761531148355
 30
0.0
  0
SEQEND
  5
552
  8
YAXIS_PRINTED_GEARS_VECTOR
  0
POLYLINE
  5
72
  8
YAXIS_PRINTED_GEARS_VECTOR
 66
     1
 10
0.0
 20
0.0
 30
0.0
 70
     1
  0
VERTEX
  5
CC
  8
YAXIS_PRINTED_GEARS_VECTOR
 10
213.7442309999999
 20
-185.8376153114835
 30
0.0
  0
VERTEX
  5
CD
  8
YAXIS_PRINTED_GEARS_VECTOR
 10
213.744231
 20
29.33761531148355
 30
0.0
  0
VERTEX
  5
CE
  8
YAXIS_PRINTED_GEARS_VECTOR
 10
195.7442309999999
 20
29.33761531148355
 30
0.0
  0
VERTEX
  5
CF
  8
YAXIS_PRINTED_GEARS_VECTOR
 10
195.7442309999999
 20
-185.8376153114835
 30
0.0
  0
SEQEND
  5
553
  8
YAXIS_PRINTED_GEARS_VECTOR
  0
POLYLINE
  5
73
  8
YAXIS_PRINTED_GEARS_VECTOR
 66
     1
 10
0.0
 20
0.0
 30
0.0
 70
     1
  0
VERTEX
  5
D0
  8
YAXIS_PRINTED_GEARS_VECTOR
 10
-1.517962001278875
 20
-181.7993098431606
 30
0.0
  0
VERTEX
  5
D1
  8
YAXIS_PRINTED_GEARS_VECTOR
 10
-1.014581058482236
 20
-181.7629514048803
 30
0.0
  0
VERTEX
  5
D2
  8
YAXIS_PRINTED_GEARS_VECTOR
 10
-0.5280138512791837
 20
-181.6564193579064
 30
0.0
  0
VERTEX
  5
D3
  8
YAXIS_PRINTED_GEARS_VECTOR
 10
-0.0649592829747689
 20
-181.4834729981345
 30
0.0
  0
VERTEX
  5
D4
  8
YAXIS_PRINTED_GEARS_VECTOR
 10
0.3678837431252759
 20
-181.2478716214606
 30
0.0
  0
VERTEX
  5
D5
  8
YAXIS_PRINTED_GEARS_VECTOR
 10
0.7638163237163553
 20
-180.9533745237803
 30
0.0
  0
VERTEX
  5
D6
  8
YAXIS_PRINTED_GEARS_VECTOR
 10
1.119780956955765
 20
-180.5998309375892
 30
0.0
  0
VERTEX
  5
D7
  8
YAXIS_PRINTED_GEARS_VECTOR
 10
1.419780841029251
 20
-180.2017984668315
 30
0.0
  0
VERTEX
  5
D8
  8
YAXIS_PRINTED_GEARS_VECTOR
 10
1.65991123165395
 20
-179.7660053746005
 30
0.0
  0
VERTEX
  5
D9
  8
YAXIS_PRINTED_GEARS_VECTOR
 10
1.83626738454609
 20
-179.2991799239893
 30
0.0
  0
VERTEX
  5
DA
  8
YAXIS_PRINTED_GEARS_VECTOR
 10
1.94494455542258
 20
-178.8080503780915
 30
0.0
  0
VERTEX
  5
DB
  8
YAXIS_PRINTED_GEARS_VECTOR
 10
1.982038000000102
 20
-178.2993449999998
 30
0.0
 42
0.4142135623730927
  0
VERTEX
  5
DC
  8
YAXIS_PRINTED_GEARS_VECTOR
 10
-1.517961999999898
 20
-174.7993449999998
 30
0.0
 42
0.4142135623730975
  0
VERTEX
  5
DD
  8
YAXIS_PRINTED_GEARS_VECTOR
 10
-5.017961999999898
 20
-178.2993449999998
 30
0.0
  0
VERTEX
  5
DE
  8
YAXIS_PRINTED_GEARS_VECTOR
 10
-4.980013013294638
 20
-178.8165501141026
 30
0.0
  0
VERTEX
  5
DF
  8
YAXIS_PRINTED_GEARS_VECTOR
 10
-4.869775399931086
 20
-179.3101938919202
 30
0.0
  0
VERTEX
  5
E0
  8
YAXIS_PRINTED_GEARS_VECTOR
 10
-4.692663180037925
 20
-179.774861679415
 30
0.0
  0
VERTEX
  5
E1
  8
YAXIS_PRINTED_GEARS_VECTOR
 10
-4.454090373743838
 20
-180.2051388225485
 30
0.0
  0
VERTEX
  5
E2
  8
YAXIS_PRINTED_GEARS_VECTOR
 10
-4.159471001177963
 20
-180.5956106672824
 30
0.0
  0
VERTEX
  5
E3
  8
YAXIS_PRINTED_GEARS_VECTOR
 10
-3.814219082468753
 20
-180.9408625595787
 30
0.0
  0
VERTEX
  5
E4
  8
YAXIS_PRINTED_GEARS_VECTOR
 10
-3.423748637744893
 20
-181.2354798453993
 30
0.0
  0
VERTEX
  5
E5
  8
YAXIS_PRINTED_GEARS_VECTOR
 10
-2.993473687135292
 20
-181.4740478707059
 30
0.0
  0
VERTEX
  5
E6
  8
YAXIS_PRINTED_GEARS_VECTOR
 10
-2.528808250768634
 20
-181.6511519814607
 30
0.0
  0
VERTEX
  5
E7
  8
YAXIS_PRINTED_GEARS_VECTOR
 10
-2.0351663487736
 20
-181.7613775236249
 30
0.0
  0
SEQEND
  5
554
  8
YAXIS_PRINTED_GEARS_VECTOR
  0
POLYLINE
  5
74
  8
YAXIS_PRINTED_GEARS_VECTOR
 66
     1
 10
0.0
 20
0.0
 30
0.0
 70
     1
  0
VERTEX
  5
E8
  8
YAXIS_PRINTED_GEARS_VECTOR
 10
-21.25
 20
-178.2499999999999
 30
0.0
 42
0.4141346362608525
  0
VERTEX
  5
E9
  8
YAXIS_PRINTED_GEARS_VECTOR
 10
-1.25
 20
-198.2499999999999
 30
0.0
  0
VERTEX
  5
EA
  8
YAXIS_PRINTED_GEARS_VECTOR
 10
234.7499999999998
 20
-198.25
 30
0.0
 42
0.4141346362608588
  0
VERTEX
  5
EB
  8
YAXIS_PRINTED_GEARS_VECTOR
 10
254.7499999999999
 20
-178.25
 30
0.0
  0
VERTEX
  5
EC
  8
YAXIS_PRINTED_GEARS_VECTOR
 10
254.75
 20
21.74999999999977
 30
0.0
 42
0.4141346362608532
  0
VERTEX
  5
ED
  8
YAXIS_PRINTED_GEARS_VECTOR
 10
234.7499999999999
 20
41.74999999999977
 30
0.0
  0
VERTEX
  5
EE
  8
YAXIS_PRINTED_GEARS_VECTOR
 10
-1.25
 20
41.75000000000011
 30
0.0
 42
0.4141346362608528
  0
VERTEX
  5
EF
  8
YAXIS_PRINTED_GEARS_VECTOR
 10
-21.25
 20
21.74999999999989
 30
0.0
  0
SEQEND
  5
555
  8
YAXIS_PRINTED_GEARS_VECTOR
  0
POLYLINE
  5
75
  8
YAXIS_PRINTED_GEARS_VECTOR
 66
     1
 10
0.0
 20
0.0
 30
0.0
 70
     1
  0
VERTEX
  5
F0
  8
YAXIS_PRINTED_GEARS_VECTOR
 10
89.74423098656393
 20
-74.85749554536085
 30
0.0
  0
VERTEX
  5
F1
  8
YAXIS_PRINTED_GEARS_VECTOR
 10
89.10291367961918
 20
-74.8232796801475
 30
0.0
  0
VERTEX
  5
F2
  8
YAXIS_PRINTED_GEARS_VECTOR
 10
88.47613051622488
 20
-74.72270041490708
 30
0.0
  0
VERTEX
  5
F3
  8
YAXIS_PRINTED_GEARS_VECTOR
 10
87.86841039556907
 20
-74.5584580858025
 30
0.0
  0
VERTEX
  5
F4
  8
YAXIS_PRINTED_GEARS_VECTOR
 10
87.28428221683907
 20
-74.33325302899618
 30
0.0
  0
VERTEX
  5
F5
  8
YAXIS_PRINTED_GEARS_VECTOR
 10
86.72827487922314
 20
-74.04978558065125
 30
0.0
  0
VERTEX
  5
F6
  8
YAXIS_PRINTED_GEARS_VECTOR
 10
86.20491728190837
 20
-73.71075607693035
 30
0.0
  0
VERTEX
  5
F7
  8
YAXIS_PRINTED_GEARS_VECTOR
 10
85.718738324083
 20
-73.31886485399616
 30
0.0
  0
VERTEX
  5
F8
  8
YAXIS_PRINTED_GEARS_VECTOR
 10
85.26945828654107
 20
-72.87183093299052
 30
0.0
  0
VERTEX
  5
F9
  8
YAXIS_PRINTED_GEARS_VECTOR
 10
84.87145529064492
 20
-72.38284571170345
 30
0.0
  0
VERTEX
  5
FA
  8
YAXIS_PRINTED_GEARS_VECTOR
 10
84.5273883319503
 20
-71.85645202580679
 30
0.0
  0
VERTEX
  5
FB
  8
YAXIS_PRINTED_GEARS_VECTOR
 10
84.23991640601389
 20
-71.29719271097213
 30
0.0
  0
VERTEX
  5
FC
  8
YAXIS_PRINTED_GEARS_VECTOR
 10
84.01169850839142
 20
-70.70961060287198
 30
0.0
  0
VERTEX
  5
FD
  8
YAXIS_PRINTED_GEARS_VECTOR
 10
83.84539363463932
 20
-70.09824853717816
 30
0.0
  0
VERTEX
  5
FE
  8
YAXIS_PRINTED_GEARS_VECTOR
 10
83.74366078031335
 20
-69.46764934956252
 30
0.0
  0
VERTEX
  5
FF
  8
YAXIS_PRINTED_GEARS_VECTOR
 10
83.70915894097016
 20
-68.8223558756971
 30
0.0
  0
VERTEX
  5
100
  8
YAXIS_PRINTED_GEARS_VECTOR
 10
83.74456172534497
 20
-68.16464065398293
 30
0.0
  0
VERTEX
  5
101
  8
YAXIS_PRINTED_GEARS_VECTOR
 10
83.84831858078724
 20
-67.52750273273784
 30
0.0
  0
VERTEX
  5
102
  8
YAXIS_PRINTED_GEARS_VECTOR
 10
84.01675226077327
 20
-66.91461513783827
 30
0.0
  0
VERTEX
  5
103
  8
YAXIS_PRINTED_GEARS_VECTOR
 10
84.2461855187803
 20
-66.32965089516063
 30
0.0
  0
VERTEX
  5
104
  8
YAXIS_PRINTED_GEARS_VECTOR
 10
84.53294110828506
 20
-65.7762830305818
 30
0.0
  0
VERTEX
  5
105
  8
YAXIS_PRINTED_GEARS_VECTOR
 10
84.87334178276387
 20
-65.25818456997752
 30
0.0
  0
VERTEX
  5
106
  8
YAXIS_PRINTED_GEARS_VECTOR
 10
85.2637102956935
 20
-64.77902853922467
 30
0.0
  0
VERTEX
  5
107
  8
YAXIS_PRINTED_GEARS_VECTOR
 10
85.70036940055093
 20
-64.34248796419968
 30
0.0
  0
VERTEX
  5
108
  8
YAXIS_PRINTED_GEARS_VECTOR
 10
86.17964185081269
 20
-63.95223587077896
 30
0.0
  0
VERTEX
  5
109
  8
YAXIS_PRINTED_GEARS_VECTOR
 10
86.69785039995554
 20
-63.61194528483873
 30
0.0
  0
VERTEX
  5
10A
  8
YAXIS_PRINTED_GEARS_VECTOR
 10
87.25131780145603
 20
-63.32528923225584
 30
0.0
  0
VERTEX
  5
10B
  8
YAXIS_PRINTED_GEARS_VECTOR
 10
87.83636680879113
 20
-63.09594073890628
 30
0.0
  0
VERTEX
  5
10C
  8
YAXIS_PRINTED_GEARS_VECTOR
 10
88.4493201754376
 20
-62.92757283066692
 30
0.0
  0
VERTEX
  5
10D
  8
YAXIS_PRINTED_GEARS_VECTOR
 10
89.08650065487177
 20
-62.82385853341373
 30
0.0
  0
VERTEX
  5
10E
  8
YAXIS_PRINTED_GEARS_VECTOR
 10
89.74423100057061
 20
-62.78847087302336
 30
0.0
  0
VERTEX
  5
10F
  8
YAXIS_PRINTED_GEARS_VECTOR
 10
90.40196134626945
 20
-62.82385853341373
 30
0.0
  0
VERTEX
  5
110
  8
YAXIS_PRINTED_GEARS_VECTOR
 10
91.03914182570361
 20
-62.92757283066692
 30
0.0
  0
VERTEX
  5
111
  8
YAXIS_PRINTED_GEARS_VECTOR
 10
91.65209519235009
 20
-63.09594073890628
 30
0.0
  0
VERTEX
  5
112
  8
YAXIS_PRINTED_GEARS_VECTOR
 10
92.23714419968519
 20
-63.32528923225584
 30
0.0
  0
VERTEX
  5
113
  8
YAXIS_PRINTED_GEARS_VECTOR
 10
92.79061160118567
 20
-63.61194528483873
 30
0.0
  0
VERTEX
  5
114
  8
YAXIS_PRINTED_GEARS_VECTOR
 10
93.30882015032853
 20
-63.95223587077896
 30
0.0
  0
VERTEX
  5
115
  8
YAXIS_PRINTED_GEARS_VECTOR
 10
93.78809260059029
 20
-64.34248796419968
 30
0.0
  0
VERTEX
  5
116
  8
YAXIS_PRINTED_GEARS_VECTOR
 10
94.22475170544772
 20
-64.77902853922467
 30
0.0
  0
VERTEX
  5
117
  8
YAXIS_PRINTED_GEARS_VECTOR
 10
94.61512021837734
 20
-65.25818456997752
 30
0.0
  0
VERTEX
  5
118
  8
YAXIS_PRINTED_GEARS_VECTOR
 10
94.95552089285616
 20
-65.7762830305818
 30
0.0
  0
VERTEX
  5
119
  8
YAXIS_PRINTED_GEARS_VECTOR
 10
95.24227648236092
 20
-66.32965089516063
 30
0.0
  0
VERTEX
  5
11A
  8
YAXIS_PRINTED_GEARS_VECTOR
 10
95.47170974036794
 20
-66.91461513783827
 30
0.0
  0
VERTEX
  5
11B
  8
YAXIS_PRINTED_GEARS_VECTOR
 10
95.6401434203542
 20
-67.52750273273784
 30
0.0
  0
VERTEX
  5
11C
  8
YAXIS_PRINTED_GEARS_VECTOR
 10
95.74390027579625
 20
-68.16464065398293
 30
0.0
  0
VERTEX
  5
11D
  8
YAXIS_PRINTED_GEARS_VECTOR
 10
95.77930306017106
 20
-68.8223558756971
 30
0.0
  0
VERTEX
  5
11E
  8
YAXIS_PRINTED_GEARS_VECTOR
 10
95.74582205827255
 20
-69.456744640397
 30
0.0
  0
VERTEX
  5
11F
  8
YAXIS_PRINTED_GEARS_VECTOR
 10
95.6467663602341
 20
-70.07948702746091
 30
0.0
  0
VERTEX
  5
120
  8
YAXIS_PRINTED_GEARS_VECTOR
 10
95.48421692754141
 20
-70.6857061918646
 30
0.0
  0
VERTEX
  5
121
  8
YAXIS_PRINTED_GEARS_VECTOR
 10
95.26025472168044
 20
-71.27052528858405
 30
0.0
  0
VERTEX
  5
122
  8
YAXIS_PRINTED_GEARS_VECTOR
 10
94.97696070413667
 20
-71.82906747259551
 30
0.0
  0
VERTEX
  5
123
  8
YAXIS_PRINTED_GEARS_VECTOR
 10
94.63641583639583
 20
-72.35645589887451
 30
0.0
  0
VERTEX
  5
124
  8
YAXIS_PRINTED_GEARS_VECTOR
 10
94.24070107994385
 20
-72.84781372239775
 30
0.0
  0
VERTEX
  5
125
  8
YAXIS_PRINTED_GEARS_VECTOR
 10
93.78261129278985
 20
-73.30715250692845
 30
0.0
  0
VERTEX
  5
126
  8
YAXIS_PRINTED_GEARS_VECTOR
 10
93.28460326110849
 20
-73.70991460454263
 30
0.0
  0
VERTEX
  5
127
  8
YAXIS_PRINTED_GEARS_VECTOR
 10
92.75178339651802
 20
-74.0546557077472
 30
0.0
  0
VERTEX
  5
128
  8
YAXIS_PRINTED_GEARS_VECTOR
 10
92.1892581106365
 20
-74.33993150904905
 30
0.0
  0
VERTEX
  5
129
  8
YAXIS_PRINTED_GEARS_VECTOR
 10
91.6021338150822
 20
-74.5642977009544
 30
0.0
  0
VERTEX
  5
12A
  8
YAXIS_PRINTED_GEARS_VECTOR
 10
90.99551692147338
 20
-74.72630997597037
 30
0.0
  0
VERTEX
  5
12B
  8
YAXIS_PRINTED_GEARS_VECTOR
 10
90.37451384142787
 20
-74.82452402660363
 30
0.0
  0
SEQEND
  5
556
  8
YAXIS_PRINTED_GEARS_VECTOR
  0
POLYLINE
  5
76
  8
YAXIS_PRINTED_GEARS_VECTOR
 66
     1
 10
0.0
 20
0.0
 30
0.0
 70
     1
  0
VERTEX
  5
12C
  8
YAXIS_PRINTED_GEARS_VECTOR
 10
235.0064239962798
 20
-181.7993098453862
 30
0.0
  0
VERTEX
  5
12D
  8
YAXIS_PRINTED_GEARS_VECTOR
 10
235.5098049390763
 20
-181.7629514071059
 30
0.0
  0
VERTEX
  5
12E
  8
YAXIS_PRINTED_GEARS_VECTOR
 10
235.9963721462794
 20
-181.6564193601321
 30
0.0
  0
VERTEX
  5
12F
  8
YAXIS_PRINTED_GEARS_VECTOR
 10
236.4594267145837
 20
-181.4834730003602
 30
0.0
  0
VERTEX
  5
130
  8
YAXIS_PRINTED_GEARS_VECTOR
 10
236.892269740684
 20
-181.2478716236863
 30
0.0
  0
VERTEX
  5
131
  8
YAXIS_PRINTED_GEARS_VECTOR
 10
237.288202321275
 20
-180.953374526006
 30
0.0
  0
VERTEX
  5
132
  8
YAXIS_PRINTED_GEARS_VECTOR
 10
237.6441669545143
 20
-180.5998309398146
 30
0.0
  0
VERTEX
  5
133
  8
YAXIS_PRINTED_GEARS_VECTOR
 10
237.9441668385879
 20
-180.2017984690569
 30
0.0
  0
VERTEX
  5
134
  8
YAXIS_PRINTED_GEARS_VECTOR
 10
238.1842972292125
 20
-179.7660053768259
 30
0.0
  0
VERTEX
  5
135
  8
YAXIS_PRINTED_GEARS_VECTOR
 10
238.3606533821047
 20
-179.2991799262149
 30
0.0
  0
VERTEX
  5
136
  8
YAXIS_PRINTED_GEARS_VECTOR
 10
238.4693305529812
 20
-178.8080503803171
 30
0.0
  0
VERTEX
  5
137
  8
YAXIS_PRINTED_GEARS_VECTOR
 10
238.5064239975586
 20
-178.2993450022254
 30
0.0
 42
0.4142135623730964
  0
VERTEX
  5
138
  8
YAXIS_PRINTED_GEARS_VECTOR
 10
235.0064239975586
 20
-174.7993450022254
 30
0.0
 42
0.4142135623730879
  0
VERTEX
  5
139
  8
YAXIS_PRINTED_GEARS_VECTOR
 10
231.5064239975585
 20
-178.2993450022254
 30
0.0
  0
VERTEX
  5
13A
  8
YAXIS_PRINTED_GEARS_VECTOR
 10
231.5443729842639
 20
-178.8165501163282
 30
0.0
  0
VERTEX
  5
13B
  8
YAXIS_PRINTED_GEARS_VECTOR
 10
231.6546105976275
 20
-179.3101938941459
 30
0.0
  0
VERTEX
  5
13C
  8
YAXIS_PRINTED_GEARS_VECTOR
 10
231.8317228175206
 20
-179.7748616816407
 30
0.0
  0
VERTEX
  5
13D
  8
YAXIS_PRINTED_GEARS_VECTOR
 10
232.0702956238144
 20
-180.2051388247742
 30
0.0
  0
VERTEX
  5
13E
  8
YAXIS_PRINTED_GEARS_VECTOR
 10
232.3649149963805
 20
-180.595610669508
 30
0.0
  0
VERTEX
  5
13F
  8
YAXIS_PRINTED_GEARS_VECTOR
 10
232.7101669150898
 20
-180.9408625618044
 30
0.0
  0
VERTEX
  5
140
  8
YAXIS_PRINTED_GEARS_VECTOR
 10
233.1006373598136
 20
-181.2354798476249
 30
0.0
  0
VERTEX
  5
141
  8
YAXIS_PRINTED_GEARS_VECTOR
 10
233.5309123104232
 20
-181.4740478729316
 30
0.0
  0
VERTEX
  5
142
  8
YAXIS_PRINTED_GEARS_VECTOR
 10
233.99557774679
 20
-181.6511519836863
 30
0.0
  0
VERTEX
  5
143
  8
YAXIS_PRINTED_GEARS_VECTOR
 10
234.489219648785
 20
-181.7613775258505
 30
0.0
  0
SEQEND
  5
557
  8
YAXIS_PRINTED_GEARS_VECTOR
  0
POLYLINE
  5
77
  8
YAXIS_PRINTED_GEARS_VECTOR
 66
     1
 10
0.0
 20
0.0
 30
0.0
 70
     1
  0
VERTEX
  5
144
  8
YAXIS_PRINTED_GEARS_VECTOR
 10
48.17034764533082
 20
-187.7571911765648
 30
0.0
  0
VERTEX
  5
145
  8
YAXIS_PRINTED_GEARS_VECTOR
 10
48.50691650935869
 20
-187.6778113377678
 30
0.0
  0
VERTEX
  5
146
  8
YAXIS_PRINTED_GEARS_VECTOR
 10
48.84651852927573
 20
-187.6596990922
 30
0.0
  0
VERTEX
  5
147
  8
YAXIS_PRINTED_GEARS_VECTOR
 10
49.18126200527377
 20
-187.6999402766759
 30
0.0
  0
VERTEX
  5
148
  8
YAXIS_PRINTED_GEARS_VECTOR
 10
49.50325523754486
 20
-187.7956207280112
 30
0.0
  0
VERTEX
  5
149
  8
YAXIS_PRINTED_GEARS_VECTOR
 10
49.80460652628062
 20
-187.9438262830207
 30
0.0
  0
VERTEX
  5
14A
  8
YAXIS_PRINTED_GEARS_VECTOR
 10
50.0774241716731
 20
-188.1416427785192
 30
0.0
  0
VERTEX
  5
14B
  8
YAXIS_PRINTED_GEARS_VECTOR
 10
50.31381647391368
 20
-188.3861560513227
 30
0.0
  0
VERTEX
  5
14C
  8
YAXIS_PRINTED_GEARS_VECTOR
 10
50.50589173319463
 20
-188.6744519382454
 30
0.0
  0
VERTEX
  5
14D
  8
YAXIS_PRINTED_GEARS_VECTOR
 10
50.64160634159725
 20
-188.9959006025684
 30
0.0
  0
VERTEX
  5
14E
  8
YAXIS_PRINTED_GEARS_VECTOR
 10
50.71335182353414
 20
-189.3309515789387
 30
0.0
  0
VERTEX
  5
14F
  8
YAXIS_PRINTED_GEARS_VECTOR
 10
50.72397416472586
 20
-189.6708605500875
 30
0.0
  0
VERTEX
  5
150
  8
YAXIS_PRINTED_GEARS_VECTOR
 10
50.67631935089344
 20
-190.0068831987459
 30
0.0
  0
VERTEX
  5
151
  8
YAXIS_PRINTED_GEARS_VECTOR
 10
50.57323336775835
 20
-190.330275207646
 30
0.0
  0
VERTEX
  5
152
  8
YAXIS_PRINTED_GEARS_VECTOR
 10
50.41756220104207
 20
-190.6322922595185
 30
0.0
  0
VERTEX
  5
153
  8
YAXIS_PRINTED_GEARS_VECTOR
 10
50.21215183646495
 20
-190.9041900370952
 30
0.0
  0
VERTEX
  5
154
  8
YAXIS_PRINTED_GEARS_VECTOR
 10
49.95984825974892
 20
-191.1372242231074
 30
0.0
  0
VERTEX
  5
155
  8
YAXIS_PRINTED_GEARS_VECTOR
 10
49.66349745661455
 20
-191.3226505002866
 30
0.0
  0
VERTEX
  5
156
  8
YAXIS_PRINTED_GEARS_VECTOR
 10
49.32845361277396
 20
-191.4506920431789
 30
0.0
  0
VERTEX
  5
157
  8
YAXIS_PRINTED_GEARS_VECTOR
 10
48.98175756602768
 20
-191.5110094750524
 30
0.0
  0
VERTEX
  5
158
  8
YAXIS_PRINTED_GEARS_VECTOR
 10
48.63266297887253
 20
-191.5070753640265
 30
0.0
  0
VERTEX
  5
159
  8
YAXIS_PRINTED_GEARS_VECTOR
 10
48.29042351380576
 20
-191.4423622782223
 30
0.0
  0
VERTEX
  5
15A
  8
YAXIS_PRINTED_GEARS_VECTOR
 10
47.96429283332463
 20
-191.3203427857601
 30
0.0
  0
VERTEX
  5
15B
  8
YAXIS_PRINTED_GEARS_VECTOR
 10
47.66352459992595
 20
-191.1444894547602
 30
0.0
  0
VERTEX
  5
15C
  8
YAXIS_PRINTED_GEARS_VECTOR
 10
47.39737247610719
 20
-190.918274853343
 30
0.0
  0
VERTEX
  5
15D
  8
YAXIS_PRINTED_GEARS_VECTOR
 10
47.17509012436562
 20
-190.645171549629
 30
0.0
  0
VERTEX
  5
15E
  8
YAXIS_PRINTED_GEARS_VECTOR
 10
47.00593120719827
 20
-190.3286521117383
 30
0.0
  0
VERTEX
  5
15F
  8
YAXIS_PRINTED_GEARS_VECTOR
 10
46.90244621551301
 20
-189.9872060611791
 30
0.0
  0
VERTEX
  5
160
  8
YAXIS_PRINTED_GEARS_VECTOR
 10
46.86651929276582
 20
-189.6386134879648
 30
0.0
  0
VERTEX
  5
161
  8
YAXIS_PRINTED_GEARS_VECTOR
 10
46.89414675897478
 20
-189.2919080627556
 30
0.0
  0
VERTEX
  5
162
  8
YAXIS_PRINTED_GEARS_VECTOR
 10
46.98132493415778
 20
-188.9561234562115
 30
0.0
  0
VERTEX
  5
163
  8
YAXIS_PRINTED_GEARS_VECTOR
 10
47.12405013833404
 20
-188.6402933389921
 30
0.0
  0
VERTEX
  5
164
  8
YAXIS_PRINTED_GEARS_VECTOR
 10
47.31831869152074
 20
-188.3534513817577
 30
0.0
  0
VERTEX
  5
165
  8
YAXIS_PRINTED_GEARS_VECTOR
 10
47.56012691373735
 20
-188.1046312551683
 30
0.0
  0
VERTEX
  5
166
  8
YAXIS_PRINTED_GEARS_VECTOR
 10
47.84547112500104
 20
-187.902866629884
 30
0.0
  0
SEQEND
  5
558
  8
YAXIS_PRINTED_GEARS_VECTOR
  0
POLYLINE
  5
78
  8
YAXIS_PRINTED_GEARS_VECTOR
 66
     1
 10
0.0
 20
0.0
 30
0.0
 70
     1
  0
VERTEX
  5
167
  8
YAXIS_PRINTED_GEARS_VECTOR
 10
214.6694809598771
 20
-192.9224538411553
 30
0.0
  0
VERTEX
  5
168
  8
YAXIS_PRINTED_GEARS_VECTOR
 10
215.0466525608332
 20
-192.8879358320627
 30
0.0
  0
VERTEX
  5
169
  8
YAXIS_PRINTED_GEARS_VECTOR
 10
215.3996070846993
 20
-192.7902260843933
 30
0.0
  0
VERTEX
  5
16A
  8
YAXIS_PRINTED_GEARS_VECTOR
 10
215.7229610823761
 20
-192.6354584170975
 30
0.0
  0
VERTEX
  5
16B
  8
YAXIS_PRINTED_GEARS_VECTOR
 10
216.0113311047644
 20
-192.4297666491258
 30
0.0
  0
VERTEX
  5
16C
  8
YAXIS_PRINTED_GEARS_VECTOR
 10
216.2593337027652
 20
-192.1792845994281
 30
0.0
  0
VERTEX
  5
16D
  8
YAXIS_PRINTED_GEARS_VECTOR
 10
216.461585427279
 20
-191.8901460869546
 30
0.0
  0
VERTEX
  5
16E
  8
YAXIS_PRINTED_GEARS_VECTOR
 10
216.6127028292071
 20
-191.5684849306559
 30
0.0
  0
VERTEX
  5
16F
  8
YAXIS_PRINTED_GEARS_VECTOR
 10
216.7073024594501
 20
-191.2204349494822
 30
0.0
  0
VERTEX
  5
170
  8
YAXIS_PRINTED_GEARS_VECTOR
 10
216.7400008689087
 20
-190.8521299623836
 30
0.0
  0
VERTEX
  5
171
  8
YAXIS_PRINTED_GEARS_VECTOR
 10
216.706664942197
 20
-190.479848689521
 30
0.0
  0
VERTEX
  5
172
  8
YAXIS_PRINTED_GEARS_VECTOR
 10
216.6106177193659
 20
-190.1295199758089
 30
0.0
  0
VERTEX
  5
173
  8
YAXIS_PRINTED_GEARS_VECTOR
 10
216.4576581523855
 20
-189.8069816881529
 30
0.0
  0
VERTEX
  5
174
  8
YAXIS_PRINTED_GEARS_VECTOR
 10
216.2535851932258
 20
-189.5180716934573
 30
0.0
  0
VERTEX
  5
175
  8
YAXIS_PRINTED_GEARS_VECTOR
 10
216.0041977938567
 20
-189.2686278586274
 30
0.0
  0
VERTEX
  5
176
  8
YAXIS_PRINTED_GEARS_VECTOR
 10
215.7152949062486
 20
-189.0644880505675
 30
0.0
  0
VERTEX
  5
177
  8
YAXIS_PRINTED_GEARS_VECTOR
 10
215.3926754823707
 20
-188.911490136183
 30
0.0
  0
VERTEX
  5
178
  8
YAXIS_PRINTED_GEARS_VECTOR
 10
215.0421384741936
 20
-188.8154719823787
 30
0.0
  0
VERTEX
  5
179
  8
YAXIS_PRINTED_GEARS_VECTOR
 10
214.6694828336871
 20
-188.7822714560592
 30
0.0
  0
VERTEX
  5
17A
  8
YAXIS_PRINTED_GEARS_VECTOR
 10
214.2957653729845
 20
-188.8157342016499
 30
0.0
  0
VERTEX
  5
17B
  8
YAXIS_PRINTED_GEARS_VECTOR
 10
213.9445813040685
 20
-188.9119272238721
 30
0.0
  0
VERTEX
  5
17C
  8
YAXIS_PRINTED_GEARS_VECTOR
 10
213.62166037681
 20
-189.0650219963335
 30
0.0
  0
VERTEX
  5
17D
  8
YAXIS_PRINTED_GEARS_VECTOR
 10
213.3327323410804
 20
-189.2691899926421
 30
0.0
  0
VERTEX
  5
17E
  8
YAXIS_PRINTED_GEARS_VECTOR
 10
213.0835269467505
 20
-189.5186026864052
 30
0.0
  0
VERTEX
  5
17F
  8
YAXIS_PRINTED_GEARS_VECTOR
 10
212.8797739436917
 20
-189.8074315512314
 30
0.0
  0
VERTEX
  5
180
  8
YAXIS_PRINTED_GEARS_VECTOR
 10
212.727203081775
 20
-190.1298480607282
 30
0.0
  0
VERTEX
  5
181
  8
YAXIS_PRINTED_GEARS_VECTOR
 10
212.6315441108717
 20
-190.4800236885038
 30
0.0
  0
VERTEX
  5
182
  8
YAXIS_PRINTED_GEARS_VECTOR
 10
212.5985267808529
 20
-190.8521299081657
 30
0.0
  0
VERTEX
  5
183
  8
YAXIS_PRINTED_GEARS_VECTOR
 10
212.6301949776303
 20
-191.2126475940621
 30
0.0
  0
VERTEX
  5
184
  8
YAXIS_PRINTED_GEARS_VECTOR
 10
212.7226291076954
 20
-191.5582473492519
 30
0.0
  0
VERTEX
  5
185
  8
YAXIS_PRINTED_GEARS_VECTOR
 10
212.872587561036
 20
-191.8816998522824
 30
0.0
  0
VERTEX
  5
186
  8
YAXIS_PRINTED_GEARS_VECTOR
 10
213.0768287276389
 20
-192.1757757817012
 30
0.0
  0
VERTEX
  5
187
  8
YAXIS_PRINTED_GEARS_VECTOR
 10
213.3374626041392
 20
-192.4379087618316
 30
0.0
  0
VERTEX
  5
188
  8
YAXIS_PRINTED_GEARS_VECTOR
 10
213.6350351565909
 20
-192.6463922131487
 30
0.0
  0
VERTEX
  5
189
  8
YAXIS_PRINTED_GEARS_VECTOR
 10
213.9615559940162
 20
-192.7984769803464
 30
0.0
  0
VERTEX
  5
18A
  8
YAXIS_PRINTED_GEARS_VECTOR
 10
214.3090347254375
 20
-192.8914139081174
 30
0.0
  0
SEQEND
  5
559
  8
YAXIS_PRINTED_GEARS_VECTOR
  0
POLYLINE
  5
79
  8
YAXIS_PRINTED_GEARS_VECTOR
 66
     1
 10
0.0
 20
0.0
 30
0.0
 70
     1
  0
VERTEX
  5
18B
  8
YAXIS_PRINTED_GEARS_VECTOR
 10
119.9446293375422
 20
-167.9110721577575
 30
0.0
  0
VERTEX
  5
18C
  8
YAXIS_PRINTED_GEARS_VECTOR
 10
161.2396705115359
 20
-167.9110721577575
 30
0.0
  0
VERTEX
  5
18D
  8
YAXIS_PRINTED_GEARS_VECTOR
 10
161.2396705115359
 20
-168.6824621577576
 30
0.0
  0
VERTEX
  5
18E
  8
YAXIS_PRINTED_GEARS_VECTOR
 10
163.346710511536
 20
-169.4493621577577
 30
0.0
  0
VERTEX
  5
18F
  8
YAXIS_PRINTED_GEARS_VECTOR
 10
163.346710511536
 20
-170.1983021577579
 30
0.0
  0
VERTEX
  5
190
  8
YAXIS_PRINTED_GEARS_VECTOR
 10
161.2396705115359
 20
-170.9652021577577
 30
0.0
  0
VERTEX
  5
191
  8
YAXIS_PRINTED_GEARS_VECTOR
 10
161.2396705115359
 20
-171.7365921577579
 30
0.0
  0
VERTEX
  5
192
  8
YAXIS_PRINTED_GEARS_VECTOR
 10
163.346710511536
 20
-172.5034921577577
 30
0.0
  0
VERTEX
  5
193
  8
YAXIS_PRINTED_GEARS_VECTOR
 10
163.346710511536
 20
-173.2524221577577
 30
0.0
  0
VERTEX
  5
194
  8
YAXIS_PRINTED_GEARS_VECTOR
 10
161.2396705115359
 20
-174.0193321577575
 30
0.0
  0
VERTEX
  5
195
  8
YAXIS_PRINTED_GEARS_VECTOR
 10
161.2396705115359
 20
-174.7907221577578
 30
0.0
  0
VERTEX
  5
196
  8
YAXIS_PRINTED_GEARS_VECTOR
 10
163.346710511536
 20
-175.5576221577577
 30
0.0
  0
VERTEX
  5
197
  8
YAXIS_PRINTED_GEARS_VECTOR
 10
163.346710511536
 20
-176.3065521577577
 30
0.0
  0
VERTEX
  5
198
  8
YAXIS_PRINTED_GEARS_VECTOR
 10
161.2396705115359
 20
-177.0734621577577
 30
0.0
  0
VERTEX
  5
199
  8
YAXIS_PRINTED_GEARS_VECTOR
 10
161.220369512531
 20
-177.0885022140134
 30
0.0
  0
VERTEX
  5
19A
  8
YAXIS_PRINTED_GEARS_VECTOR
 10
161.201463369779
 20
-177.1042422339245
 30
0.0
  0
VERTEX
  5
19B
  8
YAXIS_PRINTED_GEARS_VECTOR
 10
161.1787354510237
 20
-177.2081912384891
 30
0.0
  0
VERTEX
  5
19C
  8
YAXIS_PRINTED_GEARS_VECTOR
 10
161.2059605581143
 20
-177.3118351212953
 30
0.0
  0
VERTEX
  5
19D
  8
YAXIS_PRINTED_GEARS_VECTOR
 10
161.2271007916274
 20
-177.3247283893655
 30
0.0
  0
VERTEX
  5
19E
  8
YAXIS_PRINTED_GEARS_VECTOR
 10
161.248441246878
 20
-177.3362911298276
 30
0.0
  0
VERTEX
  5
19F
  8
YAXIS_PRINTED_GEARS_VECTOR
 10
172.306454
 20
-177.3362911298276
 30
0.0
  0
VERTEX
  5
1A0
  8
YAXIS_PRINTED_GEARS_VECTOR
 10
172.3064539999967
 20
20.78971650688925
 30
0.0
 42
-0.0000130409114201
  0
VERTEX
  5
1A1
  8
YAXIS_PRINTED_GEARS_VECTOR
 10
161.23967051154
 20
20.78942786504888
 30
0.0
  0
VERTEX
  5
1A2
  8
YAXIS_PRINTED_GEARS_VECTOR
 10
161.239670511536
 20
20.66488976772769
 30
0.0
  0
VERTEX
  5
1A3
  8
YAXIS_PRINTED_GEARS_VECTOR
 10
163.346710511536
 20
19.89798976772761
 30
0.0
  0
VERTEX
  5
1A4
  8
YAXIS_PRINTED_GEARS_VECTOR
 10
163.346710511536
 20
19.14904976772766
 30
0.0
  0
VERTEX
  5
1A5
  8
YAXIS_PRINTED_GEARS_VECTOR
 10
161.239670511536
 20
18.38214976772758
 30
0.0
  0
VERTEX
  5
1A6
  8
YAXIS_PRINTED_GEARS_VECTOR
 10
161.239670511536
 20
17.61075976772747
 30
0.0
  0
VERTEX
  5
1A7
  8
YAXIS_PRINTED_GEARS_VECTOR
 10
163.346710511536
 20
16.84385976772762
 30
0.0
  0
VERTEX
  5
1A8
  8
YAXIS_PRINTED_GEARS_VECTOR
 10
163.346710511536
 20
16.09491976772767
 30
0.0
  0
VERTEX
  5
1A9
  8
YAXIS_PRINTED_GEARS_VECTOR
 10
161.239670511536
 20
15.3280197677276
 30
0.0
  0
VERTEX
  5
1AA
  8
YAXIS_PRINTED_GEARS_VECTOR
 10
161.239670511536
 20
14.55662976772749
 30
0.0
  0
VERTEX
  5
1AB
  8
YAXIS_PRINTED_GEARS_VECTOR
 10
163.346710511536
 20
13.78972976772764
 30
0.0
  0
VERTEX
  5
1AC
  8
YAXIS_PRINTED_GEARS_VECTOR
 10
163.346710511536
 20
13.04078976772769
 30
0.0
  0
VERTEX
  5
1AD
  8
YAXIS_PRINTED_GEARS_VECTOR
 10
161.239670511536
 20
12.27388976772761
 30
0.0
  0
VERTEX
  5
1AE
  8
YAXIS_PRINTED_GEARS_VECTOR
 10
161.2396705115359
 20
11.36449753479076
 30
0.0
  0
VERTEX
  5
1AF
  8
YAXIS_PRINTED_GEARS_VECTOR
 10
119.9446293375424
 20
11.36449753479076
 30
0.0
  0
VERTEX
  5
1B0
  8
YAXIS_PRINTED_GEARS_VECTOR
 10
118.835225741786
 20
11.33351661600921
 30
0.0
  0
VERTEX
  5
1B1
  8
YAXIS_PRINTED_GEARS_VECTOR
 10
117.7292077468899
 20
11.24095172732711
 30
0.0
  0
VERTEX
  5
1B2
  8
YAXIS_PRINTED_GEARS_VECTOR
 10
116.6299329977842
 20
11.08736967023776
 30
0.0
  0
VERTEX
  5
1B3
  8
YAXIS_PRINTED_GEARS_VECTOR
 10
115.5407591393994
 20
10.87333724623397
 30
0.0
  0
VERTEX
  5
1B4
  8
YAXIS_PRINTED_GEARS_VECTOR
 10
114.4650438166659
 20
10.59942125680971
 30
0.0
  0
VERTEX
  5
1B5
  8
YAXIS_PRINTED_GEARS_VECTOR
 10
113.4061446745136
 20
10.26618850345756
 30
0.0
  0
VERTEX
  5
1B6
  8
YAXIS_PRINTED_GEARS_VECTOR
 10
112.2800379413577
 20
9.838094013391697
 30
0.0
  0
VERTEX
  5
1B7
  8
YAXIS_PRINTED_GEARS_VECTOR
 10
111.1820764303266
 20
9.342652761979366
 30
0.0
  0
VERTEX
  5
1B8
  8
YAXIS_PRINTED_GEARS_VECTOR
 10
110.1159162264348
 20
8.78212572812447
 30
0.0
  0
VERTEX
  5
1B9
  8
YAXIS_PRINTED_GEARS_VECTOR
 10
109.0852134146967
 20
8.158773890730231
 30
0.0
  0
VERTEX
  5
1BA
  8
YAXIS_PRINTED_GEARS_VECTOR
 10
108.0936240801273
 20
7.474858228701009
 30
0.0
  0
VERTEX
  5
1BB
  8
YAXIS_PRINTED_GEARS_VECTOR
 10
107.1448043077407
 20
6.732639720940483
 30
0.0
  0
VERTEX
  5
1BC
  8
YAXIS_PRINTED_GEARS_VECTOR
 10
106.2424101825518
 20
5.934379346352102
 30
0.0
  0
VERTEX
  5
1BD
  8
YAXIS_PRINTED_GEARS_VECTOR
 10
105.384932938673
 20
5.077094243589841
 30
0.0
  0
VERTEX
  5
1BE
  8
YAXIS_PRINTED_GEARS_VECTOR
 10
104.5813684472337
 20
4.169328435041848
 30
0.0
  0
VERTEX
  5
1BF
  8
YAXIS_PRINTED_GEARS_VECTOR
 10
103.8341828591269
 20
3.214698462328101
 30
0.0
  0
VERTEX
  5
1C0
  8
YAXIS_PRINTED_GEARS_VECTOR
 10
103.1458423252454
 20
2.216820867068805
 30
0.0
  0
VERTEX
  5
1C1
  8
YAXIS_PRINTED_GEARS_VECTOR
 10
102.518812996482
 20
1.179312190883707
 30
0.0
  0
VERTEX
  5
1C2
  8
YAXIS_PRINTED_GEARS_VECTOR
 10
101.9555610237294
 20
0.105788975393466
 30
0.0
  0
VERTEX
  5
1C3
  8
YAXIS_PRINTED_GEARS_VECTOR
 10
101.4585525578805
 20
-1.000132237782168
 30
0.0
  0
VERTEX
  5
1C4
  8
YAXIS_PRINTED_GEARS_VECTOR
 10
101.0607028103332
 20
-2.046119237869448
 30
0.0
  0
VERTEX
  5
1C5
  8
YAXIS_PRINTED_GEARS_VECTOR
 10
100.7223215767901
 20
-3.112756471571515
 30
0.0
  0
VERTEX
  5
1C6
  8
YAXIS_PRINTED_GEARS_VECTOR
 10
100.4440427492059
 20
-4.196609833771504
 30
0.0
  0
VERTEX
  5
1C7
  8
YAXIS_PRINTED_GEARS_VECTOR
 10
100.2265002195345
 20
-5.294245219351865
 30
0.0
  0
VERTEX
  5
1C8
  8
YAXIS_PRINTED_GEARS_VECTOR
 10
100.0703278797307
 20
-6.402228523196641
 30
0.0
  0
VERTEX
  5
1C9
  8
YAXIS_PRINTED_GEARS_VECTOR
 10
99.9761596217486
 20
-7.517125640188056
 30
0.0
  0
VERTEX
  5
1CA
  8
YAXIS_PRINTED_GEARS_VECTOR
 10
99.94462933754244
 20
-8.635502465209242
 30
0.0
  0
VERTEX
  5
1CB
  8
YAXIS_PRINTED_GEARS_VECTOR
 10
99.94462933754176
 20
-147.9110721577578
 30
0.0
  0
VERTEX
  5
1CC
  8
YAXIS_PRINTED_GEARS_VECTOR
 10
99.98137798998323
 20
-149.1190917200205
 30
0.0
  0
VERTEX
  5
1CD
  8
YAXIS_PRINTED_GEARS_VECTOR
 10
100.0911205741252
 20
-150.3227578368327
 30
0.0
  0
VERTEX
  5
1CE
  8
YAXIS_PRINTED_GEARS_VECTOR
 10
100.2731020301947
 20
-151.5177227896526
 30
0.0
  0
VERTEX
  5
1CF
  8
YAXIS_PRINTED_GEARS_VECTOR
 10
100.5265672984181
 20
-152.6996388599397
 30
0.0
  0
VERTEX
  5
1D0
  8
YAXIS_PRINTED_GEARS_VECTOR
 10
100.8507613190225
 20
-153.8641583291529
 30
0.0
  0
VERTEX
  5
1D1
  8
YAXIS_PRINTED_GEARS_VECTOR
 10
101.2449290322345
 20
-155.0069334787512
 30
0.0
  0
VERTEX
  5
1D2
  8
YAXIS_PRINTED_GEARS_VECTOR
 10
101.7075747542021
 20
-156.1225021617983
 30
0.0
  0
VERTEX
  5
1D3
  8
YAXIS_PRINTED_GEARS_VECTOR
 10
102.2369009085592
 20
-157.2078536306957
 30
0.0
  0
VERTEX
  5
1D4
  8
YAXIS_PRINTED_GEARS_VECTOR
 10
102.8305707777904
 20
-158.2593420523666
 30
0.0
  0
VERTEX
  5
1D5
  8
YAXIS_PRINTED_GEARS_VECTOR
 10
103.4862476443807
 20
-159.2733215937327
 30
0.0
  0
VERTEX
  5
1D6
  8
YAXIS_PRINTED_GEARS_VECTOR
 10
104.2015947908153
 20
-160.2461464217157
 30
0.0
  0
VERTEX
  5
1D7
  8
YAXIS_PRINTED_GEARS_VECTOR
 10
104.9742754995791
 20
-161.1741707032385
 30
0.0
  0
VERTEX
  5
1D8
  8
YAXIS_PRINTED_GEARS_VECTOR
 10
105.8019530531574
 20
-162.0537486052227
 30
0.0
  0
VERTEX
  5
1D9
  8
YAXIS_PRINTED_GEARS_VECTOR
 10
106.6825498264163
 20
-162.8820332107756
 30
0.0
  0
VERTEX
  5
1DA
  8
YAXIS_PRINTED_GEARS_VECTOR
 10
107.6114989935979
 20
-163.6553525839776
 30
0.0
  0
VERTEX
  5
1DB
  8
YAXIS_PRINTED_GEARS_VECTOR
 10
108.5852322248543
 20
-164.3713247973036
 30
0.0
  0
VERTEX
  5
1DC
  8
YAXIS_PRINTED_GEARS_VECTOR
 10
109.6001811903379
 20
-165.027567923229
 30
0.0
  0
VERTEX
  5
1DD
  8
YAXIS_PRINTED_GEARS_VECTOR
 10
110.6527775602015
 20
-165.6217000342289
 30
0.0
  0
VERTEX
  5
1DE
  8
YAXIS_PRINTED_GEARS_VECTOR
 10
111.7394530045974
 20
-166.1513392027783
 30
0.0
  0
VERTEX
  5
1DF
  8
YAXIS_PRINTED_GEARS_VECTOR
 10
112.8553051469885
 20
-166.6132991223186
 30
0.0
  0
VERTEX
  5
1E0
  8
YAXIS_PRINTED_GEARS_VECTOR
 10
113.9971388947179
 20
-167.0064325447507
 30
0.0
  0
VERTEX
  5
1E1
  8
YAXIS_PRINTED_GEARS_VECTOR
 10
115.160628465617
 20
-167.3299214688594
 30
0.0
  0
VERTEX
  5
1E2
  8
YAXIS_PRINTED_GEARS_VECTOR
 10
116.3414480775177
 20
-167.5829478934296
 30
0.0
  0
VERTEX
  5
1E3
  8
YAXIS_PRINTED_GEARS_VECTOR
 10
117.535271948251
 20
-167.7646938172464
 30
0.0
  0
VERTEX
  5
1E4
  8
YAXIS_PRINTED_GEARS_VECTOR
 10
118.7377742956487
 20
-167.874341239094
 30
0.0
  0
SEQEND
  5
55A
  8
YAXIS_PRINTED_GEARS_VECTOR
  0
POLYLINE
  5
7A
  8
YAXIS_PRINTED_GEARS_VECTOR
 66
     1
 10
0.0
 20
0.0
 30
0.0
 70
     1
  0
VERTEX
  5
1E5
  8
YAXIS_PRINTED_GEARS_VECTOR
 10
194.211392179024
 20
-192.9224538411553
 30
0.0
  0
VERTEX
  5
1E6
  8
YAXIS_PRINTED_GEARS_VECTOR
 10
194.5885637799802
 20
-192.8879358320627
 30
0.0
  0
VERTEX
  5
1E7
  8
YAXIS_PRINTED_GEARS_VECTOR
 10
194.9415183038461
 20
-192.7902260843933
 30
0.0
  0
VERTEX
  5
1E8
  8
YAXIS_PRINTED_GEARS_VECTOR
 10
195.2648723015229
 20
-192.6354584170978
 30
0.0
  0
VERTEX
  5
1E9
  8
YAXIS_PRINTED_GEARS_VECTOR
 10
195.5532423239113
 20
-192.4297666491258
 30
0.0
  0
VERTEX
  5
1EA
  8
YAXIS_PRINTED_GEARS_VECTOR
 10
195.801244921912
 20
-192.1792845994281
 30
0.0
  0
VERTEX
  5
1EB
  8
YAXIS_PRINTED_GEARS_VECTOR
 10
196.0034966464261
 20
-191.8901460869546
 30
0.0
  0
VERTEX
  5
1EC
  8
YAXIS_PRINTED_GEARS_VECTOR
 10
196.1546140483542
 20
-191.5684849306559
 30
0.0
  0
VERTEX
  5
1ED
  8
YAXIS_PRINTED_GEARS_VECTOR
 10
196.2492136785971
 20
-191.2204349494822
 30
0.0
  0
VERTEX
  5
1EE
  8
YAXIS_PRINTED_GEARS_VECTOR
 10
196.2819120880558
 20
-190.8521299623836
 30
0.0
  0
VERTEX
  5
1EF
  8
YAXIS_PRINTED_GEARS_VECTOR
 10
196.248576161344
 20
-190.479848689521
 30
0.0
  0
VERTEX
  5
1F0
  8
YAXIS_PRINTED_GEARS_VECTOR
 10
196.1525289385129
 20
-190.1295199758089
 30
0.0
  0
VERTEX
  5
1F1
  8
YAXIS_PRINTED_GEARS_VECTOR
 10
195.9995693715325
 20
-189.8069816881529
 30
0.0
  0
VERTEX
  5
1F2
  8
YAXIS_PRINTED_GEARS_VECTOR
 10
195.7954964123728
 20
-189.5180716934573
 30
0.0
  0
VERTEX
  5
1F3
  8
YAXIS_PRINTED_GEARS_VECTOR
 10
195.5461090130038
 20
-189.2686278586272
 30
0.0
  0
VERTEX
  5
1F4
  8
YAXIS_PRINTED_GEARS_VECTOR
 10
195.2572061253954
 20
-189.0644880505675
 30
0.0
  0
VERTEX
  5
1F5
  8
YAXIS_PRINTED_GEARS_VECTOR
 10
194.9345867015177
 20
-188.911490136183
 30
0.0
  0
VERTEX
  5
1F6
  8
YAXIS_PRINTED_GEARS_VECTOR
 10
194.5840496933406
 20
-188.8154719823787
 30
0.0
  0
VERTEX
  5
1F7
  8
YAXIS_PRINTED_GEARS_VECTOR
 10
194.2113940528341
 20
-188.7822714560592
 30
0.0
  0
VERTEX
  5
1F8
  8
YAXIS_PRINTED_GEARS_VECTOR
 10
193.8376765921315
 20
-188.8157342016501
 30
0.0
  0
VERTEX
  5
1F9
  8
YAXIS_PRINTED_GEARS_VECTOR
 10
193.4864925232155
 20
-188.9119272238721
 30
0.0
  0
VERTEX
  5
1FA
  8
YAXIS_PRINTED_GEARS_VECTOR
 10
193.163571595957
 20
-189.0650219963335
 30
0.0
  0
VERTEX
  5
1FB
  8
YAXIS_PRINTED_GEARS_VECTOR
 10
192.8746435602272
 20
-189.2691899926421
 30
0.0
  0
VERTEX
  5
1FC
  8
YAXIS_PRINTED_GEARS_VECTOR
 10
192.6254381658975
 20
-189.5186026864052
 30
0.0
  0
VERTEX
  5
1FD
  8
YAXIS_PRINTED_GEARS_VECTOR
 10
192.4216851628387
 20
-189.8074315512314
 30
0.0
  0
VERTEX
  5
1FE
  8
YAXIS_PRINTED_GEARS_VECTOR
 10
192.269114300922
 20
-190.1298480607282
 30
0.0
  0
VERTEX
  5
1FF
  8
YAXIS_PRINTED_GEARS_VECTOR
 10
192.1734553300187
 20
-190.4800236885038
 30
0.0
  0
VERTEX
  5
200
  8
YAXIS_PRINTED_GEARS_VECTOR
 10
192.1404379999999
 20
-190.8521299081657
 30
0.0
  0
VERTEX
  5
201
  8
YAXIS_PRINTED_GEARS_VECTOR
 10
192.1721061967771
 20
-191.2126475940621
 30
0.0
  0
VERTEX
  5
202
  8
YAXIS_PRINTED_GEARS_VECTOR
 10
192.2645403268423
 20
-191.5582473492522
 30
0.0
  0
VERTEX
  5
203
  8
YAXIS_PRINTED_GEARS_VECTOR
 10
192.4144987801828
 20
-191.8816998522824
 30
0.0
  0
VERTEX
  5
204
  8
YAXIS_PRINTED_GEARS_VECTOR
 10
192.6187399467859
 20
-192.1757757817012
 30
0.0
  0
VERTEX
  5
205
  8
YAXIS_PRINTED_GEARS_VECTOR
 10
192.8793738232862
 20
-192.4379087618316
 30
0.0
  0
VERTEX
  5
206
  8
YAXIS_PRINTED_GEARS_VECTOR
 10
193.1769463757379
 20
-192.6463922131489
 30
0.0
  0
VERTEX
  5
207
  8
YAXIS_PRINTED_GEARS_VECTOR
 10
193.503467213163
 20
-192.7984769803464
 30
0.0
  0
VERTEX
  5
208
  8
YAXIS_PRINTED_GEARS_VECTOR
 10
193.8509459445845
 20
-192.8914139081174
 30
0.0
  0
SEQEND
  5
55B
  8
YAXIS_PRINTED_GEARS_VECTOR
  0
POLYLINE
  5
7B
  8
YAXIS_PRINTED_GEARS_VECTOR
 66
     1
 10
0.0
 20
0.0
 30
0.0
 70
     1
  0
VERTEX
  5
209
  8
YAXIS_PRINTED_GEARS_VECTOR
 10
48.17034764533082
 20
31.21061655359779
 30
0.0
  0
VERTEX
  5
20A
  8
YAXIS_PRINTED_GEARS_VECTOR
 10
48.50691650935869
 20
31.13123671480082
 30
0.0
  0
VERTEX
  5
20B
  8
YAXIS_PRINTED_GEARS_VECTOR
 10
48.84651852927573
 20
31.11312446923296
 30
0.0
  0
VERTEX
  5
20C
  8
YAXIS_PRINTED_GEARS_VECTOR
 10
49.18126200527377
 20
31.1533656537091
 30
0.0
  0
VERTEX
  5
20D
  8
YAXIS_PRINTED_GEARS_VECTOR
 10
49.50325523754486
 20
31.24904610504416
 30
0.0
  0
VERTEX
  5
20E
  8
YAXIS_PRINTED_GEARS_VECTOR
 10
49.80460652628062
 20
31.39725166005348
 30
0.0
  0
VERTEX
  5
20F
  8
YAXIS_PRINTED_GEARS_VECTOR
 10
50.0774241716731
 20
31.59506815555244
 30
0.0
  0
VERTEX
  5
210
  8
YAXIS_PRINTED_GEARS_VECTOR
 10
50.31381647391368
 20
31.83958142835547
 30
0.0
  0
VERTEX
  5
211
  8
YAXIS_PRINTED_GEARS_VECTOR
 10
50.5058917331944
 20
32.12787731527817
 30
0.0
  0
VERTEX
  5
212
  8
YAXIS_PRINTED_GEARS_VECTOR
 10
50.64160634159725
 20
32.44932597960144
 30
0.0
  0
VERTEX
  5
213
  8
YAXIS_PRINTED_GEARS_VECTOR
 10
50.71335182353414
 20
32.78437695597165
 30
0.0
  0
VERTEX
  5
214
  8
YAXIS_PRINTED_GEARS_VECTOR
 10
50.72397416472563
 20
33.12428592712047
 30
0.0
  0
VERTEX
  5
215
  8
YAXIS_PRINTED_GEARS_VECTOR
 10
50.67631935089344
 20
33.46030857577887
 30
0.0
  0
VERTEX
  5
216
  8
YAXIS_PRINTED_GEARS_VECTOR
 10
50.57323336775835
 20
33.78370058467874
 30
0.0
  0
VERTEX
  5
217
  8
YAXIS_PRINTED_GEARS_VECTOR
 10
50.41756220104185
 20
34.08571763655129
 30
0.0
  0
VERTEX
  5
218
  8
YAXIS_PRINTED_GEARS_VECTOR
 10
50.21215183646495
 20
34.35761541412796
 30
0.0
  0
VERTEX
  5
219
  8
YAXIS_PRINTED_GEARS_VECTOR
 10
49.9598482597487
 20
34.59064960014041
 30
0.0
  0
VERTEX
  5
21A
  8
YAXIS_PRINTED_GEARS_VECTOR
 10
49.66349745661455
 20
34.77607587731984
 30
0.0
  0
VERTEX
  5
21B
  8
YAXIS_PRINTED_GEARS_VECTOR
 10
49.32845361277396
 20
34.90411742021217
 30
0.0
  0
VERTEX
  5
21C
  8
YAXIS_PRINTED_GEARS_VECTOR
 10
48.98175756602768
 20
34.96443485208522
 30
0.0
  0
VERTEX
  5
21D
  8
YAXIS_PRINTED_GEARS_VECTOR
 10
48.63266297887253
 20
34.96050074105972
 30
0.0
  0
VERTEX
  5
21E
  8
YAXIS_PRINTED_GEARS_VECTOR
 10
48.29042351380576
 20
34.8957876552555
 30
0.0
  0
VERTEX
  5
21F
  8
YAXIS_PRINTED_GEARS_VECTOR
 10
47.96429283332441
 20
34.77376816279309
 30
0.0
  0
VERTEX
  5
220
  8
YAXIS_PRINTED_GEARS_VECTOR
 10
47.66352459992595
 20
34.59791483179299
 30
0.0
  0
VERTEX
  5
221
  8
YAXIS_PRINTED_GEARS_VECTOR
 10
47.39737247610719
 20
34.37170023037595
 30
0.0
  0
VERTEX
  5
222
  8
YAXIS_PRINTED_GEARS_VECTOR
 10
47.17509012436562
 20
34.0985969266618
 30
0.0
  0
VERTEX
  5
223
  8
YAXIS_PRINTED_GEARS_VECTOR
 10
47.00593120719827
 20
33.78207748877105
 30
0.0
  0
VERTEX
  5
224
  8
YAXIS_PRINTED_GEARS_VECTOR
 10
46.90244621551301
 20
33.44063143821188
 30
0.0
  0
VERTEX
  5
225
  8
YAXIS_PRINTED_GEARS_VECTOR
 10
46.86651929276582
 20
33.09203886499802
 30
0.0
  0
VERTEX
  5
226
  8
YAXIS_PRINTED_GEARS_VECTOR
 10
46.89414675897478
 20
32.74533343978862
 30
0.0
  0
VERTEX
  5
227
  8
YAXIS_PRINTED_GEARS_VECTOR
 10
46.98132493415778
 20
32.40954883324423
 30
0.0
  0
VERTEX
  5
228
  8
YAXIS_PRINTED_GEARS_VECTOR
 10
47.12405013833404
 20
32.09371871602491
 30
0.0
  0
VERTEX
  5
229
  8
YAXIS_PRINTED_GEARS_VECTOR
 10
47.31831869152074
 20
31.80687675879074
 30
0.0
  0
VERTEX
  5
22A
  8
YAXIS_PRINTED_GEARS_VECTOR
 10
47.56012691373712
 20
31.55805663220133
 30
0.0
  0
VERTEX
  5
22B
  8
YAXIS_PRINTED_GEARS_VECTOR
 10
47.84547112500104
 20
31.35629200691699
 30
0.0
  0
SEQEND
  5
55C
  8
YAXIS_PRINTED_GEARS_VECTOR
  0
POLYLINE
  5
7C
  8
YAXIS_PRINTED_GEARS_VECTOR
 66
     1
 10
0.0
 20
0.0
 30
0.0
 70
     1
  0
VERTEX
  5
22C
  8
YAXIS_PRINTED_GEARS_VECTOR
 10
194.211392179024
 20
32.20619197517578
 30
0.0
  0
VERTEX
  5
22D
  8
YAXIS_PRINTED_GEARS_VECTOR
 10
194.5885637799802
 20
32.24070998426839
 30
0.0
  0
VERTEX
  5
22E
  8
YAXIS_PRINTED_GEARS_VECTOR
 10
194.9415183038461
 20
32.33841973193773
 30
0.0
  0
VERTEX
  5
22F
  8
YAXIS_PRINTED_GEARS_VECTOR
 10
195.2648723015229
 20
32.49318739923331
 30
0.0
  0
VERTEX
  5
230
  8
YAXIS_PRINTED_GEARS_VECTOR
 10
195.5532423239113
 20
32.69887916720529
 30
0.0
  0
VERTEX
  5
231
  8
YAXIS_PRINTED_GEARS_VECTOR
 10
195.801244921912
 20
32.94936121690318
 30
0.0
  0
VERTEX
  5
232
  8
YAXIS_PRINTED_GEARS_VECTOR
 10
196.0034966464261
 20
33.23849972937671
 30
0.0
  0
VERTEX
  5
233
  8
YAXIS_PRINTED_GEARS_VECTOR
 10
196.1546140483541
 20
33.56016088567537
 30
0.0
  0
VERTEX
  5
234
  8
YAXIS_PRINTED_GEARS_VECTOR
 10
196.2492136785971
 20
33.90821086684912
 30
0.0
  0
VERTEX
  5
235
  8
YAXIS_PRINTED_GEARS_VECTOR
 10
196.2819120880558
 20
34.27651585394767
 30
0.0
  0
VERTEX
  5
236
  8
YAXIS_PRINTED_GEARS_VECTOR
 10
196.2485761613439
 20
34.64879712681034
 30
0.0
  0
VERTEX
  5
237
  8
YAXIS_PRINTED_GEARS_VECTOR
 10
196.1525289385128
 20
34.9991258405222
 30
0.0
  0
VERTEX
  5
238
  8
YAXIS_PRINTED_GEARS_VECTOR
 10
195.9995693715325
 20
35.32166412817844
 30
0.0
  0
VERTEX
  5
239
  8
YAXIS_PRINTED_GEARS_VECTOR
 10
195.7954964123728
 20
35.61057412287403
 30
0.0
  0
VERTEX
  5
23A
  8
YAXIS_PRINTED_GEARS_VECTOR
 10
195.5461090130037
 20
35.86001795770392
 30
0.0
  0
VERTEX
  5
23B
  8
YAXIS_PRINTED_GEARS_VECTOR
 10
195.2572061253954
 20
36.06415776576353
 30
0.0
  0
VERTEX
  5
23C
  8
YAXIS_PRINTED_GEARS_VECTOR
 10
194.9345867015177
 20
36.21715568014804
 30
0.0
  0
VERTEX
  5
23D
  8
YAXIS_PRINTED_GEARS_VECTOR
 10
194.5840496933405
 20
36.31317383395265
 30
0.0
  0
VERTEX
  5
23E
  8
YAXIS_PRINTED_GEARS_VECTOR
 10
194.2113940528341
 20
36.34637436027208
 30
0.0
  0
VERTEX
  5
23F
  8
YAXIS_PRINTED_GEARS_VECTOR
 10
193.8376765921315
 20
36.31291161468118
 30
0.0
  0
VERTEX
  5
240
  8
YAXIS_PRINTED_GEARS_VECTOR
 10
193.4864925232155
 20
36.21671859245919
 30
0.0
  0
VERTEX
  5
241
  8
YAXIS_PRINTED_GEARS_VECTOR
 10
193.1635715959569
 20
36.06362381999782
 30
0.0
  0
VERTEX
  5
242
  8
YAXIS_PRINTED_GEARS_VECTOR
 10
192.8746435602272
 20
35.85945582368925
 30
0.0
  0
VERTEX
  5
243
  8
YAXIS_PRINTED_GEARS_VECTOR
 10
192.6254381658974
 20
35.61004312992588
 30
0.0
  0
VERTEX
  5
244
  8
YAXIS_PRINTED_GEARS_VECTOR
 10
192.4216851628387
 20
35.32121426509968
 30
0.0
  0
VERTEX
  5
245
  8
YAXIS_PRINTED_GEARS_VECTOR
 10
192.269114300922
 20
34.99879775560305
 30
0.0
  0
VERTEX
  5
246
  8
YAXIS_PRINTED_GEARS_VECTOR
 10
192.1734553300187
 20
34.64862212782748
 30
0.0
  0
VERTEX
  5
247
  8
YAXIS_PRINTED_GEARS_VECTOR
 10
192.1404379999998
 20
34.27651590816561
 30
0.0
  0
VERTEX
  5
248
  8
YAXIS_PRINTED_GEARS_VECTOR
 10
192.1721061967771
 20
33.9159982222692
 30
0.0
  0
VERTEX
  5
249
  8
YAXIS_PRINTED_GEARS_VECTOR
 10
192.2645403268423
 20
33.57039846707914
 30
0.0
  0
VERTEX
  5
24A
  8
YAXIS_PRINTED_GEARS_VECTOR
 10
192.4144987801828
 20
33.24694596404868
 30
0.0
  0
VERTEX
  5
24B
  8
YAXIS_PRINTED_GEARS_VECTOR
 10
192.6187399467859
 20
32.95287003463011
 30
0.0
  0
VERTEX
  5
24C
  8
YAXIS_PRINTED_GEARS_VECTOR
 10
192.8793738232862
 20
32.69073705449944
 30
0.0
  0
VERTEX
  5
24D
  8
YAXIS_PRINTED_GEARS_VECTOR
 10
193.1769463757378
 20
32.48225360318213
 30
0.0
  0
VERTEX
  5
24E
  8
YAXIS_PRINTED_GEARS_VECTOR
 10
193.503467213163
 20
32.33016883598486
 30
0.0
  0
VERTEX
  5
24F
  8
YAXIS_PRINTED_GEARS_VECTOR
 10
193.8509459445844
 20
32.23723190821386
 30
0.0
  0
SEQEND
  5
55D
  8
YAXIS_PRINTED_GEARS_VECTOR
  0
POLYLINE
  5
7D
  8
YAXIS_PRINTED_GEARS_VECTOR
 66
     1
 10
0.0
 20
0.0
 30
0.0
 70
     1
  0
VERTEX
  5
250
  8
YAXIS_PRINTED_GEARS_VECTOR
 10
39.27706706473396
 20
-192.907958742425
 30
0.0
  0
VERTEX
  5
251
  8
YAXIS_PRINTED_GEARS_VECTOR
 10
39.65386841392728
 20
-192.8735106292455
 30
0.0
  0
VERTEX
  5
252
  8
YAXIS_PRINTED_GEARS_VECTOR
 10
40.00662842890824
 20
-192.7759250539126
 30
0.0
  0
VERTEX
  5
253
  8
YAXIS_PRINTED_GEARS_VECTOR
 10
40.32992619637889
 20
-192.621304793979
 30
0.0
  0
VERTEX
  5
254
  8
YAXIS_PRINTED_GEARS_VECTOR
 10
40.61834080304106
 20
-192.4157526269972
 30
0.0
  0
VERTEX
  5
255
  8
YAXIS_PRINTED_GEARS_VECTOR
 10
40.8664513355975
 20
-192.1653713305194
 30
0.0
  0
VERTEX
  5
256
  8
YAXIS_PRINTED_GEARS_VECTOR
 10
41.06883688075004
 20
-191.8762636820983
 30
0.0
  0
VERTEX
  5
257
  8
YAXIS_PRINTED_GEARS_VECTOR
 10
41.22007652520097
 20
-191.5545324592866
 30
0.0
  0
VERTEX
  5
258
  8
YAXIS_PRINTED_GEARS_VECTOR
 10
41.31474935565211
 20
-191.2062804396368
 30
0.0
  0
VERTEX
  5
259
  8
YAXIS_PRINTED_GEARS_VECTOR
 10
41.34743445880599
 20
-190.8376104007012
 30
0.0
  0
VERTEX
  5
25A
  8
YAXIS_PRINTED_GEARS_VECTOR
 10
41.31438500378795
 20
-190.4673494190191
 30
0.0
  0
VERTEX
  5
25B
  8
YAXIS_PRINTED_GEARS_VECTOR
 10
41.21916228966302
 20
-190.1181755345712
 30
0.0
  0
VERTEX
  5
25C
  8
YAXIS_PRINTED_GEARS_VECTOR
 10
41.06730579159967
 20
-189.7960858385844
 30
0.0
  0
VERTEX
  5
25D
  8
YAXIS_PRINTED_GEARS_VECTOR
 10
40.86435498476612
 20
-189.5070774222874
 30
0.0
  0
VERTEX
  5
25E
  8
YAXIS_PRINTED_GEARS_VECTOR
 10
40.61584934433131
 20
-189.257147376907
 30
0.0
  0
VERTEX
  5
25F
  8
YAXIS_PRINTED_GEARS_VECTOR
 10
40.32732834546368
 20
-189.0522927936717
 30
0.0
  0
VERTEX
  5
260
  8
YAXIS_PRINTED_GEARS_VECTOR
 10
40.00433146333216
 20
-188.898510763809
 30
0.0
  0
VERTEX
  5
261
  8
YAXIS_PRINTED_GEARS_VECTOR
 10
39.65239817310476
 20
-188.8017983785463
 30
0.0
  0
VERTEX
  5
262
  8
YAXIS_PRINTED_GEARS_VECTOR
 10
39.27706794995015
 20
-188.7681527291119
 30
0.0
  0
VERTEX
  5
263
  8
YAXIS_PRINTED_GEARS_VECTOR
 10
38.90335096579884
 20
-188.8013904457954
 30
0.0
  0
VERTEX
  5
264
  8
YAXIS_PRINTED_GEARS_VECTOR
 10
38.55216721516922
 20
-188.8974343704919
 30
0.0
  0
VERTEX
  5
265
  8
YAXIS_PRINTED_GEARS_VECTOR
 10
38.22924647522154
 20
-189.0504427716763
 30
0.0
  0
VERTEX
  5
266
  8
YAXIS_PRINTED_GEARS_VECTOR
 10
37.94031852311628
 20
-189.2545739178244
 30
0.0
  0
VERTEX
  5
267
  8
YAXIS_PRINTED_GEARS_VECTOR
 10
37.69111313601479
 20
-189.5039860774108
 30
0.0
  0
VERTEX
  5
268
  8
YAXIS_PRINTED_GEARS_VECTOR
 10
37.48736009107688
 20
-189.7928375189111
 30
0.0
  0
VERTEX
  5
269
  8
YAXIS_PRINTED_GEARS_VECTOR
 10
37.33478916546346
 20
-190.115286510801
 30
0.0
  0
VERTEX
  5
26A
  8
YAXIS_PRINTED_GEARS_VECTOR
 10
37.23913013633523
 20
-190.4654913215551
 30
0.0
  0
VERTEX
  5
26B
  8
YAXIS_PRINTED_GEARS_VECTOR
 10
37.20611278085289
 20
-190.8376102196493
 30
0.0
  0
VERTEX
  5
26C
  8
YAXIS_PRINTED_GEARS_VECTOR
 10
37.23778100057712
 20
-191.1981280181025
 30
0.0
  0
VERTEX
  5
26D
  8
YAXIS_PRINTED_GEARS_VECTOR
 10
37.3302151686928
 20
-191.5437278159355
 30
0.0
  0
VERTEX
  5
26E
  8
YAXIS_PRINTED_GEARS_VECTOR
 10
37.48017362924497
 20
-191.8671802842917
 30
0.0
  0
VERTEX
  5
26F
  8
YAXIS_PRINTED_GEARS_VECTOR
 10
37.6844147262791
 20
-192.161256094313
 30
0.0
  0
VERTEX
  5
270
  8
YAXIS_PRINTED_GEARS_VECTOR
 10
37.94504878758653
 20
-192.4233870710167
 30
0.0
  0
VERTEX
  5
271
  8
YAXIS_PRINTED_GEARS_VECTOR
 10
38.24262144819932
 20
-192.631867199403
 30
0.0
  0
VERTEX
  5
272
  8
YAXIS_PRINTED_GEARS_VECTOR
 10
38.56914231200403
 20
-192.7839521042482
 30
0.0
  0
VERTEX
  5
273
  8
YAXIS_PRINTED_GEARS_VECTOR
 10
38.9166209828868
 20
-192.8768974103303
 30
0.0
  0
SEQEND
  5
55E
  8
YAXIS_PRINTED_GEARS_VECTOR
  0
POLYLINE
  5
7E
  8
YAXIS_PRINTED_GEARS_VECTOR
 66
     1
 10
0.0
 20
0.0
 30
0.0
 70
     1
  0
VERTEX
  5
274
  8
YAXIS_PRINTED_GEARS_VECTOR
 10
18.81898104012271
 20
-192.9079341526389
 30
0.0
  0
VERTEX
  5
275
  8
YAXIS_PRINTED_GEARS_VECTOR
 10
18.44180943916672
 20
-192.8734161435463
 30
0.0
  0
VERTEX
  5
276
  8
YAXIS_PRINTED_GEARS_VECTOR
 10
18.08885491530077
 20
-192.7757063958771
 30
0.0
  0
VERTEX
  5
277
  8
YAXIS_PRINTED_GEARS_VECTOR
 10
17.76550091762397
 20
-192.6209387285813
 30
0.0
  0
VERTEX
  5
278
  8
YAXIS_PRINTED_GEARS_VECTOR
 10
17.47713089523563
 20
-192.4152469606094
 30
0.0
  0
VERTEX
  5
279
  8
YAXIS_PRINTED_GEARS_VECTOR
 10
17.22912829723487
 20
-192.1647649109117
 30
0.0
  0
VERTEX
  5
27A
  8
YAXIS_PRINTED_GEARS_VECTOR
 10
17.02687657272077
 20
-191.8756263984382
 30
0.0
  0
VERTEX
  5
27B
  8
YAXIS_PRINTED_GEARS_VECTOR
 10
16.87575917079266
 20
-191.5539652421393
 30
0.0
  0
VERTEX
  5
27C
  8
YAXIS_PRINTED_GEARS_VECTOR
 10
16.78115954054965
 20
-191.2059152609658
 30
0.0
  0
VERTEX
  5
27D
  8
YAXIS_PRINTED_GEARS_VECTOR
 10
16.74846113109106
 20
-190.837610273867
 30
0.0
  0
VERTEX
  5
27E
  8
YAXIS_PRINTED_GEARS_VECTOR
 10
16.78179705780303
 20
-190.4653290010043
 30
0.0
  0
VERTEX
  5
27F
  8
YAXIS_PRINTED_GEARS_VECTOR
 10
16.87784428063401
 20
-190.1150002872922
 30
0.0
  0
VERTEX
  5
280
  8
YAXIS_PRINTED_GEARS_VECTOR
 10
17.03080384761438
 20
-189.7924619996364
 30
0.0
  0
VERTEX
  5
281
  8
YAXIS_PRINTED_GEARS_VECTOR
 10
17.23487680677408
 20
-189.5035520049408
 30
0.0
  0
VERTEX
  5
282
  8
YAXIS_PRINTED_GEARS_VECTOR
 10
17.48426420614305
 20
-189.254108170111
 30
0.0
  0
VERTEX
  5
283
  8
YAXIS_PRINTED_GEARS_VECTOR
 10
17.77316709375145
 20
-189.0499683620513
 30
0.0
  0
VERTEX
  5
284
  8
YAXIS_PRINTED_GEARS_VECTOR
 10
18.09578651762922
 20
-188.8969704476666
 30
0.0
  0
VERTEX
  5
285
  8
YAXIS_PRINTED_GEARS_VECTOR
 10
18.44632352580629
 20
-188.8009522938622
 30
0.0
  0
VERTEX
  5
286
  8
YAXIS_PRINTED_GEARS_VECTOR
 10
18.81897916631283
 20
-188.7677517675428
 30
0.0
  0
VERTEX
  5
287
  8
YAXIS_PRINTED_GEARS_VECTOR
 10
19.19269662701527
 20
-188.8012145131335
 30
0.0
  0
VERTEX
  5
288
  8
YAXIS_PRINTED_GEARS_VECTOR
 10
19.54388069593142
 20
-188.8974075353557
 30
0.0
  0
VERTEX
  5
289
  8
YAXIS_PRINTED_GEARS_VECTOR
 10
19.86680162318999
 20
-189.0505023078171
 30
0.0
  0
VERTEX
  5
28A
  8
YAXIS_PRINTED_GEARS_VECTOR
 10
20.15572965891965
 20
-189.2546703041256
 30
0.0
  0
VERTEX
  5
28B
  8
YAXIS_PRINTED_GEARS_VECTOR
 10
20.40493505324957
 20
-189.5040829978888
 30
0.0
  0
VERTEX
  5
28C
  8
YAXIS_PRINTED_GEARS_VECTOR
 10
20.60868805630821
 20
-189.792911862715
 30
0.0
  0
VERTEX
  5
28D
  8
YAXIS_PRINTED_GEARS_VECTOR
 10
20.76125891822494
 20
-190.1153283722118
 30
0.0
  0
VERTEX
  5
28E
  8
YAXIS_PRINTED_GEARS_VECTOR
 10
20.856917889128
 20
-190.4655039999874
 30
0.0
  0
VERTEX
  5
28F
  8
YAXIS_PRINTED_GEARS_VECTOR
 10
20.88993521914699
 20
-190.8376102196493
 30
0.0
  0
VERTEX
  5
290
  8
YAXIS_PRINTED_GEARS_VECTOR
 10
20.85826702236977
 20
-191.1981279055457
 30
0.0
  0
VERTEX
  5
291
  8
YAXIS_PRINTED_GEARS_VECTOR
 10
20.76583289230439
 20
-191.5437276607355
 30
0.0
  0
VERTEX
  5
292
  8
YAXIS_PRINTED_GEARS_VECTOR
 10
20.61587443896406
 20
-191.867180163766
 30
0.0
  0
VERTEX
  5
293
  8
YAXIS_PRINTED_GEARS_VECTOR
 10
20.41163327236109
 20
-192.1612560931848
 30
0.0
  0
VERTEX
  5
294
  8
YAXIS_PRINTED_GEARS_VECTOR
 10
20.15099939586071
 20
-192.4233890733152
 30
0.0
  0
VERTEX
  5
295
  8
YAXIS_PRINTED_GEARS_VECTOR
 10
19.85342684340912
 20
-192.6318725246325
 30
0.0
  0
VERTEX
  5
296
  8
YAXIS_PRINTED_GEARS_VECTOR
 10
19.52690600598362
 20
-192.78395729183
 30
0.0
  0
VERTEX
  5
297
  8
YAXIS_PRINTED_GEARS_VECTOR
 10
19.17942727456239
 20
-192.876894219601
 30
0.0
  0
SEQEND
  5
55F
  8
YAXIS_PRINTED_GEARS_VECTOR
  0
POLYLINE
  5
7F
  8
YAXIS_PRINTED_GEARS_VECTOR
 66
     1
 10
0.0
 20
0.0
 30
0.0
 70
     1
  0
VERTEX
  5
298
  8
YAXIS_PRINTED_GEARS_VECTOR
 10
39.27706982097584
 20
32.20619197517578
 30
0.0
  0
VERTEX
  5
299
  8
YAXIS_PRINTED_GEARS_VECTOR
 10
38.89989822001985
 20
32.24070998426839
 30
0.0
  0
VERTEX
  5
29A
  8
YAXIS_PRINTED_GEARS_VECTOR
 10
38.5469436961539
 20
32.33841973193773
 30
0.0
  0
VERTEX
  5
29B
  8
YAXIS_PRINTED_GEARS_VECTOR
 10
38.2235896984771
 20
32.49318739923331
 30
0.0
  0
VERTEX
  5
29C
  8
YAXIS_PRINTED_GEARS_VECTOR
 10
37.93521967608876
 20
32.69887916720529
 30
0.0
  0
VERTEX
  5
29D
  8
YAXIS_PRINTED_GEARS_VECTOR
 10
37.687217078088
 20
32.94936121690318
 30
0.0
  0
VERTEX
  5
29E
  8
YAXIS_PRINTED_GEARS_VECTOR
 10
37.4849653535739
 20
33.23849972937671
 30
0.0
  0
VERTEX
  5
29F
  8
YAXIS_PRINTED_GEARS_VECTOR
 10
37.33384795164579
 20
33.56016088567537
 30
0.0
  0
VERTEX
  5
2A0
  8
YAXIS_PRINTED_GEARS_VECTOR
 10
37.23924832140278
 20
33.90821086684912
 30
0.0
  0
VERTEX
  5
2A1
  8
YAXIS_PRINTED_GEARS_VECTOR
 10
37.20654991194397
 20
34.27651585394767
 30
0.0
  0
VERTEX
  5
2A2
  8
YAXIS_PRINTED_GEARS_VECTOR
 10
37.23988583865594
 20
34.64879712681034
 30
0.0
  0
VERTEX
  5
2A3
  8
YAXIS_PRINTED_GEARS_VECTOR
 10
37.33593306148714
 20
34.9991258405222
 30
0.0
  0
VERTEX
  5
2A4
  8
YAXIS_PRINTED_GEARS_VECTOR
 10
37.48889262846751
 20
35.32166412817844
 30
0.0
  0
VERTEX
  5
2A5
  8
YAXIS_PRINTED_GEARS_VECTOR
 10
37.69296558762699
 20
35.61057412287403
 30
0.0
  0
VERTEX
  5
2A6
  8
YAXIS_PRINTED_GEARS_VECTOR
 10
37.94235298699618
 20
35.86001795770392
 30
0.0
  0
VERTEX
  5
2A7
  8
YAXIS_PRINTED_GEARS_VECTOR
 10
38.23125587460436
 20
36.06415776576353
 30
0.0
  0
VERTEX
  5
2A8
  8
YAXIS_PRINTED_GEARS_VECTOR
 10
38.55387529848213
 20
36.21715568014804
 30
0.0
  0
VERTEX
  5
2A9
  8
YAXIS_PRINTED_GEARS_VECTOR
 10
38.9044123066592
 20
36.31317383395265
 30
0.0
  0
VERTEX
  5
2AA
  8
YAXIS_PRINTED_GEARS_VECTOR
 10
39.27706794716596
 20
36.34637436027208
 30
0.0
  0
VERTEX
  5
2AB
  8
YAXIS_PRINTED_GEARS_VECTOR
 10
39.6507854078684
 20
36.31291161468118
 30
0.0
  0
VERTEX
  5
2AC
  8
YAXIS_PRINTED_GEARS_VECTOR
 10
40.00196947678455
 20
36.21671859245919
 30
0.0
  0
VERTEX
  5
2AD
  8
YAXIS_PRINTED_GEARS_VECTOR
 10
40.32489040404289
 20
36.06362381999782
 30
0.0
  0
VERTEX
  5
2AE
  8
YAXIS_PRINTED_GEARS_VECTOR
 10
40.61381843977279
 20
35.85945582368925
 30
0.0
  0
VERTEX
  5
2AF
  8
YAXIS_PRINTED_GEARS_VECTOR
 10
40.86302383410248
 20
35.61004312992588
 30
0.0
  0
VERTEX
  5
2B0
  8
YAXIS_PRINTED_GEARS_VECTOR
 10
41.06677683716134
 20
35.32121426509968
 30
0.0
  0
VERTEX
  5
2B1
  8
YAXIS_PRINTED_GEARS_VECTOR
 10
41.21934769907784
 20
34.99879775560305
 30
0.0
  0
VERTEX
  5
2B2
  8
YAXIS_PRINTED_GEARS_VECTOR
 10
41.31500666998136
 20
34.64862212782748
 30
0.0
  0
VERTEX
  5
2B3
  8
YAXIS_PRINTED_GEARS_VECTOR
 10
41.34802400000012
 20
34.27651590816561
 30
0.0
  0
VERTEX
  5
2B4
  8
YAXIS_PRINTED_GEARS_VECTOR
 10
41.3163558032229
 20
33.9159982222692
 30
0.0
  0
VERTEX
  5
2B5
  8
YAXIS_PRINTED_GEARS_VECTOR
 10
41.22392167315775
 20
33.57039846707937
 30
0.0
  0
VERTEX
  5
2B6
  8
YAXIS_PRINTED_GEARS_VECTOR
 10
41.07396321981696
 20
33.24694596404868
 30
0.0
  0
VERTEX
  5
2B7
  8
YAXIS_PRINTED_GEARS_VECTOR
 10
40.86972205321399
 20
32.95287003463011
 30
0.0
  0
VERTEX
  5
2B8
  8
YAXIS_PRINTED_GEARS_VECTOR
 10
40.60908817671361
 20
32.69073705449944
 30
0.0
  0
VERTEX
  5
2B9
  8
YAXIS_PRINTED_GEARS_VECTOR
 10
40.31151562426203
 20
32.48225360318213
 30
0.0
  0
VERTEX
  5
2BA
  8
YAXIS_PRINTED_GEARS_VECTOR
 10
39.98499478683698
 20
32.33016883598486
 30
0.0
  0
VERTEX
  5
2BB
  8
YAXIS_PRINTED_GEARS_VECTOR
 10
39.63751605541552
 20
32.23723190821386
 30
0.0
  0
SEQEND
  5
560
  8
YAXIS_PRINTED_GEARS_VECTOR
  0
POLYLINE
  5
80
  8
YAXIS_PRINTED_GEARS_VECTOR
 66
     1
 10
0.0
 20
0.0
 30
0.0
 70
     1
  0
VERTEX
  5
2BC
  8
YAXIS_PRINTED_GEARS_VECTOR
 10
214.669480959877
 20
32.20619197517578
 30
0.0
  0
VERTEX
  5
2BD
  8
YAXIS_PRINTED_GEARS_VECTOR
 10
215.0466525608331
 20
32.24070998426839
 30
0.0
  0
VERTEX
  5
2BE
  8
YAXIS_PRINTED_GEARS_VECTOR
 10
215.3996070846991
 20
32.33841973193773
 30
0.0
  0
VERTEX
  5
2BF
  8
YAXIS_PRINTED_GEARS_VECTOR
 10
215.7229610823758
 20
32.49318739923331
 30
0.0
  0
VERTEX
  5
2C0
  8
YAXIS_PRINTED_GEARS_VECTOR
 10
216.0113311047643
 20
32.69887916720529
 30
0.0
  0
VERTEX
  5
2C1
  8
YAXIS_PRINTED_GEARS_VECTOR
 10
216.2593337027652
 20
32.94936121690318
 30
0.0
  0
VERTEX
  5
2C2
  8
YAXIS_PRINTED_GEARS_VECTOR
 10
216.461585427279
 20
33.23849972937649
 30
0.0
  0
VERTEX
  5
2C3
  8
YAXIS_PRINTED_GEARS_VECTOR
 10
216.6127028292071
 20
33.56016088567537
 30
0.0
  0
VERTEX
  5
2C4
  8
YAXIS_PRINTED_GEARS_VECTOR
 10
216.7073024594501
 20
33.90821086684912
 30
0.0
  0
VERTEX
  5
2C5
  8
YAXIS_PRINTED_GEARS_VECTOR
 10
216.7400008689087
 20
34.27651585394767
 30
0.0
  0
VERTEX
  5
2C6
  8
YAXIS_PRINTED_GEARS_VECTOR
 10
216.7066649421969
 20
34.64879712681034
 30
0.0
  0
VERTEX
  5
2C7
  8
YAXIS_PRINTED_GEARS_VECTOR
 10
216.6106177193658
 20
34.9991258405222
 30
0.0
  0
VERTEX
  5
2C8
  8
YAXIS_PRINTED_GEARS_VECTOR
 10
216.4576581523854
 20
35.32166412817844
 30
0.0
  0
VERTEX
  5
2C9
  8
YAXIS_PRINTED_GEARS_VECTOR
 10
216.2535851932257
 20
35.61057412287403
 30
0.0
  0
VERTEX
  5
2CA
  8
YAXIS_PRINTED_GEARS_VECTOR
 10
216.0041977938567
 20
35.86001795770392
 30
0.0
  0
VERTEX
  5
2CB
  8
YAXIS_PRINTED_GEARS_VECTOR
 10
215.7152949062483
 20
36.06415776576353
 30
0.0
  0
VERTEX
  5
2CC
  8
YAXIS_PRINTED_GEARS_VECTOR
 10
215.3926754823706
 20
36.21715568014804
 30
0.0
  0
VERTEX
  5
2CD
  8
YAXIS_PRINTED_GEARS_VECTOR
 10
215.0421384741935
 20
36.31317383395265
 30
0.0
  0
VERTEX
  5
2CE
  8
YAXIS_PRINTED_GEARS_VECTOR
 10
214.669482833687
 20
36.34637436027208
 30
0.0
  0
VERTEX
  5
2CF
  8
YAXIS_PRINTED_GEARS_VECTOR
 10
214.2957653729845
 20
36.31291161468118
 30
0.0
  0
VERTEX
  5
2D0
  8
YAXIS_PRINTED_GEARS_VECTOR
 10
213.9445813040684
 20
36.21671859245919
 30
0.0
  0
VERTEX
  5
2D1
  8
YAXIS_PRINTED_GEARS_VECTOR
 10
213.6216603768099
 20
36.06362381999782
 30
0.0
  0
VERTEX
  5
2D2
  8
YAXIS_PRINTED_GEARS_VECTOR
 10
213.3327323410801
 20
35.85945582368925
 30
0.0
  0
VERTEX
  5
2D3
  8
YAXIS_PRINTED_GEARS_VECTOR
 10
213.0835269467505
 20
35.61004312992611
 30
0.0
  0
VERTEX
  5
2D4
  8
YAXIS_PRINTED_GEARS_VECTOR
 10
212.8797739436917
 20
35.32121426509968
 30
0.0
  0
VERTEX
  5
2D5
  8
YAXIS_PRINTED_GEARS_VECTOR
 10
212.7272030817751
 20
34.99879775560305
 30
0.0
  0
VERTEX
  5
2D6
  8
YAXIS_PRINTED_GEARS_VECTOR
 10
212.6315441108717
 20
34.64862212782748
 30
0.0
  0
VERTEX
  5
2D7
  8
YAXIS_PRINTED_GEARS_VECTOR
 10
212.5985267808528
 20
34.27651590816561
 30
0.0
  0
VERTEX
  5
2D8
  8
YAXIS_PRINTED_GEARS_VECTOR
 10
212.6301949776301
 20
33.9159982222692
 30
0.0
  0
VERTEX
  5
2D9
  8
YAXIS_PRINTED_GEARS_VECTOR
 10
212.7226291076953
 20
33.57039846707937
 30
0.0
  0
VERTEX
  5
2DA
  8
YAXIS_PRINTED_GEARS_VECTOR
 10
212.8725875610357
 20
33.24694596404868
 30
0.0
  0
VERTEX
  5
2DB
  8
YAXIS_PRINTED_GEARS_VECTOR
 10
213.0768287276389
 20
32.95287003463011
 30
0.0
  0
VERTEX
  5
2DC
  8
YAXIS_PRINTED_GEARS_VECTOR
 10
213.3374626041392
 20
32.69073705449944
 30
0.0
  0
VERTEX
  5
2DD
  8
YAXIS_PRINTED_GEARS_VECTOR
 10
213.6350351565909
 20
32.48225360318213
 30
0.0
  0
VERTEX
  5
2DE
  8
YAXIS_PRINTED_GEARS_VECTOR
 10
213.9615559940162
 20
32.33016883598486
 30
0.0
  0
VERTEX
  5
2DF
  8
YAXIS_PRINTED_GEARS_VECTOR
 10
214.3090347254374
 20
32.23723190821386
 30
0.0
  0
SEQEND
  5
561
  8
YAXIS_PRINTED_GEARS_VECTOR
  0
POLYLINE
  5
81
  8
YAXIS_PRINTED_GEARS_VECTOR
 66
     1
 10
0.0
 20
0.0
 30
0.0
 70
     1
  0
VERTEX
  5
2E0
  8
YAXIS_PRINTED_GEARS_VECTOR
 10
89.74423098656393
 20
-81.68907907760615
 30
0.0
  0
VERTEX
  5
2E1
  8
YAXIS_PRINTED_GEARS_VECTOR
 10
89.10291367961918
 20
-81.72329494281973
 30
0.0
  0
VERTEX
  5
2E2
  8
YAXIS_PRINTED_GEARS_VECTOR
 10
88.47613051622488
 20
-81.82387420806015
 30
0.0
  0
VERTEX
  5
2E3
  8
YAXIS_PRINTED_GEARS_VECTOR
 10
87.86841039556907
 20
-81.98811653716473
 30
0.0
  0
VERTEX
  5
2E4
  8
YAXIS_PRINTED_GEARS_VECTOR
 10
87.28428221683907
 20
-82.21332159397082
 30
0.0
  0
VERTEX
  5
2E5
  8
YAXIS_PRINTED_GEARS_VECTOR
 10
86.72827487922314
 20
-82.49678904231575
 30
0.0
  0
VERTEX
  5
2E6
  8
YAXIS_PRINTED_GEARS_VECTOR
 10
86.20491728190837
 20
-82.83581854603688
 30
0.0
  0
VERTEX
  5
2E7
  8
YAXIS_PRINTED_GEARS_VECTOR
 10
85.718738324083
 20
-83.22770976897107
 30
0.0
  0
VERTEX
  5
2E8
  8
YAXIS_PRINTED_GEARS_VECTOR
 10
85.26945828654107
 20
-83.67474368997648
 30
0.0
  0
VERTEX
  5
2E9
  8
YAXIS_PRINTED_GEARS_VECTOR
 10
84.87145529064492
 20
-84.16372891126355
 30
0.0
  0
VERTEX
  5
2EA
  8
YAXIS_PRINTED_GEARS_VECTOR
 10
84.5273883319503
 20
-84.69012259716044
 30
0.0
  0
VERTEX
  5
2EB
  8
YAXIS_PRINTED_GEARS_VECTOR
 10
84.23991640601389
 20
-85.24938191199487
 30
0.0
  0
VERTEX
  5
2EC
  8
YAXIS_PRINTED_GEARS_VECTOR
 10
84.01169850839142
 20
-85.83696402009502
 30
0.0
  0
VERTEX
  5
2ED
  8
YAXIS_PRINTED_GEARS_VECTOR
 10
83.84539363463932
 20
-86.44832608578906
 30
0.0
  0
VERTEX
  5
2EE
  8
YAXIS_PRINTED_GEARS_VECTOR
 10
83.74366078031335
 20
-87.07892527340448
 30
0.0
  0
VERTEX
  5
2EF
  8
YAXIS_PRINTED_GEARS_VECTOR
 10
83.70915894097016
 20
-87.72421874726967
 30
0.0
  0
VERTEX
  5
2F0
  8
YAXIS_PRINTED_GEARS_VECTOR
 10
83.74456172534497
 20
-88.38193396898407
 30
0.0
  0
VERTEX
  5
2F1
  8
YAXIS_PRINTED_GEARS_VECTOR
 10
83.84831858078724
 20
-89.01907189022938
 30
0.0
  0
VERTEX
  5
2F2
  8
YAXIS_PRINTED_GEARS_VECTOR
 10
84.01675226077327
 20
-89.63195948512873
 30
0.0
  0
VERTEX
  5
2F3
  8
YAXIS_PRINTED_GEARS_VECTOR
 10
84.2461855187803
 20
-90.21692372780637
 30
0.0
  0
VERTEX
  5
2F4
  8
YAXIS_PRINTED_GEARS_VECTOR
 10
84.53294110828506
 20
-90.77029159238543
 30
0.0
  0
VERTEX
  5
2F5
  8
YAXIS_PRINTED_GEARS_VECTOR
 10
84.87334178276387
 20
-91.28839005298948
 30
0.0
  0
VERTEX
  5
2F6
  8
YAXIS_PRINTED_GEARS_VECTOR
 10
85.2637102956935
 20
-91.76754608374233
 30
0.0
  0
VERTEX
  5
2F7
  8
YAXIS_PRINTED_GEARS_VECTOR
 10
85.70036940055093
 20
-92.20408665876732
 30
0.0
  0
VERTEX
  5
2F8
  8
YAXIS_PRINTED_GEARS_VECTOR
 10
86.17964185081269
 20
-92.59433875218804
 30
0.0
  0
VERTEX
  5
2F9
  8
YAXIS_PRINTED_GEARS_VECTOR
 10
86.69785039995554
 20
-92.93462933812805
 30
0.0
  0
VERTEX
  5
2FA
  8
YAXIS_PRINTED_GEARS_VECTOR
 10
87.25131780145603
 20
-93.22128539071116
 30
0.0
  0
VERTEX
  5
2FB
  8
YAXIS_PRINTED_GEARS_VECTOR
 10
87.83636680879113
 20
-93.45063388406072
 30
0.0
  0
VERTEX
  5
2FC
  8
YAXIS_PRINTED_GEARS_VECTOR
 10
88.4493201754376
 20
-93.61900179230031
 30
0.0
  0
VERTEX
  5
2FD
  8
YAXIS_PRINTED_GEARS_VECTOR
 10
89.08650065487177
 20
-93.72271608955327
 30
0.0
  0
VERTEX
  5
2FE
  8
YAXIS_PRINTED_GEARS_VECTOR
 10
89.74423100057061
 20
-93.75810374994342
 30
0.0
  0
VERTEX
  5
2FF
  8
YAXIS_PRINTED_GEARS_VECTOR
 10
90.40196134626945
 20
-93.72271608955327
 30
0.0
  0
VERTEX
  5
300
  8
YAXIS_PRINTED_GEARS_VECTOR
 10
91.03914182570361
 20
-93.61900179230031
 30
0.0
  0
VERTEX
  5
301
  8
YAXIS_PRINTED_GEARS_VECTOR
 10
91.65209519235009
 20
-93.45063388406072
 30
0.0
  0
VERTEX
  5
302
  8
YAXIS_PRINTED_GEARS_VECTOR
 10
92.23714419968519
 20
-93.22128539071116
 30
0.0
  0
VERTEX
  5
303
  8
YAXIS_PRINTED_GEARS_VECTOR
 10
92.79061160118567
 20
-92.93462933812805
 30
0.0
  0
VERTEX
  5
304
  8
YAXIS_PRINTED_GEARS_VECTOR
 10
93.30882015032853
 20
-92.59433875218804
 30
0.0
  0
VERTEX
  5
305
  8
YAXIS_PRINTED_GEARS_VECTOR
 10
93.78809260059029
 20
-92.20408665876732
 30
0.0
  0
VERTEX
  5
306
  8
YAXIS_PRINTED_GEARS_VECTOR
 10
94.22475170544772
 20
-91.76754608374233
 30
0.0
  0
VERTEX
  5
307
  8
YAXIS_PRINTED_GEARS_VECTOR
 10
94.61512021837734
 20
-91.28839005298948
 30
0.0
  0
VERTEX
  5
308
  8
YAXIS_PRINTED_GEARS_VECTOR
 10
94.95552089285616
 20
-90.77029159238543
 30
0.0
  0
VERTEX
  5
309
  8
YAXIS_PRINTED_GEARS_VECTOR
 10
95.24227648236092
 20
-90.21692372780637
 30
0.0
  0
VERTEX
  5
30A
  8
YAXIS_PRINTED_GEARS_VECTOR
 10
95.47170974036794
 20
-89.63195948512873
 30
0.0
  0
VERTEX
  5
30B
  8
YAXIS_PRINTED_GEARS_VECTOR
 10
95.64014342035398
 20
-89.01907189022938
 30
0.0
  0
VERTEX
  5
30C
  8
YAXIS_PRINTED_GEARS_VECTOR
 10
95.74390027579625
 20
-88.38193396898407
 30
0.0
  0
VERTEX
  5
30D
  8
YAXIS_PRINTED_GEARS_VECTOR
 10
95.77930306017106
 20
-87.72421874726967
 30
0.0
  0
VERTEX
  5
30E
  8
YAXIS_PRINTED_GEARS_VECTOR
 10
95.74582205827255
 20
-87.08982998256977
 30
0.0
  0
VERTEX
  5
30F
  8
YAXIS_PRINTED_GEARS_VECTOR
 10
95.6467663602341
 20
-86.46708759550609
 30
0.0
  0
VERTEX
  5
310
  8
YAXIS_PRINTED_GEARS_VECTOR
 10
95.48421692754141
 20
-85.8608684311024
 30
0.0
  0
VERTEX
  5
311
  8
YAXIS_PRINTED_GEARS_VECTOR
 10
95.26025472168044
 20
-85.27604933438295
 30
0.0
  0
VERTEX
  5
312
  8
YAXIS_PRINTED_GEARS_VECTOR
 10
94.97696070413667
 20
-84.71750715037149
 30
0.0
  0
VERTEX
  5
313
  8
YAXIS_PRINTED_GEARS_VECTOR
 10
94.63641583639583
 20
-84.19011872409226
 30
0.0
  0
VERTEX
  5
314
  8
YAXIS_PRINTED_GEARS_VECTOR
 10
94.24070107994385
 20
-83.69876090056948
 30
0.0
  0
VERTEX
  5
315
  8
YAXIS_PRINTED_GEARS_VECTOR
 10
93.78261129278985
 20
-83.23942211603878
 30
0.0
  0
VERTEX
  5
316
  8
YAXIS_PRINTED_GEARS_VECTOR
 10
93.28460326110849
 20
-82.83666001842437
 30
0.0
  0
VERTEX
  5
317
  8
YAXIS_PRINTED_GEARS_VECTOR
 10
92.75178339651802
 20
-82.4919189152198
 30
0.0
  0
VERTEX
  5
318
  8
YAXIS_PRINTED_GEARS_VECTOR
 10
92.1892581106365
 20
-82.20664311391818
 30
0.0
  0
VERTEX
  5
319
  8
YAXIS_PRINTED_GEARS_VECTOR
 10
91.6021338150822
 20
-81.9822769220126
 30
0.0
  0
VERTEX
  5
31A
  8
YAXIS_PRINTED_GEARS_VECTOR
 10
90.99551692147338
 20
-81.82026464699663
 30
0.0
  0
VERTEX
  5
31B
  8
YAXIS_PRINTED_GEARS_VECTOR
 10
90.37451384142787
 20
-81.7220505963636
 30
0.0
  0
SEQEND
  5
562
  8
YAXIS_PRINTED_GEARS_VECTOR
  0
POLYLINE
  5
82
  8
YAXIS_PRINTED_GEARS_VECTOR
 66
     1
 10
0.0
 20
0.0
 30
0.0
 70
     1
  0
VERTEX
  5
31C
  8
YAXIS_PRINTED_GEARS_VECTOR
 10
231.5063521121215
 20
21.72373099437755
 30
0.0
  0
VERTEX
  5
31D
  8
YAXIS_PRINTED_GEARS_VECTOR
 10
231.5408873600343
 20
21.23093814048661
 30
0.0
  0
VERTEX
  5
31E
  8
YAXIS_PRINTED_GEARS_VECTOR
 10
231.6413790467616
 20
20.75854818638686
 30
0.0
  0
VERTEX
  5
31F
  8
YAXIS_PRINTED_GEARS_VECTOR
 10
231.803273721497
 20
20.31145579786357
 30
0.0
  0
VERTEX
  5
320
  8
YAXIS_PRINTED_GEARS_VECTOR
 10
232.022017933434
 20
19.89455564070204
 30
0.0
  0
VERTEX
  5
321
  8
YAXIS_PRINTED_GEARS_VECTOR
 10
232.2930582317663
 20
19.512742380688
 30
0.0
  0
VERTEX
  5
322
  8
YAXIS_PRINTED_GEARS_VECTOR
 10
232.6118411656876
 20
19.17091068360673
 30
0.0
  0
VERTEX
  5
323
  8
YAXIS_PRINTED_GEARS_VECTOR
 10
232.9738132843911
 20
18.87395521524354
 30
0.0
  0
VERTEX
  5
324
  8
YAXIS_PRINTED_GEARS_VECTOR
 10
233.3744211370707
 20
18.62677064138393
 30
0.0
  0
VERTEX
  5
325
  8
YAXIS_PRINTED_GEARS_VECTOR
 10
233.8091112729199
 20
18.43425162781341
 30
0.0
  0
VERTEX
  5
326
  8
YAXIS_PRINTED_GEARS_VECTOR
 10
234.2733302411323
 20
18.30129284031727
 30
0.0
  0
VERTEX
  5
327
  8
YAXIS_PRINTED_GEARS_VECTOR
 10
234.7625245909013
 20
18.23278894468126
 30
0.0
 42
0.4556250576604184
  0
VERTEX
  5
328
  8
YAXIS_PRINTED_GEARS_VECTOR
 10
238.4973652758775
 20
21.96764587415782
 30
0.0
  0
VERTEX
  5
329
  8
YAXIS_PRINTED_GEARS_VECTOR
 10
238.4289597639016
 20
22.45636170363741
 30
0.0
  0
VERTEX
  5
32A
  8
YAXIS_PRINTED_GEARS_VECTOR
 10
238.2962183437276
 20
22.92017212358269
 30
0.0
  0
VERTEX
  5
32B
  8
YAXIS_PRINTED_GEARS_VECTOR
 10
238.1040189188348
 20
23.35453171067297
 30
0.0
  0
VERTEX
  5
32C
  8
YAXIS_PRINTED_GEARS_VECTOR
 10
237.8572393927027
 20
23.75489504158713
 30
0.0
  0
VERTEX
  5
32D
  8
YAXIS_PRINTED_GEARS_VECTOR
 10
237.5607576688108
 20
24.11671669300404
 30
0.0
  0
VERTEX
  5
32E
  8
YAXIS_PRINTED_GEARS_VECTOR
 10
237.2194516506386
 20
24.435451241603
 30
0.0
  0
VERTEX
  5
32F
  8
YAXIS_PRINTED_GEARS_VECTOR
 10
236.8381992416652
 20
24.7065532640629
 30
0.0
  0
VERTEX
  5
330
  8
YAXIS_PRINTED_GEARS_VECTOR
 10
236.4218783453704
 20
24.92547733706283
 30
0.0
  0
VERTEX
  5
331
  8
YAXIS_PRINTED_GEARS_VECTOR
 10
235.9753668652336
 20
25.08767803728165
 30
0.0
  0
VERTEX
  5
332
  8
YAXIS_PRINTED_GEARS_VECTOR
 10
235.5035427047343
 20
25.18860994139868
 30
0.0
  0
VERTEX
  5
333
  8
YAXIS_PRINTED_GEARS_VECTOR
 10
235.0112837673519
 20
25.22372762609257
 30
0.0
  0
VERTEX
  5
334
  8
YAXIS_PRINTED_GEARS_VECTOR
 10
234.5542777878475
 20
25.19437822735608
 30
0.0
  0
VERTEX
  5
335
  8
YAXIS_PRINTED_GEARS_VECTOR
 10
234.1090556828875
 20
25.10664613439394
 30
0.0
  0
VERTEX
  5
336
  8
YAXIS_PRINTED_GEARS_VECTOR
 10
233.6809614501221
 20
24.96292629191748
 30
0.0
  0
VERTEX
  5
337
  8
YAXIS_PRINTED_GEARS_VECTOR
 10
233.2753390872015
 20
24.76561364463805
 30
0.0
  0
VERTEX
  5
338
  8
YAXIS_PRINTED_GEARS_VECTOR
 10
232.8975325917755
 20
24.51710313726767
 30
0.0
  0
VERTEX
  5
339
  8
YAXIS_PRINTED_GEARS_VECTOR
 10
232.5528859614943
 20
24.21978971451767
 30
0.0
  0
VERTEX
  5
33A
  8
YAXIS_PRINTED_GEARS_VECTOR
 10
232.2395654477116
 20
23.86720413726266
 30
0.0
  0
VERTEX
  5
33B
  8
YAXIS_PRINTED_GEARS_VECTOR
 10
231.9797293825778
 20
23.48132398634471
 30
0.0
  0
VERTEX
  5
33C
  8
YAXIS_PRINTED_GEARS_VECTOR
 10
231.7749338912724
 20
23.06809292918092
 30
0.0
  0
VERTEX
  5
33D
  8
YAXIS_PRINTED_GEARS_VECTOR
 10
231.6267350989748
 20
22.63345463318728
 30
0.0
  0
VERTEX
  5
33E
  8
YAXIS_PRINTED_GEARS_VECTOR
 10
231.5366891308647
 20
22.18335276578046
 30
0.0
  0
SEQEND
  5
563
  8
YAXIS_PRINTED_GEARS_VECTOR
  0
POLYLINE
  5
83
  8
YAXIS_PRINTED_GEARS_VECTOR
 66
     1
 10
0.0
 20
0.0
 30
0.0
 70
     1
  0
VERTEX
  5
33F
  8
YAXIS_PRINTED_GEARS_VECTOR
 10
18.81898104012271
 20
32.20619197517578
 30
0.0
  0
VERTEX
  5
340
  8
YAXIS_PRINTED_GEARS_VECTOR
 10
18.44180943916672
 20
32.24070998426839
 30
0.0
  0
VERTEX
  5
341
  8
YAXIS_PRINTED_GEARS_VECTOR
 10
18.08885491530077
 20
32.33841973193773
 30
0.0
  0
VERTEX
  5
342
  8
YAXIS_PRINTED_GEARS_VECTOR
 10
17.76550091762397
 20
32.49318739923331
 30
0.0
  0
VERTEX
  5
343
  8
YAXIS_PRINTED_GEARS_VECTOR
 10
17.47713089523563
 20
32.69887916720529
 30
0.0
  0
VERTEX
  5
344
  8
YAXIS_PRINTED_GEARS_VECTOR
 10
17.22912829723487
 20
32.94936121690318
 30
0.0
  0
VERTEX
  5
345
  8
YAXIS_PRINTED_GEARS_VECTOR
 10
17.02687657272099
 20
33.23849972937671
 30
0.0
  0
VERTEX
  5
346
  8
YAXIS_PRINTED_GEARS_VECTOR
 10
16.87575917079266
 20
33.56016088567537
 30
0.0
  0
VERTEX
  5
347
  8
YAXIS_PRINTED_GEARS_VECTOR
 10
16.78115954054965
 20
33.90821086684912
 30
0.0
  0
VERTEX
  5
348
  8
YAXIS_PRINTED_GEARS_VECTOR
 10
16.74846113109106
 20
34.27651585394767
 30
0.0
  0
VERTEX
  5
349
  8
YAXIS_PRINTED_GEARS_VECTOR
 10
16.78179705780303
 20
34.64879712681034
 30
0.0
  0
VERTEX
  5
34A
  8
YAXIS_PRINTED_GEARS_VECTOR
 10
16.87784428063401
 20
34.9991258405222
 30
0.0
  0
VERTEX
  5
34B
  8
YAXIS_PRINTED_GEARS_VECTOR
 10
17.03080384761461
 20
35.32166412817844
 30
0.0
  0
VERTEX
  5
34C
  8
YAXIS_PRINTED_GEARS_VECTOR
 10
17.23487680677408
 20
35.61057412287403
 30
0.0
  0
VERTEX
  5
34D
  8
YAXIS_PRINTED_GEARS_VECTOR
 10
17.48426420614305
 20
35.86001795770392
 30
0.0
  0
VERTEX
  5
34E
  8
YAXIS_PRINTED_GEARS_VECTOR
 10
17.77316709375145
 20
36.06415776576353
 30
0.0
  0
VERTEX
  5
34F
  8
YAXIS_PRINTED_GEARS_VECTOR
 10
18.09578651762922
 20
36.21715568014804
 30
0.0
  0
VERTEX
  5
350
  8
YAXIS_PRINTED_GEARS_VECTOR
 10
18.44632352580629
 20
36.31317383395265
 30
0.0
  0
VERTEX
  5
351
  8
YAXIS_PRINTED_GEARS_VECTOR
 10
18.81897916631283
 20
36.34637436027208
 30
0.0
  0
VERTEX
  5
352
  8
YAXIS_PRINTED_GEARS_VECTOR
 10
19.19269662701549
 20
36.31291161468118
 30
0.0
  0
VERTEX
  5
353
  8
YAXIS_PRINTED_GEARS_VECTOR
 10
19.54388069593142
 20
36.21671859245896
 30
0.0
  0
VERTEX
  5
354
  8
YAXIS_PRINTED_GEARS_VECTOR
 10
19.86680162318999
 20
36.06362381999782
 30
0.0
  0
VERTEX
  5
355
  8
YAXIS_PRINTED_GEARS_VECTOR
 10
20.15572965891988
 20
35.85945582368925
 30
0.0
  0
VERTEX
  5
356
  8
YAXIS_PRINTED_GEARS_VECTOR
 10
20.40493505324957
 20
35.61004312992588
 30
0.0
  0
VERTEX
  5
357
  8
YAXIS_PRINTED_GEARS_VECTOR
 10
20.60868805630844
 20
35.32121426509968
 30
0.0
  0
VERTEX
  5
358
  8
YAXIS_PRINTED_GEARS_VECTOR
 10
20.76125891822494
 20
34.99879775560282
 30
0.0
  0
VERTEX
  5
359
  8
YAXIS_PRINTED_GEARS_VECTOR
 10
20.85691788912823
 20
34.64862212782748
 30
0.0
  0
VERTEX
  5
35A
  8
YAXIS_PRINTED_GEARS_VECTOR
 10
20.88993521914699
 20
34.27651590816561
 30
0.0
  0
VERTEX
  5
35B
  8
YAXIS_PRINTED_GEARS_VECTOR
 10
20.85826702236977
 20
33.9159982222692
 30
0.0
  0
VERTEX
  5
35C
  8
YAXIS_PRINTED_GEARS_VECTOR
 10
20.76583289230462
 20
33.57039846707914
 30
0.0
  0
VERTEX
  5
35D
  8
YAXIS_PRINTED_GEARS_VECTOR
 10
20.61587443896406
 20
33.24694596404868
 30
0.0
  0
VERTEX
  5
35E
  8
YAXIS_PRINTED_GEARS_VECTOR
 10
20.41163327236109
 20
32.95287003463011
 30
0.0
  0
VERTEX
  5
35F
  8
YAXIS_PRINTED_GEARS_VECTOR
 10
20.15099939586071
 20
32.69073705449944
 30
0.0
  0
VERTEX
  5
360
  8
YAXIS_PRINTED_GEARS_VECTOR
 10
19.85342684340912
 20
32.48225360318213
 30
0.0
  0
VERTEX
  5
361
  8
YAXIS_PRINTED_GEARS_VECTOR
 10
19.52690600598362
 20
32.33016883598486
 30
0.0
  0
VERTEX
  5
362
  8
YAXIS_PRINTED_GEARS_VECTOR
 10
19.17942727456239
 20
32.23723190821386
 30
0.0
  0
SEQEND
  5
564
  8
YAXIS_PRINTED_GEARS_VECTOR
  0
POLYLINE
  5
85
  8
5MM_MATERIAL
 66
     1
 10
0.0
 20
0.0
 30
0.0
 70
     1
  0
VERTEX
  5
363
  8
5MM_MATERIAL
 10
-113.8392934301986
 20
-104.4388987035521
 30
0.0
  0
VERTEX
  5
364
  8
5MM_MATERIAL
 10
-124.2622129390663
 20
-96.70356446071442
 30
0.0
  0
VERTEX
  5
365
  8
5MM_MATERIAL
 10
-133.8392934301986
 20
-103.5248468618058
 30
0.0
  0
VERTEX
  5
366
  8
5MM_MATERIAL
 10
-133.8392934301986
 20
-100.3734143925016
 30
0.0
  0
VERTEX
  5
367
  8
5MM_MATERIAL
 10
-128.7096890645779
 20
-96.74449215512097
 30
0.0
  0
VERTEX
  5
368
  8
5MM_MATERIAL
 10
-127.9576426798576
 20
-96.21925341023692
 30
0.0
  0
VERTEX
  5
369
  8
5MM_MATERIAL
 10
-127.297683607552
 20
-95.77587005416598
 30
0.0
  0
VERTEX
  5
36A
  8
5MM_MATERIAL
 10
-126.7298118476611
 20
-95.41434208690814
 30
0.0
  0
VERTEX
  5
36B
  8
5MM_MATERIAL
 10
-126.254027400185
 20
-95.13466950846339
 30
0.0
  0
VERTEX
  5
36C
  8
5MM_MATERIAL
 10
-126.8056986143732
 20
-94.78507878540746
 30
0.0
  0
VERTEX
  5
36D
  8
5MM_MATERIAL
 10
-127.3693070727634
 20
-94.40479229154661
 30
0.0
  0
VERTEX
  5
36E
  8
5MM_MATERIAL
 10
-127.9448527753555
 20
-93.99381002688087
 30
0.0
  0
VERTEX
  5
36F
  8
5MM_MATERIAL
 10
-128.5323357221495
 20
-93.55213199141018
 30
0.0
  0
VERTEX
  5
370
  8
5MM_MATERIAL
 10
-133.8392934301986
 20
-89.52757537476626
 30
0.0
  0
VERTEX
  5
371
  8
5MM_MATERIAL
 10
-133.8392934301986
 20
-86.64899420150567
 30
0.0
  0
VERTEX
  5
372
  8
5MM_MATERIAL
 10
-124.4122811518903
 20
-93.67491507462982
 30
0.0
  0
VERTEX
  5
373
  8
5MM_MATERIAL
 10
-113.8392934301986
 20
-86.10329160941836
 30
0.0
  0
VERTEX
  5
374
  8
5MM_MATERIAL
 10
-113.8392934301986
 20
-89.37750716194225
 30
0.0
  0
VERTEX
  5
375
  8
5MM_MATERIAL
 10
-120.9743548217402
 20
-94.4116135739477
 30
0.0
  0
VERTEX
  5
376
  8
5MM_MATERIAL
 10
-121.6155553674428
 20
-94.84135436521646
 30
0.0
  0
VERTEX
  5
377
  8
5MM_MATERIAL
 10
-122.3113261723541
 20
-95.2847377212874
 30
0.0
  0
VERTEX
  5
378
  8
5MM_MATERIAL
 10
-121.3904530482068
 20
-95.85772544297907
 30
0.0
  0
VERTEX
  5
379
  8
5MM_MATERIAL
 10
-120.810644044114
 20
-96.23971725744019
 30
0.0
  0
VERTEX
  5
37A
  8
5MM_MATERIAL
 10
-113.8392934301986
 20
-101.2601811046435
 30
0.0
  0
SEQEND
  5
565
  8
5MM_MATERIAL
  0
POLYLINE
  5
86
  8
5MM_MATERIAL
 66
     1
 10
0.0
 20
0.0
 30
0.0
 70
     1
  0
VERTEX
  5
37B
  8
5MM_MATERIAL
 10
-113.8392934301986
 20
-78.6817363570309
 30
0.0
  0
VERTEX
  5
37C
  8
5MM_MATERIAL
 10
-131.479129719421
 20
-78.6817363570309
 30
0.0
  0
VERTEX
  5
37D
  8
5MM_MATERIAL
 10
-131.479129719421
 20
-85.2710951564852
 30
0.0
  0
VERTEX
  5
37E
  8
5MM_MATERIAL
 10
-133.8392934301986
 20
-85.2710951564852
 30
0.0
  0
VERTEX
  5
37F
  8
5MM_MATERIAL
 10
-133.8392934301986
 20
-69.41843485634878
 30
0.0
  0
VERTEX
  5
380
  8
5MM_MATERIAL
 10
-131.479129719421
 20
-69.41843485634878
 30
0.0
  0
VERTEX
  5
381
  8
5MM_MATERIAL
 10
-131.479129719421
 20
-76.03507878540744
 30
0.0
  0
VERTEX
  5
382
  8
5MM_MATERIAL
 10
-113.8392934301986
 20
-76.03507878540744
 30
0.0
  0
SEQEND
  5
566
  8
5MM_MATERIAL
  0
POLYLINE
  5
87
  8
5MM_MATERIAL
 66
     1
 10
0.0
 20
0.0
 30
0.0
 70
     1
  0
VERTEX
  5
383
  8
5MM_MATERIAL
 10
71.79760703078094
 20
-79.21878938556515
 30
0.0
  0
VERTEX
  5
384
  8
5MM_MATERIAL
 10
71.79760703078094
 20
-77.89546059975342
 30
0.0
  0
VERTEX
  5
385
  8
5MM_MATERIAL
 10
67.35695218767049
 20
-77.89546059975342
 30
0.0
  0
VERTEX
  5
386
  8
5MM_MATERIAL
 10
67.35695218767049
 20
-76.36067205950783
 30
0.0
  0
VERTEX
  5
387
  8
5MM_MATERIAL
 10
67.36888943187236
 20
-75.92069934463744
 30
0.0
  0
VERTEX
  5
388
  8
5MM_MATERIAL
 10
67.38381098712473
 20
-75.75443058611084
 30
0.0
  0
VERTEX
  5
389
  8
5MM_MATERIAL
 10
67.4047011644781
 20
-75.62397356018997
 30
0.0
  0
VERTEX
  5
38A
  8
5MM_MATERIAL
 10
67.44946583023524
 20
-75.4711342013905
 30
0.0
  0
VERTEX
  5
38B
  8
5MM_MATERIAL
 10
67.5087257210947
 20
-75.31957383304126
 30
0.0
  0
VERTEX
  5
38C
  8
5MM_MATERIAL
 10
67.58248083705651
 20
-75.16929245514221
 30
0.0
  0
VERTEX
  5
38D
  8
5MM_MATERIAL
 10
67.67073117812063
 20
-75.02029006769337
 30
0.0
  0
VERTEX
  5
38E
  8
5MM_MATERIAL
 10
67.7841349980388
 20
-74.86702437874385
 30
0.0
  0
VERTEX
  5
38F
  8
5MM_MATERIAL
 10
67.93335055056268
 20
-74.70395309634276
 30
0.0
  0
VERTEX
  5
390
  8
5MM_MATERIAL
 10
68.1183778356923
 20
-74.5310762204901
 30
0.0
  0
VERTEX
  5
391
  8
5MM_MATERIAL
 10
68.33921685342764
 20
-74.34839375118591
 30
0.0
  0
VERTEX
  5
392
  8
5MM_MATERIAL
 10
68.60439420677007
 20
-74.14801858065381
 30
0.0
  0
VERTEX
  5
393
  8
5MM_MATERIAL
 10
68.92243649872093
 20
-73.92206360111766
 30
0.0
  0
VERTEX
  5
394
  8
5MM_MATERIAL
 10
69.29334372928025
 20
-73.6705288125774
 30
0.0
  0
VERTEX
  5
395
  8
5MM_MATERIAL
 10
69.71711589844804
 20
-73.39341421503306
 30
0.0
  0
VERTEX
  5
396
  8
5MM_MATERIAL
 10
71.79760703078094
 20
-72.07008542922134
 30
0.0
  0
VERTEX
  5
397
  8
5MM_MATERIAL
 10
71.79760703078094
 20
-70.40569252335504
 30
0.0
  0
VERTEX
  5
398
  8
5MM_MATERIAL
 10
69.07591535274551
 20
-72.14511953563337
 30
0.0
  0
VERTEX
  5
399
  8
5MM_MATERIAL
 10
68.69349720813429
 20
-72.40816523822545
 30
0.0
  0
VERTEX
  5
39A
  8
5MM_MATERIAL
 10
68.3443328152284
 20
-72.67888488351875
 30
0.0
  0
VERTEX
  5
39B
  8
5MM_MATERIAL
 10
68.02842217402784
 20
-72.95727847151329
 30
0.0
  0
VERTEX
  5
39C
  8
5MM_MATERIAL
 10
67.74576528453261
 20
-73.24334600220905
 30
0.0
  0
VERTEX
  5
39D
  8
5MM_MATERIAL
 10
67.6225558711629
 20
-73.39554586578342
 30
0.0
  0
VERTEX
  5
39E
  8
5MM_MATERIAL
 10
67.49849379749307
 20
-73.57929416046281
 30
0.0
  0
VERTEX
  5
39F
  8
5MM_MATERIAL
 10
67.37357906352311
 20
-73.79459088624728
 30
0.0
  0
VERTEX
  5
3A0
  8
5MM_MATERIAL
 10
67.24781166925303
 20
-74.04143604313677
 30
0.0
  0
VERTEX
  5
3A1
  8
5MM_MATERIAL
 10
67.19004393391876
 20
-73.69333747560609
 30
0.0
  0
VERTEX
  5
3A2
  8
5MM_MATERIAL
 10
67.11564932273184
 20
-73.36868706632913
 30
0.0
  0
VERTEX
  5
3A3
  8
5MM_MATERIAL
 10
67.02462783569227
 20
-73.06748481530593
 30
0.0
  0
VERTEX
  5
3A4
  8
5MM_MATERIAL
 10
66.91697947280004
 20
-72.7897307225365
 30
0.0
  0
VERTEX
  5
3A5
  8
5MM_MATERIAL
 10
66.79270423405514
 20
-72.5354247880208
 30
0.0
  0
VERTEX
  5
3A6
  8
5MM_MATERIAL
 10
66.65180211945759
 20
-72.30456701175888
 30
0.0
  0
VERTEX
  5
3A7
  8
5MM_MATERIAL
 10
66.49427312900737
 20
-72.0971573937507
 30
0.0
  0
VERTEX
  5
3A8
  8
5MM_MATERIAL
 10
66.32011726270449
 20
-71.91319593399626
 30
0.0
  0
VERTEX
  5
3A9
  8
5MM_MATERIAL
 10
66.13242541413697
 20
-71.75172338965793
 30
0.0
  0
VERTEX
  5
3AA
  8
5MM_MATERIAL
 10
65.93428847689277
 20
-71.61178051789804
 30
0.0
  0
VERTEX
  5
3AB
  8
5MM_MATERIAL
 10
65.72570645097191
 20
-71.49336731871658
 30
0.0
  0
VERTEX
  5
3AC
  8
5MM_MATERIAL
 10
65.50667933637438
 20
-71.39648379211357
 30
0.0
  0
VERTEX
  5
3AD
  8
5MM_MATERIAL
 10
65.27720713310018
 20
-71.32112993808902
 30
0.0
  0
VERTEX
  5
3AE
  8
5MM_MATERIAL
 10
65.03728984114927
 20
-71.26730575664291
 30
0.0
  0
VERTEX
  5
3AF
  8
5MM_MATERIAL
 10
64.78692746052172
 20
-71.23501124777523
 30
0.0
  0
VERTEX
  5
3B0
  8
5MM_MATERIAL
 10
64.52611999121748
 20
-71.224246411486
 30
0.0
  0
VERTEX
  5
3B1
  8
5MM_MATERIAL
 10
64.32201443187233
 20
-71.23074794627456
 30
0.0
  0
VERTEX
  5
3B2
  8
5MM_MATERIAL
 10
64.1223853391029
 20
-71.25025255064017
 30
0.0
  0
VERTEX
  5
3B3
  8
5MM_MATERIAL
 10
63.92723271290917
 20
-71.28276022458289
 30
0.0
  0
VERTEX
  5
3B4
  8
5MM_MATERIAL
 10
63.73655655329117
 20
-71.32827096810266
 30
0.0
  0
VERTEX
  5
3B5
  8
5MM_MATERIAL
 10
63.55035686024886
 20
-71.38678478119954
 30
0.0
  0
VERTEX
  5
3B6
  8
5MM_MATERIAL
 10
63.36863363378228
 20
-71.45830166387347
 30
0.0
  0
VERTEX
  5
3B7
  8
5MM_MATERIAL
 10
63.19138687389141
 20
-71.54282161612451
 30
0.0
  0
VERTEX
  5
3B8
  8
5MM_MATERIAL
 10
63.01861658057626
 20
-71.64034463795261
 30
0.0
  0
VERTEX
  5
3B9
  8
5MM_MATERIAL
 10
62.85453276406876
 20
-71.74873907860746
 30
0.0
  0
VERTEX
  5
3BA
  8
5MM_MATERIAL
 10
62.70334543460082
 20
-71.86587328733869
 30
0.0
  0
VERTEX
  5
3BB
  8
5MM_MATERIAL
 10
62.56505459217244
 20
-71.99174726414631
 30
0.0
  0
VERTEX
  5
3BC
  8
5MM_MATERIAL
 10
62.43966023678364
 20
-72.12636100903035
 30
0.0
  0
VERTEX
  5
3BD
  8
5MM_MATERIAL
 10
62.32716236843439
 20
-72.26971452199078
 30
0.0
  0
VERTEX
  5
3BE
  8
5MM_MATERIAL
 10
62.22756098712472
 20
-72.4218078030276
 30
0.0
  0
VERTEX
  5
3BF
  8
5MM_MATERIAL
 10
62.14085609285462
 20
-72.58264085214084
 30
0.0
  0
VERTEX
  5
3C0
  8
5MM_MATERIAL
 10
62.06704768562409
 20
-72.75221366933047
 30
0.0
  0
VERTEX
  5
3C1
  8
5MM_MATERIAL
 10
62.00389753214523
 20
-72.93617512908492
 30
0.0
  0
VERTEX
  5
3C2
  8
5MM_MATERIAL
 10
61.94916739913021
 20
-73.14017410589256
 30
0.0
  0
VERTEX
  5
3C3
  8
5MM_MATERIAL
 10
61.90285728657905
 20
-73.36421059975342
 30
0.0
  0
VERTEX
  5
3C4
  8
5MM_MATERIAL
 10
61.86496719449173
 20
-73.60828461066747
 30
0.0
  0
VERTEX
  5
3C5
  8
5MM_MATERIAL
 10
61.83549712286826
 20
-73.87239613863474
 30
0.0
  0
VERTEX
  5
3C6
  8
5MM_MATERIAL
 10
61.81444707170863
 20
-74.15654518365521
 30
0.0
  0
VERTEX
  5
3C7
  8
5MM_MATERIAL
 10
61.80181704101287
 20
-74.46073174572889
 30
0.0
  0
VERTEX
  5
3C8
  8
5MM_MATERIAL
 10
61.79760703078094
 20
-74.78495582485576
 30
0.0
  0
VERTEX
  5
3C9
  8
5MM_MATERIAL
 10
61.79760703078094
 20
-79.21878938556515
 30
0.0
  0
SEQEND
  5
567
  8
5MM_MATERIAL
  0
POLYLINE
  5
88
  8
5MM_MATERIAL
 66
     1
 10
0.0
 20
0.0
 30
0.0
 70
     1
  0
VERTEX
  5
3CA
  8
5MM_MATERIAL
 10
66.21097674428702
 20
-77.89546059975342
 30
0.0
  0
VERTEX
  5
3CB
  8
5MM_MATERIAL
 10
62.9026547797578
 20
-77.89546059975342
 30
0.0
  0
VERTEX
  5
3CC
  8
5MM_MATERIAL
 10
62.9026547797578
 20
-74.73038556564703
 30
0.0
  0
VERTEX
  5
3CD
  8
5MM_MATERIAL
 10
62.90979580977143
 20
-74.46174427983529
 30
0.0
  0
VERTEX
  5
3CE
  8
5MM_MATERIAL
 10
62.93121889981235
 20
-74.21175493808903
 30
0.0
  0
VERTEX
  5
3CF
  8
5MM_MATERIAL
 10
62.96692404988055
 20
-73.98041754040827
 30
0.0
  0
VERTEX
  5
3D0
  8
5MM_MATERIAL
 10
63.01691125997604
 20
-73.76773208679296
 30
0.0
  0
VERTEX
  5
3D1
  8
5MM_MATERIAL
 10
63.08118053009881
 20
-73.57369857724319
 30
0.0
  0
VERTEX
  5
3D2
  8
5MM_MATERIAL
 10
63.15973186024888
 20
-73.39831701175888
 30
0.0
  0
VERTEX
  5
3D3
  8
5MM_MATERIAL
 10
63.25256525042624
 20
-73.24158739034007
 30
0.0
  0
VERTEX
  5
3D4
  8
5MM_MATERIAL
 10
63.35968070063089
 20
-73.10350971298672
 30
0.0
  0
VERTEX
  5
3D5
  8
5MM_MATERIAL
 10
63.47788073473728
 20
-72.98280498924865
 30
0.0
  0
VERTEX
  5
3D6
  8
5MM_MATERIAL
 10
63.60396787661995
 20
-72.87819422867565
 30
0.0
  0
VERTEX
  5
3D7
  8
5MM_MATERIAL
 10
63.73794212627888
 20
-72.78967743126773
 30
0.0
  0
VERTEX
  5
3D8
  8
5MM_MATERIAL
 10
63.87980348371407
 20
-72.71725459702489
 30
0.0
  0
VERTEX
  5
3D9
  8
5MM_MATERIAL
 10
64.02955194892553
 20
-72.66092572594712
 30
0.0
  0
VERTEX
  5
3DA
  8
5MM_MATERIAL
 10
64.18718752191326
 20
-72.62069081803443
 30
0.0
  0
VERTEX
  5
3DB
  8
5MM_MATERIAL
 10
64.35271020267724
 20
-72.59654987328682
 30
0.0
  0
VERTEX
  5
3DC
  8
5MM_MATERIAL
 10
64.52611999121748
 20
-72.58850289170428
 30
0.0
  0
VERTEX
  5
3DD
  8
5MM_MATERIAL
 10
64.64607863719294
 20
-72.59265961066744
 30
0.0
  0
VERTEX
  5
3DE
  8
5MM_MATERIAL
 10
64.76379904988055
 20
-72.60512976755695
 30
0.0
  0
VERTEX
  5
3DF
  8
5MM_MATERIAL
 10
64.87928122928028
 20
-72.62591336237277
 30
0.0
  0
VERTEX
  5
3E0
  8
5MM_MATERIAL
 10
64.99252517539216
 20
-72.65501039511494
 30
0.0
  0
VERTEX
  5
3E1
  8
5MM_MATERIAL
 10
65.10353088821617
 20
-72.69242086578342
 30
0.0
  0
VERTEX
  5
3E2
  8
5MM_MATERIAL
 10
65.21229836775233
 20
-72.73814477437824
 30
0.0
  0
VERTEX
  5
3E3
  8
5MM_MATERIAL
 10
65.31882761400061
 20
-72.79218212089938
 30
0.0
  0
VERTEX
  5
3E4
  8
5MM_MATERIAL
 10
65.42311862696104
 20
-72.85453290534687
 30
0.0
  0
VERTEX
  5
3E5
  8
5MM_MATERIAL
 10
65.52277329953947
 20
-72.92487738010811
 30
0.0
  0
VERTEX
  5
3E6
  8
5MM_MATERIAL
 10
65.61539352464179
 20
-73.0028957975706
 30
0.0
  0
VERTEX
  5
3E7
  8
5MM_MATERIAL
 10
65.70097930226797
 20
-73.0885881577343
 30
0.0
  0
VERTEX
  5
3E8
  8
5MM_MATERIAL
 10
65.77953063241804
 20
-73.18195446059926
 30
0.0
  0
VERTEX
  5
3E9
  8
5MM_MATERIAL
 10
65.85104751509198
 20
-73.28299470616543
 30
0.0
  0
VERTEX
  5
3EA
  8
5MM_MATERIAL
 10
65.91552995028981
 20
-73.39170889443281
 30
0.0
  0
VERTEX
  5
3EB
  8
5MM_MATERIAL
 10
65.9729779380115
 20
-73.50809702540144
 30
0.0
  0
VERTEX
  5
3EC
  8
5MM_MATERIAL
 10
66.02339147825708
 20
-73.63215909907129
 30
0.0
  0
VERTEX
  5
3ED
  8
5MM_MATERIAL
 10
66.06735677498288
 20
-73.76623993126775
 30
0.0
  0
VERTEX
  5
3EE
  8
5MM_MATERIAL
 10
66.10546003214522
 20
-73.91268433781617
 30
0.0
  0
VERTEX
  5
3EF
  8
5MM_MATERIAL
 10
66.13770124974411
 20
-74.07149231871658
 30
0.0
  0
VERTEX
  5
3F0
  8
5MM_MATERIAL
 10
66.16408042777957
 20
-74.24266387396897
 30
0.0
  0
VERTEX
  5
3F1
  8
5MM_MATERIAL
 10
66.19925266516016
 20
-74.62209770752968
 30
0.0
  0
VERTEX
  5
3F2
  8
5MM_MATERIAL
 10
66.21097674428702
 20
-75.05098583849829
 30
0.0
  0
SEQEND
  5
568
  8
5MM_MATERIAL
  0
POLYLINE
  5
89
  8
5MM_MATERIAL
 66
     1
 10
0.0
 20
0.0
 30
0.0
 70
     1
  0
VERTEX
  5
3F3
  8
5MM_MATERIAL
 10
71.36263843248524
 20
-86.6138102034206
 30
0.0
  0
VERTEX
  5
3F4
  8
5MM_MATERIAL
 10
67.1268278388967
 20
-86.57205722411982
 30
0.0
  0
VERTEX
  5
3F5
  8
5MM_MATERIAL
 10
61.32513639785429
 20
-90.36908092439143
 30
0.0
  0
VERTEX
  5
3F6
  8
5MM_MATERIAL
 10
61.34100387468996
 20
-88.7593364798071
 30
0.0
  0
VERTEX
  5
3F7
  8
5MM_MATERIAL
 10
64.37529516838418
 20
-86.81779953182587
 30
0.0
  0
VERTEX
  5
3F8
  8
5MM_MATERIAL
 10
64.80083731138137
 20
-86.55381946863136
 30
0.0
  0
VERTEX
  5
3F9
  8
5MM_MATERIAL
 10
65.22628700615546
 20
-86.29921821311189
 30
0.0
  0
VERTEX
  5
3FA
  8
5MM_MATERIAL
 10
65.65164425270652
 20
-86.05399576526743
 30
0.0
  0
VERTEX
  5
3FB
  8
5MM_MATERIAL
 10
66.07690905103449
 20
-85.81815212509792
 30
0.0
  0
VERTEX
  5
3FC
  8
5MM_MATERIAL
 10
65.67467781141838
 20
-85.57713619641513
 30
0.0
  0
VERTEX
  5
3FD
  8
5MM_MATERIAL
 10
65.24795594704521
 20
-85.31200321197144
 30
0.0
  0
VERTEX
  5
3FE
  8
5MM_MATERIAL
 10
64.32104034402735
 20
-84.70938607580143
 30
0.0
  0
VERTEX
  5
3FF
  8
5MM_MATERIAL
 10
61.40030520760962
 20
-82.74325766572441
 30
0.0
  0
VERTEX
  5
400
  8
5MM_MATERIAL
 10
61.41550033373196
 20
-81.20172273150382
 30
0.0
  0
VERTEX
  5
401
  8
5MM_MATERIAL
 10
67.13987144273622
 20
-85.24879272306346
 30
0.0
  0
VERTEX
  5
402
  8
5MM_MATERIAL
 10
71.37568203632495
 20
-85.2905457023638
 30
0.0
  0
SEQEND
  5
569
  8
5MM_MATERIAL
  0
POLYLINE
  5
8A
  8
5MM_MATERIAL
 66
     1
 10
0.0
 20
0.0
 30
0.0
 70
     1
  0
VERTEX
  5
403
  8
5MM_MATERIAL
 10
-184.4799879452556
 20
-14.40041311750181
 30
0.0
 42
-0.9999999999999998
  0
VERTEX
  5
404
  8
5MM_MATERIAL
 10
-184.4799879452556
 20
-10.40041311750181
 30
0.0
 42
-0.9999999999999998
  0
SEQEND
  5
56A
  8
5MM_MATERIAL
  0
POLYLINE
  5
8B
  8
5MM_MATERIAL
 66
     1
 10
0.0
 20
0.0
 30
0.0
 70
     1
  0
VERTEX
  5
405
  8
5MM_MATERIAL
 10
-179.9769021733365
 20
-123.390495969326
 30
0.0
  0
VERTEX
  5
406
  8
5MM_MATERIAL
 10
-180.240566407461
 20
-123.336720259909
 30
0.0
  0
VERTEX
  5
407
  8
5MM_MATERIAL
 10
-180.4874792888548
 20
-123.2331089109019
 30
0.0
  0
VERTEX
  5
408
  8
5MM_MATERIAL
 10
-180.709474008114
 20
-123.0846266198246
 30
0.0
  0
VERTEX
  5
409
  8
5MM_MATERIAL
 10
-180.8983837558348
 20
-122.896238084197
 30
0.0
  0
VERTEX
  5
40A
  8
5MM_MATERIAL
 10
-181.0462440172023
 20
-122.6737392580085
 30
0.0
  0
VERTEX
  5
40B
  8
5MM_MATERIAL
 10
-181.1484663786672
 20
-122.4263276212175
 30
0.0
  0
VERTEX
  5
40C
  8
5MM_MATERIAL
 10
-181.2019481827239
 20
-122.1640701602973
 30
0.0
  0
VERTEX
  5
40D
  8
5MM_MATERIAL
 10
-181.2035867718668
 20
-121.897033861721
 30
0.0
  0
VERTEX
  5
40E
  8
5MM_MATERIAL
 10
-181.1519524391074
 20
-121.6353438181493
 30
0.0
  0
VERTEX
  5
40F
  8
5MM_MATERIAL
 10
-181.0504887044377
 20
-121.3882505367269
 30
0.0
  0
VERTEX
  5
410
  8
5MM_MATERIAL
 10
-180.9034027508228
 20
-121.1645091256529
 30
0.0
  0
VERTEX
  5
411
  8
5MM_MATERIAL
 10
-180.7149017612278
 20
-120.9728746931266
 30
0.0
  0
VERTEX
  5
412
  8
5MM_MATERIAL
 10
-180.4920117542231
 20
-120.8226505516595
 30
0.0
  0
VERTEX
  5
413
  8
5MM_MATERIAL
 10
-180.2451403283117
 20
-120.7190133217387
 30
0.0
  0
VERTEX
  5
414
  8
5MM_MATERIAL
 10
-179.9835670363584
 20
-120.664528073527
 30
0.0
  0
VERTEX
  5
415
  8
5MM_MATERIAL
 10
-179.716571431228
 20
-120.6617598771875
 30
0.0
  0
VERTEX
  5
416
  8
5MM_MATERIAL
 10
-179.4540878668816
 20
-120.7124096813528
 30
0.0
  0
VERTEX
  5
417
  8
5MM_MATERIAL
 10
-179.2060329947273
 20
-120.8131582637648
 30
0.0
  0
VERTEX
  5
418
  8
5MM_MATERIAL
 10
-178.9816598138003
 20
-120.9590404382491
 30
0.0
  0
VERTEX
  5
419
  8
5MM_MATERIAL
 10
-178.7902213231358
 20
-121.1450910186322
 30
0.0
  0
VERTEX
  5
41A
  8
5MM_MATERIAL
 10
-178.6398072922246
 20
-121.3653838904903
 30
0.0
  0
VERTEX
  5
41B
  8
5MM_MATERIAL
 10
-178.5345987906542
 20
-121.6110676325936
 30
0.0
  0
VERTEX
  5
41C
  8
5MM_MATERIAL
 10
-178.4779857676043
 20
-121.8727890985597
 30
0.0
  0
VERTEX
  5
41D
  8
5MM_MATERIAL
 10
-178.4733581722549
 20
-122.1411951420055
 30
0.0
  0
VERTEX
  5
41E
  8
5MM_MATERIAL
 10
-178.5225094335235
 20
-122.4050885403401
 30
0.0
  0
VERTEX
  5
41F
  8
5MM_MATERIAL
 10
-178.6218161793668
 20
-122.6537796447692
 30
0.0
  0
VERTEX
  5
420
  8
5MM_MATERIAL
 10
-178.7665431575235
 20
-122.8786766696066
 30
0.0
  0
VERTEX
  5
421
  8
5MM_MATERIAL
 10
-178.951955115732
 20
-123.0711878291656
 30
0.0
  0
VERTEX
  5
422
  8
5MM_MATERIAL
 10
-179.1717787623024
 20
-123.223077472309
 30
0.0
  0
VERTEX
  5
423
  8
5MM_MATERIAL
 10
-179.4169489350723
 20
-123.3296015438266
 30
0.0
  0
VERTEX
  5
424
  8
5MM_MATERIAL
 10
-179.6785425760714
 20
-123.3874056519227
 30
0.0
  0
VERTEX
  5
425
  8
5MM_MATERIAL
 10
-179.9476366273295
 20
-123.3931354048011
 30
0.0
  0
VERTEX
  5
426
  8
5MM_MATERIAL
 10
-179.954956908905
 20
-123.3925246071199
 30
0.0
  0
VERTEX
  5
427
  8
5MM_MATERIAL
 10
-179.9659336996367
 20
-123.3915593338842
 30
0.0
  0
SEQEND
  5
56B
  8
5MM_MATERIAL
  0
POLYLINE
  5
8C
  8
5MM_MATERIAL
 66
     1
 10
0.0
 20
0.0
 30
0.0
 70
     1
  0
VERTEX
  5
428
  8
5MM_MATERIAL
 10
-184.4799879452556
 20
9.605325740468487
 30
0.0
 42
-0.9999999999999998
  0
VERTEX
  5
429
  8
5MM_MATERIAL
 10
-184.4799879452556
 20
13.60532574046849
 30
0.0
 42
-0.9999999999999998
  0
SEQEND
  5
56C
  8
5MM_MATERIAL
  0
POLYLINE
  5
8D
  8
5MM_MATERIAL
 66
     1
 10
0.0
 20
0.0
 30
0.0
 70
     1
  0
VERTEX
  5
42A
  8
5MM_MATERIAL
 10
-153.9799879452555
 20
-170.0928271175017
 30
0.0
 42
0.9999999999999998
  0
VERTEX
  5
42B
  8
5MM_MATERIAL
 10
-153.9799879452555
 20
-166.0928271175017
 30
0.0
 42
0.9999999999999998
  0
SEQEND
  5
56D
  8
5MM_MATERIAL
  0
POLYLINE
  5
8E
  8
5MM_MATERIAL
 66
     1
 10
0.0
 20
0.0
 30
0.0
 70
     1
  0
VERTEX
  5
42C
  8
5MM_MATERIAL
 10
-184.4799879452556
 20
-170.0928271175018
 30
0.0
 42
0.9999999999999998
  0
VERTEX
  5
42D
  8
5MM_MATERIAL
 10
-184.4799879452556
 20
-166.0928271175018
 30
0.0
 42
0.9999999999999998
  0
SEQEND
  5
56E
  8
5MM_MATERIAL
  0
POLYLINE
  5
8F
  8
5MM_MATERIAL
 66
     1
 10
0.0
 20
0.0
 30
0.0
 70
     1
  0
VERTEX
  5
42E
  8
5MM_MATERIAL
 10
-153.9799879452555
 20
-146.0870882595315
 30
0.0
 42
0.9999999999999998
  0
VERTEX
  5
42F
  8
5MM_MATERIAL
 10
-153.9799879452555
 20
-142.0870882595315
 30
0.0
 42
0.9999999999999998
  0
SEQEND
  5
56F
  8
5MM_MATERIAL
  0
POLYLINE
  5
90
  8
5MM_MATERIAL
 66
     1
 10
0.0
 20
0.0
 30
0.0
 70
     1
  0
VERTEX
  5
430
  8
5MM_MATERIAL
 10
-153.9799879452555
 20
9.605325740468487
 30
0.0
 42
-0.9999999999999998
  0
VERTEX
  5
431
  8
5MM_MATERIAL
 10
-153.9799879452555
 20
13.60532574046849
 30
0.0
 42
-0.9999999999999998
  0
SEQEND
  5
570
  8
5MM_MATERIAL
  0
POLYLINE
  5
91
  8
5MM_MATERIAL
 66
     1
 10
0.0
 20
0.0
 30
0.0
 70
     1
  0
VERTEX
  5
432
  8
5MM_MATERIAL
 10
-135.9008220547443
 20
-170.0928271175018
 30
0.0
 42
-0.9999999999999998
  0
VERTEX
  5
433
  8
5MM_MATERIAL
 10
-135.9008220547443
 20
-166.0928271175018
 30
0.0
 42
-0.9999999999999998
  0
SEQEND
  5
571
  8
5MM_MATERIAL
  0
POLYLINE
  5
92
  8
5MM_MATERIAL
 66
     1
 10
0.0
 20
0.0
 30
0.0
 70
     1
  0
VERTEX
  5
434
  8
5MM_MATERIAL
 10
-184.4799879452556
 20
-146.0870882595316
 30
0.0
 42
0.9999999999999998
  0
VERTEX
  5
435
  8
5MM_MATERIAL
 10
-184.4799879452556
 20
-142.0870882595316
 30
0.0
 42
0.9999999999999998
  0
SEQEND
  5
572
  8
5MM_MATERIAL
  0
POLYLINE
  5
93
  8
5MM_MATERIAL
 66
     1
 10
0.0
 20
0.0
 30
0.0
 70
     1
  0
VERTEX
  5
436
  8
5MM_MATERIAL
 10
-278.2743859999999
 20
18.36730699999978
 30
0.0
 42
-0.9999999999999998
  0
VERTEX
  5
437
  8
5MM_MATERIAL
 10
-278.2743859999999
 20
25.36730699999978
 30
0.0
 42
-0.9999999999999998
  0
SEQEND
  5
573
  8
5MM_MATERIAL
  0
POLYLINE
  5
94
  8
5MM_MATERIAL
 66
     1
 10
0.0
 20
0.0
 30
0.0
 70
     1
  0
VERTEX
  5
438
  8
5MM_MATERIAL
 10
-166.4008220547443
 20
9.605325740468487
 30
0.0
 42
-0.9999999999999998
  0
VERTEX
  5
439
  8
5MM_MATERIAL
 10
-166.4008220547443
 20
13.60532574046849
 30
0.0
 42
-0.9999999999999998
  0
SEQEND
  5
574
  8
5MM_MATERIAL
  0
POLYLINE
  5
95
  8
5MM_MATERIAL
 66
     1
 10
0.0
 20
0.0
 30
0.0
 70
     1
  0
VERTEX
  5
43A
  8
5MM_MATERIAL
 10
-135.9008220547443
 20
9.605325740468487
 30
0.0
 42
0.9999999999999998
  0
VERTEX
  5
43B
  8
5MM_MATERIAL
 10
-135.9008220547443
 20
13.60532574046849
 30
0.0
 42
0.9999999999999998
  0
SEQEND
  5
575
  8
5MM_MATERIAL
  0
POLYLINE
  5
96
  8
5MM_MATERIAL
 66
     1
 10
0.0
 20
0.0
 30
0.0
 70
     1
  0
VERTEX
  5
43C
  8
5MM_MATERIAL
 10
-180.683054972867
 20
-130.708854791003
 30
0.0
  0
VERTEX
  5
43D
  8
5MM_MATERIAL
 10
-180.9521368096291
 20
-130.711225520478
 30
0.0
  0
VERTEX
  5
43E
  8
5MM_MATERIAL
 10
-181.2143049655173
 20
-130.7657153418297
 30
0.0
  0
VERTEX
  5
43F
  8
5MM_MATERIAL
 10
-181.4605940467798
 20
-130.8690126537157
 30
0.0
  0
VERTEX
  5
440
  8
5MM_MATERIAL
 10
-181.6820386596644
 20
-131.0178058547937
 30
0.0
  0
VERTEX
  5
441
  8
5MM_MATERIAL
 10
-181.8697130358286
 20
-131.2079287446252
 30
0.0
  0
VERTEX
  5
442
  8
5MM_MATERIAL
 10
-182.0173548463615
 20
-131.431230838416
 30
0.0
  0
VERTEX
  5
443
  8
5MM_MATERIAL
 10
-182.119993856658
 20
-131.6784241082908
 30
0.0
  0
VERTEX
  5
444
  8
5MM_MATERIAL
 10
-182.1726598321133
 20
-131.9402205263741
 30
0.0
  0
VERTEX
  5
445
  8
5MM_MATERIAL
 10
-182.1720135137325
 20
-132.206955161216
 30
0.0
  0
VERTEX
  5
446
  8
5MM_MATERIAL
 10
-182.1196661845591
 20
-132.4688897645835
 30
0.0
  0
VERTEX
  5
447
  8
5MM_MATERIAL
 10
-182.0180734230462
 20
-132.7166263334273
 30
0.0
  0
VERTEX
  5
448
  8
5MM_MATERIAL
 10
-181.8696908076467
 20
-132.9407668646975
 30
0.0
  0
VERTEX
  5
449
  8
5MM_MATERIAL
 10
-181.6796359297909
 20
-133.1308363016151
 30
0.0
  0
VERTEX
  5
44A
  8
5MM_MATERIAL
 10
-181.4571346021897
 20
-133.2797635846944
 30
0.0
  0
VERTEX
  5
44B
  8
5MM_MATERIAL
 10
-181.2108047352176
 20
-133.3832567068255
 30
0.0
  0
VERTEX
  5
44C
  8
5MM_MATERIAL
 10
-180.9492642392488
 20
-133.4370236608993
 30
0.0
  0
VERTEX
  5
44D
  8
5MM_MATERIAL
 10
-180.6819389659172
 20
-133.4374954212512
 30
0.0
  0
VERTEX
  5
44E
  8
5MM_MATERIAL
 10
-180.4191972516876
 20
-133.3860339006587
 30
0.0
  0
VERTEX
  5
44F
  8
5MM_MATERIAL
 10
-180.1710707341815
 20
-133.2857434996748
 30
0.0
  0
VERTEX
  5
450
  8
5MM_MATERIAL
 10
-179.9475910510202
 20
-133.1397286188526
 30
0.0
  0
VERTEX
  5
451
  8
5MM_MATERIAL
 10
-179.7578318010288
 20
-132.952259268735
 30
0.0
  0
VERTEX
  5
452
  8
5MM_MATERIAL
 10
-179.6075893173492
 20
-132.7312241443815
 30
0.0
  0
VERTEX
  5
453
  8
5MM_MATERIAL
 10
-179.5019793390785
 20
-132.4851556731196
 30
0.0
  0
VERTEX
  5
454
  8
5MM_MATERIAL
 10
-179.4461176053135
 20
-132.2225862822772
 30
0.0
  0
VERTEX
  5
455
  8
5MM_MATERIAL
 10
-179.4439053787394
 20
-131.9541637091003
 30
0.0
  0
VERTEX
  5
456
  8
5MM_MATERIAL
 10
-179.4938300078044
 20
-131.691073179865
 30
0.0
  0
VERTEX
  5
457
  8
5MM_MATERIAL
 10
-179.5928863602499
 20
-131.4426533554456
 30
0.0
  0
VERTEX
  5
458
  8
5MM_MATERIAL
 10
-179.7380693038174
 20
-131.2182428967155
 30
0.0
  0
VERTEX
  5
459
  8
5MM_MATERIAL
 10
-179.9247959479958
 20
-131.027124975443
 30
0.0
  0
VERTEX
  5
45A
  8
5MM_MATERIAL
 10
-180.1450754418526
 20
-130.8756893918999
 30
0.0
  0
VERTEX
  5
45B
  8
5MM_MATERIAL
 10
-180.3907907124965
 20
-130.768934749716
 30
0.0
  0
VERTEX
  5
45C
  8
5MM_MATERIAL
 10
-180.6538246870365
 20
-130.7118596525211
 30
0.0
  0
VERTEX
  5
45D
  8
5MM_MATERIAL
 10
-180.6611267061426
 20
-130.7110595357881
 30
0.0
  0
VERTEX
  5
45E
  8
5MM_MATERIAL
 10
-180.6720855437221
 20
-130.7099082274869
 30
0.0
  0
SEQEND
  5
576
  8
5MM_MATERIAL
  0
POLYLINE
  5
97
  8
5MM_MATERIAL
 66
     1
 10
0.0
 20
0.0
 30
0.0
 70
     1
  0
VERTEX
  5
45F
  8
5MM_MATERIAL
 10
-166.4008220547443
 20
-14.40041311750159
 30
0.0
 42
-0.9999999999999998
  0
VERTEX
  5
460
  8
5MM_MATERIAL
 10
-166.4008220547443
 20
-10.40041311750159
 30
0.0
 42
-0.9999999999999998
  0
SEQEND
  5
577
  8
5MM_MATERIAL
  0
POLYLINE
  5
98
  8
5MM_MATERIAL
 66
     1
 10
0.0
 20
0.0
 30
0.0
 70
     1
  0
VERTEX
  5
461
  8
5MM_MATERIAL
 10
-278.2743859999999
 20
-181.755769
 30
0.0
 42
0.9999999999999998
  0
VERTEX
  5
462
  8
5MM_MATERIAL
 10
-278.2743859999999
 20
-174.7557690000001
 30
0.0
 42
0.9999999999999998
  0
SEQEND
  5
578
  8
5MM_MATERIAL
  0
POLYLINE
  5
99
  8
5MM_MATERIAL
 66
     1
 10
0.0
 20
0.0
 30
0.0
 70
     1
  0
VERTEX
  5
463
  8
5MM_MATERIAL
 10
-41.94999999999993
 20
18.26730699999982
 30
0.0
 42
0.9999999999999998
  0
VERTEX
  5
464
  8
5MM_MATERIAL
 10
-41.94999999999993
 20
25.26730699999982
 30
0.0
 42
0.9999999999999998
  0
SEQEND
  5
579
  8
5MM_MATERIAL
  0
POLYLINE
  5
9A
  8
5MM_MATERIAL
 66
     1
 10
0.0
 20
0.0
 30
0.0
 70
     1
  0
VERTEX
  5
465
  8
5MM_MATERIAL
 10
-172.4117793800124
 20
-130.881885261248
 30
0.0
 42
-0.9999999999999998
  0
VERTEX
  5
466
  8
5MM_MATERIAL
 10
-172.4117793800124
 20
-123.9658713533331
 30
0.0
 42
-0.9999999999999998
  0
SEQEND
  5
57A
  8
5MM_MATERIAL
  0
POLYLINE
  5
9B
  8
5MM_MATERIAL
 66
     1
 10
0.0
 20
0.0
 30
0.0
 70
     1
  0
VERTEX
  5
467
  8
5MM_MATERIAL
 10
-153.9799879452555
 20
-14.40041311750159
 30
0.0
 42
-0.9999999999999998
  0
VERTEX
  5
468
  8
5MM_MATERIAL
 10
-153.9799879452555
 20
-10.40041311750159
 30
0.0
 42
-0.9999999999999998
  0
SEQEND
  5
57B
  8
5MM_MATERIAL
  0
POLYLINE
  5
9C
  8
5MM_MATERIAL
 66
     1
 10
0.0
 20
0.0
 30
0.0
 70
     1
  0
VERTEX
  5
469
  8
5MM_MATERIAL
 10
-166.4008220547443
 20
-170.0928271175017
 30
0.0
 42
0.9999999999999998
  0
VERTEX
  5
46A
  8
5MM_MATERIAL
 10
-166.4008220547443
 20
-166.0928271175017
 30
0.0
 42
0.9999999999999998
  0
SEQEND
  5
57C
  8
5MM_MATERIAL
  0
POLYLINE
  5
9D
  8
5MM_MATERIAL
 66
     1
 10
0.0
 20
0.0
 30
0.0
 70
     1
  0
VERTEX
  5
46B
  8
5MM_MATERIAL
 10
-135.9008220547443
 20
-14.40041311750181
 30
0.0
 42
-0.9999999999999998
  0
VERTEX
  5
46C
  8
5MM_MATERIAL
 10
-135.9008220547443
 20
-10.40041311750181
 30
0.0
 42
-0.9999999999999998
  0
SEQEND
  5
57D
  8
5MM_MATERIAL
  0
POLYLINE
  5
9E
  8
5MM_MATERIAL
 66
     1
 10
0.0
 20
0.0
 30
0.0
 70
     1
  0
VERTEX
  5
46D
  8
5MM_MATERIAL
 10
-298.2499999999999
 20
-178.25
 30
0.0
 42
0.4142135623730958
  0
VERTEX
  5
46E
  8
5MM_MATERIAL
 10
-278.2499999999999
 20
-198.25
 30
0.0
  0
VERTEX
  5
46F
  8
5MM_MATERIAL
 10
-42.24999999999989
 20
-198.25
 30
0.0
 42
0.4142135623730942
  0
VERTEX
  5
470
  8
5MM_MATERIAL
 10
-22.24999999999989
 20
-178.25
 30
0.0
  0
VERTEX
  5
471
  8
5MM_MATERIAL
 10
-22.24999999999989
 20
21.74999999999997
 30
0.0
 42
0.4142135623730951
  0
VERTEX
  5
472
  8
5MM_MATERIAL
 10
-42.25
 20
41.74999999999997
 30
0.0
  0
VERTEX
  5
473
  8
5MM_MATERIAL
 10
-278.2499999999999
 20
41.7499999999998
 30
0.0
 42
0.414213562373094
  0
VERTEX
  5
474
  8
5MM_MATERIAL
 10
-298.2499999999999
 20
21.75000000000003
 30
0.0
  0
SEQEND
  5
57E
  8
5MM_MATERIAL
  0
POLYLINE
  5
9F
  8
5MM_MATERIAL
 66
     1
 10
0.0
 20
0.0
 30
0.0
 70
     1
  0
VERTEX
  5
475
  8
5MM_MATERIAL
 10
-166.4008220547443
 20
-146.0870882595315
 30
0.0
 42
0.9999999999999998
  0
VERTEX
  5
476
  8
5MM_MATERIAL
 10
-166.4008220547443
 20
-142.0870882595315
 30
0.0
 42
0.9999999999999998
  0
SEQEND
  5
57F
  8
5MM_MATERIAL
  0
POLYLINE
  5
A0
  8
5MM_MATERIAL
 66
     1
 10
0.0
 20
0.0
 30
0.0
 70
     1
  0
VERTEX
  5
477
  8
5MM_MATERIAL
 10
-135.9008220547443
 20
-146.0870882595316
 30
0.0
 42
0.9999999999999998
  0
VERTEX
  5
478
  8
5MM_MATERIAL
 10
-135.9008220547443
 20
-142.0870882595316
 30
0.0
 42
0.9999999999999998
  0
SEQEND
  5
580
  8
5MM_MATERIAL
  0
POLYLINE
  5
A1
  8
5MM_MATERIAL
 66
     1
 10
0.0
 20
0.0
 30
0.0
 70
     1
  0
VERTEX
  5
479
  8
5MM_MATERIAL
 10
-42.0499999999999
 20
-181.855769
 30
0.0
 42
-0.9999999999999998
  0
VERTEX
  5
47A
  8
5MM_MATERIAL
 10
-42.0499999999999
 20
-174.855769
 30
0.0
 42
-0.9999999999999998
  0
SEQEND
  5
581
  8
5MM_MATERIAL
  0
POLYLINE
  5
A2
  8
5MM_MATERIAL
 66
     1
 10
0.0
 20
0.0
 30
0.0
 70
     1
  0
VERTEX
  5
47B
  8
5MM_MATERIAL
 10
-180.33191724147
 20
-70.52017898231043
 30
0.0
  0
VERTEX
  5
47C
  8
5MM_MATERIAL
 10
-180.512131035031
 20
-70.73279703549153
 30
0.0
  0
VERTEX
  5
47D
  8
5MM_MATERIAL
 10
-180.6473396944486
 20
-70.95874381040647
 30
0.0
  0
VERTEX
  5
47E
  8
5MM_MATERIAL
 10
-180.737186028408
 20
-71.18354976348253
 30
0.0
  0
VERTEX
  5
47F
  8
5MM_MATERIAL
 10
-180.7923586754248
 20
-71.42080724743762
 30
0.0
  0
VERTEX
  5
480
  8
5MM_MATERIAL
 10
-180.8121929997995
 20
-71.67865820806838
 30
0.0
  0
VERTEX
  5
481
  8
5MM_MATERIAL
 10
-180.8121930000003
 20
-104.3913956805237
 30
0.0
  0
VERTEX
  5
482
  8
5MM_MATERIAL
 10
-180.7933028932401
 20
-104.6438100948051
 30
0.0
  0
VERTEX
  5
483
  8
5MM_MATERIAL
 10
-180.7408261162174
 20
-104.8746260408741
 30
0.0
  0
VERTEX
  5
484
  8
5MM_MATERIAL
 10
-180.6441320562136
 20
-105.1166836093655
 30
0.0
  0
VERTEX
  5
485
  8
5MM_MATERIAL
 10
-180.5102623099354
 20
-105.3391385073984
 30
0.0
  0
VERTEX
  5
486
  8
5MM_MATERIAL
 10
-180.3319832879991
 20
-105.5493218446177
 30
0.0
  0
VERTEX
  5
487
  8
5MM_MATERIAL
 10
-177.7266002218493
 20
-108.1546769173826
 30
0.0
  0
VERTEX
  5
488
  8
5MM_MATERIAL
 10
-177.524061683043
 20
-108.3267980710121
 30
0.0
  0
VERTEX
  5
489
  8
5MM_MATERIAL
 10
-177.3094588388496
 20
-108.4573755271982
 30
0.0
  0
VERTEX
  5
48A
  8
5MM_MATERIAL
 10
-177.0765578705254
 20
-108.5538462670336
 30
0.0
  0
VERTEX
  5
48B
  8
5MM_MATERIAL
 10
-176.8324785395094
 20
-108.6132611887583
 30
0.0
  0
VERTEX
  5
48C
  8
5MM_MATERIAL
 10
-176.5675552031346
 20
-108.6347694410199
 30
0.0
  0
VERTEX
  5
48D
  8
5MM_MATERIAL
 10
-143.8568307971681
 20
-108.6347694410199
 30
0.0
  0
VERTEX
  5
48E
  8
5MM_MATERIAL
 10
-143.5919074607727
 20
-108.6132611888327
 30
0.0
  0
VERTEX
  5
48F
  8
5MM_MATERIAL
 10
-143.3478281299321
 20
-108.5538462672928
 30
0.0
  0
VERTEX
  5
490
  8
5MM_MATERIAL
 10
-143.114927161916
 20
-108.4573755277219
 30
0.0
  0
VERTEX
  5
491
  8
5MM_MATERIAL
 10
-142.9003243180075
 20
-108.3267980717951
 30
0.0
  0
VERTEX
  5
492
  8
5MM_MATERIAL
 10
-142.6977862824036
 20
-108.1546773458285
 30
0.0
  0
VERTEX
  5
493
  8
5MM_MATERIAL
 10
-142.0521403460463
 20
-107.5090340910511
 30
0.0
  0
VERTEX
  5
494
  8
5MM_MATERIAL
 10
-141.3950319751654
 20
-106.8519302686745
 30
0.0
  0
VERTEX
  5
495
  8
5MM_MATERIAL
 10
-140.0924684212923
 20
-105.5493595018517
 30
0.0
  0
VERTEX
  5
496
  8
5MM_MATERIAL
 10
-139.912254964918
 20
-105.3367418464782
 30
0.0
  0
VERTEX
  5
497
  8
5MM_MATERIAL
 10
-139.7770488089432
 20
-105.1107992551967
 30
0.0
  0
VERTEX
  5
498
  8
5MM_MATERIAL
 10
-139.6872004642073
 20
-104.8859724676581
 30
0.0
  0
VERTEX
  5
499
  8
5MM_MATERIAL
 10
-139.6320353559891
 20
-104.6486880360326
 30
0.0
  0
VERTEX
  5
49A
  8
5MM_MATERIAL
 10
-139.6122126021901
 20
-104.3907921570572
 30
0.0
  0
VERTEX
  5
49B
  8
5MM_MATERIAL
 10
-139.6121930089526
 20
-71.67814308189509
 30
0.0
  0
VERTEX
  5
49C
  8
5MM_MATERIAL
 10
-139.6310831067812
 20
-71.42572878696754
 30
0.0
  0
VERTEX
  5
49D
  8
5MM_MATERIAL
 10
-139.6835598837801
 20
-71.194912840733
 30
0.0
  0
VERTEX
  5
49E
  8
5MM_MATERIAL
 10
-139.7802539436626
 20
-70.9528552727174
 30
0.0
  0
VERTEX
  5
49F
  8
5MM_MATERIAL
 10
-139.9141236897872
 20
-70.73040037501997
 30
0.0
  0
VERTEX
  5
4A0
  8
5MM_MATERIAL
 10
-140.09240435829
 20
-70.52021509659511
 30
0.0
  0
VERTEX
  5
4A1
  8
5MM_MATERIAL
 10
-140.7379103373145
 20
-69.8746996471023
 30
0.0
  0
VERTEX
  5
4A2
  8
5MM_MATERIAL
 10
-141.3950175984388
 20
-69.2175988035902
 30
0.0
  0
VERTEX
  5
4A3
  8
5MM_MATERIAL
 10
-142.6976015328625
 20
-67.91504605428943
 30
0.0
  0
VERTEX
  5
4A4
  8
5MM_MATERIAL
 10
-142.9102205945938
 20
-67.73483140590861
 30
0.0
  0
VERTEX
  5
4A5
  8
5MM_MATERIAL
 10
-143.1361631859843
 20
-67.59962524999375
 30
0.0
  0
VERTEX
  5
4A6
  8
5MM_MATERIAL
 10
-143.3609899738026
 20
-67.50977690526877
 30
0.0
  0
VERTEX
  5
4A7
  8
5MM_MATERIAL
 10
-143.5982744057727
 20
-67.45461179709677
 30
0.0
  0
VERTEX
  5
4A8
  8
5MM_MATERIAL
 10
-143.8561702851447
 20
-67.43478904333021
 30
0.0
  0
VERTEX
  5
4A9
  8
5MM_MATERIAL
 10
-176.5688193591288
 20
-67.43476944997232
 30
0.0
  0
VERTEX
  5
4AA
  8
5MM_MATERIAL
 10
-176.8212336543222
 20
-67.45365954781714
 30
0.0
  0
VERTEX
  5
4AB
  8
5MM_MATERIAL
 10
-177.0520496007562
 20
-67.5061363248969
 30
0.0
  0
VERTEX
  5
4AC
  8
5MM_MATERIAL
 10
-177.2941071686285
 20
-67.60283038482976
 30
0.0
  0
VERTEX
  5
4AD
  8
5MM_MATERIAL
 10
-177.5165620662481
 20
-67.73670013102853
 30
0.0
  0
VERTEX
  5
4AE
  8
5MM_MATERIAL
 10
-177.7267454031615
 20
-67.91497915280878
 30
0.0
  0
SEQEND
  5
582
  8
5MM_MATERIAL
  0
POLYLINE
  5
A4
  8
TEXT
 66
     1
 10
0.0
 20
0.0
 30
0.0
 70
     1
  0
VERTEX
  5
4AF
  8
TEXT
 10
71.79760703078094
 20
-79.21878938556515
 30
0.0
  0
VERTEX
  5
4B0
  8
TEXT
 10
71.79760703078094
 20
-77.89546059975342
 30
0.0
  0
VERTEX
  5
4B1
  8
TEXT
 10
67.35695218767049
 20
-77.89546059975342
 30
0.0
  0
VERTEX
  5
4B2
  8
TEXT
 10
67.35695218767049
 20
-76.36067205950783
 30
0.0
  0
VERTEX
  5
4B3
  8
TEXT
 10
67.36888943187236
 20
-75.92069934463744
 30
0.0
  0
VERTEX
  5
4B4
  8
TEXT
 10
67.38381098712473
 20
-75.75443058611084
 30
0.0
  0
VERTEX
  5
4B5
  8
TEXT
 10
67.4047011644781
 20
-75.62397356018997
 30
0.0
  0
VERTEX
  5
4B6
  8
TEXT
 10
67.44946583023524
 20
-75.4711342013905
 30
0.0
  0
VERTEX
  5
4B7
  8
TEXT
 10
67.5087257210947
 20
-75.31957383304126
 30
0.0
  0
VERTEX
  5
4B8
  8
TEXT
 10
67.58248083705651
 20
-75.16929245514221
 30
0.0
  0
VERTEX
  5
4B9
  8
TEXT
 10
67.67073117812063
 20
-75.02029006769337
 30
0.0
  0
VERTEX
  5
4BA
  8
TEXT
 10
67.7841349980388
 20
-74.86702437874385
 30
0.0
  0
VERTEX
  5
4BB
  8
TEXT
 10
67.93335055056268
 20
-74.70395309634276
 30
0.0
  0
VERTEX
  5
4BC
  8
TEXT
 10
68.1183778356923
 20
-74.5310762204901
 30
0.0
  0
VERTEX
  5
4BD
  8
TEXT
 10
68.33921685342764
 20
-74.34839375118591
 30
0.0
  0
VERTEX
  5
4BE
  8
TEXT
 10
68.60439420677007
 20
-74.14801858065381
 30
0.0
  0
VERTEX
  5
4BF
  8
TEXT
 10
68.92243649872093
 20
-73.92206360111766
 30
0.0
  0
VERTEX
  5
4C0
  8
TEXT
 10
69.29334372928025
 20
-73.6705288125774
 30
0.0
  0
VERTEX
  5
4C1
  8
TEXT
 10
69.71711589844804
 20
-73.39341421503306
 30
0.0
  0
VERTEX
  5
4C2
  8
TEXT
 10
71.79760703078094
 20
-72.07008542922134
 30
0.0
  0
VERTEX
  5
4C3
  8
TEXT
 10
71.79760703078094
 20
-70.40569252335504
 30
0.0
  0
VERTEX
  5
4C4
  8
TEXT
 10
69.07591535274551
 20
-72.14511953563337
 30
0.0
  0
VERTEX
  5
4C5
  8
TEXT
 10
68.69349720813429
 20
-72.40816523822545
 30
0.0
  0
VERTEX
  5
4C6
  8
TEXT
 10
68.3443328152284
 20
-72.67888488351875
 30
0.0
  0
VERTEX
  5
4C7
  8
TEXT
 10
68.02842217402784
 20
-72.95727847151329
 30
0.0
  0
VERTEX
  5
4C8
  8
TEXT
 10
67.74576528453261
 20
-73.24334600220905
 30
0.0
  0
VERTEX
  5
4C9
  8
TEXT
 10
67.6225558711629
 20
-73.39554586578342
 30
0.0
  0
VERTEX
  5
4CA
  8
TEXT
 10
67.49849379749307
 20
-73.57929416046281
 30
0.0
  0
VERTEX
  5
4CB
  8
TEXT
 10
67.37357906352311
 20
-73.79459088624728
 30
0.0
  0
VERTEX
  5
4CC
  8
TEXT
 10
67.24781166925303
 20
-74.04143604313677
 30
0.0
  0
VERTEX
  5
4CD
  8
TEXT
 10
67.19004393391876
 20
-73.69333747560609
 30
0.0
  0
VERTEX
  5
4CE
  8
TEXT
 10
67.11564932273184
 20
-73.36868706632913
 30
0.0
  0
VERTEX
  5
4CF
  8
TEXT
 10
67.02462783569227
 20
-73.06748481530593
 30
0.0
  0
VERTEX
  5
4D0
  8
TEXT
 10
66.91697947280004
 20
-72.7897307225365
 30
0.0
  0
VERTEX
  5
4D1
  8
TEXT
 10
66.79270423405514
 20
-72.5354247880208
 30
0.0
  0
VERTEX
  5
4D2
  8
TEXT
 10
66.65180211945759
 20
-72.30456701175888
 30
0.0
  0
VERTEX
  5
4D3
  8
TEXT
 10
66.49427312900737
 20
-72.0971573937507
 30
0.0
  0
VERTEX
  5
4D4
  8
TEXT
 10
66.32011726270449
 20
-71.91319593399626
 30
0.0
  0
VERTEX
  5
4D5
  8
TEXT
 10
66.13242541413697
 20
-71.75172338965793
 30
0.0
  0
VERTEX
  5
4D6
  8
TEXT
 10
65.93428847689277
 20
-71.61178051789804
 30
0.0
  0
VERTEX
  5
4D7
  8
TEXT
 10
65.72570645097191
 20
-71.49336731871658
 30
0.0
  0
VERTEX
  5
4D8
  8
TEXT
 10
65.50667933637438
 20
-71.39648379211357
 30
0.0
  0
VERTEX
  5
4D9
  8
TEXT
 10
65.27720713310018
 20
-71.32112993808902
 30
0.0
  0
VERTEX
  5
4DA
  8
TEXT
 10
65.03728984114927
 20
-71.26730575664291
 30
0.0
  0
VERTEX
  5
4DB
  8
TEXT
 10
64.78692746052172
 20
-71.23501124777523
 30
0.0
  0
VERTEX
  5
4DC
  8
TEXT
 10
64.52611999121748
 20
-71.224246411486
 30
0.0
  0
VERTEX
  5
4DD
  8
TEXT
 10
64.32201443187233
 20
-71.23074794627456
 30
0.0
  0
VERTEX
  5
4DE
  8
TEXT
 10
64.1223853391029
 20
-71.25025255064017
 30
0.0
  0
VERTEX
  5
4DF
  8
TEXT
 10
63.92723271290917
 20
-71.28276022458289
 30
0.0
  0
VERTEX
  5
4E0
  8
TEXT
 10
63.73655655329117
 20
-71.32827096810266
 30
0.0
  0
VERTEX
  5
4E1
  8
TEXT
 10
63.55035686024886
 20
-71.38678478119954
 30
0.0
  0
VERTEX
  5
4E2
  8
TEXT
 10
63.36863363378228
 20
-71.45830166387347
 30
0.0
  0
VERTEX
  5
4E3
  8
TEXT
 10
63.19138687389141
 20
-71.54282161612451
 30
0.0
  0
VERTEX
  5
4E4
  8
TEXT
 10
63.01861658057626
 20
-71.64034463795261
 30
0.0
  0
VERTEX
  5
4E5
  8
TEXT
 10
62.85453276406876
 20
-71.74873907860746
 30
0.0
  0
VERTEX
  5
4E6
  8
TEXT
 10
62.70334543460082
 20
-71.86587328733869
 30
0.0
  0
VERTEX
  5
4E7
  8
TEXT
 10
62.56505459217244
 20
-71.99174726414631
 30
0.0
  0
VERTEX
  5
4E8
  8
TEXT
 10
62.43966023678364
 20
-72.12636100903035
 30
0.0
  0
VERTEX
  5
4E9
  8
TEXT
 10
62.32716236843439
 20
-72.26971452199078
 30
0.0
  0
VERTEX
  5
4EA
  8
TEXT
 10
62.22756098712472
 20
-72.4218078030276
 30
0.0
  0
VERTEX
  5
4EB
  8
TEXT
 10
62.14085609285462
 20
-72.58264085214084
 30
0.0
  0
VERTEX
  5
4EC
  8
TEXT
 10
62.06704768562409
 20
-72.75221366933047
 30
0.0
  0
VERTEX
  5
4ED
  8
TEXT
 10
62.00389753214523
 20
-72.93617512908492
 30
0.0
  0
VERTEX
  5
4EE
  8
TEXT
 10
61.94916739913021
 20
-73.14017410589256
 30
0.0
  0
VERTEX
  5
4EF
  8
TEXT
 10
61.90285728657905
 20
-73.36421059975342
 30
0.0
  0
VERTEX
  5
4F0
  8
TEXT
 10
61.86496719449173
 20
-73.60828461066747
 30
0.0
  0
VERTEX
  5
4F1
  8
TEXT
 10
61.83549712286826
 20
-73.87239613863474
 30
0.0
  0
VERTEX
  5
4F2
  8
TEXT
 10
61.81444707170863
 20
-74.15654518365521
 30
0.0
  0
VERTEX
  5
4F3
  8
TEXT
 10
61.80181704101287
 20
-74.46073174572889
 30
0.0
  0
VERTEX
  5
4F4
  8
TEXT
 10
61.79760703078094
 20
-74.78495582485576
 30
0.0
  0
VERTEX
  5
4F5
  8
TEXT
 10
61.79760703078094
 20
-79.21878938556515
 30
0.0
  0
SEQEND
  5
583
  8
TEXT
  0
POLYLINE
  5
A5
  8
TEXT
 66
     1
 10
0.0
 20
0.0
 30
0.0
 70
     1
  0
VERTEX
  5
4F6
  8
TEXT
 10
66.21097674428702
 20
-77.89546059975342
 30
0.0
  0
VERTEX
  5
4F7
  8
TEXT
 10
62.9026547797578
 20
-77.89546059975342
 30
0.0
  0
VERTEX
  5
4F8
  8
TEXT
 10
62.9026547797578
 20
-74.73038556564703
 30
0.0
  0
VERTEX
  5
4F9
  8
TEXT
 10
62.90979580977143
 20
-74.46174427983529
 30
0.0
  0
VERTEX
  5
4FA
  8
TEXT
 10
62.93121889981235
 20
-74.21175493808903
 30
0.0
  0
VERTEX
  5
4FB
  8
TEXT
 10
62.96692404988055
 20
-73.98041754040827
 30
0.0
  0
VERTEX
  5
4FC
  8
TEXT
 10
63.01691125997604
 20
-73.76773208679296
 30
0.0
  0
VERTEX
  5
4FD
  8
TEXT
 10
63.08118053009881
 20
-73.57369857724319
 30
0.0
  0
VERTEX
  5
4FE
  8
TEXT
 10
63.15973186024888
 20
-73.39831701175888
 30
0.0
  0
VERTEX
  5
4FF
  8
TEXT
 10
63.25256525042624
 20
-73.24158739034007
 30
0.0
  0
VERTEX
  5
500
  8
TEXT
 10
63.35968070063089
 20
-73.10350971298672
 30
0.0
  0
VERTEX
  5
501
  8
TEXT
 10
63.47788073473728
 20
-72.98280498924865
 30
0.0
  0
VERTEX
  5
502
  8
TEXT
 10
63.60396787661995
 20
-72.87819422867565
 30
0.0
  0
VERTEX
  5
503
  8
TEXT
 10
63.73794212627888
 20
-72.78967743126773
 30
0.0
  0
VERTEX
  5
504
  8
TEXT
 10
63.87980348371407
 20
-72.71725459702489
 30
0.0
  0
VERTEX
  5
505
  8
TEXT
 10
64.02955194892553
 20
-72.66092572594712
 30
0.0
  0
VERTEX
  5
506
  8
TEXT
 10
64.18718752191326
 20
-72.62069081803443
 30
0.0
  0
VERTEX
  5
507
  8
TEXT
 10
64.35271020267724
 20
-72.59654987328682
 30
0.0
  0
VERTEX
  5
508
  8
TEXT
 10
64.52611999121748
 20
-72.58850289170428
 30
0.0
  0
VERTEX
  5
509
  8
TEXT
 10
64.64607863719294
 20
-72.59265961066744
 30
0.0
  0
VERTEX
  5
50A
  8
TEXT
 10
64.76379904988055
 20
-72.60512976755695
 30
0.0
  0
VERTEX
  5
50B
  8
TEXT
 10
64.87928122928028
 20
-72.62591336237277
 30
0.0
  0
VERTEX
  5
50C
  8
TEXT
 10
64.99252517539216
 20
-72.65501039511494
 30
0.0
  0
VERTEX
  5
50D
  8
TEXT
 10
65.10353088821617
 20
-72.69242086578342
 30
0.0
  0
VERTEX
  5
50E
  8
TEXT
 10
65.21229836775233
 20
-72.73814477437824
 30
0.0
  0
VERTEX
  5
50F
  8
TEXT
 10
65.31882761400061
 20
-72.79218212089938
 30
0.0
  0
VERTEX
  5
510
  8
TEXT
 10
65.42311862696104
 20
-72.85453290534687
 30
0.0
  0
VERTEX
  5
511
  8
TEXT
 10
65.52277329953947
 20
-72.92487738010811
 30
0.0
  0
VERTEX
  5
512
  8
TEXT
 10
65.61539352464179
 20
-73.0028957975706
 30
0.0
  0
VERTEX
  5
513
  8
TEXT
 10
65.70097930226797
 20
-73.0885881577343
 30
0.0
  0
VERTEX
  5
514
  8
TEXT
 10
65.77953063241804
 20
-73.18195446059926
 30
0.0
  0
VERTEX
  5
515
  8
TEXT
 10
65.85104751509198
 20
-73.28299470616543
 30
0.0
  0
VERTEX
  5
516
  8
TEXT
 10
65.91552995028981
 20
-73.39170889443281
 30
0.0
  0
VERTEX
  5
517
  8
TEXT
 10
65.9729779380115
 20
-73.50809702540144
 30
0.0
  0
VERTEX
  5
518
  8
TEXT
 10
66.02339147825708
 20
-73.63215909907129
 30
0.0
  0
VERTEX
  5
519
  8
TEXT
 10
66.06735677498288
 20
-73.76623993126775
 30
0.0
  0
VERTEX
  5
51A
  8
TEXT
 10
66.10546003214522
 20
-73.91268433781617
 30
0.0
  0
VERTEX
  5
51B
  8
TEXT
 10
66.13770124974411
 20
-74.07149231871658
 30
0.0
  0
VERTEX
  5
51C
  8
TEXT
 10
66.16408042777957
 20
-74.24266387396897
 30
0.0
  0
VERTEX
  5
51D
  8
TEXT
 10
66.19925266516016
 20
-74.62209770752968
 30
0.0
  0
VERTEX
  5
51E
  8
TEXT
 10
66.21097674428702
 20
-75.05098583849829
 30
0.0
  0
SEQEND
  5
584
  8
TEXT
  0
POLYLINE
  5
A6
  8
TEXT
 66
     1
 10
0.0
 20
0.0
 30
0.0
 70
     1
  0
VERTEX
  5
51F
  8
TEXT
 10
71.36263843248524
 20
-86.6138102034206
 30
0.0
  0
VERTEX
  5
520
  8
TEXT
 10
67.1268278388967
 20
-86.57205722411982
 30
0.0
  0
VERTEX
  5
521
  8
TEXT
 10
61.32513639785429
 20
-90.36908092439143
 30
0.0
  0
VERTEX
  5
522
  8
TEXT
 10
61.34100387468996
 20
-88.7593364798071
 30
0.0
  0
VERTEX
  5
523
  8
TEXT
 10
64.37529516838418
 20
-86.81779953182587
 30
0.0
  0
VERTEX
  5
524
  8
TEXT
 10
64.80083731138137
 20
-86.55381946863136
 30
0.0
  0
VERTEX
  5
525
  8
TEXT
 10
65.22628700615546
 20
-86.29921821311189
 30
0.0
  0
VERTEX
  5
526
  8
TEXT
 10
65.65164425270652
 20
-86.05399576526743
 30
0.0
  0
VERTEX
  5
527
  8
TEXT
 10
66.07690905103449
 20
-85.81815212509792
 30
0.0
  0
VERTEX
  5
528
  8
TEXT
 10
65.67467781141838
 20
-85.57713619641513
 30
0.0
  0
VERTEX
  5
529
  8
TEXT
 10
65.24795594704521
 20
-85.31200321197144
 30
0.0
  0
VERTEX
  5
52A
  8
TEXT
 10
64.32104034402735
 20
-84.70938607580143
 30
0.0
  0
VERTEX
  5
52B
  8
TEXT
 10
61.40030520760962
 20
-82.74325766572441
 30
0.0
  0
VERTEX
  5
52C
  8
TEXT
 10
61.41550033373196
 20
-81.20172273150382
 30
0.0
  0
VERTEX
  5
52D
  8
TEXT
 10
67.13987144273622
 20
-85.24879272306346
 30
0.0
  0
VERTEX
  5
52E
  8
TEXT
 10
71.37568203632495
 20
-85.2905457023638
 30
0.0
  0
SEQEND
  5
585
  8
TEXT
  0
POLYLINE
  5
A7
  8
TEXT
 66
     1
 10
0.0
 20
0.0
 30
0.0
 70
     1
  0
VERTEX
  5
52F
  8
TEXT
 10
-113.8392934301986
 20
-104.4388987035521
 30
0.0
  0
VERTEX
  5
530
  8
TEXT
 10
-124.2622129390663
 20
-96.70356446071442
 30
0.0
  0
VERTEX
  5
531
  8
TEXT
 10
-133.8392934301986
 20
-103.5248468618058
 30
0.0
  0
VERTEX
  5
532
  8
TEXT
 10
-133.8392934301986
 20
-100.3734143925016
 30
0.0
  0
VERTEX
  5
533
  8
TEXT
 10
-128.7096890645779
 20
-96.74449215512097
 30
0.0
  0
VERTEX
  5
534
  8
TEXT
 10
-127.9576426798576
 20
-96.21925341023692
 30
0.0
  0
VERTEX
  5
535
  8
TEXT
 10
-127.297683607552
 20
-95.77587005416598
 30
0.0
  0
VERTEX
  5
536
  8
TEXT
 10
-126.7298118476611
 20
-95.41434208690814
 30
0.0
  0
VERTEX
  5
537
  8
TEXT
 10
-126.254027400185
 20
-95.13466950846339
 30
0.0
  0
VERTEX
  5
538
  8
TEXT
 10
-126.8056986143732
 20
-94.78507878540746
 30
0.0
  0
VERTEX
  5
539
  8
TEXT
 10
-127.3693070727634
 20
-94.40479229154661
 30
0.0
  0
VERTEX
  5
53A
  8
TEXT
 10
-127.9448527753555
 20
-93.99381002688087
 30
0.0
  0
VERTEX
  5
53B
  8
TEXT
 10
-128.5323357221495
 20
-93.55213199141018
 30
0.0
  0
VERTEX
  5
53C
  8
TEXT
 10
-133.8392934301986
 20
-89.52757537476626
 30
0.0
  0
VERTEX
  5
53D
  8
TEXT
 10
-133.8392934301986
 20
-86.64899420150567
 30
0.0
  0
VERTEX
  5
53E
  8
TEXT
 10
-124.4122811518903
 20
-93.67491507462982
 30
0.0
  0
VERTEX
  5
53F
  8
TEXT
 10
-113.8392934301986
 20
-86.10329160941836
 30
0.0
  0
VERTEX
  5
540
  8
TEXT
 10
-113.8392934301986
 20
-89.37750716194225
 30
0.0
  0
VERTEX
  5
541
  8
TEXT
 10
-120.9743548217402
 20
-94.4116135739477
 30
0.0
  0
VERTEX
  5
542
  8
TEXT
 10
-121.6155553674428
 20
-94.84135436521646
 30
0.0
  0
VERTEX
  5
543
  8
TEXT
 10
-122.3113261723541
 20
-95.2847377212874
 30
0.0
  0
VERTEX
  5
544
  8
TEXT
 10
-121.3904530482068
 20
-95.85772544297907
 30
0.0
  0
VERTEX
  5
545
  8
TEXT
 10
-120.810644044114
 20
-96.23971725744019
 30
0.0
  0
VERTEX
  5
546
  8
TEXT
 10
-113.8392934301986
 20
-101.2601811046435
 30
0.0
  0
SEQEND
  5
586
  8
TEXT
  0
POLYLINE
  5
A8
  8
TEXT
 66
     1
 10
0.0
 20
0.0
 30
0.0
 70
     1
  0
VERTEX
  5
547
  8
TEXT
 10
-113.8392934301986
 20
-78.6817363570309
 30
0.0
  0
VERTEX
  5
548
  8
TEXT
 10
-131.479129719421
 20
-78.6817363570309
 30
0.0
  0
VERTEX
  5
549
  8
TEXT
 10
-131.479129719421
 20
-85.2710951564852
 30
0.0
  0
VERTEX
  5
54A
  8
TEXT
 10
-133.8392934301986
 20
-85.2710951564852
 30
0.0
  0
VERTEX
  5
54B
  8
TEXT
 10
-133.8392934301986
 20
-69.41843485634878
 30
0.0
  0
VERTEX
  5
54C
  8
TEXT
 10
-131.479129719421
 20
-69.41843485634878
 30
0.0
  0
VERTEX
  5
54D
  8
TEXT
 10
-131.479129719421
 20
-76.03507878540744
 30
0.0
  0
VERTEX
  5
54E
  8
TEXT
 10
-113.8392934301986
 20
-76.03507878540744
 30
0.0
  0
SEQEND
  5
587
  8
TEXT
  0
ENDSEC
  0
EOF
