  0
SECTION
  2
HEADER
  9
$ACADVER
  1
AC1009
  9
$DWGCODEPAGE
  3
ansi_1252
  9
$INSBASE
 10
0.0
 20
0.0
 30
0.0
  9
$EXTMIN
 10
-298.25
 20
-198.25
 30
0.0
  9
$EXTMAX
 10
254.7500000000002
 20
41.75000000000003
 30
0.0
  9
$LIMMIN
 10
0.0
 20
0.0
  9
$LIMMAX
 10
12.0
 20
9.0
  9
$ORTHOMODE
 70
     0
  9
$REGENMODE
 70
     1
  9
$FILLMODE
 70
     1
  9
$QTEXTMODE
 70
     0
  9
$MIRRTEXT
 70
     1
  9
$DRAGMODE
 70
     2
  9
$LTSCALE
 40
1.0
  9
$OSMODE
 70
    37
  9
$ATTMODE
 70
     1
  9
$TEXTSIZE
 40
0.2
  9
$TRACEWID
 40
0.05
  9
$TEXTSTYLE
  7
STANDARD
  9
$CLAYER
  8
0
  9
$CELTYPE
  6
BYLAYER
  9
$CECOLOR
 62
   256
  9
$DIMSCALE
 40
1.0
  9
$DIMASZ
 40
0.18
  9
$DIMEXO
 40
0.0625
  9
$DIMDLI
 40
0.38
  9
$DIMRND
 40
0.0
  9
$DIMDLE
 40
0.0
  9
$DIMEXE
 40
0.18
  9
$DIMTP
 40
0.0
  9
$DIMTM
 40
0.0
  9
$DIMTXT
 40
0.18
  9
$DIMCEN
 40
0.09
  9
$DIMTSZ
 40
0.0
  9
$DIMTOL
 70
     0
  9
$DIMLIM
 70
     0
  9
$DIMTIH
 70
     1
  9
$DIMTOH
 70
     1
  9
$DIMSE1
 70
     0
  9
$DIMSE2
 70
     0
  9
$DIMTAD
 70
     0
  9
$DIMZIN
 70
     0
  9
$DIMBLK
  1

  9
$DIMASO
 70
     1
  9
$DIMSHO
 70
     1
  9
$DIMPOST
  1

  9
$DIMAPOST
  1

  9
$DIMALT
 70
     0
  9
$DIMALTD
 70
     2
  9
$DIMALTF
 40
25.4
  9
$DIMLFAC
 40
1.0
  9
$DIMTOFL
 70
     0
  9
$DIMTVP
 40
0.0
  9
$DIMTIX
 70
     0
  9
$DIMSOXD
 70
     0
  9
$DIMSAH
 70
     0
  9
$DIMBLK1
  1

  9
$DIMBLK2
  1

  9
$DIMSTYLE
  2
STANDARD
  9
$DIMCLRD
 70
     0
  9
$DIMCLRE
 70
     0
  9
$DIMCLRT
 70
     0
  9
$DIMTFAC
 40
1.0
  9
$DIMGAP
 40
0.09
  9
$LUNITS
 70
     2
  9
$LUPREC
 70
     4
  9
$SKETCHINC
 40
0.1
  9
$FILLETRAD
 40
0.5
  9
$AUNITS
 70
     0
  9
$AUPREC
 70
     0
  9
$MENU
  1
.
  9
$ELEVATION
 40
0.0
  9
$PELEVATION
 40
0.0
  9
$THICKNESS
 40
0.0
  9
$LIMCHECK
 70
     0
  9
$CHAMFERA
 40
0.0
  9
$CHAMFERB
 40
0.0
  9
$SKPOLY
 70
     0
  9
$TDCREATE
 40
2454910.5
  9
$TDUPDATE
 40
2457693.624170914
  9
$TDINDWG
 40
0.0000000116
  9
$TDUSRTIMER
 40
0.0000000116
  9
$USRTIMER
 70
     1
  9
$ANGBASE
 50
0.0
  9
$ANGDIR
 70
     0
  9
$PDMODE
 70
     0
  9
$PDSIZE
 40
0.0
  9
$PLINEWID
 40
0.0
  9
$COORDS
 70
     1
  9
$SPLFRAME
 70
     0
  9
$SPLINETYPE
 70
     6
  9
$SPLINESEGS
 70
     8
  9
$ATTDIA
 70
     0
  9
$ATTREQ
 70
     1
  9
$HANDLING
 70
     1
  9
$HANDSEED
  5
4CA
  9
$SURFTAB1
 70
     6
  9
$SURFTAB2
 70
     6
  9
$SURFTYPE
 70
     6
  9
$SURFU
 70
     6
  9
$SURFV
 70
     6
  9
$UCSNAME
  2

  9
$UCSORG
 10
0.0
 20
0.0
 30
0.0
  9
$UCSXDIR
 10
1.0
 20
0.0
 30
0.0
  9
$UCSYDIR
 10
0.0
 20
1.0
 30
0.0
  9
$PUCSNAME
  2

  9
$PUCSORG
 10
0.0
 20
0.0
 30
0.0
  9
$PUCSXDIR
 10
1.0
 20
0.0
 30
0.0
  9
$PUCSYDIR
 10
0.0
 20
1.0
 30
0.0
  9
$USERI1
 70
     0
  9
$USERI2
 70
     0
  9
$USERI3
 70
     0
  9
$USERI4
 70
     0
  9
$USERI5
 70
     0
  9
$USERR1
 40
0.0
  9
$USERR2
 40
0.0
  9
$USERR3
 40
0.0
  9
$USERR4
 40
0.0
  9
$USERR5
 40
0.0
  9
$WORLDVIEW
 70
     1
  9
$SHADEDGE
 70
     3
  9
$SHADEDIF
 70
    70
  9
$TILEMODE
 70
     1
  9
$MAXACTVP
 70
    64
  9
$PLIMCHECK
 70
     0
  9
$PEXTMIN
 10
1.000000000000000E+20
 20
1.000000000000000E+20
 30
1.000000000000000E+20
  9
$PEXTMAX
 10
-1.000000000000000E+20
 20
-1.000000000000000E+20
 30
-1.000000000000000E+20
  9
$PLIMMIN
 10
0.0
 20
0.0
  9
$PLIMMAX
 10
12.0
 20
9.0
  9
$UNITMODE
 70
     0
  9
$VISRETAIN
 70
     1
  9
$PLINEGEN
 70
     0
  9
$PSLTSCALE
 70
     1
  0
ENDSEC
  0
SECTION
  2
TABLES
  0
TABLE
  2
VPORT
 70
     1
  0
VPORT
  2
*ACTIVE
 70
     0
 10
0.0
 20
0.0
 11
1.0
 21
1.0
 12
10.42990654205607
 22
4.5
 13
0.0
 23
0.0
 14
0.5
 24
0.5
 15
0.5
 25
0.5
 16
0.0
 26
0.0
 36
1.0
 17
0.0
 27
0.0
 37
0.0
 40
9.0
 41
1.972972972850329
 42
50.0
 43
0.0
 44
0.0
 50
0.0
 51
0.0
 71
     0
 72
   100
 73
     1
 74
     3
 75
     0
 76
     0
 77
     0
 78
     0
  0
ENDTAB
  0
TABLE
  2
LTYPE
 70
     2
  0
LTYPE
  2
CONTINUOUS
 70
     0
  3
Solid line
 72
    65
 73
     0
 40
0.0
  0
LTYPE
  2
CONTINUOUS2
 70
     0
  3
Solid Line
 72
    65
 73
     0
 40
0.0
  0
ENDTAB
  0
TABLE
  2
LAYER
 70
     2
  0
LAYER
  2
0
 70
     0
 62
     7
  6
CONTINUOUS
  0
LAYER
  2
5MM_MATERIAL
 70
     0
 62
    18
  6
CONTINUOUS
  0
ENDTAB
  0
TABLE
  2
STYLE
 70
     1
  0
STYLE
  2
STANDARD
 70
     0
 40
0.0
 41
1.0
 50
0.0
 71
     0
 42
0.2
  3
txt
  4

  0
ENDTAB
  0
TABLE
  2
VIEW
 70
     0
  0
ENDTAB
  0
TABLE
  2
UCS
 70
     0
  0
ENDTAB
  0
TABLE
  2
APPID
 70
     1
  0
APPID
  2
ACAD
 70
     0
  0
ENDTAB
  0
TABLE
  2
DIMSTYLE
 70
     1
  0
DIMSTYLE
  2
STANDARD
 70
     0
  3

  4

  5

  6

  7

 40
1.0
 41
0.18
 42
0.0625
 43
0.38
 44
0.18
 45
0.0
 46
0.0
 47
0.0
 48
0.0
140
0.18
141
0.09
142
0.0
143
25.4
144
1.0
145
0.0
146
1.0
147
0.09
 71
     0
 72
     0
 73
     1
 74
     1
 75
     0
 76
     0
 77
     0
 78
     0
170
     0
171
     2
172
     0
173
     0
174
     0
175
     0
176
     0
177
     0
178
     0
  0
ENDTAB
  0
ENDSEC
  0
SECTION
  2
BLOCKS
  0
BLOCK
  8
0
  2
$MODEL_SPACE
 70
     0
 10
0.0
 20
0.0
 30
0.0
  3
$MODEL_SPACE
  1

  0
ENDBLK
  5
21
  8
0
  0
BLOCK
 67
     1
  8
0
  2
$PAPER_SPACE
 70
     0
 10
0.0
 20
0.0
 30
0.0
  3
$PAPER_SPACE
  1

  0
ENDBLK
  5
1D
 67
     1
  8
0
  0
ENDSEC
  0
SECTION
  2
ENTITIES
  0
POLYLINE
  5
70
  8
5MM_MATERIAL
 66
     1
 10
0.0
 20
0.0
 30
0.0
 70
     1
  0
VERTEX
  5
9F
  8
5MM_MATERIAL
 10
172.376694546807
 20
-106.3843147774
 30
0.0
  0
VERTEX
  5
A0
  8
5MM_MATERIAL
 10
161.9537750379394
 20
-98.64898053456234
 30
0.0
  0
VERTEX
  5
A1
  8
5MM_MATERIAL
 10
152.376694546807
 20
-105.4702629356537
 30
0.0
  0
VERTEX
  5
A2
  8
5MM_MATERIAL
 10
152.376694546807
 20
-102.3188304663495
 30
0.0
  0
VERTEX
  5
A3
  8
5MM_MATERIAL
 10
157.5062989124278
 20
-98.68990822896889
 30
0.0
  0
VERTEX
  5
A4
  8
5MM_MATERIAL
 10
158.2583452971481
 20
-98.16466948408484
 30
0.0
  0
VERTEX
  5
A5
  8
5MM_MATERIAL
 10
158.9183043694537
 20
-97.7212861280139
 30
0.0
  0
VERTEX
  5
A6
  8
5MM_MATERIAL
 10
159.4861761293445
 20
-97.35975816075606
 30
0.0
  0
VERTEX
  5
A7
  8
5MM_MATERIAL
 10
159.9619605768207
 20
-97.08008558231131
 30
0.0
  0
VERTEX
  5
A8
  8
5MM_MATERIAL
 10
159.4102893626324
 20
-96.73049485925539
 30
0.0
  0
VERTEX
  5
A9
  8
5MM_MATERIAL
 10
158.8466809042422
 20
-96.35020836539454
 30
0.0
  0
VERTEX
  5
AA
  8
5MM_MATERIAL
 10
158.2711352016501
 20
-95.93922610072879
 30
0.0
  0
VERTEX
  5
AB
  8
5MM_MATERIAL
 10
157.6836522548561
 20
-95.4975480652581
 30
0.0
  0
VERTEX
  5
AC
  8
5MM_MATERIAL
 10
152.376694546807
 20
-91.47299144861418
 30
0.0
  0
VERTEX
  5
AD
  8
5MM_MATERIAL
 10
152.376694546807
 20
-88.5944102753536
 30
0.0
  0
VERTEX
  5
AE
  8
5MM_MATERIAL
 10
161.8037068251153
 20
-95.62033114847775
 30
0.0
  0
VERTEX
  5
AF
  8
5MM_MATERIAL
 10
172.376694546807
 20
-88.04870768326629
 30
0.0
  0
VERTEX
  5
B0
  8
5MM_MATERIAL
 10
172.376694546807
 20
-91.32292323579017
 30
0.0
  0
VERTEX
  5
B1
  8
5MM_MATERIAL
 10
165.2416331552654
 20
-96.35702964779563
 30
0.0
  0
VERTEX
  5
B2
  8
5MM_MATERIAL
 10
164.6004326095628
 20
-96.78677043906438
 30
0.0
  0
VERTEX
  5
B3
  8
5MM_MATERIAL
 10
163.9046618046515
 20
-97.23015379513532
 30
0.0
  0
VERTEX
  5
B4
  8
5MM_MATERIAL
 10
164.8255349287988
 20
-97.803141516827
 30
0.0
  0
VERTEX
  5
B5
  8
5MM_MATERIAL
 10
165.4053439328916
 20
-98.18513333128811
 30
0.0
  0
VERTEX
  5
B6
  8
5MM_MATERIAL
 10
172.376694546807
 20
-103.2055971784914
 30
0.0
  0
SEQEND
  5
4A2
  8
5MM_MATERIAL
  0
POLYLINE
  5
71
  8
5MM_MATERIAL
 66
     1
 10
0.0
 20
0.0
 30
0.0
 70
     1
  0
VERTEX
  5
B7
  8
5MM_MATERIAL
 10
172.376694546807
 20
-85.82496962051054
 30
0.0
  0
VERTEX
  5
B8
  8
5MM_MATERIAL
 10
152.376694546807
 20
-85.82496962051054
 30
0.0
  0
VERTEX
  5
B9
  8
5MM_MATERIAL
 10
152.376694546807
 20
-78.32155897931
 30
0.0
  0
VERTEX
  5
BA
  8
5MM_MATERIAL
 10
152.3861803926461
 20
-77.7627467351081
 30
0.0
  0
VERTEX
  5
BB
  8
5MM_MATERIAL
 10
152.4146379301631
 20
-77.23228544588572
 30
0.0
  0
VERTEX
  5
BC
  8
5MM_MATERIAL
 10
152.4620671593582
 20
-76.73017511164288
 30
0.0
  0
VERTEX
  5
BD
  8
5MM_MATERIAL
 10
152.5284680802313
 20
-76.25641573237958
 30
0.0
  0
VERTEX
  5
BE
  8
5MM_MATERIAL
 10
152.6138406927824
 20
-75.81100730809582
 30
0.0
  0
VERTEX
  5
BF
  8
5MM_MATERIAL
 10
152.7181849970116
 20
-75.3939498387916
 30
0.0
  0
VERTEX
  5
C0
  8
5MM_MATERIAL
 10
152.8415009929189
 20
-75.0052433244669
 30
0.0
  0
VERTEX
  5
C1
  8
5MM_MATERIAL
 10
152.9837886805041
 20
-74.64488776512174
 30
0.0
  0
VERTEX
  5
C2
  8
5MM_MATERIAL
 10
153.1457941375301
 20
-74.30808694656784
 30
0.0
  0
VERTEX
  5
C3
  8
5MM_MATERIAL
 10
153.3282634417592
 20
-73.99004465461695
 30
0.0
  0
VERTEX
  5
C4
  8
5MM_MATERIAL
 10
153.5311965931917
 20
-73.69076088926907
 30
0.0
  0
VERTEX
  5
C5
  8
5MM_MATERIAL
 10
153.7545935918275
 20
-73.41023565052419
 30
0.0
  0
VERTEX
  5
C6
  8
5MM_MATERIAL
 10
153.9984544376665
 20
-73.14846893838231
 30
0.0
  0
VERTEX
  5
C7
  8
5MM_MATERIAL
 10
154.2627791307088
 20
-72.90546075284342
 30
0.0
  0
VERTEX
  5
C8
  8
5MM_MATERIAL
 10
154.5475676709544
 20
-72.68121109390755
 30
0.0
  0
VERTEX
  5
C9
  8
5MM_MATERIAL
 10
154.8528200584032
 20
-72.47571996157467
 30
0.0
  0
VERTEX
  5
CA
  8
5MM_MATERIAL
 10
155.1701162725915
 20
-72.29186508435777
 30
0.0
  0
VERTEX
  5
CB
  8
5MM_MATERIAL
 10
155.4910362930553
 20
-72.13252419076977
 30
0.0
  0
VERTEX
  5
CC
  8
5MM_MATERIAL
 10
155.8155801197947
 20
-71.99769728081068
 30
0.0
  0
VERTEX
  5
CD
  8
5MM_MATERIAL
 10
156.1437477528098
 20
-71.88738435448053
 30
0.0
  0
VERTEX
  5
CE
  8
5MM_MATERIAL
 10
156.4755391921004
 20
-71.8015854117793
 30
0.0
  0
VERTEX
  5
CF
  8
5MM_MATERIAL
 10
156.8109544376665
 20
-71.74030045270699
 30
0.0
  0
VERTEX
  5
D0
  8
5MM_MATERIAL
 10
157.1499934895083
 20
-71.7035294772636
 30
0.0
  0
VERTEX
  5
D1
  8
5MM_MATERIAL
 10
157.4926563476256
 20
-71.69127248544915
 30
0.0
  0
VERTEX
  5
D2
  8
5MM_MATERIAL
 10
157.8109118046515
 20
-71.70214390427589
 30
0.0
  0
VERTEX
  5
D3
  8
5MM_MATERIAL
 10
158.1244776300267
 20
-71.7347581607561
 30
0.0
  0
VERTEX
  5
D4
  8
5MM_MATERIAL
 10
158.4333538237511
 20
-71.7891152548898
 30
0.0
  0
VERTEX
  5
D5
  8
5MM_MATERIAL
 10
158.7375403858248
 20
-71.86521518667698
 30
0.0
  0
VERTEX
  5
D6
  8
5MM_MATERIAL
 10
159.0370373162477
 20
-71.96305795611764
 30
0.0
  0
VERTEX
  5
D7
  8
5MM_MATERIAL
 10
159.3318446150199
 20
-72.08264356321178
 30
0.0
  0
VERTEX
  5
D8
  8
5MM_MATERIAL
 10
159.6219622821413
 20
-72.22397200795939
 30
0.0
  0
VERTEX
  5
D9
  8
5MM_MATERIAL
 10
159.9073903176119
 20
-72.38704329036048
 30
0.0
  0
VERTEX
  5
DA
  8
5MM_MATERIAL
 10
160.1836522548562
 20
-72.57207057549009
 30
0.0
  0
VERTEX
  5
DB
  8
5MM_MATERIAL
 10
160.4462716272982
 20
-72.77926702842323
 30
0.0
  0
VERTEX
  5
DC
  8
5MM_MATERIAL
 10
160.695248434938
 20
-73.00863264915994
 30
0.0
  0
VERTEX
  5
DD
  8
5MM_MATERIAL
 10
160.9305826777756
 20
-73.26016743770018
 30
0.0
  0
VERTEX
  5
DE
  8
5MM_MATERIAL
 10
161.1522743558111
 20
-73.53387139404397
 30
0.0
  0
VERTEX
  5
DF
  8
5MM_MATERIAL
 10
161.3603234690444
 20
-73.8297445181913
 30
0.0
  0
VERTEX
  5
E0
  8
5MM_MATERIAL
 10
161.5547300174755
 20
-74.1477868101422
 30
0.0
  0
VERTEX
  5
E1
  8
5MM_MATERIAL
 10
161.7354940011044
 20
-74.48799826989662
 30
0.0
  0
VERTEX
  5
E2
  8
5MM_MATERIAL
 10
161.8049325242968
 20
-74.26446804308898
 30
0.0
  0
VERTEX
  5
E3
  8
5MM_MATERIAL
 10
161.8802330870526
 20
-74.04749264233864
 30
0.0
  0
VERTEX
  5
E4
  8
5MM_MATERIAL
 10
161.9613956893718
 20
-73.8370720676456
 30
0.0
  0
VERTEX
  5
E5
  8
5MM_MATERIAL
 10
162.0484203312545
 20
-73.63320631900986
 30
0.0
  0
VERTEX
  5
E6
  8
5MM_MATERIAL
 10
162.1413070127006
 20
-73.4358953964314
 30
0.0
  0
VERTEX
  5
E7
  8
5MM_MATERIAL
 10
162.2400557337102
 20
-73.24513929991028
 30
0.0
  0
VERTEX
  5
E8
  8
5MM_MATERIAL
 10
162.3446664942832
 20
-73.06093802944643
 30
0.0
  0
VERTEX
  5
E9
  8
5MM_MATERIAL
 10
162.4551392944196
 20
-72.88329158503988
 30
0.0
  0
VERTEX
  5
EA
  8
5MM_MATERIAL
 10
162.5714741341195
 20
-72.71219996669062
 30
0.0
  0
VERTEX
  5
EB
  8
5MM_MATERIAL
 10
162.6936710133828
 20
-72.54766317439868
 30
0.0
  0
VERTEX
  5
EC
  8
5MM_MATERIAL
 10
162.8217299322095
 20
-72.38968120816402
 30
0.0
  0
VERTEX
  5
ED
  8
5MM_MATERIAL
 10
162.9556508905997
 20
-72.23825406798667
 30
0.0
  0
VERTEX
  5
EE
  8
5MM_MATERIAL
 10
163.0954338885533
 20
-72.09338175386661
 30
0.0
  0
VERTEX
  5
EF
  8
5MM_MATERIAL
 10
163.2410789260703
 20
-71.95506426580386
 30
0.0
  0
VERTEX
  5
F0
  8
5MM_MATERIAL
 10
163.3925860031508
 20
-71.82330160379838
 30
0.0
  0
VERTEX
  5
F1
  8
5MM_MATERIAL
 10
163.5499551197947
 20
-71.69809376785024
 30
0.0
  0
VERTEX
  5
F2
  8
5MM_MATERIAL
 10
163.7120671593582
 20
-71.57997367064696
 30
0.0
  0
VERTEX
  5
F3
  8
5MM_MATERIAL
 10
163.8778030051972
 20
-71.46947422487617
 30
0.0
  0
VERTEX
  5
F4
  8
5MM_MATERIAL
 10
164.0471626573118
 20
-71.36659543053781
 30
0.0
  0
VERTEX
  5
F5
  8
5MM_MATERIAL
 10
164.2201461157019
 20
-71.27133728763195
 30
0.0
  0
VERTEX
  5
F6
  8
5MM_MATERIAL
 10
164.3967533803677
 20
-71.18369979615855
 30
0.0
  0
VERTEX
  5
F7
  8
5MM_MATERIAL
 10
164.576984451309
 20
-71.10368295611764
 30
0.0
  0
VERTEX
  5
F8
  8
5MM_MATERIAL
 10
164.760839328526
 20
-71.03128676750916
 30
0.0
  0
VERTEX
  5
F9
  8
5MM_MATERIAL
 10
164.9483180120185
 20
-70.96651123033318
 30
0.0
  0
VERTEX
  5
FA
  8
5MM_MATERIAL
 10
165.1394205017866
 20
-70.90935634458967
 30
0.0
  0
VERTEX
  5
FB
  8
5MM_MATERIAL
 10
165.3341467978302
 20
-70.85982211027863
 30
0.0
  0
VERTEX
  5
FC
  8
5MM_MATERIAL
 10
165.5324969001495
 20
-70.81790852740002
 30
0.0
  0
VERTEX
  5
FD
  8
5MM_MATERIAL
 10
165.7344708087443
 20
-70.78361559595393
 30
0.0
  0
VERTEX
  5
FE
  8
5MM_MATERIAL
 10
165.9400685236147
 20
-70.75694331594028
 30
0.0
  0
VERTEX
  5
FF
  8
5MM_MATERIAL
 10
166.1492900447606
 20
-70.73789168735911
 30
0.0
  0
VERTEX
  5
100
  8
5MM_MATERIAL
 10
166.3621353721822
 20
-70.7264607102104
 30
0.0
  0
VERTEX
  5
101
  8
5MM_MATERIAL
 10
166.5786045058793
 20
-70.72265038449417
 30
0.0
  0
VERTEX
  5
102
  8
5MM_MATERIAL
 10
166.9268096559476
 20
-70.73192306525814
 30
0.0
  0
VERTEX
  5
103
  8
5MM_MATERIAL
 10
167.2688330188398
 20
-70.7597411075501
 30
0.0
  0
VERTEX
  5
104
  8
5MM_MATERIAL
 10
167.604674594556
 20
-70.80610451137002
 30
0.0
  0
VERTEX
  5
105
  8
5MM_MATERIAL
 10
167.9343343830962
 20
-70.8710132767179
 30
0.0
  0
VERTEX
  5
106
  8
5MM_MATERIAL
 10
168.2578123844605
 20
-70.95446740359375
 30
0.0
  0
VERTEX
  5
107
  8
5MM_MATERIAL
 10
168.5751085986487
 20
-71.05646689199759
 30
0.0
  0
VERTEX
  5
108
  8
5MM_MATERIAL
 10
168.8862230256611
 20
-71.17701174192936
 30
0.0
  0
VERTEX
  5
109
  8
5MM_MATERIAL
 10
169.1911556654973
 20
-71.31610195338912
 30
0.0
  0
VERTEX
  5
10A
  8
5MM_MATERIAL
 10
169.4843642262068
 20
-71.46883472965106
 30
0.0
  0
VERTEX
  5
10B
  8
5MM_MATERIAL
 10
169.7603064158384
 20
-71.63030727398939
 30
0.0
  0
VERTEX
  5
10C
  8
5MM_MATERIAL
 10
170.0189822343924
 20
-71.80051958640414
 30
0.0
  0
VERTEX
  5
10D
  8
5MM_MATERIAL
 10
170.2603916818684
 20
-71.97947166689526
 30
0.0
  0
VERTEX
  5
10E
  8
5MM_MATERIAL
 10
170.4845347582668
 20
-72.16716351546279
 30
0.0
  0
VERTEX
  5
10F
  8
5MM_MATERIAL
 10
170.6914114635874
 20
-72.36359513210672
 30
0.0
  0
VERTEX
  5
110
  8
5MM_MATERIAL
 10
170.8810217978302
 20
-72.56876651682705
 30
0.0
  0
VERTEX
  5
111
  8
5MM_MATERIAL
 10
171.0533657609953
 20
-72.78267766962378
 30
0.0
  0
VERTEX
  5
112
  8
5MM_MATERIAL
 10
171.2120671593582
 20
-73.00788657139731
 30
0.0
  0
VERTEX
  5
113
  8
5MM_MATERIAL
 10
171.3607497991945
 20
-73.24695120304806
 30
0.0
  0
VERTEX
  5
114
  8
5MM_MATERIAL
 10
171.4994136805041
 20
-73.49987156457601
 30
0.0
  0
VERTEX
  5
115
  8
5MM_MATERIAL
 10
171.6280588032872
 20
-73.7666476559812
 30
0.0
  0
VERTEX
  5
116
  8
5MM_MATERIAL
 10
171.7466851675437
 20
-74.04727947726361
 30
0.0
  0
VERTEX
  5
117
  8
5MM_MATERIAL
 10
171.8552927732736
 20
-74.34176702842323
 30
0.0
  0
VERTEX
  5
118
  8
5MM_MATERIAL
 10
171.9538816204768
 20
-74.65011030946006
 30
0.0
  0
VERTEX
  5
119
  8
5MM_MATERIAL
 10
172.0424517091535
 20
-74.97230932037412
 30
0.0
  0
VERTEX
  5
11A
  8
5MM_MATERIAL
 10
172.1207898742286
 20
-75.31070887699076
 30
0.0
  0
VERTEX
  5
11B
  8
5MM_MATERIAL
 10
172.188682950627
 20
-75.66765379513538
 30
0.0
  0
VERTEX
  5
11C
  8
5MM_MATERIAL
 10
172.2461309383486
 20
-76.04314407480794
 30
0.0
  0
VERTEX
  5
11D
  8
5MM_MATERIAL
 10
172.2931338373937
 20
-76.4371797160085
 30
0.0
  0
VERTEX
  5
11E
  8
5MM_MATERIAL
 10
172.329691647762
 20
-76.849760718737
 30
0.0
  0
VERTEX
  5
11F
  8
5MM_MATERIAL
 10
172.3558043694537
 20
-77.2808870829935
 30
0.0
  0
VERTEX
  5
120
  8
5MM_MATERIAL
 10
172.3714720024687
 20
-77.73055880877794
 30
0.0
  0
VERTEX
  5
121
  8
5MM_MATERIAL
 10
172.376694546807
 20
-78.19877589609035
 30
0.0
  0
SEQEND
  5
4A3
  8
5MM_MATERIAL
  0
POLYLINE
  5
72
  8
5MM_MATERIAL
 66
     1
 10
0.0
 20
0.0
 30
0.0
 70
     1
  0
VERTEX
  5
122
  8
5MM_MATERIAL
 10
160.7805144649516
 20
-83.17831204888708
 30
0.0
  0
VERTEX
  5
123
  8
5MM_MATERIAL
 10
160.7805144649516
 20
-78.85361900659512
 30
0.0
  0
VERTEX
  5
124
  8
5MM_MATERIAL
 10
160.7768906586761
 20
-78.42920734220222
 30
0.0
  0
VERTEX
  5
125
  8
5MM_MATERIAL
 10
160.7660192398493
 20
-78.03591777876429
 30
0.0
  0
VERTEX
  5
126
  8
5MM_MATERIAL
 10
160.7479002084714
 20
-77.67375031628134
 30
0.0
  0
VERTEX
  5
127
  8
5MM_MATERIAL
 10
160.7225335645424
 20
-77.34270495475337
 30
0.0
  0
VERTEX
  5
128
  8
5MM_MATERIAL
 10
160.6899193080621
 20
-77.04278169418038
 30
0.0
  0
VERTEX
  5
129
  8
5MM_MATERIAL
 10
160.6500574390308
 20
-76.77398053456238
 30
0.0
  0
VERTEX
  5
12A
  8
5MM_MATERIAL
 10
160.6029479574482
 20
-76.53630147589936
 30
0.0
  0
VERTEX
  5
12B
  8
5MM_MATERIAL
 10
160.5485908633145
 20
-76.3297445181913
 30
0.0
  0
VERTEX
  5
12C
  8
5MM_MATERIAL
 10
160.4673749697266
 20
-76.08513759458967
 30
0.0
  0
VERTEX
  5
12D
  8
5MM_MATERIAL
 10
160.3737955017866
 20
-75.85609172146553
 30
0.0
  0
VERTEX
  5
12E
  8
5MM_MATERIAL
 10
160.2678524594947
 20
-75.64260689881887
 30
0.0
  0
VERTEX
  5
12F
  8
5MM_MATERIAL
 10
160.1495458428507
 20
-75.44468312664971
 30
0.0
  0
VERTEX
  5
130
  8
5MM_MATERIAL
 10
160.0188756518548
 20
-75.26232040495803
 30
0.0
  0
VERTEX
  5
131
  8
5MM_MATERIAL
 10
159.8758418865069
 20
-75.09551873374383
 30
0.0
  0
VERTEX
  5
132
  8
5MM_MATERIAL
 10
159.720444546807
 20
-74.94427811300713
 30
0.0
  0
VERTEX
  5
133
  8
5MM_MATERIAL
 10
159.5526836327552
 20
-74.80859854274793
 30
0.0
  0
VERTEX
  5
134
  8
5MM_MATERIAL
 10
159.3731986395765
 20
-74.68869318804124
 30
0.0
  0
VERTEX
  5
135
  8
5MM_MATERIAL
 10
159.1826290624959
 20
-74.5847752139621
 30
0.0
  0
VERTEX
  5
136
  8
5MM_MATERIAL
 10
158.9809749015137
 20
-74.49684462051053
 30
0.0
  0
VERTEX
  5
137
  8
5MM_MATERIAL
 10
158.7682361566297
 20
-74.42490140768653
 30
0.0
  0
VERTEX
  5
138
  8
5MM_MATERIAL
 10
158.5444128278439
 20
-74.36894557549007
 30
0.0
  0
VERTEX
  5
139
  8
5MM_MATERIAL
 10
158.3095049151563
 20
-74.32897712392118
 30
0.0
  0
VERTEX
  5
13A
  8
5MM_MATERIAL
 10
158.0635124185669
 20
-74.30499605297983
 30
0.0
  0
VERTEX
  5
13B
  8
5MM_MATERIAL
 10
157.8064353380758
 20
-74.29700236266606
 30
0.0
  0
VERTEX
  5
13C
  8
5MM_MATERIAL
 10
157.561188919249
 20
-74.30446314029226
 30
0.0
  0
VERTEX
  5
13D
  8
5MM_MATERIAL
 10
157.3234032780485
 20
-74.32684547317083
 30
0.0
  0
VERTEX
  5
13E
  8
5MM_MATERIAL
 10
157.0930784144741
 20
-74.3641493613018
 30
0.0
  0
VERTEX
  5
13F
  8
5MM_MATERIAL
 10
156.870214328526
 20
-74.41637480468516
 30
0.0
  0
VERTEX
  5
140
  8
5MM_MATERIAL
 10
156.654811020204
 20
-74.4835218033209
 30
0.0
  0
VERTEX
  5
141
  8
5MM_MATERIAL
 10
156.4468684895082
 20
-74.56559035720903
 30
0.0
  0
VERTEX
  5
142
  8
5MM_MATERIAL
 10
156.2463867364387
 20
-74.66258046634954
 30
0.0
  0
VERTEX
  5
143
  8
5MM_MATERIAL
 10
156.0533657609953
 20
-74.77449213074246
 30
0.0
  0
VERTEX
  5
144
  8
5MM_MATERIAL
 10
155.8715359519912
 20
-74.90025952501259
 30
0.0
  0
VERTEX
  5
145
  8
5MM_MATERIAL
 10
155.7046276982395
 20
-75.03881682378476
 30
0.0
  0
VERTEX
  5
146
  8
5MM_MATERIAL
 10
155.5526409997402
 20
-75.19016402705897
 30
0.0
  0
VERTEX
  5
147
  8
5MM_MATERIAL
 10
155.4155758564933
 20
-75.35430113483523
 30
0.0
  0
VERTEX
  5
148
  8
5MM_MATERIAL
 10
155.2934322684987
 20
-75.53122814711354
 30
0.0
  0
VERTEX
  5
149
  8
5MM_MATERIAL
 10
155.1862102357566
 20
-75.7209450638939
 30
0.0
  0
VERTEX
  5
14A
  8
5MM_MATERIAL
 10
155.0939097582668
 20
-75.92345188517629
 30
0.0
  0
VERTEX
  5
14B
  8
5MM_MATERIAL
 10
155.0165308360294
 20
-76.13874861096075
 30
0.0
  0
VERTEX
  5
14C
  8
5MM_MATERIAL
 10
154.9509825754564
 20
-76.38026464097439
 30
0.0
  0
VERTEX
  5
14D
  8
5MM_MATERIAL
 10
154.8941740829598
 20
-76.66142937494438
 30
0.0
  0
VERTEX
  5
14E
  8
5MM_MATERIAL
 10
154.8461053585396
 20
-76.98224281287071
 30
0.0
  0
VERTEX
  5
14F
  8
5MM_MATERIAL
 10
154.8067764021958
 20
-77.34270495475337
 30
0.0
  0
VERTEX
  5
150
  8
5MM_MATERIAL
 10
154.7761872139284
 20
-77.74281580059241
 30
0.0
  0
VERTEX
  5
151
  8
5MM_MATERIAL
 10
154.7543377937374
 20
-78.18257535038776
 30
0.0
  0
VERTEX
  5
152
  8
5MM_MATERIAL
 10
154.7412281416228
 20
-78.66198360413946
 30
0.0
  0
VERTEX
  5
153
  8
5MM_MATERIAL
 10
154.7368582575846
 20
-79.18104056184751
 30
0.0
  0
VERTEX
  5
154
  8
5MM_MATERIAL
 10
154.7368582575846
 20
-83.17831204888708
 30
0.0
  0
SEQEND
  5
4A4
  8
5MM_MATERIAL
  0
POLYLINE
  5
73
  8
5MM_MATERIAL
 66
     1
 10
0.0
 20
0.0
 30
0.0
 70
     1
  0
VERTEX
  5
155
  8
5MM_MATERIAL
 10
170.0165308360294
 20
-83.17831204888708
 30
0.0
  0
VERTEX
  5
156
  8
5MM_MATERIAL
 10
170.0165308360294
 20
-78.19877589609035
 30
0.0
  0
VERTEX
  5
157
  8
5MM_MATERIAL
 10
170.0105622139284
 20
-77.6053243271954
 30
0.0
  0
VERTEX
  5
158
  8
5MM_MATERIAL
 10
169.9926563476256
 20
-77.10737071191573
 30
0.0
  0
VERTEX
  5
159
  8
5MM_MATERIAL
 10
169.9628132371208
 20
-76.70491505025134
 30
0.0
  0
VERTEX
  5
15A
  8
5MM_MATERIAL
 10
169.9210328824141
 20
-76.39795734220222
 30
0.0
  0
VERTEX
  5
15B
  8
5MM_MATERIAL
 10
169.876694546807
 20
-76.17413401341639
 30
0.0
  0
VERTEX
  5
15C
  8
5MM_MATERIAL
 10
169.8255349287988
 20
-75.95968994793209
 30
0.0
  0
VERTEX
  5
15D
  8
5MM_MATERIAL
 10
169.7675540283896
 20
-75.75462514574929
 30
0.0
  0
VERTEX
  5
15E
  8
5MM_MATERIAL
 10
169.7027518455792
 20
-75.55893960686798
 30
0.0
  0
VERTEX
  5
15F
  8
5MM_MATERIAL
 10
169.6311283803678
 20
-75.37263333128817
 30
0.0
  0
VERTEX
  5
160
  8
5MM_MATERIAL
 10
169.5526836327552
 20
-75.19570631900986
 30
0.0
  0
VERTEX
  5
161
  8
5MM_MATERIAL
 10
169.4674176027415
 20
-75.02815857003304
 30
0.0
  0
VERTEX
  5
162
  8
5MM_MATERIAL
 10
169.3753302903268
 20
-74.86999008435775
 30
0.0
  0
VERTEX
  5
163
  8
5MM_MATERIAL
 10
169.2743966272981
 20
-74.71992187153373
 30
0.0
  0
VERTEX
  5
164
  8
5MM_MATERIAL
 10
169.1625915454428
 20
-74.57667494111081
 30
0.0
  0
VERTEX
  5
165
  8
5MM_MATERIAL
 10
169.0399150447606
 20
-74.44024929308898
 30
0.0
  0
VERTEX
  5
166
  8
5MM_MATERIAL
 10
168.9063671252518
 20
-74.31064492746825
 30
0.0
  0
VERTEX
  5
167
  8
5MM_MATERIAL
 10
168.7619477869162
 20
-74.1878618442486
 30
0.0
  0
VERTEX
  5
168
  8
5MM_MATERIAL
 10
168.6066570297538
 20
-74.07190004343005
 30
0.0
  0
VERTEX
  5
169
  8
5MM_MATERIAL
 10
168.4404948537647
 20
-73.96275952501259
 30
0.0
  0
VERTEX
  5
16A
  8
5MM_MATERIAL
 10
168.2634612589489
 20
-73.86044028899622
 30
0.0
  0
VERTEX
  5
16B
  8
5MM_MATERIAL
 10
168.0774747309816
 20
-73.7677134813564
 30
0.0
  0
VERTEX
  5
16C
  8
5MM_MATERIAL
 10
167.8844537555382
 20
-73.68735024806853
 30
0.0
  0
VERTEX
  5
16D
  8
5MM_MATERIAL
 10
167.6843983326187
 20
-73.61935058913265
 30
0.0
  0
VERTEX
  5
16E
  8
5MM_MATERIAL
 10
167.4773084622231
 20
-73.56371450454874
 30
0.0
  0
VERTEX
  5
16F
  8
5MM_MATERIAL
 10
167.2631841443513
 20
-73.52044199431683
 30
0.0
  0
VERTEX
  5
170
  8
5MM_MATERIAL
 10
167.0420253790035
 20
-73.48953305843688
 30
0.0
  0
VERTEX
  5
171
  8
5MM_MATERIAL
 10
166.8138321661795
 20
-73.4709876969089
 30
0.0
  0
VERTEX
  5
172
  8
5MM_MATERIAL
 10
166.5786045058793
 20
-73.46480590973292
 30
0.0
  0
VERTEX
  5
173
  8
5MM_MATERIAL
 10
166.3035149765478
 20
-73.47375884288435
 30
0.0
  0
VERTEX
  5
174
  8
5MM_MATERIAL
 10
166.0375915454428
 20
-73.50061764233864
 30
0.0
  0
VERTEX
  5
175
  8
5MM_MATERIAL
 10
165.7808342125642
 20
-73.54538230809581
 30
0.0
  0
VERTEX
  5
176
  8
5MM_MATERIAL
 10
165.5332429779121
 20
-73.60805284015584
 30
0.0
  0
VERTEX
  5
177
  8
5MM_MATERIAL
 10
165.2948178414864
 20
-73.68862923851873
 30
0.0
  0
VERTEX
  5
178
  8
5MM_MATERIAL
 10
165.0655588032872
 20
-73.78711150318448
 30
0.0
  0
VERTEX
  5
179
  8
5MM_MATERIAL
 10
164.8454658633145
 20
-73.9034996341531
 30
0.0
  0
VERTEX
  5
17A
  8
5MM_MATERIAL
 10
164.6345390215683
 20
-74.03779363142459
 30
0.0
  0
VERTEX
  5
17B
  8
5MM_MATERIAL
 10
164.4358691716365
 20
-74.18796842678611
 30
0.0
  0
VERTEX
  5
17C
  8
5MM_MATERIAL
 10
164.2525472071071
 20
-74.35199895202487
 30
0.0
  0
VERTEX
  5
17D
  8
5MM_MATERIAL
 10
164.0845731279803
 20
-74.52988520714084
 30
0.0
  0
VERTEX
  5
17E
  8
5MM_MATERIAL
 10
163.9319469342558
 20
-74.72162719213401
 30
0.0
  0
VERTEX
  5
17F
  8
5MM_MATERIAL
 10
163.7946686259339
 20
-74.9272249070044
 30
0.0
  0
VERTEX
  5
180
  8
5MM_MATERIAL
 10
163.6727382030144
 20
-75.14667835175202
 30
0.0
  0
VERTEX
  5
181
  8
5MM_MATERIAL
 10
163.5661556654973
 20
-75.37998752637684
 30
0.0
  0
VERTEX
  5
182
  8
5MM_MATERIAL
 10
163.4749210133827
 20
-75.6271524308789
 30
0.0
  0
VERTEX
  5
183
  8
5MM_MATERIAL
 10
163.3965828483077
 20
-75.89520751273427
 30
0.0
  0
VERTEX
  5
184
  8
5MM_MATERIAL
 10
163.3286897719093
 20
-76.19118721941913
 30
0.0
  0
VERTEX
  5
185
  8
5MM_MATERIAL
 10
163.2712417841876
 20
-76.51509155093345
 30
0.0
  0
VERTEX
  5
186
  8
5MM_MATERIAL
 10
163.2242388851426
 20
-76.86692050727726
 30
0.0
  0
VERTEX
  5
187
  8
5MM_MATERIAL
 10
163.1876810747742
 20
-77.2466740884505
 30
0.0
  0
VERTEX
  5
188
  8
5MM_MATERIAL
 10
163.1615683530826
 20
-77.65435229445325
 30
0.0
  0
VERTEX
  5
189
  8
5MM_MATERIAL
 10
163.1459007200676
 20
-78.08995512528543
 30
0.0
  0
VERTEX
  5
18A
  8
5MM_MATERIAL
 10
163.1406781757292
 20
-78.5534825809471
 30
0.0
  0
VERTEX
  5
18B
  8
5MM_MATERIAL
 10
163.1406781757292
 20
-83.17831204888708
 30
0.0
  0
SEQEND
  5
4A5
  8
5MM_MATERIAL
  0
POLYLINE
  5
74
  8
5MM_MATERIAL
 66
     1
 10
0.0
 20
0.0
 30
0.0
 70
     1
  0
VERTEX
  5
18C
  8
5MM_MATERIAL
 10
44.97585656403839
 20
32.883056733004
 30
0.0
 42
-0.9999999999999998
  0
VERTEX
  5
18D
  8
5MM_MATERIAL
 10
52.62019143596194
 20
33.29217388996292
 30
0.0
 42
-0.026740365626963
  0
VERTEX
  5
18E
  8
5MM_MATERIAL
 10
52.62019143596194
 20
32.883056733004
 30
0.0
 42
-0.3986384592382151
  0
VERTEX
  5
18F
  8
5MM_MATERIAL
 10
48.79802400000017
 20
29.25997790434101
 30
0.0
 42
-0.3986384592382037
  0
SEQEND
  5
4A6
  8
5MM_MATERIAL
  0
POLYLINE
  5
75
  8
5MM_MATERIAL
 66
     1
 10
0.0
 20
0.0
 30
0.0
 70
     1
  0
VERTEX
  5
190
  8
5MM_MATERIAL
 10
44.97585656403839
 20
-189.3830567330039
 30
0.0
 42
0.9999999999999998
  0
VERTEX
  5
191
  8
5MM_MATERIAL
 10
52.62019143596194
 20
-189.792173889963
 30
0.0
 42
0.026740365626963
  0
VERTEX
  5
192
  8
5MM_MATERIAL
 10
52.62019143596194
 20
-189.3830567330039
 30
0.0
 42
0.3986384592382151
  0
VERTEX
  5
193
  8
5MM_MATERIAL
 10
48.79802400000017
 20
-185.759977904341
 30
0.0
 42
0.3986384592382037
  0
SEQEND
  5
4A7
  8
5MM_MATERIAL
  0
POLYLINE
  5
76
  8
5MM_MATERIAL
 66
     1
 10
0.0
 20
0.0
 30
0.0
 70
     1
  0
VERTEX
  5
194
  8
5MM_MATERIAL
 10
235.0064239975354
 20
-181.7993450022468
 30
0.0
 42
0.9999999999999998
  0
VERTEX
  5
195
  8
5MM_MATERIAL
 10
235.0064239975354
 20
-174.7993450022468
 30
0.0
 42
0.9999999999999998
  0
SEQEND
  5
4A8
  8
5MM_MATERIAL
  0
POLYLINE
  5
77
  8
5MM_MATERIAL
 66
     1
 10
0.0
 20
0.0
 30
0.0
 70
     1
  0
VERTEX
  5
196
  8
5MM_MATERIAL
 10
214.6694823904265
 20
-194.6940461407063
 30
0.0
 42
-0.9999999999999998
  0
VERTEX
  5
197
  8
5MM_MATERIAL
 10
214.6694823904265
 20
-186.9521349215591
 30
0.0
 42
-0.9999999999999998
  0
SEQEND
  5
4A9
  8
5MM_MATERIAL
  0
POLYLINE
  5
78
  8
5MM_MATERIAL
 66
     1
 10
0.0
 20
0.0
 30
0.0
 70
     1
  0
VERTEX
  5
198
  8
5MM_MATERIAL
 10
214.6694823904265
 20
30.40556029859206
 30
0.0
 42
0.9999999999999998
  0
VERTEX
  5
199
  8
5MM_MATERIAL
 10
214.6694823904267
 20
38.14747151773921
 30
0.0
 42
0.9999999999999998
  0
SEQEND
  5
4AA
  8
5MM_MATERIAL
  0
POLYLINE
  5
79
  8
5MM_MATERIAL
 66
     1
 10
0.0
 20
0.0
 30
0.0
 70
     1
  0
VERTEX
  5
19A
  8
5MM_MATERIAL
 10
39.27706839042662
 20
-194.6940461407063
 30
0.0
 42
0.9999999999999998
  0
VERTEX
  5
19B
  8
5MM_MATERIAL
 10
39.27706839042662
 20
-186.9521349215591
 30
0.0
 42
0.9999999999999998
  0
SEQEND
  5
4AB
  8
5MM_MATERIAL
  0
POLYLINE
  5
7A
  8
5MM_MATERIAL
 66
     1
 10
0.0
 20
0.0
 30
0.0
 70
     1
  0
VERTEX
  5
19C
  8
5MM_MATERIAL
 10
-1.517961999999898
 20
-181.7993449999999
 30
0.0
 42
0.9999999999999998
  0
VERTEX
  5
19D
  8
5MM_MATERIAL
 10
-1.517961999999898
 20
-174.7993449999999
 30
0.0
 42
0.9999999999999998
  0
SEQEND
  5
4AC
  8
5MM_MATERIAL
  0
POLYLINE
  5
7B
  8
5MM_MATERIAL
 66
     1
 10
0.0
 20
0.0
 30
0.0
 70
     1
  0
VERTEX
  5
19E
  8
5MM_MATERIAL
 10
39.27706839042662
 20
30.40556029859206
 30
0.0
 42
-0.9999999999999998
  0
VERTEX
  5
19F
  8
5MM_MATERIAL
 10
39.27706839042662
 20
38.14747151773921
 30
0.0
 42
-0.9999999999999998
  0
SEQEND
  5
4AD
  8
5MM_MATERIAL
  0
POLYLINE
  5
7C
  8
5MM_MATERIAL
 66
     1
 10
0.0
 20
0.0
 30
0.0
 70
     1
  0
VERTEX
  5
1A0
  8
5MM_MATERIAL
 10
18.81897960957372
 20
-194.6940461407063
 30
0.0
 42
0.9999999999999998
  0
VERTEX
  5
1A1
  8
5MM_MATERIAL
 10
18.81897960957372
 20
-186.9521349215591
 30
0.0
 42
0.9999999999999998
  0
SEQEND
  5
4AE
  8
5MM_MATERIAL
  0
POLYLINE
  5
7D
  8
5MM_MATERIAL
 66
     1
 10
0.0
 20
0.0
 30
0.0
 70
     1
  0
VERTEX
  5
1A2
  8
5MM_MATERIAL
 10
18.81897960957372
 20
30.40556029859206
 30
0.0
 42
-0.9999999999999998
  0
VERTEX
  5
1A3
  8
5MM_MATERIAL
 10
18.81897960957372
 20
38.14747151773921
 30
0.0
 42
-0.9999999999999998
  0
SEQEND
  5
4AF
  8
5MM_MATERIAL
  0
POLYLINE
  5
7E
  8
5MM_MATERIAL
 66
     1
 10
0.0
 20
0.0
 30
0.0
 70
     1
  0
VERTEX
  5
1A4
  8
5MM_MATERIAL
 10
-21.25
 20
-178.25
 30
0.0
 42
0.4142135623730961
  0
VERTEX
  5
1A5
  8
5MM_MATERIAL
 10
-1.25
 20
-198.25
 30
0.0
  0
VERTEX
  5
1A6
  8
5MM_MATERIAL
 10
234.7500000000002
 20
-198.25
 30
0.0
 42
0.4142135623730953
  0
VERTEX
  5
1A7
  8
5MM_MATERIAL
 10
254.75
 20
-178.25
 30
0.0
  0
VERTEX
  5
1A8
  8
5MM_MATERIAL
 10
254.7500000000002
 20
21.7499999999998
 30
0.0
 42
0.4142135623730956
  0
VERTEX
  5
1A9
  8
5MM_MATERIAL
 10
234.7500000000002
 20
41.75000000000003
 30
0.0
  0
VERTEX
  5
1AA
  8
5MM_MATERIAL
 10
-1.249999999999773
 20
41.75000000000003
 30
0.0
 42
0.4142135623730935
  0
VERTEX
  5
1AB
  8
5MM_MATERIAL
 10
-21.24999999999977
 20
21.75000000000003
 30
0.0
  0
SEQEND
  5
4B0
  8
5MM_MATERIAL
  0
POLYLINE
  5
7F
  8
5MM_MATERIAL
 66
     1
 10
0.0
 20
0.0
 30
0.0
 70
     1
  0
VERTEX
  5
1AC
  8
5MM_MATERIAL
 10
194.2113936095736
 20
30.40556029859206
 30
0.0
 42
0.9999999999999998
  0
VERTEX
  5
1AD
  8
5MM_MATERIAL
 10
194.2113936095736
 20
38.14747151773921
 30
0.0
 42
0.9999999999999998
  0
SEQEND
  5
4B1
  8
5MM_MATERIAL
  0
POLYLINE
  5
80
  8
5MM_MATERIAL
 66
     1
 10
0.0
 20
0.0
 30
0.0
 70
     1
  0
VERTEX
  5
1AE
  8
5MM_MATERIAL
 10
-1.517961999999898
 20
18.22373099999984
 30
0.0
 42
0.9999999999999998
  0
VERTEX
  5
1AF
  8
5MM_MATERIAL
 10
-1.517961999999898
 20
25.22373099999984
 30
0.0
 42
0.9999999999999998
  0
SEQEND
  5
4B2
  8
5MM_MATERIAL
  0
POLYLINE
  5
81
  8
5MM_MATERIAL
 66
     1
 10
0.0
 20
0.0
 30
0.0
 70
     1
  0
VERTEX
  5
1B0
  8
5MM_MATERIAL
 10
194.2113936095736
 20
-194.6940461407063
 30
0.0
 42
-0.9999999999999998
  0
VERTEX
  5
1B1
  8
5MM_MATERIAL
 10
194.2113936095736
 20
-186.9521349215591
 30
0.0
 42
-0.9999999999999998
  0
SEQEND
  5
4B3
  8
5MM_MATERIAL
  0
POLYLINE
  5
82
  8
5MM_MATERIAL
 66
     1
 10
0.0
 20
0.0
 30
0.0
 70
     1
  0
VERTEX
  5
1B2
  8
5MM_MATERIAL
 10
231.5064240000002
 20
21.72373099999984
 30
0.0
 42
0.2015082770647112
  0
VERTEX
  5
1B3
  8
5MM_MATERIAL
 10
232.5563809806074
 20
19.22427321817511
 30
0.0
 42
0.9900682397936345
  0
VERTEX
  5
1B4
  8
5MM_MATERIAL
 10
237.505870942653
 20
24.17378507713036
 30
0.0
 42
0.6717932449132137
  0
SEQEND
  5
4B4
  8
5MM_MATERIAL
  0
POLYLINE
  5
83
  8
5MM_MATERIAL
 66
     1
 10
0.0
 20
0.0
 30
0.0
 70
     1
  0
VERTEX
  5
1B5
  8
5MM_MATERIAL
 10
100.3806673041161
 20
-67.47328729188698
 30
0.0
  0
VERTEX
  5
1B6
  8
5MM_MATERIAL
 10
100.0907623300095
 20
-67.49654284277969
 30
0.0
  0
VERTEX
  5
1B7
  8
5MM_MATERIAL
 10
99.81673029747412
 20
-67.56291457486199
 30
0.0
  0
VERTEX
  5
1B8
  8
5MM_MATERIAL
 10
99.55635301825919
 20
-67.67076786676043
 30
0.0
  0
VERTEX
  5
1B9
  8
5MM_MATERIAL
 10
99.3156465639313
 20
-67.81760977183009
 30
0.0
  0
VERTEX
  5
1BA
  8
5MM_MATERIAL
 10
99.09419972971409
 20
-68.0061610108107
 30
0.0
  0
VERTEX
  5
1BB
  8
5MM_MATERIAL
 10
98.44274018605938
 20
-68.65758769236001
 30
0.0
  0
VERTEX
  5
1BC
  8
5MM_MATERIAL
 10
97.78563085200312
 20
-69.3146859772107
 30
0.0
  0
VERTEX
  5
1BD
  8
5MM_MATERIAL
 10
96.47710408430953
 20
-70.62325675146062
 30
0.0
  0
VERTEX
  5
1BE
  8
5MM_MATERIAL
 10
96.2885556785368
 20
-70.8446998213386
 30
0.0
  0
VERTEX
  5
1BF
  8
5MM_MATERIAL
 10
96.1417140316737
 20
-71.08540441052477
 30
0.0
  0
VERTEX
  5
1C0
  8
5MM_MATERIAL
 10
96.0338599213976
 20
-71.34578128448763
 30
0.0
  0
VERTEX
  5
1C1
  8
5MM_MATERIAL
 10
95.96748710096881
 20
-71.6198147752593
 30
0.0
  0
VERTEX
  5
1C2
  8
5MM_MATERIAL
 10
95.94423098641414
 20
-71.90972362504007
 30
0.0
  0
VERTEX
  5
1C3
  8
5MM_MATERIAL
 10
95.94421318162176
 20
-81.72421911007424
 30
0.0
 42
-0.4142130310250892
  0
VERTEX
  5
1C4
  8
5MM_MATERIAL
 10
95.74421318162285
 20
-81.92421874724786
 30
0.0
  0
VERTEX
  5
1C5
  8
5MM_MATERIAL
 10
89.74423100000013
 20
-81.9242187472698
 30
0.0
  0
VERTEX
  5
1C6
  8
5MM_MATERIAL
 10
83.94423099999972
 20
-81.9242187472698
 30
0.0
  0
VERTEX
  5
1C7
  8
5MM_MATERIAL
 10
83.94423099999972
 20
-93.5242187472713
 30
0.0
  0
VERTEX
  5
1C8
  8
5MM_MATERIAL
 10
95.74419327730902
 20
-93.52421874736476
 30
0.0
 42
-0.4142125506176512
  0
VERTEX
  5
1C9
  8
5MM_MATERIAL
 10
95.94419327730634
 20
-93.72421805649626
 30
0.0
  0
VERTEX
  5
1CA
  8
5MM_MATERIAL
 10
95.94423097327785
 20
-104.6368509212805
 30
0.0
  0
VERTEX
  5
1CB
  8
5MM_MATERIAL
 10
95.96748653108102
 20
-104.9267559815328
 30
0.0
  0
VERTEX
  5
1CC
  8
5MM_MATERIAL
 10
96.03385826316344
 20
-105.2007880140683
 30
0.0
  0
VERTEX
  5
1CD
  8
5MM_MATERIAL
 10
96.14171155506165
 20
-105.4611652932831
 30
0.0
  0
VERTEX
  5
1CE
  8
5MM_MATERIAL
 10
96.28855346013142
 20
-105.7018717476111
 30
0.0
  0
VERTEX
  5
1CF
  8
5MM_MATERIAL
 10
96.47710469911203
 20
-105.9233185818282
 30
0.0
  0
VERTEX
  5
1D0
  8
5MM_MATERIAL
 10
97.12853138065338
 20
-106.574778125475
 30
0.0
  0
VERTEX
  5
1D1
  8
5MM_MATERIAL
 10
97.78562966551158
 20
-107.2318874595385
 30
0.0
  0
VERTEX
  5
1D2
  8
5MM_MATERIAL
 10
99.09420043976206
 20
-108.5404142272327
 30
0.0
  0
VERTEX
  5
1D3
  8
5MM_MATERIAL
 10
99.31564350964004
 20
-108.7289626330055
 30
0.0
  0
VERTEX
  5
1D4
  8
5MM_MATERIAL
 10
99.55634809882622
 20
-108.8758042798686
 30
0.0
  0
VERTEX
  5
1D5
  8
5MM_MATERIAL
 10
99.81672497278919
 20
-108.9836583901449
 30
0.0
  0
VERTEX
  5
1D6
  8
5MM_MATERIAL
 10
100.0907584635606
 20
-109.0500312105737
 30
0.0
  0
VERTEX
  5
1D7
  8
5MM_MATERIAL
 10
100.3806675203207
 20
-109.073287341732
 30
0.0
  0
VERTEX
  5
1D8
  8
5MM_MATERIAL
 10
108.5584450809251
 20
-109.0733191307856
 30
0.0
  0
VERTEX
  5
1D9
  8
5MM_MATERIAL
 10
116.7442308707671
 20
-109.0733297375232
 30
0.0
  0
VERTEX
  5
1DA
  8
5MM_MATERIAL
 10
133.1077946957278
 20
-109.0732873313541
 30
0.0
  0
VERTEX
  5
1DB
  8
5MM_MATERIAL
 10
133.3976996698343
 20
-109.0500317804614
 30
0.0
  0
VERTEX
  5
1DC
  8
5MM_MATERIAL
 10
133.6717317023697
 20
-108.983660048379
 30
0.0
  0
VERTEX
  5
1DD
  8
5MM_MATERIAL
 10
133.9321089815846
 20
-108.8758067564806
 30
0.0
  0
VERTEX
  5
1DE
  8
5MM_MATERIAL
 10
134.1728154359123
 20
-108.7289648514111
 30
0.0
  0
VERTEX
  5
1DF
  8
5MM_MATERIAL
 10
134.3942622701295
 20
-108.5404136124303
 30
0.0
  0
VERTEX
  5
1E0
  8
5MM_MATERIAL
 10
135.0457218137719
 20
-107.8889869308937
 30
0.0
  0
VERTEX
  5
1E1
  8
5MM_MATERIAL
 10
135.7028311478439
 20
-107.231888646027
 30
0.0
  0
VERTEX
  5
1E2
  8
5MM_MATERIAL
 10
137.0113579155341
 20
-105.9233178717805
 30
0.0
  0
VERTEX
  5
1E3
  8
5MM_MATERIAL
 10
137.1999063213068
 20
-105.7018748019024
 30
0.0
  0
VERTEX
  5
1E4
  8
5MM_MATERIAL
 10
137.3467479681701
 20
-105.4611702127163
 30
0.0
  0
VERTEX
  5
1E5
  8
5MM_MATERIAL
 10
137.4546020784462
 20
-105.2007933387533
 30
0.0
  0
VERTEX
  5
1E6
  8
5MM_MATERIAL
 10
137.520974898875
 20
-104.9267598479817
 30
0.0
  0
VERTEX
  5
1E7
  8
5MM_MATERIAL
 10
137.5442310300334
 20
-104.6368507912217
 30
0.0
  0
VERTEX
  5
1E8
  8
5MM_MATERIAL
 10
137.544262819087
 20
-96.4590732306593
 30
0.0
  0
VERTEX
  5
1E9
  8
5MM_MATERIAL
 10
137.5442734258247
 20
-88.27328744077496
 30
0.0
  0
VERTEX
  5
1EA
  8
5MM_MATERIAL
 10
137.5442310196554
 20
-71.90972361581473
 30
0.0
  0
VERTEX
  5
1EB
  8
5MM_MATERIAL
 10
137.5209754687628
 20
-71.61981864170818
 30
0.0
  0
VERTEX
  5
1EC
  8
5MM_MATERIAL
 10
137.4546037366804
 20
-71.34578660917279
 30
0.0
  0
VERTEX
  5
1ED
  8
5MM_MATERIAL
 10
137.3467504447819
 20
-71.08540932995774
 30
0.0
  0
VERTEX
  5
1EE
  8
5MM_MATERIAL
 10
137.1999085397124
 20
-70.84470287562996
 30
0.0
  0
VERTEX
  5
1EF
  8
5MM_MATERIAL
 10
137.0113573007316
 20
-70.62325604141276
 30
0.0
  0
VERTEX
  5
1F0
  8
5MM_MATERIAL
 10
136.3599306191943
 20
-69.97179649776976
 30
0.0
  0
VERTEX
  5
1F1
  8
5MM_MATERIAL
 10
135.7028323343313
 20
-69.31468716370179
 30
0.0
  0
VERTEX
  5
1F2
  8
5MM_MATERIAL
 10
134.3942615600818
 20
-68.00616039600831
 30
0.0
  0
VERTEX
  5
1F3
  8
5MM_MATERIAL
 10
134.1728184902038
 20
-67.81761199023546
 30
0.0
  0
VERTEX
  5
1F4
  8
5MM_MATERIAL
 10
133.9321139010176
 20
-67.67077034337237
 30
0.0
  0
VERTEX
  5
1F5
  8
5MM_MATERIAL
 10
133.6717370270546
 20
-67.56291623309627
 30
0.0
  0
VERTEX
  5
1F6
  8
5MM_MATERIAL
 10
133.3977035362832
 20
-67.49654341266748
 30
0.0
  0
VERTEX
  5
1F7
  8
5MM_MATERIAL
 10
133.1077944795231
 20
-67.47328728150907
 30
0.0
  0
VERTEX
  5
1F8
  8
5MM_MATERIAL
 10
124.9300169190115
 20
-67.47325549245542
 30
0.0
  0
VERTEX
  5
1F9
  8
5MM_MATERIAL
 10
116.7442311290672
 20
-67.47324488571778
 30
0.0
  0
SEQEND
  5
4B5
  8
5MM_MATERIAL
  0
POLYLINE
  5
84
  8
5MM_MATERIAL
 66
     1
 10
0.0
 20
0.0
 30
0.0
 70
     1
  0
VERTEX
  5
1FA
  8
5MM_MATERIAL
 10
-292.820093233858
 20
7.58161555616698
 30
0.0
  0
VERTEX
  5
1FB
  8
5MM_MATERIAL
 10
-292.4432918846646
 20
7.616063669346545
 30
0.0
  0
VERTEX
  5
1FC
  8
5MM_MATERIAL
 10
-292.0905318696837
 20
7.713649244679459
 30
0.0
  0
VERTEX
  5
1FD
  8
5MM_MATERIAL
 10
-291.767234102213
 20
7.868269504613068
 30
0.0
  0
VERTEX
  5
1FE
  8
5MM_MATERIAL
 10
-291.4788194955509
 20
8.073821671595056
 30
0.0
  0
VERTEX
  5
1FF
  8
5MM_MATERIAL
 10
-291.2307089629944
 20
8.324202968072768
 30
0.0
  0
VERTEX
  5
200
  8
5MM_MATERIAL
 10
-291.0283234178421
 20
8.613310616493663
 30
0.0
  0
VERTEX
  5
201
  8
5MM_MATERIAL
 10
-290.8770837733912
 20
8.935041839305313
 30
0.0
  0
VERTEX
  5
202
  8
5MM_MATERIAL
 10
-290.78241094294
 20
9.28329385895529
 30
0.0
  0
VERTEX
  5
203
  8
5MM_MATERIAL
 10
-290.7497258397859
 20
9.651963897890823
 30
0.0
  0
VERTEX
  5
204
  8
5MM_MATERIAL
 10
-290.782775294804
 20
10.02222487957272
 30
0.0
  0
VERTEX
  5
205
  8
5MM_MATERIAL
 10
-290.8779980089291
 20
10.3713987640208
 30
0.0
  0
VERTEX
  5
206
  8
5MM_MATERIAL
 10
-291.0298545069925
 20
10.6934884600073
 30
0.0
  0
VERTEX
  5
207
  8
5MM_MATERIAL
 10
-291.2328053138258
 20
10.98249687630459
 30
0.0
  0
VERTEX
  5
208
  8
5MM_MATERIAL
 10
-291.4813109542606
 20
11.23242692168481
 30
0.0
  0
VERTEX
  5
209
  8
5MM_MATERIAL
 10
-291.7698319531282
 20
11.43728150492018
 30
0.0
  0
VERTEX
  5
20A
  8
5MM_MATERIAL
 10
-292.09282883526
 20
11.59106353478307
 30
0.0
  0
VERTEX
  5
20B
  8
5MM_MATERIAL
 10
-292.4447621254874
 20
11.68777592004574
 30
0.0
  0
VERTEX
  5
20C
  8
5MM_MATERIAL
 10
-292.8200923486418
 20
11.7214215694803
 30
0.0
  0
VERTEX
  5
20D
  8
5MM_MATERIAL
 10
-293.1938093327931
 20
11.68818385279667
 30
0.0
  0
VERTEX
  5
20E
  8
5MM_MATERIAL
 10
-293.5449930834227
 20
11.59213992810021
 30
0.0
  0
VERTEX
  5
20F
  8
5MM_MATERIAL
 10
-293.8679138233704
 20
11.43913152691573
 30
0.0
  0
VERTEX
  5
210
  8
5MM_MATERIAL
 10
-294.1568417754756
 20
11.23500038076781
 30
0.0
  0
VERTEX
  5
211
  8
5MM_MATERIAL
 10
-294.4060471625774
 20
10.98558822118127
 30
0.0
  0
VERTEX
  5
212
  8
5MM_MATERIAL
 10
-294.6098002075153
 20
10.6967367796808
 30
0.0
  0
VERTEX
  5
213
  8
5MM_MATERIAL
 10
-294.7623711331285
 20
10.3742877877911
 30
0.0
  0
VERTEX
  5
214
  8
5MM_MATERIAL
 10
-294.8580301622567
 20
10.02408297703698
 30
0.0
  0
VERTEX
  5
215
  8
5MM_MATERIAL
 10
-294.891047517739
 20
9.65196407894291
 30
0.0
  0
VERTEX
  5
216
  8
5MM_MATERIAL
 10
-294.8593792980148
 20
9.291446280489595
 30
0.0
  0
VERTEX
  5
217
  8
5MM_MATERIAL
 10
-294.7669451298993
 20
8.945846482656407
 30
0.0
  0
VERTEX
  5
218
  8
5MM_MATERIAL
 10
-294.6169866693469
 20
8.622394014300426
 30
0.0
  0
VERTEX
  5
219
  8
5MM_MATERIAL
 10
-294.412745572313
 20
8.328318204278958
 30
0.0
  0
VERTEX
  5
21A
  8
5MM_MATERIAL
 10
-294.1521115110058
 20
8.066187227575483
 30
0.0
  0
VERTEX
  5
21B
  8
5MM_MATERIAL
 10
-293.8545388503928
 20
7.857707099189383
 30
0.0
  0
VERTEX
  5
21C
  8
5MM_MATERIAL
 10
-293.5280179865881
 20
7.705622194343732
 30
0.0
  0
VERTEX
  5
21D
  8
5MM_MATERIAL
 10
-293.1805393157051
 20
7.612676888261831
 30
0.0
  0
SEQEND
  5
4B6
  8
5MM_MATERIAL
  0
POLYLINE
  5
85
  8
5MM_MATERIAL
 66
     1
 10
0.0
 20
0.0
 30
0.0
 70
     1
  0
VERTEX
  5
21E
  8
5MM_MATERIAL
 10
-292.8200905824729
 20
-147.8253181323494
 30
0.0
  0
VERTEX
  5
21F
  8
5MM_MATERIAL
 10
-293.1968919316664
 20
-147.7908700191698
 30
0.0
  0
VERTEX
  5
220
  8
5MM_MATERIAL
 10
-293.5496519466474
 20
-147.6932844438369
 30
0.0
  0
VERTEX
  5
221
  8
5MM_MATERIAL
 10
-293.872949714118
 20
-147.5386641839033
 30
0.0
  0
VERTEX
  5
222
  8
5MM_MATERIAL
 10
-294.1613643207804
 20
-147.3331120169213
 30
0.0
  0
VERTEX
  5
223
  8
5MM_MATERIAL
 10
-294.4094748533366
 20
-147.0827307204437
 30
0.0
  0
VERTEX
  5
224
  8
5MM_MATERIAL
 10
-294.6118603984889
 20
-146.7936230720227
 30
0.0
  0
VERTEX
  5
225
  8
5MM_MATERIAL
 10
-294.7631000429399
 20
-146.471891849211
 30
0.0
  0
VERTEX
  5
226
  8
5MM_MATERIAL
 10
-294.857772873391
 20
-146.1236398295611
 30
0.0
  0
VERTEX
  5
227
  8
5MM_MATERIAL
 10
-294.8904579765449
 20
-145.7549697906255
 30
0.0
  0
VERTEX
  5
228
  8
5MM_MATERIAL
 10
-294.8574085215271
 20
-145.3847088089436
 30
0.0
  0
VERTEX
  5
229
  8
5MM_MATERIAL
 10
-294.7621858074019
 20
-145.0355349244954
 30
0.0
  0
VERTEX
  5
22A
  8
5MM_MATERIAL
 10
-294.6103293093386
 20
-144.7134452285089
 30
0.0
  0
VERTEX
  5
22B
  8
5MM_MATERIAL
 10
-294.4073785025053
 20
-144.4244368122116
 30
0.0
  0
VERTEX
  5
22C
  8
5MM_MATERIAL
 10
-294.1588728620704
 20
-144.1745067668315
 30
0.0
  0
VERTEX
  5
22D
  8
5MM_MATERIAL
 10
-293.870351863203
 20
-143.9696521835962
 30
0.0
  0
VERTEX
  5
22E
  8
5MM_MATERIAL
 10
-293.5473549810713
 20
-143.8158701537333
 30
0.0
  0
VERTEX
  5
22F
  8
5MM_MATERIAL
 10
-293.1954216908437
 20
-143.7191577684706
 30
0.0
  0
VERTEX
  5
230
  8
5MM_MATERIAL
 10
-292.8200914676891
 20
-143.6855121190362
 30
0.0
  0
VERTEX
  5
231
  8
5MM_MATERIAL
 10
-292.446374483538
 20
-143.7187498357198
 30
0.0
  0
VERTEX
  5
232
  8
5MM_MATERIAL
 10
-292.0951907329083
 20
-143.8147937604163
 30
0.0
  0
VERTEX
  5
233
  8
5MM_MATERIAL
 10
-291.7722699929607
 20
-143.9678021616007
 30
0.0
  0
VERTEX
  5
234
  8
5MM_MATERIAL
 10
-291.4833420408556
 20
-144.1719333077486
 30
0.0
  0
VERTEX
  5
235
  8
5MM_MATERIAL
 10
-291.2341366537537
 20
-144.4213454673351
 30
0.0
  0
VERTEX
  5
236
  8
5MM_MATERIAL
 10
-291.0303836088158
 20
-144.7101969088357
 30
0.0
  0
VERTEX
  5
237
  8
5MM_MATERIAL
 10
-290.8778126832026
 20
-145.0326459007252
 30
0.0
  0
VERTEX
  5
238
  8
5MM_MATERIAL
 10
-290.7821536540744
 20
-145.3828507114795
 30
0.0
  0
VERTEX
  5
239
  8
5MM_MATERIAL
 10
-290.749136298592
 20
-145.7549696095734
 30
0.0
  0
VERTEX
  5
23A
  8
5MM_MATERIAL
 10
-290.7808045183162
 20
-146.1154874080268
 30
0.0
  0
VERTEX
  5
23B
  8
5MM_MATERIAL
 10
-290.8732386864319
 20
-146.4610872058599
 30
0.0
  0
VERTEX
  5
23C
  8
5MM_MATERIAL
 10
-291.0231971469841
 20
-146.7845396742159
 30
0.0
  0
VERTEX
  5
23D
  8
5MM_MATERIAL
 10
-291.2274382440182
 20
-147.0786154842375
 30
0.0
  0
VERTEX
  5
23E
  8
5MM_MATERIAL
 10
-291.4880723053252
 20
-147.3407464609409
 30
0.0
  0
VERTEX
  5
23F
  8
5MM_MATERIAL
 10
-291.7856449659382
 20
-147.5492265893271
 30
0.0
  0
VERTEX
  5
240
  8
5MM_MATERIAL
 10
-292.1121658297429
 20
-147.7013114941726
 30
0.0
  0
VERTEX
  5
241
  8
5MM_MATERIAL
 10
-292.4596445006259
 20
-147.7942568002544
 30
0.0
  0
SEQEND
  5
4B7
  8
5MM_MATERIAL
  0
POLYLINE
  5
86
  8
5MM_MATERIAL
 66
     1
 10
0.0
 20
0.0
 30
0.0
 70
     1
  0
VERTEX
  5
242
  8
5MM_MATERIAL
 10
-278.5179620012786
 20
18.22376615683913
 30
0.0
  0
VERTEX
  5
243
  8
5MM_MATERIAL
 10
-278.014581058482
 20
18.26012459511946
 30
0.0
  0
VERTEX
  5
244
  8
5MM_MATERIAL
 10
-277.5280138512787
 20
18.3666566420934
 30
0.0
  0
VERTEX
  5
245
  8
5MM_MATERIAL
 10
-277.0649592829745
 20
18.5396030018652
 30
0.0
  0
VERTEX
  5
246
  8
5MM_MATERIAL
 10
-276.6321162568745
 20
18.77520437853912
 30
0.0
  0
VERTEX
  5
247
  8
5MM_MATERIAL
 10
-276.2361836762834
 20
19.06970147621951
 30
0.0
  0
VERTEX
  5
248
  8
5MM_MATERIAL
 10
-275.8802190430442
 20
19.42324506241061
 30
0.0
  0
VERTEX
  5
249
  8
5MM_MATERIAL
 10
-275.5802191589705
 20
19.82127753316831
 30
0.0
  0
VERTEX
  5
24A
  8
5MM_MATERIAL
 10
-275.340088768346
 20
20.25707062539936
 30
0.0
  0
VERTEX
  5
24B
  8
5MM_MATERIAL
 10
-275.1637326154537
 20
20.72389607601042
 30
0.0
  0
VERTEX
  5
24C
  8
5MM_MATERIAL
 10
-275.0550554445772
 20
21.21502562190835
 30
0.0
  0
VERTEX
  5
24D
  8
5MM_MATERIAL
 10
-275.0179619999999
 20
21.72373099999993
 30
0.0
 42
0.4142135623730939
  0
VERTEX
  5
24E
  8
5MM_MATERIAL
 10
-278.5179619999999
 20
25.22373099999993
 30
0.0
 42
0.4142135623730986
  0
VERTEX
  5
24F
  8
5MM_MATERIAL
 10
-282.0179619999999
 20
21.72373099999993
 30
0.0
  0
VERTEX
  5
250
  8
5MM_MATERIAL
 10
-281.9800130132946
 20
21.20652588589724
 30
0.0
  0
VERTEX
  5
251
  8
5MM_MATERIAL
 10
-281.8697753999309
 20
20.7128821080795
 30
0.0
  0
VERTEX
  5
252
  8
5MM_MATERIAL
 10
-281.6926631800377
 20
20.24821432058479
 30
0.0
  0
VERTEX
  5
253
  8
5MM_MATERIAL
 10
-281.4540903737438
 20
19.81793717745143
 30
0.0
  0
VERTEX
  5
254
  8
5MM_MATERIAL
 10
-281.1594710011777
 20
19.42746533271736
 30
0.0
  0
VERTEX
  5
255
  8
5MM_MATERIAL
 10
-280.8142190824685
 20
19.08221344042101
 30
0.0
  0
VERTEX
  5
256
  8
5MM_MATERIAL
 10
-280.4237486377447
 20
18.78759615460046
 30
0.0
  0
VERTEX
  5
257
  8
5MM_MATERIAL
 10
-279.9934736871351
 20
18.54902812929379
 30
0.0
  0
VERTEX
  5
258
  8
5MM_MATERIAL
 10
-279.5288082507684
 20
18.37192401853929
 30
0.0
  0
VERTEX
  5
259
  8
5MM_MATERIAL
 10
-279.0351663487734
 20
18.26169847637505
 30
0.0
  0
SEQEND
  5
4B8
  8
5MM_MATERIAL
  0
POLYLINE
  5
87
  8
5MM_MATERIAL
 66
     1
 10
0.0
 20
0.0
 30
0.0
 70
     1
  0
VERTEX
  5
25A
  8
5MM_MATERIAL
 10
-298.25
 20
-178.2499999999999
 30
0.0
 42
0.4141346362608546
  0
VERTEX
  5
25B
  8
5MM_MATERIAL
 10
-278.25
 20
-198.2499999999999
 30
0.0
  0
VERTEX
  5
25C
  8
5MM_MATERIAL
 10
-42.25
 20
-198.25
 30
0.0
 42
0.4141346362608556
  0
VERTEX
  5
25D
  8
5MM_MATERIAL
 10
-22.25
 20
-178.25
 30
0.0
  0
VERTEX
  5
25E
  8
5MM_MATERIAL
 10
-22.25
 20
21.74999999999989
 30
0.0
 42
0.414134636260853
  0
VERTEX
  5
25F
  8
5MM_MATERIAL
 10
-42.25
 20
41.74999999999989
 30
0.0
  0
VERTEX
  5
260
  8
5MM_MATERIAL
 10
-278.2499999999998
 20
41.75
 30
0.0
 42
0.4141346362608526
  0
VERTEX
  5
261
  8
5MM_MATERIAL
 10
-298.25
 20
21.75
 30
0.0
  0
SEQEND
  5
4B9
  8
5MM_MATERIAL
  0
POLYLINE
  5
88
  8
5MM_MATERIAL
 66
     1
 10
0.0
 20
0.0
 30
0.0
 70
     1
  0
VERTEX
  5
262
  8
5MM_MATERIAL
 10
-27.69144752238367
 20
-12.87644863489993
 30
0.0
  0
VERTEX
  5
263
  8
5MM_MATERIAL
 10
-27.31427592142768
 20
-12.84193062580732
 30
0.0
  0
VERTEX
  5
264
  8
5MM_MATERIAL
 10
-26.96132139756151
 20
-12.74422087813798
 30
0.0
  0
VERTEX
  5
265
  8
5MM_MATERIAL
 10
-26.63796739988493
 20
-12.58945321084229
 30
0.0
  0
VERTEX
  5
266
  8
5MM_MATERIAL
 10
-26.34959737749637
 20
-12.38376144287042
 30
0.0
  0
VERTEX
  5
267
  8
5MM_MATERIAL
 10
-26.1015947794956
 20
-12.13327939317253
 30
0.0
  0
VERTEX
  5
268
  8
5MM_MATERIAL
 10
-25.89934305498173
 20
-11.84414088069911
 30
0.0
  0
VERTEX
  5
269
  8
5MM_MATERIAL
 10
-25.74822565305362
 20
-11.52247972440045
 30
0.0
  0
VERTEX
  5
26A
  8
5MM_MATERIAL
 10
-25.65362602281061
 20
-11.1744297432266
 30
0.0
  0
VERTEX
  5
26B
  8
5MM_MATERIAL
 10
-25.62092761335202
 20
-10.80612475612816
 30
0.0
  0
VERTEX
  5
26C
  8
5MM_MATERIAL
 10
-25.65426354006377
 20
-10.43384348326526
 30
0.0
  0
VERTEX
  5
26D
  8
5MM_MATERIAL
 10
-25.75031076289474
 20
-10.0835147695534
 30
0.0
  0
VERTEX
  5
26E
  8
5MM_MATERIAL
 10
-25.90327032987534
 20
-9.760976481897274
 30
0.0
  0
VERTEX
  5
26F
  8
5MM_MATERIAL
 10
-26.10734328903482
 20
-9.4720664872018
 30
0.0
  0
VERTEX
  5
270
  8
5MM_MATERIAL
 10
-26.35673068840401
 20
-9.222622652371797
 30
0.0
  0
VERTEX
  5
271
  8
5MM_MATERIAL
 10
-26.64563357601241
 20
-9.018482844312075
 30
0.0
  0
VERTEX
  5
272
  8
5MM_MATERIAL
 10
-26.96825299988996
 20
-8.865484929927675
 30
0.0
  0
VERTEX
  5
273
  8
5MM_MATERIAL
 10
-27.31879000806703
 20
-8.769466776123181
 30
0.0
  0
VERTEX
  5
274
  8
5MM_MATERIAL
 10
-27.69144564857356
 20
-8.736266249803634
 30
0.0
  0
VERTEX
  5
275
  8
5MM_MATERIAL
 10
-28.06516310927623
 20
-8.76972899539453
 30
0.0
  0
VERTEX
  5
276
  8
5MM_MATERIAL
 10
-28.41634717819215
 20
-8.86592201761664
 30
0.0
  0
VERTEX
  5
277
  8
5MM_MATERIAL
 10
-28.73926810545072
 20
-9.019016790078012
 30
0.0
  0
VERTEX
  5
278
  8
5MM_MATERIAL
 10
-29.02819614118039
 20
-9.223184786386469
 30
0.0
  0
VERTEX
  5
279
  8
5MM_MATERIAL
 10
-29.27740153551031
 20
-9.47259748014983
 30
0.0
  0
VERTEX
  5
27A
  8
5MM_MATERIAL
 10
-29.48115453856894
 20
-9.761426344975916
 30
0.0
  0
VERTEX
  5
27B
  8
5MM_MATERIAL
 10
-29.63372540048567
 20
-10.08384285447278
 30
0.0
  0
VERTEX
  5
27C
  8
5MM_MATERIAL
 10
-29.72938437138896
 20
-10.43401848224823
 30
0.0
  0
VERTEX
  5
27D
  8
5MM_MATERIAL
 10
-29.76240170140773
 20
-10.80612470191011
 30
0.0
  0
VERTEX
  5
27E
  8
5MM_MATERIAL
 10
-29.73073350463051
 20
-11.16664238780652
 30
0.0
  0
VERTEX
  5
27F
  8
5MM_MATERIAL
 10
-29.63829937456535
 20
-11.51224214299634
 30
0.0
  0
VERTEX
  5
280
  8
5MM_MATERIAL
 10
-29.48834092122502
 20
-11.83569464602704
 30
0.0
  0
VERTEX
  5
281
  8
5MM_MATERIAL
 10
-29.28409975462182
 20
-12.12977057544572
 30
0.0
  0
VERTEX
  5
282
  8
5MM_MATERIAL
 10
-29.02346587812144
 20
-12.39190355557628
 30
0.0
  0
VERTEX
  5
283
  8
5MM_MATERIAL
 10
-28.72589332566986
 20
-12.60038700689347
 30
0.0
  0
VERTEX
  5
284
  8
5MM_MATERIAL
 10
-28.39937248824458
 20
-12.75247177409085
 30
0.0
  0
VERTEX
  5
285
  8
5MM_MATERIAL
 10
-28.05189375682312
 20
-12.84540870186186
 30
0.0
  0
SEQEND
  5
4BA
  8
5MM_MATERIAL
  0
POLYLINE
  5
89
  8
5MM_MATERIAL
 66
     1
 10
0.0
 20
0.0
 30
0.0
 70
     1
  0
VERTEX
  5
286
  8
5MM_MATERIAL
 10
-287.8957109999999
 20
-165.2878073114836
 30
0.0
  0
VERTEX
  5
287
  8
5MM_MATERIAL
 10
-32.69144099999994
 20
-165.2878073114836
 30
0.0
  0
VERTEX
  5
288
  8
5MM_MATERIAL
 10
-32.69144099999994
 20
-147.2878073114836
 30
0.0
  0
VERTEX
  5
289
  8
5MM_MATERIAL
 10
-287.8957109999999
 20
-147.2878073114836
 30
0.0
  0
SEQEND
  5
4BB
  8
5MM_MATERIAL
  0
POLYLINE
  5
8A
  8
5MM_MATERIAL
 66
     1
 10
0.0
 20
0.0
 30
0.0
 70
     1
  0
VERTEX
  5
28A
  8
5MM_MATERIAL
 10
-45.4936478878783
 20
21.72373099437755
 30
0.0
  0
VERTEX
  5
28B
  8
5MM_MATERIAL
 10
-45.4591126399655
 20
21.23093814048673
 30
0.0
  0
VERTEX
  5
28C
  8
5MM_MATERIAL
 10
-45.35862095323841
 20
20.75854818638686
 30
0.0
  0
VERTEX
  5
28D
  8
5MM_MATERIAL
 10
-45.19672627850287
 20
20.31145579786357
 30
0.0
  0
VERTEX
  5
28E
  8
5MM_MATERIAL
 10
-44.9779820665658
 20
19.89455564070215
 30
0.0
  0
VERTEX
  5
28F
  8
5MM_MATERIAL
 10
-44.70694176823349
 20
19.51274238068811
 30
0.0
  0
VERTEX
  5
290
  8
5MM_MATERIAL
 10
-44.38815883431243
 20
19.17091068360685
 30
0.0
  0
VERTEX
  5
291
  8
5MM_MATERIAL
 10
-44.02618671560867
 20
18.87395521524365
 30
0.0
  0
VERTEX
  5
292
  8
5MM_MATERIAL
 10
-43.62557886292916
 20
18.62677064138404
 30
0.0
  0
VERTEX
  5
293
  8
5MM_MATERIAL
 10
-43.19088872707994
 20
18.43425162781364
 30
0.0
  0
VERTEX
  5
294
  8
5MM_MATERIAL
 10
-42.72666975886773
 20
18.3012928403175
 30
0.0
  0
VERTEX
  5
295
  8
5MM_MATERIAL
 10
-42.23747540909858
 20
18.23278894468137
 30
0.0
 42
0.4556250576604182
  0
VERTEX
  5
296
  8
5MM_MATERIAL
 10
-38.50263472412234
 20
21.96764587415794
 30
0.0
  0
VERTEX
  5
297
  8
5MM_MATERIAL
 10
-38.57104023609827
 20
22.45636170363753
 30
0.0
  0
VERTEX
  5
298
  8
5MM_MATERIAL
 10
-38.70378165627221
 20
22.92017212358292
 30
0.0
  0
VERTEX
  5
299
  8
5MM_MATERIAL
 10
-38.89598108116502
 20
23.35453171067309
 30
0.0
  0
VERTEX
  5
29A
  8
5MM_MATERIAL
 10
-39.14276060729708
 20
23.75489504158725
 30
0.0
  0
VERTEX
  5
29B
  8
5MM_MATERIAL
 10
-39.43924233118901
 20
24.11671669300415
 30
0.0
  0
VERTEX
  5
29C
  8
5MM_MATERIAL
 10
-39.78054834936142
 20
24.43545124160312
 30
0.0
  0
VERTEX
  5
29D
  8
5MM_MATERIAL
 10
-40.16180075833472
 20
24.70655326406302
 30
0.0
  0
VERTEX
  5
29E
  8
5MM_MATERIAL
 10
-40.57812165462951
 20
24.92547733706294
 30
0.0
  0
VERTEX
  5
29F
  8
5MM_MATERIAL
 10
-41.02463313476619
 20
25.08767803728176
 30
0.0
  0
VERTEX
  5
2A0
  8
5MM_MATERIAL
 10
-41.4964572952656
 20
25.18860994139868
 30
0.0
  0
VERTEX
  5
2A1
  8
5MM_MATERIAL
 10
-41.98871623264813
 20
25.22372762609268
 30
0.0
  0
VERTEX
  5
2A2
  8
5MM_MATERIAL
 10
-42.44572221215253
 20
25.19437822735631
 30
0.0
  0
VERTEX
  5
2A3
  8
5MM_MATERIAL
 10
-42.89094431711237
 20
25.10664613439405
 30
0.0
  0
VERTEX
  5
2A4
  8
5MM_MATERIAL
 10
-43.31903854987763
 20
24.96292629191748
 30
0.0
  0
VERTEX
  5
2A5
  8
5MM_MATERIAL
 10
-43.7246609127983
 20
24.76561364463817
 30
0.0
  0
VERTEX
  5
2A6
  8
5MM_MATERIAL
 10
-44.10246740822436
 20
24.51710313726778
 30
0.0
  0
VERTEX
  5
2A7
  8
5MM_MATERIAL
 10
-44.44711403850556
 20
24.2197897145179
 30
0.0
  0
VERTEX
  5
2A8
  8
5MM_MATERIAL
 10
-44.76043455228842
 20
23.86720413726266
 30
0.0
  0
VERTEX
  5
2A9
  8
5MM_MATERIAL
 10
-45.02027061742206
 20
23.48132398634493
 30
0.0
  0
VERTEX
  5
2AA
  8
5MM_MATERIAL
 10
-45.22506610872756
 20
23.06809292918092
 30
0.0
  0
VERTEX
  5
2AB
  8
5MM_MATERIAL
 10
-45.3732649010251
 20
22.6334546331874
 30
0.0
  0
VERTEX
  5
2AC
  8
5MM_MATERIAL
 10
-45.46331086913506
 20
22.18335276578068
 30
0.0
  0
SEQEND
  5
4BC
  8
5MM_MATERIAL
  0
POLYLINE
  5
8B
  8
5MM_MATERIAL
 66
     1
 10
0.0
 20
0.0
 30
0.0
 70
     1
  0
VERTEX
  5
2AD
  8
5MM_MATERIAL
 10
-32.76705500000003
 20
8.712192688516438
 30
0.0
  0
VERTEX
  5
2AE
  8
5MM_MATERIAL
 10
-287.820097
 20
8.712192688516552
 30
0.0
  0
VERTEX
  5
2AF
  8
5MM_MATERIAL
 10
-287.820097
 20
-9.287807311483448
 30
0.0
  0
VERTEX
  5
2B0
  8
5MM_MATERIAL
 10
-32.76705500000003
 20
-9.287807311483562
 30
0.0
  0
SEQEND
  5
4BD
  8
5MM_MATERIAL
  0
POLYLINE
  5
8C
  8
5MM_MATERIAL
 66
     1
 10
0.0
 20
0.0
 30
0.0
 70
     1
  0
VERTEX
  5
2B1
  8
5MM_MATERIAL
 10
-292.8200904776161
 20
-12.87644863489982
 30
0.0
  0
VERTEX
  5
2B2
  8
5MM_MATERIAL
 10
-293.1972620785723
 20
-12.84193062580732
 30
0.0
  0
VERTEX
  5
2B3
  8
5MM_MATERIAL
 10
-293.5502166024382
 20
-12.74422087813809
 30
0.0
  0
VERTEX
  5
2B4
  8
5MM_MATERIAL
 10
-293.8735706001148
 20
-12.58945321084229
 30
0.0
  0
VERTEX
  5
2B5
  8
5MM_MATERIAL
 10
-294.1619406225034
 20
-12.38376144287042
 30
0.0
  0
VERTEX
  5
2B6
  8
5MM_MATERIAL
 10
-294.4099432205041
 20
-12.13327939317264
 30
0.0
  0
VERTEX
  5
2B7
  8
5MM_MATERIAL
 10
-294.6121949450182
 20
-11.84414088069923
 30
0.0
  0
VERTEX
  5
2B8
  8
5MM_MATERIAL
 10
-294.7633123469463
 20
-11.52247972440045
 30
0.0
  0
VERTEX
  5
2B9
  8
5MM_MATERIAL
 10
-294.8579119771891
 20
-11.17442974322671
 30
0.0
  0
VERTEX
  5
2BA
  8
5MM_MATERIAL
 10
-294.8906103866479
 20
-10.80612475612816
 30
0.0
  0
VERTEX
  5
2BB
  8
5MM_MATERIAL
 10
-294.8572744599362
 20
-10.43384348326526
 30
0.0
  0
VERTEX
  5
2BC
  8
5MM_MATERIAL
 10
-294.761227237105
 20
-10.0835147695534
 30
0.0
  0
VERTEX
  5
2BD
  8
5MM_MATERIAL
 10
-294.6082676701246
 20
-9.760976481897274
 30
0.0
  0
VERTEX
  5
2BE
  8
5MM_MATERIAL
 10
-294.4041947109649
 20
-9.4720664872018
 30
0.0
  0
VERTEX
  5
2BF
  8
5MM_MATERIAL
 10
-294.1548073115957
 20
-9.222622652371797
 30
0.0
  0
VERTEX
  5
2C0
  8
5MM_MATERIAL
 10
-293.8659044239873
 20
-9.018482844312075
 30
0.0
  0
VERTEX
  5
2C1
  8
5MM_MATERIAL
 10
-293.5432850001098
 20
-8.865484929927675
 30
0.0
  0
VERTEX
  5
2C2
  8
5MM_MATERIAL
 10
-293.1927479919327
 20
-8.769466776123181
 30
0.0
  0
VERTEX
  5
2C3
  8
5MM_MATERIAL
 10
-292.8200923514262
 20
-8.736266249803634
 30
0.0
  0
VERTEX
  5
2C4
  8
5MM_MATERIAL
 10
-292.4463748907235
 20
-8.76972899539453
 30
0.0
  0
VERTEX
  5
2C5
  8
5MM_MATERIAL
 10
-292.0951908218076
 20
-8.86592201761664
 30
0.0
  0
VERTEX
  5
2C6
  8
5MM_MATERIAL
 10
-291.772269894549
 20
-9.019016790078012
 30
0.0
  0
VERTEX
  5
2C7
  8
5MM_MATERIAL
 10
-291.4833418588194
 20
-9.223184786386469
 30
0.0
  0
VERTEX
  5
2C8
  8
5MM_MATERIAL
 10
-291.2341364644894
 20
-9.47259748014983
 30
0.0
  0
VERTEX
  5
2C9
  8
5MM_MATERIAL
 10
-291.0303834614308
 20
-9.76142634497603
 30
0.0
  0
VERTEX
  5
2CA
  8
5MM_MATERIAL
 10
-290.8778125995143
 20
-10.08384285447289
 30
0.0
  0
VERTEX
  5
2CB
  8
5MM_MATERIAL
 10
-290.7821536286108
 20
-10.43401848224823
 30
0.0
  0
VERTEX
  5
2CC
  8
5MM_MATERIAL
 10
-290.749136298592
 20
-10.80612470191011
 30
0.0
  0
VERTEX
  5
2CD
  8
5MM_MATERIAL
 10
-290.7808044953692
 20
-11.16664238780675
 30
0.0
  0
VERTEX
  5
2CE
  8
5MM_MATERIAL
 10
-290.8732386254344
 20
-11.51224214299657
 30
0.0
  0
VERTEX
  5
2CF
  8
5MM_MATERIAL
 10
-291.023197078775
 20
-11.83569464602704
 30
0.0
  0
VERTEX
  5
2D0
  8
5MM_MATERIAL
 10
-291.2274382453779
 20
-12.12977057544572
 30
0.0
  0
VERTEX
  5
2D1
  8
5MM_MATERIAL
 10
-291.4880721218785
 20
-12.39190355557639
 30
0.0
  0
VERTEX
  5
2D2
  8
5MM_MATERIAL
 10
-291.7856446743301
 20
-12.60038700689358
 30
0.0
  0
VERTEX
  5
2D3
  8
5MM_MATERIAL
 10
-292.1121655117554
 20
-12.75247177409085
 30
0.0
  0
VERTEX
  5
2D4
  8
5MM_MATERIAL
 10
-292.4596442431766
 20
-12.84540870186174
 30
0.0
  0
SEQEND
  5
4BE
  8
5MM_MATERIAL
  0
POLYLINE
  5
8D
  8
5MM_MATERIAL
 66
     1
 10
0.0
 20
0.0
 30
0.0
 70
     1
  0
VERTEX
  5
2D5
  8
5MM_MATERIAL
 10
-292.8200904776161
 20
-168.2833823234163
 30
0.0
  0
VERTEX
  5
2D6
  8
5MM_MATERIAL
 10
-293.1972620785723
 20
-168.2488643143237
 30
0.0
  0
VERTEX
  5
2D7
  8
5MM_MATERIAL
 10
-293.5502166024382
 20
-168.1511545666543
 30
0.0
  0
VERTEX
  5
2D8
  8
5MM_MATERIAL
 10
-293.873570600115
 20
-167.9963868993586
 30
0.0
  0
VERTEX
  5
2D9
  8
5MM_MATERIAL
 10
-294.1619406225034
 20
-167.7906951313868
 30
0.0
  0
VERTEX
  5
2DA
  8
5MM_MATERIAL
 10
-294.4099432205041
 20
-167.5402130816889
 30
0.0
  0
VERTEX
  5
2DB
  8
5MM_MATERIAL
 10
-294.6121949450182
 20
-167.2510745692156
 30
0.0
  0
VERTEX
  5
2DC
  8
5MM_MATERIAL
 10
-294.7633123469463
 20
-166.9294134129168
 30
0.0
  0
VERTEX
  5
2DD
  8
5MM_MATERIAL
 10
-294.8579119771891
 20
-166.5813634317429
 30
0.0
  0
VERTEX
  5
2DE
  8
5MM_MATERIAL
 10
-294.8906103866479
 20
-166.2130584446445
 30
0.0
  0
VERTEX
  5
2DF
  8
5MM_MATERIAL
 10
-294.857274459936
 20
-165.8407771717817
 30
0.0
  0
VERTEX
  5
2E0
  8
5MM_MATERIAL
 10
-294.761227237105
 20
-165.4904484580697
 30
0.0
  0
VERTEX
  5
2E1
  8
5MM_MATERIAL
 10
-294.6082676701246
 20
-165.1679101704136
 30
0.0
  0
VERTEX
  5
2E2
  8
5MM_MATERIAL
 10
-294.4041947109649
 20
-164.8790001757181
 30
0.0
  0
VERTEX
  5
2E3
  8
5MM_MATERIAL
 10
-294.1548073115957
 20
-164.6295563408881
 30
0.0
  0
VERTEX
  5
2E4
  8
5MM_MATERIAL
 10
-293.8659044239873
 20
-164.4254165328285
 30
0.0
  0
VERTEX
  5
2E5
  8
5MM_MATERIAL
 10
-293.5432850001098
 20
-164.272418618444
 30
0.0
  0
VERTEX
  5
2E6
  8
5MM_MATERIAL
 10
-293.1927479919327
 20
-164.1764004646395
 30
0.0
  0
VERTEX
  5
2E7
  8
5MM_MATERIAL
 10
-292.8200923514262
 20
-164.14319993832
 30
0.0
  0
VERTEX
  5
2E8
  8
5MM_MATERIAL
 10
-292.4463748907235
 20
-164.1766626839109
 30
0.0
  0
VERTEX
  5
2E9
  8
5MM_MATERIAL
 10
-292.0951908218076
 20
-164.272855706133
 30
0.0
  0
VERTEX
  5
2EA
  8
5MM_MATERIAL
 10
-291.772269894549
 20
-164.4259504785944
 30
0.0
  0
VERTEX
  5
2EB
  8
5MM_MATERIAL
 10
-291.4833418588194
 20
-164.6301184749028
 30
0.0
  0
VERTEX
  5
2EC
  8
5MM_MATERIAL
 10
-291.2341364644894
 20
-164.8795311686662
 30
0.0
  0
VERTEX
  5
2ED
  8
5MM_MATERIAL
 10
-291.0303834614308
 20
-165.1683600334924
 30
0.0
  0
VERTEX
  5
2EE
  8
5MM_MATERIAL
 10
-290.8778125995141
 20
-165.4907765429892
 30
0.0
  0
VERTEX
  5
2EF
  8
5MM_MATERIAL
 10
-290.7821536286108
 20
-165.8409521707646
 30
0.0
  0
VERTEX
  5
2F0
  8
5MM_MATERIAL
 10
-290.749136298592
 20
-166.2130583904265
 30
0.0
  0
VERTEX
  5
2F1
  8
5MM_MATERIAL
 10
-290.7808044953692
 20
-166.5735760763231
 30
0.0
  0
VERTEX
  5
2F2
  8
5MM_MATERIAL
 10
-290.8732386254344
 20
-166.9191758315129
 30
0.0
  0
VERTEX
  5
2F3
  8
5MM_MATERIAL
 10
-291.023197078775
 20
-167.2426283345434
 30
0.0
  0
VERTEX
  5
2F4
  8
5MM_MATERIAL
 10
-291.2274382453779
 20
-167.5367042639621
 30
0.0
  0
VERTEX
  5
2F5
  8
5MM_MATERIAL
 10
-291.4880721218785
 20
-167.7988372440926
 30
0.0
  0
VERTEX
  5
2F6
  8
5MM_MATERIAL
 10
-291.7856446743301
 20
-168.0073206954099
 30
0.0
  0
VERTEX
  5
2F7
  8
5MM_MATERIAL
 10
-292.1121655117552
 20
-168.1594054626072
 30
0.0
  0
VERTEX
  5
2F8
  8
5MM_MATERIAL
 10
-292.4596442431766
 20
-168.2523423903782
 30
0.0
  0
SEQEND
  5
4BF
  8
5MM_MATERIAL
  0
POLYLINE
  5
8E
  8
5MM_MATERIAL
 66
     1
 10
0.0
 20
0.0
 30
0.0
 70
     1
  0
VERTEX
  5
2F9
  8
5MM_MATERIAL
 10
-292.820097
 20
-138.1504357894078
 30
0.0
 42
0.4142135623730984
  0
VERTEX
  5
2FA
  8
5MM_MATERIAL
 10
-290.8891555220757
 20
-136.2194943114836
 30
0.0
 42
0.4142135623730995
  0
VERTEX
  5
2FB
  8
5MM_MATERIAL
 10
-292.820097
 20
-134.2885528335593
 30
0.0
 42
0.4142135623730853
  0
VERTEX
  5
2FC
  8
5MM_MATERIAL
 10
-294.7510384779241
 20
-136.2194943114836
 30
0.0
 42
0.4142135623731027
  0
SEQEND
  5
4C0
  8
5MM_MATERIAL
  0
POLYLINE
  5
8F
  8
5MM_MATERIAL
 66
     1
 10
0.0
 20
0.0
 30
0.0
 70
     1
  0
VERTEX
  5
2FD
  8
5MM_MATERIAL
 10
-287.7946702543115
 20
-41.67080779994751
 30
0.0
  0
VERTEX
  5
2FE
  8
5MM_MATERIAL
 10
-287.3938995652459
 20
-41.67080779994751
 30
0.0
  0
VERTEX
  5
2FF
  8
5MM_MATERIAL
 10
-286.6269995652458
 20
-43.77784779994749
 30
0.0
  0
VERTEX
  5
300
  8
5MM_MATERIAL
 10
-285.8556095652459
 20
-43.77784779994749
 30
0.0
  0
VERTEX
  5
301
  8
5MM_MATERIAL
 10
-285.0887095652458
 20
-41.67080779994751
 30
0.0
  0
VERTEX
  5
302
  8
5MM_MATERIAL
 10
-284.3397695652459
 20
-41.67080779994751
 30
0.0
  0
VERTEX
  5
303
  8
5MM_MATERIAL
 10
-283.5728695652458
 20
-43.77784779994749
 30
0.0
  0
VERTEX
  5
304
  8
5MM_MATERIAL
 10
-282.8014795652459
 20
-43.77784779994749
 30
0.0
  0
VERTEX
  5
305
  8
5MM_MATERIAL
 10
-282.0345795652458
 20
-41.67080779994751
 30
0.0
  0
VERTEX
  5
306
  8
5MM_MATERIAL
 10
-281.2856395652459
 20
-41.67080779994751
 30
0.0
  0
VERTEX
  5
307
  8
5MM_MATERIAL
 10
-280.5187395652458
 20
-43.77784779994749
 30
0.0
  0
VERTEX
  5
308
  8
5MM_MATERIAL
 10
-278.3696728462739
 20
-43.77784779994749
 30
0.0
  0
VERTEX
  5
309
  8
5MM_MATERIAL
 10
-279.1372995099207
 20
-44.30527462984696
 30
0.0
  0
VERTEX
  5
30A
  8
5MM_MATERIAL
 10
-279.8751032201178
 20
-44.86863046397559
 30
0.0
  0
VERTEX
  5
30B
  8
5MM_MATERIAL
 10
-280.5800480659732
 20
-45.46611037592356
 30
0.0
  0
VERTEX
  5
30C
  8
5MM_MATERIAL
 10
-281.2490981365947
 20
-46.09590943928094
 30
0.0
  0
VERTEX
  5
30D
  8
5MM_MATERIAL
 10
-281.8792175210899
 20
-46.75622272763781
 30
0.0
  0
VERTEX
  5
30E
  8
5MM_MATERIAL
 10
-282.4673703085668
 20
-47.44524531458421
 30
0.0
  0
VERTEX
  5
30F
  8
5MM_MATERIAL
 10
-283.0105205881332
 20
-48.16117227371035
 30
0.0
  0
VERTEX
  5
310
  8
5MM_MATERIAL
 10
-283.5056324488967
 20
-48.90219867860606
 30
0.0
  0
VERTEX
  5
311
  8
5MM_MATERIAL
 10
-283.9496699799654
 20
-49.66651960286151
 30
0.0
  0
VERTEX
  5
312
  8
5MM_MATERIAL
 10
-284.3395972704468
 20
-50.45233012006702
 30
0.0
  0
VERTEX
  5
313
  8
5MM_MATERIAL
 10
-284.6723784094486
 20
-51.2578253038123
 30
0.0
  0
VERTEX
  5
314
  8
5MM_MATERIAL
 10
-284.9449774860791
 20
-52.08120022768765
 30
0.0
  0
VERTEX
  5
315
  8
5MM_MATERIAL
 10
-285.1543585894456
 20
-52.92064996528313
 30
0.0
  0
VERTEX
  5
316
  8
5MM_MATERIAL
 10
-285.2974858086561
 20
-53.77436959018871
 30
0.0
  0
VERTEX
  5
317
  8
5MM_MATERIAL
 10
-285.3713232328184
 20
-54.64055417599468
 30
0.0
  0
VERTEX
  5
318
  8
5MM_MATERIAL
 10
-285.3728349510404
 20
-55.51739879629088
 30
0.0
  0
VERTEX
  5
319
  8
5MM_MATERIAL
 10
-285.2989850524295
 20
-56.40309852466737
 30
0.0
  0
VERTEX
  5
31A
  8
5MM_MATERIAL
 10
-284.9803357791041
 20
-58.8936277068326
 30
0.0
  0
VERTEX
  5
31B
  8
5MM_MATERIAL
 10
-284.6517075831125
 20
-61.41097350921109
 30
0.0
  0
VERTEX
  5
31C
  8
5MM_MATERIAL
 10
-284.3150191196237
 20
-63.94601225795429
 30
0.0
  0
VERTEX
  5
31D
  8
5MM_MATERIAL
 10
-283.9721890438063
 20
-66.48962027921368
 30
0.0
  0
VERTEX
  5
31E
  8
5MM_MATERIAL
 10
-283.6251360108292
 20
-69.03267389914083
 30
0.0
  0
VERTEX
  5
31F
  8
5MM_MATERIAL
 10
-283.2757786758607
 20
-71.5660494438871
 30
0.0
  0
VERTEX
  5
320
  8
5MM_MATERIAL
 10
-282.9260356940697
 20
-74.08062323960394
 30
0.0
  0
VERTEX
  5
321
  8
5MM_MATERIAL
 10
-282.5778257206248
 20
-76.56727161244282
 30
0.0
  0
VERTEX
  5
322
  8
5MM_MATERIAL
 10
-282.2330674106947
 20
-79.01687088855533
 30
0.0
  0
VERTEX
  5
323
  8
5MM_MATERIAL
 10
-281.8936794194481
 20
-81.42029739409281
 30
0.0
  0
VERTEX
  5
324
  8
5MM_MATERIAL
 10
-281.5615804020536
 20
-83.76842745520685
 30
0.0
  0
VERTEX
  5
325
  8
5MM_MATERIAL
 10
-281.23868901368
 20
-86.0521373980489
 30
0.0
  0
VERTEX
  5
326
  8
5MM_MATERIAL
 10
-281.0113988754833
 20
-87.39303850500812
 30
0.0
  0
VERTEX
  5
327
  8
5MM_MATERIAL
 10
-280.7113914595316
 20
-88.71252237071315
 30
0.0
  0
VERTEX
  5
328
  8
5MM_MATERIAL
 10
-280.3387277088698
 20
-90.00983108354865
 30
0.0
  0
VERTEX
  5
329
  8
5MM_MATERIAL
 10
-279.8934685665422
 20
-91.28420673189976
 30
0.0
  0
VERTEX
  5
32A
  8
5MM_MATERIAL
 10
-279.3911949367839
 20
-92.49938830473513
 30
0.0
  0
VERTEX
  5
32B
  8
5MM_MATERIAL
 10
-278.8250134150817
 20
-93.68042029925505
 30
0.0
  0
VERTEX
  5
32C
  8
5MM_MATERIAL
 10
-278.1968756297952
 20
-94.82514922663029
 30
0.0
  0
VERTEX
  5
32D
  8
5MM_MATERIAL
 10
-277.5087332092842
 20
-95.93142159803176
 30
0.0
  0
VERTEX
  5
32E
  8
5MM_MATERIAL
 10
-276.7625377819083
 20
-96.99708392463003
 30
0.0
  0
VERTEX
  5
32F
  8
5MM_MATERIAL
 10
-275.9602409760271
 20
-98.01998271759612
 30
0.0
  0
VERTEX
  5
330
  8
5MM_MATERIAL
 10
-275.1037944200004
 20
-98.99796448810082
 30
0.0
  0
VERTEX
  5
331
  8
5MM_MATERIAL
 10
-274.1951497421878
 20
-99.9288757473148
 30
0.0
  0
VERTEX
  5
332
  8
5MM_MATERIAL
 10
-273.2362585709491
 20
-100.810563006409
 30
0.0
  0
VERTEX
  5
333
  8
5MM_MATERIAL
 10
-272.2290725346438
 20
-101.6408727765541
 30
0.0
  0
VERTEX
  5
334
  8
5MM_MATERIAL
 10
-271.1755432616319
 20
-102.4176515689212
 30
0.0
  0
VERTEX
  5
335
  8
5MM_MATERIAL
 10
-270.0508841747405
 20
-103.1552032908299
 30
0.0
  0
VERTEX
  5
336
  8
5MM_MATERIAL
 10
-268.8942595948683
 20
-103.824725103787
 30
0.0
  0
VERTEX
  5
337
  8
5MM_MATERIAL
 10
-267.7082484846362
 20
-104.4257637885684
 30
0.0
  0
VERTEX
  5
338
  8
5MM_MATERIAL
 10
-266.495429806665
 20
-104.9578661259502
 30
0.0
  0
VERTEX
  5
339
  8
5MM_MATERIAL
 10
-265.2583825235756
 20
-105.4205788967083
 30
0.0
  0
VERTEX
  5
33A
  8
5MM_MATERIAL
 10
-263.9996855979887
 20
-105.8134488816187
 30
0.0
  0
VERTEX
  5
33B
  8
5MM_MATERIAL
 10
-262.7219179925255
 20
-106.1360228614574
 30
0.0
  0
VERTEX
  5
33C
  8
5MM_MATERIAL
 10
-261.4276586698068
 20
-106.3878476170004
 30
0.0
  0
VERTEX
  5
33D
  8
5MM_MATERIAL
 10
-260.1194865924533
 20
-106.5684699290235
 30
0.0
  0
VERTEX
  5
33E
  8
5MM_MATERIAL
 10
-258.799980723086
 20
-106.6774365783029
 30
0.0
  0
VERTEX
  5
33F
  8
5MM_MATERIAL
 10
-257.471720024326
 20
-106.7142943456146
 30
0.0
  0
VERTEX
  5
340
  8
5MM_MATERIAL
 10
-62.98324384494276
 20
-106.7142943456146
 30
0.0
  0
VERTEX
  5
341
  8
5MM_MATERIAL
 10
-61.63095445292856
 20
-106.6765606156298
 30
0.0
  0
VERTEX
  5
342
  8
5MM_MATERIAL
 10
-60.29367096306646
 20
-106.5643632312588
 30
0.0
  0
VERTEX
  5
343
  8
5MM_MATERIAL
 10
-58.97378949385165
 20
-106.379207900877
 30
0.0
  0
VERTEX
  5
344
  8
5MM_MATERIAL
 10
-57.67370616377889
 20
-106.12260033286
 30
0.0
  0
VERTEX
  5
345
  8
5MM_MATERIAL
 10
-56.39581709134382
 20
-105.7960462355831
 30
0.0
  0
VERTEX
  5
346
  8
5MM_MATERIAL
 10
-55.14251839504118
 20
-105.4010513174216
 30
0.0
  0
VERTEX
  5
347
  8
5MM_MATERIAL
 10
-53.91620619336618
 20
-104.9391212867512
 30
0.0
  0
VERTEX
  5
348
  8
5MM_MATERIAL
 10
-52.71927660481447
 20
-104.4117618519471
 30
0.0
  0
VERTEX
  5
349
  8
5MM_MATERIAL
 10
-51.55412574788056
 20
-103.8204787213848
 30
0.0
  0
VERTEX
  5
34A
  8
5MM_MATERIAL
 10
-50.42314974106012
 20
-103.1667776034397
 30
0.0
  0
VERTEX
  5
34B
  8
5MM_MATERIAL
 10
-49.3287447028481
 20
-102.4521642064872
 30
0.0
  0
VERTEX
  5
34C
  8
5MM_MATERIAL
 10
-48.27330675173948
 20
-101.6781442389028
 30
0.0
  0
VERTEX
  5
34D
  8
5MM_MATERIAL
 10
-47.25923200622992
 20
-100.8462234090617
 30
0.0
  0
VERTEX
  5
34E
  8
5MM_MATERIAL
 10
-46.29802970755259
 20
-99.96612468577986
 30
0.0
  0
VERTEX
  5
34F
  8
5MM_MATERIAL
 10
-45.38788433509626
 20
-99.03725821219031
 30
0.0
  0
VERTEX
  5
350
  8
5MM_MATERIAL
 10
-44.53096537145757
 20
-98.06278863656986
 30
0.0
  0
VERTEX
  5
351
  8
5MM_MATERIAL
 10
-43.72944229923291
 20
-97.04588060719506
 30
0.0
  0
VERTEX
  5
352
  8
5MM_MATERIAL
 10
-42.98548460101892
 20
-95.98969877234266
 30
0.0
  0
VERTEX
  5
353
  8
5MM_MATERIAL
 10
-42.30126175941177
 20
-94.89740778028933
 30
0.0
  0
VERTEX
  5
354
  8
5MM_MATERIAL
 10
-41.81795896933613
 20
-94.03704623249463
 30
0.0
  0
VERTEX
  5
355
  8
5MM_MATERIAL
 10
-41.36733090105054
 20
-93.15174695748921
 30
0.0
  0
VERTEX
  5
356
  8
5MM_MATERIAL
 10
-40.95360917126595
 20
-92.2485255327016
 30
0.0
  0
VERTEX
  5
357
  8
5MM_MATERIAL
 10
-40.58102539669312
 20
-91.33439753556048
 30
0.0
  0
VERTEX
  5
358
  8
5MM_MATERIAL
 10
-40.2182983112848
 20
-90.31407651779149
 30
0.0
  0
VERTEX
  5
359
  8
5MM_MATERIAL
 10
-39.9039214104464
 20
-89.28200395027194
 30
0.0
  0
VERTEX
  5
35A
  8
5MM_MATERIAL
 10
-39.63534627090394
 20
-88.23823482760294
 30
0.0
  0
VERTEX
  5
35B
  8
5MM_MATERIAL
 10
-39.41002446938364
 20
-87.18282414438535
 30
0.0
  0
VERTEX
  5
35C
  8
5MM_MATERIAL
 10
-39.22540758261107
 20
-86.11582689522005
 30
0.0
  0
VERTEX
  5
35D
  8
5MM_MATERIAL
 10
-38.95829387262211
 20
-84.37957319140675
 30
0.0
  0
VERTEX
  5
35E
  8
5MM_MATERIAL
 10
-38.6817322313741
 20
-82.64476923498991
 30
0.0
  0
VERTEX
  5
35F
  8
5MM_MATERIAL
 10
-38.37345000920868
 20
-80.83592587328543
 30
0.0
  0
VERTEX
  5
360
  8
5MM_MATERIAL
 10
-38.05784068678395
 20
-79.02833444868601
 30
0.0
  0
VERTEX
  5
361
  8
5MM_MATERIAL
 10
-37.82856284061359
 20
-77.70786437729659
 30
0.0
  0
VERTEX
  5
362
  8
5MM_MATERIAL
 10
-37.58935045730846
 20
-76.31869123444666
 30
0.0
  0
VERTEX
  5
363
  8
5MM_MATERIAL
 10
-37.3454061126406
 20
-74.86845347026441
 30
0.0
  0
VERTEX
  5
364
  8
5MM_MATERIAL
 10
-37.1019323823823
 20
-73.36478953487848
 30
0.0
  0
VERTEX
  5
365
  8
5MM_MATERIAL
 10
-36.8641318423056
 20
-71.81533787841705
 30
0.0
  0
VERTEX
  5
366
  8
5MM_MATERIAL
 10
-36.63720706818253
 20
-70.22773695100852
 30
0.0
  0
VERTEX
  5
367
  8
5MM_MATERIAL
 10
-36.42636063578516
 20
-68.60962520278144
 30
0.0
  0
VERTEX
  5
368
  8
5MM_MATERIAL
 10
-36.23679512088552
 20
-66.96864108386387
 30
0.0
  0
VERTEX
  5
369
  8
5MM_MATERIAL
 10
-36.07371309925611
 20
-65.31242304438445
 30
0.0
  0
VERTEX
  5
36A
  8
5MM_MATERIAL
 10
-35.94231714666853
 20
-63.64860953447157
 30
0.0
  0
VERTEX
  5
36B
  8
5MM_MATERIAL
 10
-35.84780983889482
 20
-61.98483900425333
 30
0.0
  0
VERTEX
  5
36C
  8
5MM_MATERIAL
 10
-35.79539375170771
 20
-60.32874990385835
 30
0.0
  0
VERTEX
  5
36D
  8
5MM_MATERIAL
 10
-35.79027146087856
 20
-58.68798068341505
 30
0.0
  0
VERTEX
  5
36E
  8
5MM_MATERIAL
 10
-35.83764554217987
 20
-57.0701697930516
 30
0.0
  0
VERTEX
  5
36F
  8
5MM_MATERIAL
 10
-35.94271857138369
 20
-55.48295568289643
 30
0.0
  0
VERTEX
  5
370
  8
5MM_MATERIAL
 10
-36.07015261924425
 20
-54.43760704672547
 30
0.0
  0
VERTEX
  5
371
  8
5MM_MATERIAL
 10
-36.26836857390276
 20
-53.41032529935808
 30
0.0
  0
VERTEX
  5
372
  8
5MM_MATERIAL
 10
-36.53451667212789
 20
-52.40277200394314
 30
0.0
  0
VERTEX
  5
373
  8
5MM_MATERIAL
 10
-36.86574715068878
 20
-51.41660872362957
 30
0.0
  0
VERTEX
  5
374
  8
5MM_MATERIAL
 10
-37.25921024635477
 20
-50.45349702156648
 30
0.0
  0
VERTEX
  5
375
  8
5MM_MATERIAL
 10
-37.71205619589523
 20
-49.51509846090255
 30
0.0
  0
VERTEX
  5
376
  8
5MM_MATERIAL
 10
-38.22143523607861
 20
-48.60307460478703
 30
0.0
  0
VERTEX
  5
377
  8
5MM_MATERIAL
 10
-38.78449760367448
 20
-47.71908701636869
 30
0.0
  0
VERTEX
  5
378
  8
5MM_MATERIAL
 10
-39.39839353545199
 20
-46.86479725879633
 30
0.0
  0
VERTEX
  5
379
  8
5MM_MATERIAL
 10
-40.06027326818025
 20
-46.04186689521919
 30
0.0
  0
VERTEX
  5
37A
  8
5MM_MATERIAL
 10
-40.76728703862841
 20
-45.25195748878605
 30
0.0
  0
VERTEX
  5
37B
  8
5MM_MATERIAL
 10
-41.51658508356559
 20
-44.49673060264581
 30
0.0
  0
VERTEX
  5
37C
  8
5MM_MATERIAL
 10
-42.30531763976069
 20
-43.77784779994749
 30
0.0
  0
VERTEX
  5
37D
  8
5MM_MATERIAL
 10
-41.5339276397608
 20
-43.77784779994749
 30
0.0
  0
VERTEX
  5
37E
  8
5MM_MATERIAL
 10
-40.76702763976073
 20
-41.67080779994751
 30
0.0
  0
VERTEX
  5
37F
  8
5MM_MATERIAL
 10
-40.01808763976055
 20
-41.67080779994751
 30
0.0
  0
VERTEX
  5
380
  8
5MM_MATERIAL
 10
-39.2511876397607
 20
-43.77784779994749
 30
0.0
  0
VERTEX
  5
381
  8
5MM_MATERIAL
 10
-38.47979763976059
 20
-43.77784779994749
 30
0.0
  0
VERTEX
  5
382
  8
5MM_MATERIAL
 10
-37.71289763976051
 20
-41.67080779994751
 30
0.0
  0
VERTEX
  5
383
  8
5MM_MATERIAL
 10
-36.96396763976054
 20
-41.67080779994751
 30
0.0
  0
VERTEX
  5
384
  8
5MM_MATERIAL
 10
-36.19705763976071
 20
-43.77784779994749
 30
0.0
  0
VERTEX
  5
385
  8
5MM_MATERIAL
 10
-35.4256676397606
 20
-43.77784779994749
 30
0.0
  0
VERTEX
  5
386
  8
5MM_MATERIAL
 10
-34.65876763976053
 20
-41.67080779994751
 30
0.0
  0
VERTEX
  5
387
  8
5MM_MATERIAL
 10
-33.90983763976055
 20
-41.67080779994751
 30
0.0
  0
VERTEX
  5
388
  8
5MM_MATERIAL
 10
-33.14292763976073
 20
-43.77784779994749
 30
0.0
  0
VERTEX
  5
389
  8
5MM_MATERIAL
 10
-33.09748766168946
 20
-43.84734048158202
 30
0.0
  0
VERTEX
  5
38A
  8
5MM_MATERIAL
 10
-33.02537605627322
 20
-43.88171516792409
 30
0.0
  0
VERTEX
  5
38B
  8
5MM_MATERIAL
 10
-32.96565397591121
 20
-43.87044046002973
 30
0.0
  0
VERTEX
  5
38C
  8
5MM_MATERIAL
 10
-32.91608122713478
 20
-43.82883804750134
 30
0.0
  0
VERTEX
  5
38D
  8
5MM_MATERIAL
 10
-32.88009866769085
 20
-43.76907706460554
 30
0.0
  0
VERTEX
  5
38E
  8
5MM_MATERIAL
 10
-32.88009866769085
 20
-33.71106431148348
 30
0.0
  0
VERTEX
  5
38F
  8
5MM_MATERIAL
 10
-287.7948918183438
 20
-33.71106431148348
 30
0.0
  0
SEQEND
  5
4C1
  8
5MM_MATERIAL
  0
POLYLINE
  5
90
  8
5MM_MATERIAL
 66
     1
 10
0.0
 20
0.0
 30
0.0
 70
     1
  0
VERTEX
  5
390
  8
5MM_MATERIAL
 10
-278.5179620012786
 20
-181.7993098431606
 30
0.0
  0
VERTEX
  5
391
  8
5MM_MATERIAL
 10
-278.014581058482
 20
-181.7629514048803
 30
0.0
  0
VERTEX
  5
392
  8
5MM_MATERIAL
 10
-277.528013851279
 20
-181.6564193579064
 30
0.0
  0
VERTEX
  5
393
  8
5MM_MATERIAL
 10
-277.0649592829745
 20
-181.4834729981346
 30
0.0
  0
VERTEX
  5
394
  8
5MM_MATERIAL
 10
-276.6321162568745
 20
-181.2478716214606
 30
0.0
  0
VERTEX
  5
395
  8
5MM_MATERIAL
 10
-276.2361836762834
 20
-180.9533745237802
 30
0.0
  0
VERTEX
  5
396
  8
5MM_MATERIAL
 10
-275.8802190430442
 20
-180.5998309375892
 30
0.0
  0
VERTEX
  5
397
  8
5MM_MATERIAL
 10
-275.5802191589705
 20
-180.2017984668315
 30
0.0
  0
VERTEX
  5
398
  8
5MM_MATERIAL
 10
-275.340088768346
 20
-179.7660053746005
 30
0.0
  0
VERTEX
  5
399
  8
5MM_MATERIAL
 10
-275.1637326154537
 20
-179.2991799239894
 30
0.0
  0
VERTEX
  5
39A
  8
5MM_MATERIAL
 10
-275.0550554445772
 20
-178.8080503780914
 30
0.0
  0
VERTEX
  5
39B
  8
5MM_MATERIAL
 10
-275.0179619999999
 20
-178.2993449999999
 30
0.0
 42
0.4142135623731011
  0
VERTEX
  5
39C
  8
5MM_MATERIAL
 10
-278.5179619999999
 20
-174.799345
 30
0.0
 42
0.4142135623730951
  0
VERTEX
  5
39D
  8
5MM_MATERIAL
 10
-282.0179619999999
 20
-178.2993449999999
 30
0.0
  0
VERTEX
  5
39E
  8
5MM_MATERIAL
 10
-281.9800130132946
 20
-178.8165501141026
 30
0.0
  0
VERTEX
  5
39F
  8
5MM_MATERIAL
 10
-281.8697753999309
 20
-179.3101938919203
 30
0.0
  0
VERTEX
  5
3A0
  8
5MM_MATERIAL
 10
-281.6926631800377
 20
-179.774861679415
 30
0.0
  0
VERTEX
  5
3A1
  8
5MM_MATERIAL
 10
-281.4540903737438
 20
-180.2051388225484
 30
0.0
  0
VERTEX
  5
3A2
  8
5MM_MATERIAL
 10
-281.1594710011777
 20
-180.5956106672824
 30
0.0
  0
VERTEX
  5
3A3
  8
5MM_MATERIAL
 10
-280.8142190824685
 20
-180.9408625595787
 30
0.0
  0
VERTEX
  5
3A4
  8
5MM_MATERIAL
 10
-280.4237486377449
 20
-181.2354798453993
 30
0.0
  0
VERTEX
  5
3A5
  8
5MM_MATERIAL
 10
-279.9934736871351
 20
-181.4740478707059
 30
0.0
  0
VERTEX
  5
3A6
  8
5MM_MATERIAL
 10
-279.5288082507684
 20
-181.6511519814604
 30
0.0
  0
VERTEX
  5
3A7
  8
5MM_MATERIAL
 10
-279.0351663487734
 20
-181.7613775236248
 30
0.0
  0
SEQEND
  5
4C2
  8
5MM_MATERIAL
  0
POLYLINE
  5
91
  8
5MM_MATERIAL
 66
     1
 10
0.0
 20
0.0
 30
0.0
 70
     1
  0
VERTEX
  5
3A8
  8
5MM_MATERIAL
 10
-27.69144476614179
 20
7.58161555616698
 30
0.0
  0
VERTEX
  5
3A9
  8
5MM_MATERIAL
 10
-28.06824611533534
 20
7.616063669346545
 30
0.0
  0
VERTEX
  5
3AA
  8
5MM_MATERIAL
 10
-28.42100613031607
 20
7.713649244679459
 30
0.0
  0
VERTEX
  5
3AB
  8
5MM_MATERIAL
 10
-28.74430389778672
 20
7.868269504613068
 30
0.0
  0
VERTEX
  5
3AC
  8
5MM_MATERIAL
 10
-29.03271850444912
 20
8.073821671595056
 30
0.0
  0
VERTEX
  5
3AD
  8
5MM_MATERIAL
 10
-29.28082903700533
 20
8.324202968072768
 30
0.0
  0
VERTEX
  5
3AE
  8
5MM_MATERIAL
 10
-29.48321458215787
 20
8.613310616493663
 30
0.0
  0
VERTEX
  5
3AF
  8
5MM_MATERIAL
 10
-29.63445422660857
 20
8.935041839305313
 30
0.0
  0
VERTEX
  5
3B0
  8
5MM_MATERIAL
 10
-29.72912705705994
 20
9.28329385895529
 30
0.0
  0
VERTEX
  5
3B1
  8
5MM_MATERIAL
 10
-29.76181216021382
 20
9.651963897890823
 30
0.0
  0
VERTEX
  5
3B2
  8
5MM_MATERIAL
 10
-29.72876270519578
 20
10.02222487957272
 30
0.0
  0
VERTEX
  5
3B3
  8
5MM_MATERIAL
 10
-29.63353999107085
 20
10.37139876402091
 30
0.0
  0
VERTEX
  5
3B4
  8
5MM_MATERIAL
 10
-29.48168349300727
 20
10.69348846000742
 30
0.0
  0
VERTEX
  5
3B5
  8
5MM_MATERIAL
 10
-29.27873268617395
 20
10.98249687630471
 30
0.0
  0
VERTEX
  5
3B6
  8
5MM_MATERIAL
 10
-29.03022704573914
 20
11.23242692168492
 30
0.0
  0
VERTEX
  5
3B7
  8
5MM_MATERIAL
 10
-28.74170604687174
 20
11.43728150492029
 30
0.0
  0
VERTEX
  5
3B8
  8
5MM_MATERIAL
 10
-28.41870916473999
 20
11.59106353478319
 30
0.0
  0
VERTEX
  5
3B9
  8
5MM_MATERIAL
 10
-28.06677587451259
 20
11.68777592004574
 30
0.0
  0
VERTEX
  5
3BA
  8
5MM_MATERIAL
 10
-27.69144565135798
 20
11.7214215694803
 30
0.0
  0
VERTEX
  5
3BB
  8
5MM_MATERIAL
 10
-27.31772866720689
 20
11.68818385279656
 30
0.0
  0
VERTEX
  5
3BC
  8
5MM_MATERIAL
 10
-26.96654491657705
 20
11.59213992810021
 30
0.0
  0
VERTEX
  5
3BD
  8
5MM_MATERIAL
 10
-26.64362417662937
 20
11.43913152691562
 30
0.0
  0
VERTEX
  5
3BE
  8
5MM_MATERIAL
 10
-26.35469622452433
 20
11.2350003807677
 30
0.0
  0
VERTEX
  5
3BF
  8
5MM_MATERIAL
 10
-26.10549083742239
 20
10.98558822118127
 30
0.0
  0
VERTEX
  5
3C0
  8
5MM_MATERIAL
 10
-25.90173779248471
 20
10.69673677968069
 30
0.0
  0
VERTEX
  5
3C1
  8
5MM_MATERIAL
 10
-25.74916686687129
 20
10.3742877877911
 30
0.0
  0
VERTEX
  5
3C2
  8
5MM_MATERIAL
 10
-25.65350783774306
 20
10.02408297703687
 30
0.0
  0
VERTEX
  5
3C3
  8
5MM_MATERIAL
 10
-25.62049048226072
 20
9.65196407894291
 30
0.0
  0
VERTEX
  5
3C4
  8
5MM_MATERIAL
 10
-25.65215870198494
 20
9.291446280489822
 30
0.0
  0
VERTEX
  5
3C5
  8
5MM_MATERIAL
 10
-25.74459287010063
 20
8.94584648265652
 30
0.0
  0
VERTEX
  5
3C6
  8
5MM_MATERIAL
 10
-25.8945513306528
 20
8.622394014300426
 30
0.0
  0
VERTEX
  5
3C7
  8
5MM_MATERIAL
 10
-26.09879242768693
 20
8.328318204278958
 30
0.0
  0
VERTEX
  5
3C8
  8
5MM_MATERIAL
 10
-26.3594264889939
 20
8.066187227575597
 30
0.0
  0
VERTEX
  5
3C9
  8
5MM_MATERIAL
 10
-26.65699914960692
 20
7.857707099189383
 30
0.0
  0
VERTEX
  5
3CA
  8
5MM_MATERIAL
 10
-26.98352001341163
 20
7.705622194343732
 30
0.0
  0
VERTEX
  5
3CB
  8
5MM_MATERIAL
 10
-27.33099868429463
 20
7.612676888261831
 30
0.0
  0
SEQEND
  5
4C3
  8
5MM_MATERIAL
  0
POLYLINE
  5
92
  8
5MM_MATERIAL
 66
     1
 10
0.0
 20
0.0
 30
0.0
 70
     1
  0
VERTEX
  5
3CC
  8
5MM_MATERIAL
 10
-27.69144752238367
 20
-143.6235513651001
 30
0.0
  0
VERTEX
  5
3CD
  8
5MM_MATERIAL
 10
-27.31427592142768
 20
-143.6580693741927
 30
0.0
  0
VERTEX
  5
3CE
  8
5MM_MATERIAL
 10
-26.96132139756151
 20
-143.755779121862
 30
0.0
  0
VERTEX
  5
3CF
  8
5MM_MATERIAL
 10
-26.63796739988493
 20
-143.9105467891577
 30
0.0
  0
VERTEX
  5
3D0
  8
5MM_MATERIAL
 10
-26.34959737749637
 20
-144.1162385571296
 30
0.0
  0
VERTEX
  5
3D1
  8
5MM_MATERIAL
 10
-26.1015947794956
 20
-144.3667206068275
 30
0.0
  0
VERTEX
  5
3D2
  8
5MM_MATERIAL
 10
-25.89934305498173
 20
-144.6558591193009
 30
0.0
  0
VERTEX
  5
3D3
  8
5MM_MATERIAL
 10
-25.74822565305362
 20
-144.9775202755995
 30
0.0
  0
VERTEX
  5
3D4
  8
5MM_MATERIAL
 10
-25.65362602281061
 20
-145.3255702567734
 30
0.0
  0
VERTEX
  5
3D5
  8
5MM_MATERIAL
 10
-25.62092761335202
 20
-145.6938752438718
 30
0.0
  0
VERTEX
  5
3D6
  8
5MM_MATERIAL
 10
-25.65426354006377
 20
-146.0661565167347
 30
0.0
  0
VERTEX
  5
3D7
  8
5MM_MATERIAL
 10
-25.75031076289474
 20
-146.4164852304466
 30
0.0
  0
VERTEX
  5
3D8
  8
5MM_MATERIAL
 10
-25.90327032987534
 20
-146.7390235181027
 30
0.0
  0
VERTEX
  5
3D9
  8
5MM_MATERIAL
 10
-26.10734328903482
 20
-147.0279335127982
 30
0.0
  0
VERTEX
  5
3DA
  8
5MM_MATERIAL
 10
-26.35673068840401
 20
-147.2773773476282
 30
0.0
  0
VERTEX
  5
3DB
  8
5MM_MATERIAL
 10
-26.64563357601241
 20
-147.4815171556879
 30
0.0
  0
VERTEX
  5
3DC
  8
5MM_MATERIAL
 10
-26.96825299988996
 20
-147.6345150700723
 30
0.0
  0
VERTEX
  5
3DD
  8
5MM_MATERIAL
 10
-27.31879000806703
 20
-147.7305332238768
 30
0.0
  0
VERTEX
  5
3DE
  8
5MM_MATERIAL
 10
-27.69144564857356
 20
-147.7637337501964
 30
0.0
  0
VERTEX
  5
3DF
  8
5MM_MATERIAL
 10
-28.06516310927623
 20
-147.7302710046055
 30
0.0
  0
VERTEX
  5
3E0
  8
5MM_MATERIAL
 10
-28.41634717819215
 20
-147.6340779823834
 30
0.0
  0
VERTEX
  5
3E1
  8
5MM_MATERIAL
 10
-28.73926810545072
 20
-147.480983209922
 30
0.0
  0
VERTEX
  5
3E2
  8
5MM_MATERIAL
 10
-29.02819614118039
 20
-147.2768152136135
 30
0.0
  0
VERTEX
  5
3E3
  8
5MM_MATERIAL
 10
-29.27740153551031
 20
-147.0274025198502
 30
0.0
  0
VERTEX
  5
3E4
  8
5MM_MATERIAL
 10
-29.48115453856894
 20
-146.7385736550241
 30
0.0
  0
VERTEX
  5
3E5
  8
5MM_MATERIAL
 10
-29.63372540048567
 20
-146.4161571455272
 30
0.0
  0
VERTEX
  5
3E6
  8
5MM_MATERIAL
 10
-29.72938437138896
 20
-146.0659815177518
 30
0.0
  0
VERTEX
  5
3E7
  8
5MM_MATERIAL
 10
-29.76240170140773
 20
-145.6938752980899
 30
0.0
  0
VERTEX
  5
3E8
  8
5MM_MATERIAL
 10
-29.73073350463051
 20
-145.3333576121935
 30
0.0
  0
VERTEX
  5
3E9
  8
5MM_MATERIAL
 10
-29.63829937456535
 20
-144.9877578570037
 30
0.0
  0
VERTEX
  5
3EA
  8
5MM_MATERIAL
 10
-29.48834092122502
 20
-144.664305353973
 30
0.0
  0
VERTEX
  5
3EB
  8
5MM_MATERIAL
 10
-29.28409975462182
 20
-144.3702294245543
 30
0.0
  0
VERTEX
  5
3EC
  8
5MM_MATERIAL
 10
-29.02346587812144
 20
-144.1080964444237
 30
0.0
  0
VERTEX
  5
3ED
  8
5MM_MATERIAL
 10
-28.72589332566986
 20
-143.8996129931065
 30
0.0
  0
VERTEX
  5
3EE
  8
5MM_MATERIAL
 10
-28.39937248824458
 20
-143.7475282259092
 30
0.0
  0
VERTEX
  5
3EF
  8
5MM_MATERIAL
 10
-28.05189375682312
 20
-143.6545912981381
 30
0.0
  0
SEQEND
  5
4C4
  8
5MM_MATERIAL
  0
POLYLINE
  5
93
  8
5MM_MATERIAL
 66
     1
 10
0.0
 20
0.0
 30
0.0
 70
     1
  0
VERTEX
  5
3F0
  8
5MM_MATERIAL
 10
-27.69144476614179
 20
-164.081615556167
 30
0.0
  0
VERTEX
  5
3F1
  8
5MM_MATERIAL
 10
-28.06824611533534
 20
-164.1160636693465
 30
0.0
  0
VERTEX
  5
3F2
  8
5MM_MATERIAL
 10
-28.42100613031607
 20
-164.2136492446795
 30
0.0
  0
VERTEX
  5
3F3
  8
5MM_MATERIAL
 10
-28.74430389778672
 20
-164.3682695046131
 30
0.0
  0
VERTEX
  5
3F4
  8
5MM_MATERIAL
 10
-29.03271850444912
 20
-164.5738216715951
 30
0.0
  0
VERTEX
  5
3F5
  8
5MM_MATERIAL
 10
-29.28082903700533
 20
-164.8242029680728
 30
0.0
  0
VERTEX
  5
3F6
  8
5MM_MATERIAL
 10
-29.48321458215787
 20
-165.1133106164937
 30
0.0
  0
VERTEX
  5
3F7
  8
5MM_MATERIAL
 10
-29.63445422660857
 20
-165.4350418393053
 30
0.0
  0
VERTEX
  5
3F8
  8
5MM_MATERIAL
 10
-29.72912705705994
 20
-165.7832938589553
 30
0.0
  0
VERTEX
  5
3F9
  8
5MM_MATERIAL
 10
-29.76181216021382
 20
-166.1519638978908
 30
0.0
  0
VERTEX
  5
3FA
  8
5MM_MATERIAL
 10
-29.72876270519578
 20
-166.5222248795727
 30
0.0
  0
VERTEX
  5
3FB
  8
5MM_MATERIAL
 10
-29.63353999107085
 20
-166.8713987640209
 30
0.0
  0
VERTEX
  5
3FC
  8
5MM_MATERIAL
 10
-29.48168349300727
 20
-167.1934884600074
 30
0.0
  0
VERTEX
  5
3FD
  8
5MM_MATERIAL
 10
-29.27873268617395
 20
-167.4824968763047
 30
0.0
  0
VERTEX
  5
3FE
  8
5MM_MATERIAL
 10
-29.03022704573914
 20
-167.7324269216849
 30
0.0
  0
VERTEX
  5
3FF
  8
5MM_MATERIAL
 10
-28.74170604687174
 20
-167.9372815049203
 30
0.0
  0
VERTEX
  5
400
  8
5MM_MATERIAL
 10
-28.41870916473999
 20
-168.0910635347832
 30
0.0
  0
VERTEX
  5
401
  8
5MM_MATERIAL
 10
-28.06677587451259
 20
-168.1877759200457
 30
0.0
  0
VERTEX
  5
402
  8
5MM_MATERIAL
 10
-27.69144565135798
 20
-168.2214215694803
 30
0.0
  0
VERTEX
  5
403
  8
5MM_MATERIAL
 10
-27.31772866720689
 20
-168.1881838527966
 30
0.0
  0
VERTEX
  5
404
  8
5MM_MATERIAL
 10
-26.96654491657705
 20
-168.0921399281002
 30
0.0
  0
VERTEX
  5
405
  8
5MM_MATERIAL
 10
-26.64362417662937
 20
-167.9391315269156
 30
0.0
  0
VERTEX
  5
406
  8
5MM_MATERIAL
 10
-26.35469622452433
 20
-167.7350003807677
 30
0.0
  0
VERTEX
  5
407
  8
5MM_MATERIAL
 10
-26.10549083742239
 20
-167.4855882211813
 30
0.0
  0
VERTEX
  5
408
  8
5MM_MATERIAL
 10
-25.90173779248471
 20
-167.1967367796807
 30
0.0
  0
VERTEX
  5
409
  8
5MM_MATERIAL
 10
-25.74916686687129
 20
-166.8742877877911
 30
0.0
  0
VERTEX
  5
40A
  8
5MM_MATERIAL
 10
-25.65350783774306
 20
-166.5240829770369
 30
0.0
  0
VERTEX
  5
40B
  8
5MM_MATERIAL
 10
-25.62049048226072
 20
-166.1519640789429
 30
0.0
  0
VERTEX
  5
40C
  8
5MM_MATERIAL
 10
-25.65215870198494
 20
-165.7914462804898
 30
0.0
  0
VERTEX
  5
40D
  8
5MM_MATERIAL
 10
-25.74459287010063
 20
-165.4458464826565
 30
0.0
  0
VERTEX
  5
40E
  8
5MM_MATERIAL
 10
-25.8945513306528
 20
-165.1223940143004
 30
0.0
  0
VERTEX
  5
40F
  8
5MM_MATERIAL
 10
-26.09879242768693
 20
-164.828318204279
 30
0.0
  0
VERTEX
  5
410
  8
5MM_MATERIAL
 10
-26.3594264889939
 20
-164.5661872275756
 30
0.0
  0
VERTEX
  5
411
  8
5MM_MATERIAL
 10
-26.65699914960692
 20
-164.3577070991894
 30
0.0
  0
VERTEX
  5
412
  8
5MM_MATERIAL
 10
-26.98352001341163
 20
-164.2056221943437
 30
0.0
  0
VERTEX
  5
413
  8
5MM_MATERIAL
 10
-27.33099868429463
 20
-164.1126768882618
 30
0.0
  0
SEQEND
  5
4C5
  8
5MM_MATERIAL
  0
POLYLINE
  5
94
  8
5MM_MATERIAL
 66
     1
 10
0.0
 20
0.0
 30
0.0
 70
     1
  0
VERTEX
  5
414
  8
5MM_MATERIAL
 10
-27.67990299999997
 20
-138.1504357894078
 30
0.0
 42
-0.4142135623730984
  0
VERTEX
  5
415
  8
5MM_MATERIAL
 10
-29.61084447792405
 20
-136.2194943114836
 30
0.0
 42
-0.4142135623730995
  0
VERTEX
  5
416
  8
5MM_MATERIAL
 10
-27.67990299999997
 20
-134.2885528335593
 30
0.0
 42
-0.4142135623730853
  0
VERTEX
  5
417
  8
5MM_MATERIAL
 10
-25.74896152207566
 20
-136.2194943114836
 30
0.0
 42
-0.4142135623731027
  0
SEQEND
  5
4C6
  8
5MM_MATERIAL
  0
POLYLINE
  5
95
  8
5MM_MATERIAL
 66
     1
 10
0.0
 20
0.0
 30
0.0
 70
     1
  0
VERTEX
  5
418
  8
5MM_MATERIAL
 10
-174.0924967212134
 20
-129.7043616308741
 30
0.0
  0
VERTEX
  5
419
  8
5MM_MATERIAL
 10
-172.7692689154993
 20
-129.6880138621237
 30
0.0
  0
VERTEX
  5
41A
  8
5MM_MATERIAL
 10
-172.8241266343473
 20
-125.247697874908
 30
0.0
  0
VERTEX
  5
41B
  8
5MM_MATERIAL
 10
-171.2894552101944
 20
-125.2287378338315
 30
0.0
  0
VERTEX
  5
41C
  8
5MM_MATERIAL
 10
-170.8493686016178
 20
-125.2352389553552
 30
0.0
  0
VERTEX
  5
41D
  8
5MM_MATERIAL
 10
-170.6829281969352
 20
-125.2481053675289
 30
0.0
  0
VERTEX
  5
41E
  8
5MM_MATERIAL
 10
-170.5522230586564
 20
-125.2673823473105
 30
0.0
  0
VERTEX
  5
41F
  8
5MM_MATERIAL
 10
-170.3988423614698
 20
-125.3102554930911
 30
0.0
  0
VERTEX
  5
420
  8
5MM_MATERIAL
 10
-170.246561490082
 20
-125.3676385579118
 30
0.0
  0
VERTEX
  5
421
  8
5MM_MATERIAL
 10
-170.0953804444931
 20
-125.4395315417727
 30
0.0
  0
VERTEX
  5
422
  8
5MM_MATERIAL
 10
-169.945299224703
 20
-125.5259344446736
 30
0.0
  0
VERTEX
  5
423
  8
5MM_MATERIAL
 10
-169.7906442947282
 20
-125.6374362402452
 30
0.0
  0
VERTEX
  5
424
  8
5MM_MATERIAL
 10
-169.625742118585
 20
-125.7846259021179
 30
0.0
  0
VERTEX
  5
425
  8
5MM_MATERIAL
 10
-169.4505926962736
 20
-125.9675034302918
 30
0.0
  0
VERTEX
  5
426
  8
5MM_MATERIAL
 10
-169.2651960277939
 20
-126.1860688247668
 30
0.0
  0
VERTEX
  5
427
  8
5MM_MATERIAL
 10
-169.0615602736545
 20
-126.4487506043548
 30
0.0
  0
VERTEX
  5
428
  8
5MM_MATERIAL
 10
-168.8316935943645
 20
-126.7639772878681
 30
0.0
  0
VERTEX
  5
429
  8
5MM_MATERIAL
 10
-168.5755959899238
 20
-127.1317488753064
 30
0.0
  0
VERTEX
  5
42A
  8
5MM_MATERIAL
 10
-168.2932674603323
 20
-127.5520653666699
 30
0.0
  0
VERTEX
  5
42B
  8
5MM_MATERIAL
 10
-166.9443382656033
 20
-129.6160499728822
 30
0.0
  0
VERTEX
  5
42C
  8
5MM_MATERIAL
 10
-165.2800723656331
 20
-129.5954888616703
 30
0.0
  0
VERTEX
  5
42D
  8
5MM_MATERIAL
 10
-167.0529891191821
 20
-126.8954929160591
 30
0.0
  0
VERTEX
  5
42E
  8
5MM_MATERIAL
 10
-167.3207389596121
 20
-126.5163534932478
 30
0.0
  0
VERTEX
  5
42F
  8
5MM_MATERIAL
 10
-167.5957513562729
 20
-126.1705600848318
 30
0.0
  0
VERTEX
  5
430
  8
5MM_MATERIAL
 10
-167.8780263091644
 20
-125.8581126908112
 30
0.0
  0
VERTEX
  5
431
  8
5MM_MATERIAL
 10
-168.1675638182867
 20
-125.5790113111858
 30
0.0
  0
VERTEX
  5
432
  8
5MM_MATERIAL
 10
-168.3212741378127
 20
-125.4576915037092
 30
0.0
  0
VERTEX
  5
433
  8
5MM_MATERIAL
 10
-168.5065410144136
 20
-125.3359088351746
 30
0.0
  0
VERTEX
  5
434
  8
5MM_MATERIAL
 10
-168.7233644480893
 20
-125.2136633055821
 30
0.0
  0
VERTEX
  5
435
  8
5MM_MATERIAL
 10
-168.9717444388399
 20
-125.0909549149316
 30
0.0
  0
VERTEX
  5
436
  8
5MM_MATERIAL
 10
-168.6243860687691
 20
-125.0288913450673
 30
0.0
  0
VERTEX
  5
437
  8
5MM_MATERIAL
 10
-168.3006794681233
 20
-124.9504918354022
 30
0.0
  0
VERTEX
  5
438
  8
5MM_MATERIAL
 10
-168.0006246369027
 20
-124.8557563859363
 30
0.0
  0
VERTEX
  5
439
  8
5MM_MATERIAL
 10
-167.7242215751073
 20
-124.7446849966696
 30
0.0
  0
VERTEX
  5
43A
  8
5MM_MATERIAL
 10
-167.4714702827368
 20
-124.6172776676022
 30
0.0
  0
VERTEX
  5
43B
  8
5MM_MATERIAL
 10
-167.2423707597916
 20
-124.473534398734
 30
0.0
  0
VERTEX
  5
43C
  8
5MM_MATERIAL
 10
-167.0369230062714
 20
-124.3134551900651
 30
0.0
  0
VERTEX
  5
43D
  8
5MM_MATERIAL
 10
-166.8551270221763
 20
-124.1370400415954
 30
0.0
  0
VERTEX
  5
43E
  8
5MM_MATERIAL
 10
-166.6959854544502
 20
-123.9473677610284
 30
0.0
  0
VERTEX
  5
43F
  8
5MM_MATERIAL
 10
-166.5585009500369
 20
-123.7475171560677
 30
0.0
  0
VERTEX
  5
440
  8
5MM_MATERIAL
 10
-166.4426735089365
 20
-123.5374882267133
 30
0.0
  0
VERTEX
  5
441
  8
5MM_MATERIAL
 10
-166.3485031311488
 20
-123.3172809729652
 30
0.0
  0
VERTEX
  5
442
  8
5MM_MATERIAL
 10
-166.2759898166739
 20
-123.0868953948234
 30
0.0
  0
VERTEX
  5
443
  8
5MM_MATERIAL
 10
-166.2251335655118
 20
-122.8463314922878
 30
0.0
  0
VERTEX
  5
444
  8
5MM_MATERIAL
 10
-166.1959343776625
 20
-122.5955892653585
 30
0.0
  0
VERTEX
  5
445
  8
5MM_MATERIAL
 10
-166.188392253126
 20
-122.3346687140356
 30
0.0
  0
VERTEX
  5
446
  8
5MM_MATERIAL
 10
-166.197414713927
 20
-122.1306590463448
 30
0.0
  0
VERTEX
  5
447
  8
5MM_MATERIAL
 10
-166.2193839519518
 20
-121.9312861373225
 30
0.0
  0
VERTEX
  5
448
  8
5MM_MATERIAL
 10
-166.2542999672002
 20
-121.7365499869686
 30
0.0
  0
VERTEX
  5
449
  8
5MM_MATERIAL
 10
-166.3021627596724
 20
-121.5464505952832
 30
0.0
  0
VERTEX
  5
44A
  8
5MM_MATERIAL
 10
-166.3629723293683
 20
-121.3609879622663
 30
0.0
  0
VERTEX
  5
44B
  8
5MM_MATERIAL
 10
-166.4367286762879
 20
-121.1801620879178
 30
0.0
  0
VERTEX
  5
44C
  8
5MM_MATERIAL
 10
-166.5234318004312
 20
-121.0039729722377
 30
0.0
  0
VERTEX
  5
44D
  8
5MM_MATERIAL
 10
-166.6230817017982
 20
-120.8324206152261
 30
0.0
  0
VERTEX
  5
44E
  8
5MM_MATERIAL
 10
-166.7334948838538
 20
-120.6696883724686
 30
0.0
  0
VERTEX
  5
44F
  8
5MM_MATERIAL
 10
-166.8524878500629
 20
-120.5199595995506
 30
0.0
  0
VERTEX
  5
450
  8
5MM_MATERIAL
 10
-166.9800606004255
 20
-120.3832342964724
 30
0.0
  0
VERTEX
  5
451
  8
5MM_MATERIAL
 10
-167.1162131349416
 20
-120.2595124632338
 30
0.0
  0
VERTEX
  5
452
  8
5MM_MATERIAL
 10
-167.2609454536112
 20
-120.1487940998348
 30
0.0
  0
VERTEX
  5
453
  8
5MM_MATERIAL
 10
-167.4142575564342
 20
-120.0510792062754
 30
0.0
  0
VERTEX
  5
454
  8
5MM_MATERIAL
 10
-167.5761494434107
 20
-119.9663677825557
 30
0.0
  0
VERTEX
  5
455
  8
5MM_MATERIAL
 10
-167.7466211145408
 20
-119.8946598286756
 30
0.0
  0
VERTEX
  5
456
  8
5MM_MATERIAL
 10
-167.9313486633203
 20
-119.8337870656261
 30
0.0
  0
VERTEX
  5
457
  8
5MM_MATERIAL
 10
-168.1360081832455
 20
-119.7815812143982
 30
0.0
  0
VERTEX
  5
458
  8
5MM_MATERIAL
 10
-168.3605996743161
 20
-119.7380422749918
 30
0.0
  0
VERTEX
  5
459
  8
5MM_MATERIAL
 10
-168.6051231365323
 20
-119.703170247407
 30
0.0
  0
VERTEX
  5
45A
  8
5MM_MATERIAL
 10
-168.869578569894
 20
-119.6769651316438
 30
0.0
  0
VERTEX
  5
45B
  8
5MM_MATERIAL
 10
-169.1539659744012
 20
-119.6594269277021
 30
0.0
  0
VERTEX
  5
45C
  8
5MM_MATERIAL
 10
-169.458285350054
 20
-119.650555635582
 30
0.0
  0
VERTEX
  5
45D
  8
5MM_MATERIAL
 10
-169.7825366968523
 20
-119.6503512552835
 30
0.0
  0
VERTEX
  5
45E
  8
5MM_MATERIAL
 10
-174.216031922183
 20
-119.7051247072823
 30
0.0
  0
SEQEND
  5
4C7
  8
5MM_MATERIAL
  0
POLYLINE
  5
96
  8
5MM_MATERIAL
 66
     1
 10
0.0
 20
0.0
 30
0.0
 70
     1
  0
VERTEX
  5
45F
  8
5MM_MATERIAL
 10
-172.8382834650177
 20
-124.1018098782071
 30
0.0
  0
VERTEX
  5
460
  8
5MM_MATERIAL
 10
-172.8791528868937
 20
-120.793740363922
 30
0.0
  0
VERTEX
  5
461
  8
5MM_MATERIAL
 10
-169.7143193721963
 20
-120.7546405458798
 30
0.0
  0
VERTEX
  5
462
  8
5MM_MATERIAL
 10
-169.4456103689095
 20
-120.7584623654551
 30
0.0
  0
VERTEX
  5
463
  8
5MM_MATERIAL
 10
-169.1953754526868
 20
-120.7767955723933
 30
0.0
  0
VERTEX
  5
464
  8
5MM_MATERIAL
 10
-168.9636146235281
 20
-120.8096401666943
 30
0.0
  0
VERTEX
  5
465
  8
5MM_MATERIAL
 10
-168.7503278814335
 20
-120.8569961483581
 30
0.0
  0
VERTEX
  5
466
  8
5MM_MATERIAL
 10
-168.555515226403
 20
-120.9188635173848
 30
0.0
  0
VERTEX
  5
467
  8
5MM_MATERIAL
 10
-168.3791766584366
 20
-120.9952422737744
 30
0.0
  0
VERTEX
  5
468
  8
5MM_MATERIAL
 10
-168.2213121775341
 20
-121.0861324175268
 30
0.0
  0
VERTEX
  5
469
  8
5MM_MATERIAL
 10
-168.0819217836958
 20
-121.191533948642
 30
0.0
  0
VERTEX
  5
46A
  8
5MM_MATERIAL
 10
-167.9597660841537
 20
-121.3082338349521
 30
0.0
  0
VERTEX
  5
46B
  8
5MM_MATERIAL
 10
-167.8536056861398
 20
-121.4330190442894
 30
0.0
  0
VERTEX
  5
46C
  8
5MM_MATERIAL
 10
-167.7634405896542
 20
-121.5658895766537
 30
0.0
  0
VERTEX
  5
46D
  8
5MM_MATERIAL
 10
-167.6892707946969
 20
-121.7068454320451
 30
0.0
  0
VERTEX
  5
46E
  8
5MM_MATERIAL
 10
-167.631096301268
 20
-121.8558866104635
 30
0.0
  0
VERTEX
  5
46F
  8
5MM_MATERIAL
 10
-167.5889171093673
 20
-122.013013111909
 30
0.0
  0
VERTEX
  5
470
  8
5MM_MATERIAL
 10
-167.5627332189949
 20
-122.1782249363816
 30
0.0
  0
VERTEX
  5
471
  8
5MM_MATERIAL
 10
-167.5525446301507
 20
-122.3515220838813
 30
0.0
  0
VERTEX
  5
472
  8
5MM_MATERIAL
 10
-167.5552191203807
 20
-122.4715229262068
 30
0.0
  0
VERTEX
  5
473
  8
5MM_MATERIAL
 10
-167.566234064218
 20
-122.5893884062612
 30
0.0
  0
VERTEX
  5
474
  8
5MM_MATERIAL
 10
-167.5855894616626
 20
-122.7051185240445
 30
0.0
  0
VERTEX
  5
475
  8
5MM_MATERIAL
 10
-167.6132853127147
 20
-122.8187132795567
 30
0.0
  0
VERTEX
  5
476
  8
5MM_MATERIAL
 10
-167.6493216173742
 20
-122.9301726727979
 30
0.0
  0
VERTEX
  5
477
  8
5MM_MATERIAL
 10
-167.6936983756411
 20
-123.0394967037681
 30
0.0
  0
VERTEX
  5
478
  8
5MM_MATERIAL
 10
-167.7464155875154
 20
-123.1466853724671
 30
0.0
  0
VERTEX
  5
479
  8
5MM_MATERIAL
 10
-167.8074732529971
 20
-123.2517386788951
 30
0.0
  0
VERTEX
  5
47A
  8
5MM_MATERIAL
 10
-167.8765812739369
 20
-123.3522547489433
 30
0.0
  0
VERTEX
  5
47B
  8
5MM_MATERIAL
 10
-167.9534495521859
 20
-123.4458317085028
 30
0.0
  0
VERTEX
  5
47C
  8
5MM_MATERIAL
 10
-168.0380780877438
 20
-123.5324695575736
 30
0.0
  0
VERTEX
  5
47D
  8
5MM_MATERIAL
 10
-168.1304668806108
 20
-123.6121682961558
 30
0.0
  0
VERTEX
  5
47E
  8
5MM_MATERIAL
 10
-168.2306159307868
 20
-123.6849279242494
 30
0.0
  0
VERTEX
  5
47F
  8
5MM_MATERIAL
 10
-168.3385252382719
 20
-123.7507484418543
 30
0.0
  0
VERTEX
  5
480
  8
5MM_MATERIAL
 10
-168.4541948030659
 20
-123.8096298489705
 30
0.0
  0
VERTEX
  5
481
  8
5MM_MATERIAL
 10
-168.577624625169
 20
-123.8615721455981
 30
0.0
  0
VERTEX
  5
482
  8
5MM_MATERIAL
 10
-168.7111520997968
 20
-123.907190457691
 30
0.0
  0
VERTEX
  5
483
  8
5MM_MATERIAL
 10
-168.857114622165
 20
-123.9470999112031
 30
0.0
  0
VERTEX
  5
484
  8
5MM_MATERIAL
 10
-169.0155121922735
 20
-123.9813005061343
 30
0.0
  0
VERTEX
  5
485
  8
5MM_MATERIAL
 10
-169.1863448101223
 20
-124.0097922424848
 30
0.0
  0
VERTEX
  5
486
  8
5MM_MATERIAL
 10
-169.565315189041
 20
-124.0496491394434
 30
0.0
  0
VERTEX
  5
487
  8
5MM_MATERIAL
 10
-169.994025758921
 20
-124.0666706020787
 30
0.0
  0
SEQEND
  5
4C8
  8
5MM_MATERIAL
  0
POLYLINE
  5
97
  8
5MM_MATERIAL
 66
     1
 10
0.0
 20
0.0
 30
0.0
 70
     1
  0
VERTEX
  5
488
  8
5MM_MATERIAL
 10
-163.1911514492323
 20
-129.6806830354168
 30
0.0
  0
VERTEX
  5
489
  8
5MM_MATERIAL
 10
-159.4220179345582
 20
-124.3975216444743
 30
0.0
  0
VERTEX
  5
48A
  8
5MM_MATERIAL
 10
-162.9219688000437
 20
-119.6738646902222
 30
0.0
  0
VERTEX
  5
48B
  8
5MM_MATERIAL
 10
-161.3465303479366
 20
-119.6442786163282
 30
0.0
  0
VERTEX
  5
48C
  8
5MM_MATERIAL
 10
-159.4842316810766
 20
-122.1745598385641
 30
0.0
  0
VERTEX
  5
48D
  8
5MM_MATERIAL
 10
-159.214598292637
 20
-122.5455857295921
 30
0.0
  0
VERTEX
  5
48E
  8
5MM_MATERIAL
 10
-158.9867499116063
 20
-122.871344550887
 30
0.0
  0
VERTEX
  5
48F
  8
5MM_MATERIAL
 10
-158.8006865379843
 20
-123.1518363024488
 30
0.0
  0
VERTEX
  5
490
  8
5MM_MATERIAL
 10
-158.6564081717711
 20
-123.3870609842774
 30
0.0
  0
VERTEX
  5
491
  8
5MM_MATERIAL
 10
-158.4868227887748
 20
-123.1079919992098
 30
0.0
  0
VERTEX
  5
492
  8
5MM_MATERIAL
 10
-158.3020042945118
 20
-122.8226672682034
 30
0.0
  0
VERTEX
  5
493
  8
5MM_MATERIAL
 10
-158.1019526889823
 20
-122.5310867912582
 30
0.0
  0
VERTEX
  5
494
  8
5MM_MATERIAL
 10
-157.8866679721862
 20
-122.2332505683744
 30
0.0
  0
VERTEX
  5
495
  8
5MM_MATERIAL
 10
-155.9245668439314
 20
-119.5424564139656
 30
0.0
  0
VERTEX
  5
496
  8
5MM_MATERIAL
 10
-154.4855299894093
 20
-119.5154319049109
 30
0.0
  0
VERTEX
  5
497
  8
5MM_MATERIAL
 10
-157.9093690620259
 20
-124.294067396086
 30
0.0
  0
VERTEX
  5
498
  8
5MM_MATERIAL
 10
-154.0249640915179
 20
-129.5085458782153
 30
0.0
  0
VERTEX
  5
499
  8
5MM_MATERIAL
 10
-155.6617832625383
 20
-129.5392846562871
 30
0.0
  0
VERTEX
  5
49A
  8
5MM_MATERIAL
 10
-158.2453776585302
 20
-126.0196437507238
 30
0.0
  0
VERTEX
  5
49B
  8
5MM_MATERIAL
 10
-158.466229852099
 20
-125.7031344610208
 30
0.0
  0
VERTEX
  5
49C
  8
5MM_MATERIAL
 10
-158.6944144385149
 20
-125.3594729300427
 30
0.0
  0
VERTEX
  5
49D
  8
5MM_MATERIAL
 10
-158.9722125121108
 20
-125.8252076080548
 30
0.0
  0
VERTEX
  5
49E
  8
5MM_MATERIAL
 10
-159.1577314234463
 20
-126.1186471936981
 30
0.0
  0
VERTEX
  5
49F
  8
5MM_MATERIAL
 10
-161.6020728373666
 20
-129.650840805039
 30
0.0
  0
SEQEND
  5
4C9
  8
5MM_MATERIAL
  0
ENDSEC
  0
EOF
