  0
SECTION
  2
HEADER
  9
$ACADVER
  1
AC1009
  9
$DWGCODEPAGE
  3
ansi_1252
  9
$INSBASE
 10
0.0
 20
0.0
 30
0.0
  9
$EXTMIN
 10
-297.3503543919589
 20
-197.0369007969442
 30
0.0
  9
$EXTMAX
 10
260.0453918014774
 20
79.4068700820515
 30
0.0
  9
$LIMMIN
 10
0.0
 20
0.0
  9
$LIMMAX
 10
12.0
 20
9.0
  9
$ORTHOMODE
 70
     0
  9
$REGENMODE
 70
     1
  9
$FILLMODE
 70
     1
  9
$QTEXTMODE
 70
     0
  9
$MIRRTEXT
 70
     1
  9
$DRAGMODE
 70
     2
  9
$LTSCALE
 40
1.0
  9
$OSMODE
 70
    37
  9
$ATTMODE
 70
     1
  9
$TEXTSIZE
 40
0.2
  9
$TRACEWID
 40
0.05
  9
$TEXTSTYLE
  7
STANDARD
  9
$CLAYER
  8
0
  9
$CELTYPE
  6
BYLAYER
  9
$CECOLOR
 62
   256
  9
$DIMSCALE
 40
1.0
  9
$DIMASZ
 40
0.18
  9
$DIMEXO
 40
0.0625
  9
$DIMDLI
 40
0.38
  9
$DIMRND
 40
0.0
  9
$DIMDLE
 40
0.0
  9
$DIMEXE
 40
0.18
  9
$DIMTP
 40
0.0
  9
$DIMTM
 40
0.0
  9
$DIMTXT
 40
0.18
  9
$DIMCEN
 40
0.09
  9
$DIMTSZ
 40
0.0
  9
$DIMTOL
 70
     0
  9
$DIMLIM
 70
     0
  9
$DIMTIH
 70
     1
  9
$DIMTOH
 70
     1
  9
$DIMSE1
 70
     0
  9
$DIMSE2
 70
     0
  9
$DIMTAD
 70
     0
  9
$DIMZIN
 70
     0
  9
$DIMBLK
  1

  9
$DIMASO
 70
     1
  9
$DIMSHO
 70
     1
  9
$DIMPOST
  1

  9
$DIMAPOST
  1

  9
$DIMALT
 70
     0
  9
$DIMALTD
 70
     2
  9
$DIMALTF
 40
25.4
  9
$DIMLFAC
 40
1.0
  9
$DIMTOFL
 70
     0
  9
$DIMTVP
 40
0.0
  9
$DIMTIX
 70
     0
  9
$DIMSOXD
 70
     0
  9
$DIMSAH
 70
     0
  9
$DIMBLK1
  1

  9
$DIMBLK2
  1

  9
$DIMSTYLE
  2
STANDARD
  9
$DIMCLRD
 70
     0
  9
$DIMCLRE
 70
     0
  9
$DIMCLRT
 70
     0
  9
$DIMTFAC
 40
1.0
  9
$DIMGAP
 40
0.09
  9
$LUNITS
 70
     2
  9
$LUPREC
 70
     4
  9
$SKETCHINC
 40
0.1
  9
$FILLETRAD
 40
0.5
  9
$AUNITS
 70
     0
  9
$AUPREC
 70
     0
  9
$MENU
  1
.
  9
$ELEVATION
 40
0.0
  9
$PELEVATION
 40
0.0
  9
$THICKNESS
 40
0.0
  9
$LIMCHECK
 70
     0
  9
$CHAMFERA
 40
0.0
  9
$CHAMFERB
 40
0.0
  9
$SKPOLY
 70
     0
  9
$TDCREATE
 40
2454910.5
  9
$TDUPDATE
 40
2457693.62516228
  9
$TDINDWG
 40
0.0000000116
  9
$TDUSRTIMER
 40
0.0000000116
  9
$USRTIMER
 70
     1
  9
$ANGBASE
 50
0.0
  9
$ANGDIR
 70
     0
  9
$PDMODE
 70
     0
  9
$PDSIZE
 40
0.0
  9
$PLINEWID
 40
0.0
  9
$COORDS
 70
     1
  9
$SPLFRAME
 70
     0
  9
$SPLINETYPE
 70
     6
  9
$SPLINESEGS
 70
     8
  9
$ATTDIA
 70
     0
  9
$ATTREQ
 70
     1
  9
$HANDLING
 70
     1
  9
$HANDSEED
  5
349
  9
$SURFTAB1
 70
     6
  9
$SURFTAB2
 70
     6
  9
$SURFTYPE
 70
     6
  9
$SURFU
 70
     6
  9
$SURFV
 70
     6
  9
$UCSNAME
  2

  9
$UCSORG
 10
0.0
 20
0.0
 30
0.0
  9
$UCSXDIR
 10
1.0
 20
0.0
 30
0.0
  9
$UCSYDIR
 10
0.0
 20
1.0
 30
0.0
  9
$PUCSNAME
  2

  9
$PUCSORG
 10
0.0
 20
0.0
 30
0.0
  9
$PUCSXDIR
 10
1.0
 20
0.0
 30
0.0
  9
$PUCSYDIR
 10
0.0
 20
1.0
 30
0.0
  9
$USERI1
 70
     0
  9
$USERI2
 70
     0
  9
$USERI3
 70
     0
  9
$USERI4
 70
     0
  9
$USERI5
 70
     0
  9
$USERR1
 40
0.0
  9
$USERR2
 40
0.0
  9
$USERR3
 40
0.0
  9
$USERR4
 40
0.0
  9
$USERR5
 40
0.0
  9
$WORLDVIEW
 70
     1
  9
$SHADEDGE
 70
     3
  9
$SHADEDIF
 70
    70
  9
$TILEMODE
 70
     1
  9
$MAXACTVP
 70
    64
  9
$PLIMCHECK
 70
     0
  9
$PEXTMIN
 10
1.000000000000000E+20
 20
1.000000000000000E+20
 30
1.000000000000000E+20
  9
$PEXTMAX
 10
-1.000000000000000E+20
 20
-1.000000000000000E+20
 30
-1.000000000000000E+20
  9
$PLIMMIN
 10
0.0
 20
0.0
  9
$PLIMMAX
 10
12.0
 20
9.0
  9
$UNITMODE
 70
     0
  9
$VISRETAIN
 70
     1
  9
$PLINEGEN
 70
     0
  9
$PSLTSCALE
 70
     1
  0
ENDSEC
  0
SECTION
  2
TABLES
  0
TABLE
  2
VPORT
 70
     1
  0
VPORT
  2
*ACTIVE
 70
     0
 10
0.0
 20
0.0
 11
1.0
 21
1.0
 12
10.42990654205607
 22
4.5
 13
0.0
 23
0.0
 14
0.5
 24
0.5
 15
0.5
 25
0.5
 16
0.0
 26
0.0
 36
1.0
 17
0.0
 27
0.0
 37
0.0
 40
9.0
 41
1.972972972850329
 42
50.0
 43
0.0
 44
0.0
 50
0.0
 51
0.0
 71
     0
 72
   100
 73
     1
 74
     3
 75
     0
 76
     0
 77
     0
 78
     0
  0
ENDTAB
  0
TABLE
  2
LTYPE
 70
     2
  0
LTYPE
  2
CONTINUOUS
 70
     0
  3
Solid line
 72
    65
 73
     0
 40
0.0
  0
LTYPE
  2
CONTINUOUS2
 70
     0
  3
Solid Line
 72
    65
 73
     0
 40
0.0
  0
ENDTAB
  0
TABLE
  2
LAYER
 70
     2
  0
LAYER
  2
0
 70
     0
 62
     7
  6
CONTINUOUS
  0
LAYER
  2
5MM_MATERIAL
 70
     0
 62
    18
  6
CONTINUOUS
  0
ENDTAB
  0
TABLE
  2
STYLE
 70
     1
  0
STYLE
  2
STANDARD
 70
     0
 40
0.0
 41
1.0
 50
0.0
 71
     0
 42
0.2
  3
txt
  4

  0
ENDTAB
  0
TABLE
  2
VIEW
 70
     0
  0
ENDTAB
  0
TABLE
  2
UCS
 70
     0
  0
ENDTAB
  0
TABLE
  2
APPID
 70
     1
  0
APPID
  2
ACAD
 70
     0
  0
ENDTAB
  0
TABLE
  2
DIMSTYLE
 70
     1
  0
DIMSTYLE
  2
STANDARD
 70
     0
  3

  4

  5

  6

  7

 40
1.0
 41
0.18
 42
0.0625
 43
0.38
 44
0.18
 45
0.0
 46
0.0
 47
0.0
 48
0.0
140
0.18
141
0.09
142
0.0
143
25.4
144
1.0
145
0.0
146
1.0
147
0.09
 71
     0
 72
     0
 73
     1
 74
     1
 75
     0
 76
     0
 77
     0
 78
     0
170
     0
171
     2
172
     0
173
     0
174
     0
175
     0
176
     0
177
     0
178
     0
  0
ENDTAB
  0
ENDSEC
  0
SECTION
  2
BLOCKS
  0
BLOCK
  8
0
  2
$MODEL_SPACE
 70
     0
 10
0.0
 20
0.0
 30
0.0
  3
$MODEL_SPACE
  1

  0
ENDBLK
  5
21
  8
0
  0
BLOCK
 67
     1
  8
0
  2
$PAPER_SPACE
 70
     0
 10
0.0
 20
0.0
 30
0.0
  3
$PAPER_SPACE
  1

  0
ENDBLK
  5
1D
 67
     1
  8
0
  0
ENDSEC
  0
SECTION
  2
ENTITIES
  0
POLYLINE
  5
70
  8
5MM_MATERIAL
 66
     1
 10
0.0
 20
0.0
 30
0.0
 70
     1
  0
VERTEX
  5
B0
  8
5MM_MATERIAL
 10
-84.09570831648482
 20
-49.09439806480134
 30
0.0
  0
VERTEX
  5
B1
  8
5MM_MATERIAL
 10
-84.09570831648483
 20
-57.56643080695687
 30
0.0
  0
VERTEX
  5
B2
  8
5MM_MATERIAL
 10
-76.38765920325153
 20
-69.09439806480134
 30
0.0
  0
VERTEX
  5
B3
  8
5MM_MATERIAL
 10
-79.60730449656668
 20
-69.09439806480134
 30
0.0
  0
VERTEX
  5
B4
  8
5MM_MATERIAL
 10
-83.55000572439751
 20
-63.06438442223654
 30
0.0
  0
VERTEX
  5
B5
  8
5MM_MATERIAL
 10
-84.08632905318333
 20
-62.2185454045012
 30
0.0
  0
VERTEX
  5
B6
  8
5MM_MATERIAL
 10
-84.60389385536614
 20
-61.37270638676587
 30
0.0
  0
VERTEX
  5
B7
  8
5MM_MATERIAL
 10
-85.10270013094595
 20
-60.52686736903053
 30
0.0
  0
VERTEX
  5
B8
  8
5MM_MATERIAL
 10
-85.58274787992275
 20
-59.6810283512952
 30
0.0
  0
VERTEX
  5
B9
  8
5MM_MATERIAL
 10
-86.0568270067986
 20
-60.49020297612466
 30
0.0
  0
VERTEX
  5
BA
  8
5MM_MATERIAL
 10
-86.57865511048209
 20
-61.34883189836205
 30
0.0
  0
VERTEX
  5
BB
  8
5MM_MATERIAL
 10
-87.14823219097323
 20
-62.25691511800733
 30
0.0
  0
VERTEX
  5
BC
  8
5MM_MATERIAL
 10
-87.765558248272
 20
-63.21445263506055
 30
0.0
  0
VERTEX
  5
BD
  8
5MM_MATERIAL
 10
-91.64004665209193
 20
-69.09439806480134
 30
0.0
  0
VERTEX
  5
BE
  8
5MM_MATERIAL
 10
-94.72326629738524
 20
-69.09439806480134
 30
0.0
  0
VERTEX
  5
BF
  8
5MM_MATERIAL
 10
-86.7423658881083
 20
-57.56643080695687
 30
0.0
  0
VERTEX
  5
C0
  8
5MM_MATERIAL
 10
-86.7423658881083
 20
-49.09439806480134
 30
0.0
  0
SEQEND
  5
310
  8
5MM_MATERIAL
  0
POLYLINE
  5
71
  8
5MM_MATERIAL
 66
     1
 10
0.0
 20
0.0
 30
0.0
 70
     1
  0
VERTEX
  5
C1
  8
5MM_MATERIAL
 10
-102.1857492441792
 20
-49.09439806480134
 30
0.0
  0
VERTEX
  5
C2
  8
5MM_MATERIAL
 10
-102.1857492441792
 20
-66.73423435402371
 30
0.0
  0
VERTEX
  5
C3
  8
5MM_MATERIAL
 10
-95.59639044472489
 20
-66.73423435402371
 30
0.0
  0
VERTEX
  5
C4
  8
5MM_MATERIAL
 10
-95.59639044472489
 20
-69.09439806480134
 30
0.0
  0
VERTEX
  5
C5
  8
5MM_MATERIAL
 10
-111.4490507448613
 20
-69.09439806480134
 30
0.0
  0
VERTEX
  5
C6
  8
5MM_MATERIAL
 10
-111.4490507448613
 20
-66.73423435402371
 30
0.0
  0
VERTEX
  5
C7
  8
5MM_MATERIAL
 10
-104.8324068158027
 20
-66.73423435402371
 30
0.0
  0
VERTEX
  5
C8
  8
5MM_MATERIAL
 10
-104.8324068158027
 20
-49.09439806480134
 30
0.0
  0
SEQEND
  5
311
  8
5MM_MATERIAL
  0
POLYLINE
  5
72
  8
5MM_MATERIAL
 66
     1
 10
0.0
 20
0.0
 30
0.0
 70
     1
  0
VERTEX
  5
C9
  8
5MM_MATERIAL
 10
39.00281186273597
 20
-158.3546423839093
 30
0.0
 42
-0.9999999999999998
  0
VERTEX
  5
CA
  8
5MM_MATERIAL
 10
35.00281186273597
 20
-158.3546423839093
 30
0.0
 42
-0.9999999999999998
  0
SEQEND
  5
312
  8
5MM_MATERIAL
  0
POLYLINE
  5
73
  8
5MM_MATERIAL
 66
     1
 10
0.0
 20
0.0
 30
0.0
 70
     1
  0
VERTEX
  5
CB
  8
5MM_MATERIAL
 10
39.00281186273608
 20
41.34351047406084
 30
0.0
 42
0.9999999999999998
  0
VERTEX
  5
CC
  8
5MM_MATERIAL
 10
35.00281186273608
 20
41.34351047406084
 30
0.0
 42
0.9999999999999998
  0
SEQEND
  5
313
  8
5MM_MATERIAL
  0
POLYLINE
  5
74
  8
5MM_MATERIAL
 66
     1
 10
0.0
 20
0.0
 30
0.0
 70
     1
  0
VERTEX
  5
CD
  8
5MM_MATERIAL
 10
-247.350354391959
 20
32.86608521217186
 30
0.0
 42
0.4142135623730978
  0
VERTEX
  5
CE
  8
5MM_MATERIAL
 10
-241.2682986148184
 20
38.9481409893122
 30
0.0
 42
0.4142135623730863
  0
VERTEX
  5
CF
  8
5MM_MATERIAL
 10
-247.3503543919592
 20
45.03019676645254
 30
0.0
 42
0.4142135623731034
  0
VERTEX
  5
D0
  8
5MM_MATERIAL
 10
-253.4324101690995
 20
38.9481409893122
 30
0.0
 42
0.4142135623730863
  0
SEQEND
  5
314
  8
5MM_MATERIAL
  0
POLYLINE
  5
75
  8
5MM_MATERIAL
 66
     1
 10
0.0
 20
0.0
 30
0.0
 70
     1
  0
VERTEX
  5
D1
  8
5MM_MATERIAL
 10
116.3536339174804
 20
-176.6171039549242
 30
0.0
 42
-0.9999999999999998
  0
VERTEX
  5
D2
  8
5MM_MATERIAL
 10
109.3536339174804
 20
-176.6171039549242
 30
0.0
 42
-0.9999999999999998
  0
SEQEND
  5
315
  8
5MM_MATERIAL
  0
POLYLINE
  5
76
  8
5MM_MATERIAL
 66
     1
 10
0.0
 20
0.0
 30
0.0
 70
     1
  0
VERTEX
  5
D3
  8
5MM_MATERIAL
 10
33.74259357036468
 20
-113.3581184184527
 30
0.0
  0
VERTEX
  5
D4
  8
5MM_MATERIAL
 10
34.00625780448937
 20
-113.3043427090359
 30
0.0
  0
VERTEX
  5
D5
  8
5MM_MATERIAL
 10
34.25317068588325
 20
-113.2007313600286
 30
0.0
  0
VERTEX
  5
D6
  8
5MM_MATERIAL
 10
34.47516540514235
 20
-113.0522490689512
 30
0.0
  0
VERTEX
  5
D7
  8
5MM_MATERIAL
 10
34.66407515286315
 20
-112.8638605333238
 30
0.0
  0
VERTEX
  5
D8
  8
5MM_MATERIAL
 10
34.81193541423059
 20
-112.6413617071351
 30
0.0
  0
VERTEX
  5
D9
  8
5MM_MATERIAL
 10
34.9141577756956
 20
-112.3939500703443
 30
0.0
  0
VERTEX
  5
DA
  8
5MM_MATERIAL
 10
34.96763957975205
 20
-112.1316926094239
 30
0.0
  0
VERTEX
  5
DB
  8
5MM_MATERIAL
 10
34.96927816889516
 20
-111.8646563108478
 30
0.0
  0
VERTEX
  5
DC
  8
5MM_MATERIAL
 10
34.91764383613568
 20
-111.6029662672761
 30
0.0
  0
VERTEX
  5
DD
  8
5MM_MATERIAL
 10
34.8161801014659
 20
-111.3558729858535
 30
0.0
  0
VERTEX
  5
DE
  8
5MM_MATERIAL
 10
34.6690941478511
 20
-111.1321315747796
 30
0.0
  0
VERTEX
  5
DF
  8
5MM_MATERIAL
 10
34.48059315825608
 20
-110.9404971422534
 30
0.0
  0
VERTEX
  5
E0
  8
5MM_MATERIAL
 10
34.25770315125138
 20
-110.7902730007863
 30
0.0
  0
VERTEX
  5
E1
  8
5MM_MATERIAL
 10
34.01083172533995
 20
-110.6866357708652
 30
0.0
  0
VERTEX
  5
E2
  8
5MM_MATERIAL
 10
33.7492584333867
 20
-110.6321505226536
 30
0.0
  0
VERTEX
  5
E3
  8
5MM_MATERIAL
 10
33.48226282825627
 20
-110.6293823263143
 30
0.0
  0
VERTEX
  5
E4
  8
5MM_MATERIAL
 10
33.21977926391006
 20
-110.6800321304795
 30
0.0
  0
VERTEX
  5
E5
  8
5MM_MATERIAL
 10
32.97172439175566
 20
-110.7807807128913
 30
0.0
  0
VERTEX
  5
E6
  8
5MM_MATERIAL
 10
32.74735121082873
 20
-110.9266628873759
 30
0.0
  0
VERTEX
  5
E7
  8
5MM_MATERIAL
 10
32.55591272016423
 20
-111.1127134677588
 30
0.0
  0
VERTEX
  5
E8
  8
5MM_MATERIAL
 10
32.40549868925305
 20
-111.333006339617
 30
0.0
  0
VERTEX
  5
E9
  8
5MM_MATERIAL
 10
32.30029018768246
 20
-111.5786900817204
 30
0.0
  0
VERTEX
  5
EA
  8
5MM_MATERIAL
 10
32.24367716463271
 20
-111.8404115476863
 30
0.0
  0
VERTEX
  5
EB
  8
5MM_MATERIAL
 10
32.23904956928314
 20
-112.1088175911323
 30
0.0
  0
VERTEX
  5
EC
  8
5MM_MATERIAL
 10
32.2882008305518
 20
-112.3727109894669
 30
0.0
  0
VERTEX
  5
ED
  8
5MM_MATERIAL
 10
32.38750757639505
 20
-112.621402093896
 30
0.0
  0
VERTEX
  5
EE
  8
5MM_MATERIAL
 10
32.53223455455182
 20
-112.8462991187332
 30
0.0
  0
VERTEX
  5
EF
  8
5MM_MATERIAL
 10
32.71764651276035
 20
-113.0388102782924
 30
0.0
  0
VERTEX
  5
F0
  8
5MM_MATERIAL
 10
32.93747015933073
 20
-113.1906999214357
 30
0.0
  0
VERTEX
  5
F1
  8
5MM_MATERIAL
 10
33.18264033210076
 20
-113.2972239929534
 30
0.0
  0
VERTEX
  5
F2
  8
5MM_MATERIAL
 10
33.44423397309961
 20
-113.3550281010494
 30
0.0
  0
VERTEX
  5
F3
  8
5MM_MATERIAL
 10
33.71332802435782
 20
-113.3607578539279
 30
0.0
  0
VERTEX
  5
F4
  8
5MM_MATERIAL
 10
33.72064830593322
 20
-113.3601470562464
 30
0.0
  0
VERTEX
  5
F5
  8
5MM_MATERIAL
 10
33.731625096665
 20
-113.3591817830109
 30
0.0
  0
SEQEND
  5
316
  8
5MM_MATERIAL
  0
POLYLINE
  5
77
  8
5MM_MATERIAL
 66
     1
 10
0.0
 20
0.0
 30
0.0
 70
     1
  0
VERTEX
  5
F6
  8
5MM_MATERIAL
 10
39.00281186273597
 20
-134.3489035259392
 30
0.0
 42
-0.9999999999999998
  0
VERTEX
  5
F7
  8
5MM_MATERIAL
 10
35.00281186273597
 20
-134.3489035259392
 30
0.0
 42
-0.9999999999999998
  0
SEQEND
  5
317
  8
5MM_MATERIAL
  0
POLYLINE
  5
78
  8
5MM_MATERIAL
 66
     1
 10
0.0
 20
0.0
 30
0.0
 70
     1
  0
VERTEX
  5
F8
  8
5MM_MATERIAL
 10
-90.82968248864982
 20
-10.83015777652526
 30
0.0
 42
1.0
  0
VERTEX
  5
F9
  8
5MM_MATERIAL
 10
-83.82968248865005
 20
-10.83015777652526
 30
0.0
 42
0.0000000000000018
  0
VERTEX
  5
FA
  8
5MM_MATERIAL
 10
-83.82968248865005
 20
-10.83015777652526
 30
0.0
 42
0.9999999999999959
  0
SEQEND
  5
318
  8
5MM_MATERIAL
  0
POLYLINE
  5
79
  8
5MM_MATERIAL
 66
     1
 10
0.0
 20
0.0
 30
0.0
 70
     1
  0
VERTEX
  5
FB
  8
5MM_MATERIAL
 10
-9.576354027775297
 20
17.33777161609077
 30
0.0
 42
0.9999999999999998
  0
VERTEX
  5
FC
  8
5MM_MATERIAL
 10
-13.5763540277753
 20
17.33777161609077
 30
0.0
 42
0.9999999999999998
  0
SEQEND
  5
319
  8
5MM_MATERIAL
  0
POLYLINE
  5
7A
  8
5MM_MATERIAL
 66
     1
 10
0.0
 20
0.0
 30
0.0
 70
     1
  0
VERTEX
  5
FD
  8
5MM_MATERIAL
 10
39.00281186273608
 20
17.33777161609054
 30
0.0
 42
0.9999999999999998
  0
VERTEX
  5
FE
  8
5MM_MATERIAL
 10
35.00281186273608
 20
17.33777161609054
 30
0.0
 42
0.9999999999999998
  0
SEQEND
  5
31A
  8
5MM_MATERIAL
  0
POLYLINE
  5
7B
  8
5MM_MATERIAL
 66
     1
 10
0.0
 20
0.0
 30
0.0
 70
     1
  0
VERTEX
  5
FF
  8
5MM_MATERIAL
 10
116.3536339284444
 20
59.60597204558302
 30
0.0
 42
0.9999999999999998
  0
VERTEX
  5
100
  8
5MM_MATERIAL
 10
109.3536339284447
 20
59.60597204558302
 30
0.0
 42
0.9999999999999998
  0
SEQEND
  5
31B
  8
5MM_MATERIAL
  0
POLYLINE
  5
7C
  8
5MM_MATERIAL
 66
     1
 10
0.0
 20
0.0
 30
0.0
  0
VERTEX
  5
101
  8
5MM_MATERIAL
 10
16.94269898542475
 20
-134.0734964899261
 30
0.0
 42
-0.9332121474346294
  0
VERTEX
  5
102
  8
5MM_MATERIAL
 10
20.92364789508397
 20
-134.3488896948534
 30
0.0
 42
-0.9999982711166155
  0
VERTEX
  5
103
  8
5MM_MATERIAL
 10
16.92364789509579
 20
-134.348896610393
 30
0.0
 42
-0.0345484886295024
  0
VERTEX
  5
104
  8
5MM_MATERIAL
 10
16.942700908283
 20
-134.0734964899261
 30
0.0
  0
SEQEND
  5
31C
  8
5MM_MATERIAL
  0
POLYLINE
  5
7D
  8
5MM_MATERIAL
 66
     1
 10
0.0
 20
0.0
 30
0.0
 70
     1
  0
VERTEX
  5
105
  8
5MM_MATERIAL
 10
-9.57635402777541
 20
-158.3546423839093
 30
0.0
 42
-0.9999999999999998
  0
VERTEX
  5
106
  8
5MM_MATERIAL
 10
-13.57635402777541
 20
-158.3546423839093
 30
0.0
 42
-0.9999999999999998
  0
SEQEND
  5
31D
  8
5MM_MATERIAL
  0
POLYLINE
  5
7E
  8
5MM_MATERIAL
 66
     1
 10
0.0
 20
0.0
 30
0.0
 70
     1
  0
VERTEX
  5
107
  8
5MM_MATERIAL
 10
-273.9407520825196
 20
59.50597204507567
 30
0.0
 42
0.9999999999999998
  0
VERTEX
  5
108
  8
5MM_MATERIAL
 10
-280.9407520825196
 20
59.50597204507567
 30
0.0
 42
0.9999999999999998
  0
SEQEND
  5
31E
  8
5MM_MATERIAL
  0
POLYLINE
  5
7F
  8
5MM_MATERIAL
 66
     1
 10
0.0
 20
0.0
 30
0.0
 70
     1
  0
VERTEX
  5
109
  8
5MM_MATERIAL
 10
8.502811862735966
 20
-158.3546423839093
 30
0.0
 42
-0.9999999999999998
  0
VERTEX
  5
10A
  8
5MM_MATERIAL
 10
4.502811862735965
 20
-158.3546423839093
 30
0.0
 42
-0.9999999999999998
  0
SEQEND
  5
31F
  8
5MM_MATERIAL
  0
POLYLINE
  5
80
  8
5MM_MATERIAL
 66
     1
 10
0.0
 20
0.0
 30
0.0
 70
     1
  0
VERTEX
  5
10B
  8
5MM_MATERIAL
 10
8.50281186273608
 20
17.33777161609077
 30
0.0
 42
0.9999999999999998
  0
VERTEX
  5
10C
  8
5MM_MATERIAL
 10
4.502811862736078
 20
17.33777161609077
 30
0.0
 42
0.9999999999999998
  0
SEQEND
  5
320
  8
5MM_MATERIAL
  0
POLYLINE
  5
81
  8
5MM_MATERIAL
 66
     1
 10
0.0
 20
0.0
 30
0.0
 70
     1
  0
VERTEX
  5
10D
  8
5MM_MATERIAL
 10
34.41951608405785
 20
-120.6794821016488
 30
0.0
  0
VERTEX
  5
10E
  8
5MM_MATERIAL
 10
34.15654428065059
 20
-120.7365477296483
 30
0.0
  0
VERTEX
  5
10F
  8
5MM_MATERIAL
 10
33.910945149166
 20
-120.8432358229623
 30
0.0
  0
VERTEX
  5
110
  8
5MM_MATERIAL
 10
33.69082283464073
 20
-120.9944800386918
 30
0.0
  0
VERTEX
  5
111
  8
5MM_MATERIAL
 10
33.50428148212509
 20
-121.1852140339372
 30
0.0
  0
VERTEX
  5
112
  8
5MM_MATERIAL
 10
33.35921257247551
 20
-121.4095428015974
 30
0.0
  0
VERTEX
  5
113
  8
5MM_MATERIAL
 10
33.26008925147212
 20
-121.6582122537559
 30
0.0
  0
VERTEX
  5
114
  8
5MM_MATERIAL
 10
33.20988816155082
 20
-121.9211174262903
 30
0.0
  0
VERTEX
  5
115
  8
5MM_MATERIAL
 10
33.21158594514705
 20
-122.1881533550777
 30
0.0
  0
VERTEX
  5
116
  8
5MM_MATERIAL
 10
33.26648569880095
 20
-122.4491778755237
 30
0.0
  0
VERTEX
  5
117
  8
5MM_MATERIAL
 10
33.37102859914754
 20
-122.6949842244358
 30
0.0
  0
VERTEX
  5
118
  8
5MM_MATERIAL
 10
33.52089840876684
 20
-122.9168705397942
 30
0.0
  0
VERTEX
  5
119
  8
5MM_MATERIAL
 10
33.71177889023843
 20
-123.1061349595791
 30
0.0
  0
VERTEX
  5
11A
  8
5MM_MATERIAL
 10
33.9365283415024
 20
-123.2535626776501
 30
0.0
  0
VERTEX
  5
11B
  8
5MM_MATERIAL
 10
34.18467530172248
 20
-123.3541075059163
 30
0.0
  0
VERTEX
  5
11C
  8
5MM_MATERIAL
 10
34.44690889531435
 20
-123.4053205094326
 30
0.0
  0
VERTEX
  5
11D
  8
5MM_MATERIAL
 10
34.71391824669413
 20
-123.4047527532546
 30
0.0
  0
VERTEX
  5
11E
  8
5MM_MATERIAL
 10
34.97574852627272
 20
-123.3508275373549
 30
0.0
  0
VERTEX
  5
11F
  8
5MM_MATERIAL
 10
35.22252532565054
 20
-123.2469877196272
 30
0.0
  0
VERTEX
  5
120
  8
5MM_MATERIAL
 10
35.44505840102752
 20
-123.0983137020055
 30
0.0
  0
VERTEX
  5
121
  8
5MM_MATERIAL
 10
35.63415750860409
 20
-122.9098858864243
 30
0.0
  0
VERTEX
  5
122
  8
5MM_MATERIAL
 10
35.78180754879364
 20
-122.6877309951442
 30
0.0
  0
VERTEX
  5
123
  8
5MM_MATERIAL
 10
35.88393836446417
 20
-122.4407519951719
 30
0.0
  0
VERTEX
  5
124
  8
5MM_MATERIAL
 10
35.93727712549722
 20
-122.1783436555595
 30
0.0
  0
VERTEX
  5
125
  8
5MM_MATERIAL
 10
35.93855100177339
 20
-121.9099007453588
 30
0.0
  0
VERTEX
  5
126
  8
5MM_MATERIAL
 10
35.88610659797737
 20
-121.6466420196155
 30
0.0
  0
VERTEX
  5
127
  8
5MM_MATERIAL
 10
35.78370055554765
 20
-121.3992110238498
 30
0.0
  0
VERTEX
  5
128
  8
5MM_MATERIAL
 10
35.63617509949577
 20
-121.1761397128255
 30
0.0
  0
VERTEX
  5
129
  8
5MM_MATERIAL
 10
35.44837245483282
 20
-120.9859600413061
 30
0.0
  0
VERTEX
  5
12A
  8
5MM_MATERIAL
 10
35.2266683165607
 20
-120.836828641661
 30
0.0
  0
VERTEX
  5
12B
  8
5MM_MATERIAL
 10
34.98018640965839
 20
-120.7333759423343
 30
0.0
  0
VERTEX
  5
12C
  8
5MM_MATERIAL
 10
34.71789100410402
 20
-120.6788445921998
 30
0.0
  0
VERTEX
  5
12D
  8
5MM_MATERIAL
 10
34.44874636987575
 20
-120.6764772401323
 30
0.0
  0
VERTEX
  5
12E
  8
5MM_MATERIAL
 10
34.44143338890777
 20
-120.6771696424103
 30
0.0
  0
VERTEX
  5
12F
  8
5MM_MATERIAL
 10
34.43047108368242
 20
-120.6782883635458
 30
0.0
  0
SEQEND
  5
321
  8
5MM_MATERIAL
  0
POLYLINE
  5
82
  8
5MM_MATERIAL
 66
     1
 10
0.0
 20
0.0
 30
0.0
 70
     1
  0
VERTEX
  5
130
  8
5MM_MATERIAL
 10
-9.576354027775297
 20
41.34351047406084
 30
0.0
 42
0.9999999999999998
  0
VERTEX
  5
131
  8
5MM_MATERIAL
 10
-13.5763540277753
 20
41.34351047406084
 30
0.0
 42
0.9999999999999998
  0
SEQEND
  5
322
  8
5MM_MATERIAL
  0
POLYLINE
  5
83
  8
5MM_MATERIAL
 66
     1
 10
0.0
 20
0.0
 30
0.0
 70
     1
  0
VERTEX
  5
132
  8
5MM_MATERIAL
 10
-9.57635402777541
 20
-134.3489035259392
 30
0.0
 42
-0.9999999999999998
  0
VERTEX
  5
133
  8
5MM_MATERIAL
 10
-13.57635402777541
 20
-134.3489035259392
 30
0.0
 42
-0.9999999999999998
  0
SEQEND
  5
323
  8
5MM_MATERIAL
  0
POLYLINE
  5
84
  8
5MM_MATERIAL
 66
     1
 10
0.0
 20
0.0
 30
0.0
 70
     1
  0
VERTEX
  5
134
  8
5MM_MATERIAL
 10
-90.82968248864982
 20
-106.2827700593721
 30
0.0
 42
0.9999999999999998
  0
VERTEX
  5
135
  8
5MM_MATERIAL
 10
-83.82968248865005
 20
-106.2827700593721
 30
0.0
 42
0.0000000000000009
  0
VERTEX
  5
136
  8
5MM_MATERIAL
 10
-83.82968248865005
 20
-106.2827700593721
 30
0.0
 42
0.9999999999999939
  0
SEQEND
  5
324
  8
5MM_MATERIAL
  0
POLYLINE
  5
85
  8
5MM_MATERIAL
 66
     1
 10
0.0
 20
0.0
 30
0.0
 70
     1
  0
VERTEX
  5
137
  8
5MM_MATERIAL
 10
8.50281186273608
 20
41.34351047406084
 30
0.0
 42
0.9999999999999998
  0
VERTEX
  5
138
  8
5MM_MATERIAL
 10
4.502811862736078
 20
41.34351047406084
 30
0.0
 42
0.9999999999999998
  0
SEQEND
  5
325
  8
5MM_MATERIAL
  0
POLYLINE
  5
86
  8
5MM_MATERIAL
 66
     1
 10
0.0
 20
0.0
 30
0.0
 70
     1
  0
VERTEX
  5
139
  8
5MM_MATERIAL
 10
-19.87260712385237
 20
-98.47364604450856
 30
0.0
  0
VERTEX
  5
13A
  8
5MM_MATERIAL
 10
22.1274208504457
 20
-98.47364604456995
 30
0.0
  0
VERTEX
  5
13B
  8
5MM_MATERIAL
 10
52.1274208504457
 20
-98.47364604456972
 30
0.0
 42
0.9999999999999953
  0
VERTEX
  5
13C
  8
5MM_MATERIAL
 10
52.1274208504457
 20
-90.47364604456972
 30
0.0
  0
VERTEX
  5
13D
  8
5MM_MATERIAL
 10
-19.87259313670333
 20
-90.47364604456972
 30
0.0
 42
0.9999999999999998
  0
VERTEX
  5
13E
  8
5MM_MATERIAL
 10
-19.8726211110014
 20
-98.47364604452083
 30
0.0
 42
0.0000008741968132
  0
SEQEND
  5
326
  8
5MM_MATERIAL
  0
POLYLINE
  5
87
  8
5MM_MATERIAL
 66
     1
 10
0.0
 20
0.0
 30
0.0
 70
     1
  0
VERTEX
  5
13F
  8
5MM_MATERIAL
 10
-297.3503543919589
 20
-186.5564639179485
 30
0.0
  0
VERTEX
  5
140
  8
5MM_MATERIAL
 10
-175.2814464472479
 20
-186.5564639179486
 30
0.0
  0
VERTEX
  5
141
  8
5MM_MATERIAL
 10
-175.2814464472479
 20
-196.4064639179487
 30
0.0
  0
VERTEX
  5
142
  8
5MM_MATERIAL
 10
112.6764894146592
 20
-196.4064639179487
 30
0.0
 42
0.4142135623730958
  0
VERTEX
  5
143
  8
5MM_MATERIAL
 10
132.6764894146592
 20
-176.4064639179487
 30
0.0
  0
VERTEX
  5
144
  8
5MM_MATERIAL
 10
132.6764894146593
 20
59.40687008205145
 30
0.0
 42
0.4142135623730941
  0
VERTEX
  5
145
  8
5MM_MATERIAL
 10
112.6764894146593
 20
79.40687008205121
 30
0.0
  0
VERTEX
  5
146
  8
5MM_MATERIAL
 10
-175.2814464472478
 20
79.4068700820515
 30
0.0
  0
VERTEX
  5
147
  8
5MM_MATERIAL
 10
-175.2814464472478
 20
69.44353608205147
 30
0.0
  0
VERTEX
  5
148
  8
5MM_MATERIAL
 10
-297.3503543919589
 20
69.44353608205147
 30
0.0
  0
VERTEX
  5
149
  8
5MM_MATERIAL
 10
-297.3503543919589
 20
10.25138479957314
 30
0.0
  0
VERTEX
  5
14A
  8
5MM_MATERIAL
 10
-187.2644824330398
 20
10.25138479957314
 30
0.0
  0
VERTEX
  5
14B
  8
5MM_MATERIAL
 10
-187.2644824330398
 20
0.251384799573136
 30
0.0
  0
VERTEX
  5
14C
  8
5MM_MATERIAL
 10
-297.3503543919589
 20
0.251384799573136
 30
0.0
  0
VERTEX
  5
14D
  8
5MM_MATERIAL
 10
-297.3503543919589
 20
-117.3643126354706
 30
0.0
  0
VERTEX
  5
14E
  8
5MM_MATERIAL
 10
-187.2644824330399
 20
-117.3643126354707
 30
0.0
  0
VERTEX
  5
14F
  8
5MM_MATERIAL
 10
-187.2644824330399
 20
-127.3643126354707
 30
0.0
  0
VERTEX
  5
150
  8
5MM_MATERIAL
 10
-297.3503543919589
 20
-127.3643126354706
 30
0.0
  0
SEQEND
  5
327
  8
5MM_MATERIAL
  0
POLYLINE
  5
88
  8
5MM_MATERIAL
 66
     1
 10
0.0
 20
0.0
 30
0.0
 70
     1
  0
VERTEX
  5
151
  8
5MM_MATERIAL
 10
20.92364597222459
 20
-158.3546423839093
 30
0.0
 42
-0.9999999999999998
  0
VERTEX
  5
152
  8
5MM_MATERIAL
 10
16.92364597222459
 20
-158.3546423839093
 30
0.0
 42
-0.9999999999999998
  0
SEQEND
  5
328
  8
5MM_MATERIAL
  0
POLYLINE
  5
89
  8
5MM_MATERIAL
 66
     1
 10
0.0
 20
0.0
 30
0.0
 70
     1
  0
VERTEX
  5
153
  8
5MM_MATERIAL
 10
30.31021441337739
 20
-116.9419769472672
 30
0.0
 42
-0.9999999999999998
  0
VERTEX
  5
154
  8
5MM_MATERIAL
 10
22.69443517491086
 20
-116.9419769472672
 30
0.0
 42
-0.9999999999999998
  0
SEQEND
  5
329
  8
5MM_MATERIAL
  0
POLYLINE
  5
8A
  8
5MM_MATERIAL
 66
     1
 10
0.0
 20
0.0
 30
0.0
 70
     1
  0
VERTEX
  5
155
  8
5MM_MATERIAL
 10
-273.9407520825196
 20
-176.517103954924
 30
0.0
 42
-0.9999999999999998
  0
VERTEX
  5
156
  8
5MM_MATERIAL
 10
-280.9407520825196
 20
-176.517103954924
 30
0.0
 42
-0.9999999999999998
  0
SEQEND
  5
32A
  8
5MM_MATERIAL
  0
POLYLINE
  5
8B
  8
5MM_MATERIAL
 66
     1
 10
0.0
 20
0.0
 30
0.0
 70
     1
  0
VERTEX
  5
157
  8
5MM_MATERIAL
 10
20.9236459722247
 20
41.34351047406084
 30
0.0
 42
0.9999999999999998
  0
VERTEX
  5
158
  8
5MM_MATERIAL
 10
16.9236459722247
 20
41.34351047406084
 30
0.0
 42
0.9999999999999998
  0
SEQEND
  5
32B
  8
5MM_MATERIAL
  0
POLYLINE
  5
8C
  8
5MM_MATERIAL
 66
     1
 10
0.0
 20
0.0
 30
0.0
 70
     1
  0
VERTEX
  5
159
  8
5MM_MATERIAL
 10
8.502811862735966
 20
-134.3489035259392
 30
0.0
 42
-0.9999999999999998
  0
VERTEX
  5
15A
  8
5MM_MATERIAL
 10
4.502811862735965
 20
-134.3489035259392
 30
0.0
 42
-0.9999999999999998
  0
SEQEND
  5
32C
  8
5MM_MATERIAL
  0
POLYLINE
  5
8D
  8
5MM_MATERIAL
 66
     1
 10
0.0
 20
0.0
 30
0.0
 70
     1
  0
VERTEX
  5
15B
  8
5MM_MATERIAL
 10
-247.350354391959
 20
-149.9790130480692
 30
0.0
 42
-0.4142135623731006
  0
VERTEX
  5
15C
  8
5MM_MATERIAL
 10
-241.2682986148184
 20
-156.0610688252098
 30
0.0
 42
-0.4142135623730868
  0
VERTEX
  5
15D
  8
5MM_MATERIAL
 10
-247.350354391959
 20
-162.1431246023501
 30
0.0
 42
-0.4142135623730869
  0
VERTEX
  5
15E
  8
5MM_MATERIAL
 10
-253.4324101690993
 20
-156.0610688252096
 30
0.0
 42
-0.4142135623730862
  0
SEQEND
  5
32D
  8
5MM_MATERIAL
  0
POLYLINE
  5
8E
  8
5MM_MATERIAL
 66
     1
 10
0.0
 20
0.0
 30
0.0
  0
VERTEX
  5
15F
  8
5MM_MATERIAL
 10
16.94269898542487
 20
17.06236458007765
 30
0.0
 42
0.9332121474346328
  0
VERTEX
  5
160
  8
5MM_MATERIAL
 10
20.92364789508408
 20
17.33775778500489
 30
0.0
 42
0.9999982711166086
  0
VERTEX
  5
161
  8
5MM_MATERIAL
 10
16.92364789509613
 20
17.33776470054453
 30
0.0
 42
0.0345484886295108
  0
VERTEX
  5
162
  8
5MM_MATERIAL
 10
16.94270090828357
 20
17.06236458007765
 30
0.0
  0
SEQEND
  5
32E
  8
5MM_MATERIAL
  0
POLYLINE
  5
8F
  8
5MM_MATERIAL
 66
     1
 10
0.0
 20
0.0
 30
0.0
  0
VERTEX
  5
163
  8
5MM_MATERIAL
 10
0.6967737095871173
 20
-84.35248414096601
 30
0.0
  0
VERTEX
  5
164
  8
5MM_MATERIAL
 10
0.6974238312297104
 20
-84.3531342625504
 30
0.0
  0
VERTEX
  5
165
  8
5MM_MATERIAL
 10
0.6980634983825923
 20
-84.35377392964553
 30
0.0
  0
VERTEX
  5
166
  8
5MM_MATERIAL
 10
0.6986927197277993
 20
-84.35440315093389
 30
0.0
  0
VERTEX
  5
167
  8
5MM_MATERIAL
 10
0.6993115039471406
 20
-84.3550219350973
 30
0.0
  0
VERTEX
  5
168
  8
5MM_MATERIAL
 10
0.6999198597233346
 20
-84.35563029081801
 30
0.0
  0
VERTEX
  5
169
  8
5MM_MATERIAL
 10
0.7005177957377356
 20
-84.35622822677807
 30
0.0
  0
VERTEX
  5
16A
  8
5MM_MATERIAL
 10
0.7011053206730623
 20
-84.35681575165951
 30
0.0
  0
VERTEX
  5
16B
  8
5MM_MATERIAL
 10
0.7016824432108962
 20
-84.35739287414437
 30
0.0
  0
VERTEX
  5
16C
  8
5MM_MATERIAL
 10
0.7022491720335012
 20
-84.35795960291468
 30
0.0
  0
VERTEX
  5
16D
  8
5MM_MATERIAL
 10
0.7028055158229137
 20
-84.35851594665293
 30
0.0
  0
VERTEX
  5
16E
  8
5MM_MATERIAL
 10
0.7033514832613975
 20
-84.35906191404071
 30
0.0
  0
VERTEX
  5
16F
  8
5MM_MATERIAL
 10
0.7038870830307616
 20
-84.35959751376028
 30
0.0
  0
VERTEX
  5
170
  8
5MM_MATERIAL
 10
0.7044123238134973
 20
-84.3601227544939
 30
0.0
  0
VERTEX
  5
171
  8
5MM_MATERIAL
 10
0.7049272142909587
 20
-84.36063764492316
 30
0.0
  0
VERTEX
  5
172
  8
5MM_MATERIAL
 10
0.7054317631458645
 20
-84.36114219373054
 30
0.0
  0
VERTEX
  5
173
  8
5MM_MATERIAL
 10
0.7059259790600237
 20
-84.36163640959809
 30
0.0
  0
VERTEX
  5
174
  8
5MM_MATERIAL
 10
0.7064098707157002
 20
-84.36212030120784
 30
0.0
  0
VERTEX
  5
175
  8
5MM_MATERIAL
 10
0.7068834467947028
 20
-84.36259387724182
 30
0.0
  0
VERTEX
  5
176
  8
5MM_MATERIAL
 10
0.7073467159790682
 20
-84.3630571463823
 30
0.0
  0
VERTEX
  5
177
  8
5MM_MATERIAL
 10
0.7077996869512874
 20
-84.3635101173111
 30
0.0
  0
VERTEX
  5
178
  8
5MM_MATERIAL
 10
0.7082423683929421
 20
-84.36395279871046
 30
0.0
  0
VERTEX
  5
179
  8
5MM_MATERIAL
 10
0.7086747689865235
 20
-84.3643851992622
 30
0.0
  0
VERTEX
  5
17A
  8
5MM_MATERIAL
 10
0.7090968974138406
 20
-84.36480732764882
 30
0.0
  0
VERTEX
  5
17B
  8
5MM_MATERIAL
 10
0.7095087623571573
 20
-84.36521919255235
 30
0.0
  0
VERTEX
  5
17C
  8
5MM_MATERIAL
 10
0.7099103724982826
 20
-84.36562080265436
 30
0.0
  0
VERTEX
  5
17D
  8
5MM_MATERIAL
 10
0.7103017365194803
 20
-84.36601216663736
 30
0.0
  0
VERTEX
  5
17E
  8
5MM_MATERIAL
 10
0.7106828631027867
 20
-84.36639329318338
 30
0.0
  0
VERTEX
  5
17F
  8
5MM_MATERIAL
 10
0.7110537609302384
 20
-84.36676419097445
 30
0.0
  0
VERTEX
  5
180
  8
5MM_MATERIAL
 10
0.7114144386840991
 20
-84.36712486869284
 30
0.0
  0
VERTEX
  5
181
  8
5MM_MATERIAL
 10
0.711764905046178
 20
-84.36747533502036
 30
0.0
  0
VERTEX
  5
182
  8
5MM_MATERIAL
 10
0.7121051686987386
 20
-84.36781559863927
 30
0.0
  0
VERTEX
  5
183
  8
5MM_MATERIAL
 10
0.7124352383235902
 20
-84.36814566823138
 30
0.0
  0
VERTEX
  5
184
  8
5MM_MATERIAL
 10
0.7127551226032239
 20
-84.36846555247895
 30
0.0
  0
VERTEX
  5
185
  8
5MM_MATERIAL
 10
0.7130648302192214
 20
-84.36877526006425
 30
0.0
  0
VERTEX
  5
186
  8
5MM_MATERIAL
 10
0.7133643698543012
 20
-84.3690747996691
 30
0.0
  0
VERTEX
  5
187
  8
5MM_MATERIAL
 10
0.7136537501898176
 20
-84.3693641799755
 30
0.0
  0
VERTEX
  5
188
  8
5MM_MATERIAL
 10
0.7139329799084891
 20
-84.36964340966576
 30
0.0
  0
VERTEX
  5
189
  8
5MM_MATERIAL
 10
0.7142020676916702
 20
-84.3699124974221
 30
0.0
  0
VERTEX
  5
18A
  8
5MM_MATERIAL
 10
0.7144610222223066
 20
-84.37017145192614
 30
0.0
  0
VERTEX
  5
18B
  8
5MM_MATERIAL
 10
0.7147098521817526
 20
-84.37042028186035
 30
0.0
  0
VERTEX
  5
18C
  8
5MM_MATERIAL
 10
0.7149485662522722
 20
-84.37065899590654
 30
0.0
  0
VERTEX
  5
18D
  8
5MM_MATERIAL
 10
0.715177173116129
 20
-84.37088760274698
 30
0.0
  0
VERTEX
  5
18E
  8
5MM_MATERIAL
 10
0.715395681455587
 20
-84.3711061110637
 30
0.0
  0
VERTEX
  5
18F
  8
5MM_MATERIAL
 10
0.7156040999520002
 20
-84.37131452953896
 30
0.0
  0
VERTEX
  5
190
  8
5MM_MATERIAL
 10
0.7158024372880875
 20
-84.37151286685436
 30
0.0
  0
VERTEX
  5
191
  8
5MM_MATERIAL
 10
0.7159907021456576
 20
-84.37170113169238
 30
0.0
  0
VERTEX
  5
192
  8
5MM_MATERIAL
 10
0.7161689032065198
 20
-84.37187933273482
 30
0.0
  0
VERTEX
  5
193
  8
5MM_MATERIAL
 10
0.7163370491531652
 20
-84.37204747866396
 30
0.0
  0
VERTEX
  5
194
  8
5MM_MATERIAL
 10
0.7164951486678576
 20
-84.37220557816205
 30
0.0
  0
VERTEX
  5
195
  8
5MM_MATERIAL
 10
0.7166432104321786
 20
-84.37235363991091
 30
0.0
  0
VERTEX
  5
196
  8
5MM_MATERIAL
 10
0.7167812431283921
 20
-84.37249167259257
 30
0.0
  0
VERTEX
  5
197
  8
5MM_MATERIAL
 10
0.7169092554385345
 20
-84.37261968488907
 30
0.0
  0
VERTEX
  5
198
  8
5MM_MATERIAL
 10
0.7170272560448695
 20
-84.3727376854829
 30
0.0
  0
VERTEX
  5
199
  8
5MM_MATERIAL
 10
0.7171352536289789
 20
-84.37284568305564
 30
0.0
  0
VERTEX
  5
19A
  8
5MM_MATERIAL
 10
0.7172332568735812
 20
-84.37294368628979
 30
0.0
  0
VERTEX
  5
19B
  8
5MM_MATERIAL
 10
0.7173212744602581
 20
-84.37303170386737
 30
0.0
  0
VERTEX
  5
19C
  8
5MM_MATERIAL
 10
0.7173993150715007
 20
-84.37310974446997
 30
0.0
  0
VERTEX
  5
19D
  8
5MM_MATERIAL
 10
0.7174673873888907
 20
-84.37317781678009
 30
0.0
  0
VERTEX
  5
19E
  8
5MM_MATERIAL
 10
0.7175255000949193
 20
-84.37323592947997
 30
0.0
  0
VERTEX
  5
19F
  8
5MM_MATERIAL
 10
0.7175736618713956
 20
-84.37328409125145
 30
0.0
  0
VERTEX
  5
1A0
  8
5MM_MATERIAL
 10
0.7176118814005833
 20
-84.37332231077632
 30
0.0
  0
VERTEX
  5
1A1
  8
5MM_MATERIAL
 10
0.7176401673642915
 20
-84.3733505967373
 30
0.0
  0
VERTEX
  5
1A2
  8
5MM_MATERIAL
 10
0.7176585284450113
 20
-84.37336895781597
 30
0.0
  0
VERTEX
  5
1A3
  8
5MM_MATERIAL
 10
0.7176669733245519
 20
-84.37337740269483
 30
0.0
  0
SEQEND
  5
32F
  8
5MM_MATERIAL
  0
POLYLINE
  5
90
  8
5MM_MATERIAL
 66
     1
 10
0.0
 20
0.0
 30
0.0
  0
VERTEX
  5
1A4
  8
5MM_MATERIAL
 10
0.6967737095871173
 20
-84.35248414096601
 30
0.0
  0
VERTEX
  5
1A5
  8
5MM_MATERIAL
 10
0.6974238312297104
 20
-84.3531342625504
 30
0.0
  0
VERTEX
  5
1A6
  8
5MM_MATERIAL
 10
0.6980634983825923
 20
-84.35377392964553
 30
0.0
  0
VERTEX
  5
1A7
  8
5MM_MATERIAL
 10
0.6986927197277993
 20
-84.35440315093389
 30
0.0
  0
VERTEX
  5
1A8
  8
5MM_MATERIAL
 10
0.6993115039471406
 20
-84.3550219350973
 30
0.0
  0
VERTEX
  5
1A9
  8
5MM_MATERIAL
 10
0.6999198597233346
 20
-84.35563029081801
 30
0.0
  0
VERTEX
  5
1AA
  8
5MM_MATERIAL
 10
0.7005177957377356
 20
-84.35622822677807
 30
0.0
  0
VERTEX
  5
1AB
  8
5MM_MATERIAL
 10
0.7011053206730623
 20
-84.35681575165951
 30
0.0
  0
VERTEX
  5
1AC
  8
5MM_MATERIAL
 10
0.7016824432108962
 20
-84.35739287414437
 30
0.0
  0
VERTEX
  5
1AD
  8
5MM_MATERIAL
 10
0.7022491720335012
 20
-84.35795960291468
 30
0.0
  0
VERTEX
  5
1AE
  8
5MM_MATERIAL
 10
0.7028055158229137
 20
-84.35851594665293
 30
0.0
  0
VERTEX
  5
1AF
  8
5MM_MATERIAL
 10
0.7033514832613975
 20
-84.35906191404071
 30
0.0
  0
VERTEX
  5
1B0
  8
5MM_MATERIAL
 10
0.7038870830307616
 20
-84.35959751376028
 30
0.0
  0
VERTEX
  5
1B1
  8
5MM_MATERIAL
 10
0.7044123238134973
 20
-84.3601227544939
 30
0.0
  0
VERTEX
  5
1B2
  8
5MM_MATERIAL
 10
0.7049272142909587
 20
-84.36063764492316
 30
0.0
  0
VERTEX
  5
1B3
  8
5MM_MATERIAL
 10
0.7054317631458645
 20
-84.36114219373054
 30
0.0
  0
VERTEX
  5
1B4
  8
5MM_MATERIAL
 10
0.7059259790600237
 20
-84.36163640959809
 30
0.0
  0
VERTEX
  5
1B5
  8
5MM_MATERIAL
 10
0.7064098707157002
 20
-84.36212030120784
 30
0.0
  0
VERTEX
  5
1B6
  8
5MM_MATERIAL
 10
0.7068834467947028
 20
-84.36259387724182
 30
0.0
  0
VERTEX
  5
1B7
  8
5MM_MATERIAL
 10
0.7073467159790682
 20
-84.3630571463823
 30
0.0
  0
VERTEX
  5
1B8
  8
5MM_MATERIAL
 10
0.7077996869512874
 20
-84.3635101173111
 30
0.0
  0
VERTEX
  5
1B9
  8
5MM_MATERIAL
 10
0.7082423683929421
 20
-84.36395279871046
 30
0.0
  0
VERTEX
  5
1BA
  8
5MM_MATERIAL
 10
0.7086747689865235
 20
-84.3643851992622
 30
0.0
  0
VERTEX
  5
1BB
  8
5MM_MATERIAL
 10
0.7090968974138406
 20
-84.36480732764882
 30
0.0
  0
VERTEX
  5
1BC
  8
5MM_MATERIAL
 10
0.7095087623571573
 20
-84.36521919255235
 30
0.0
  0
VERTEX
  5
1BD
  8
5MM_MATERIAL
 10
0.7099103724982826
 20
-84.36562080265436
 30
0.0
  0
VERTEX
  5
1BE
  8
5MM_MATERIAL
 10
0.7103017365194803
 20
-84.36601216663736
 30
0.0
  0
VERTEX
  5
1BF
  8
5MM_MATERIAL
 10
0.7106828631027867
 20
-84.36639329318338
 30
0.0
  0
VERTEX
  5
1C0
  8
5MM_MATERIAL
 10
0.7110537609302384
 20
-84.36676419097445
 30
0.0
  0
VERTEX
  5
1C1
  8
5MM_MATERIAL
 10
0.7114144386840991
 20
-84.36712486869284
 30
0.0
  0
VERTEX
  5
1C2
  8
5MM_MATERIAL
 10
0.711764905046178
 20
-84.36747533502036
 30
0.0
  0
VERTEX
  5
1C3
  8
5MM_MATERIAL
 10
0.7121051686987386
 20
-84.36781559863927
 30
0.0
  0
VERTEX
  5
1C4
  8
5MM_MATERIAL
 10
0.7124352383235902
 20
-84.36814566823138
 30
0.0
  0
VERTEX
  5
1C5
  8
5MM_MATERIAL
 10
0.7127551226032239
 20
-84.36846555247895
 30
0.0
  0
VERTEX
  5
1C6
  8
5MM_MATERIAL
 10
0.7130648302192214
 20
-84.36877526006425
 30
0.0
  0
VERTEX
  5
1C7
  8
5MM_MATERIAL
 10
0.7133643698543012
 20
-84.3690747996691
 30
0.0
  0
VERTEX
  5
1C8
  8
5MM_MATERIAL
 10
0.7136537501898176
 20
-84.3693641799755
 30
0.0
  0
VERTEX
  5
1C9
  8
5MM_MATERIAL
 10
0.7139329799084891
 20
-84.36964340966576
 30
0.0
  0
VERTEX
  5
1CA
  8
5MM_MATERIAL
 10
0.7142020676916702
 20
-84.3699124974221
 30
0.0
  0
VERTEX
  5
1CB
  8
5MM_MATERIAL
 10
0.7144610222223066
 20
-84.37017145192614
 30
0.0
  0
VERTEX
  5
1CC
  8
5MM_MATERIAL
 10
0.7147098521817526
 20
-84.37042028186035
 30
0.0
  0
VERTEX
  5
1CD
  8
5MM_MATERIAL
 10
0.7149485662522722
 20
-84.37065899590654
 30
0.0
  0
VERTEX
  5
1CE
  8
5MM_MATERIAL
 10
0.715177173116129
 20
-84.37088760274698
 30
0.0
  0
VERTEX
  5
1CF
  8
5MM_MATERIAL
 10
0.715395681455587
 20
-84.3711061110637
 30
0.0
  0
VERTEX
  5
1D0
  8
5MM_MATERIAL
 10
0.7156040999520002
 20
-84.37131452953896
 30
0.0
  0
VERTEX
  5
1D1
  8
5MM_MATERIAL
 10
0.7158024372880875
 20
-84.37151286685436
 30
0.0
  0
VERTEX
  5
1D2
  8
5MM_MATERIAL
 10
0.7159907021456576
 20
-84.37170113169238
 30
0.0
  0
VERTEX
  5
1D3
  8
5MM_MATERIAL
 10
0.7161689032065198
 20
-84.37187933273482
 30
0.0
  0
VERTEX
  5
1D4
  8
5MM_MATERIAL
 10
0.7163370491533926
 20
-84.37204747866396
 30
0.0
  0
VERTEX
  5
1D5
  8
5MM_MATERIAL
 10
0.7164951486678576
 20
-84.37220557816205
 30
0.0
  0
VERTEX
  5
1D6
  8
5MM_MATERIAL
 10
0.7166432104321786
 20
-84.37235363991091
 30
0.0
  0
VERTEX
  5
1D7
  8
5MM_MATERIAL
 10
0.7167812431283921
 20
-84.37249167259257
 30
0.0
  0
VERTEX
  5
1D8
  8
5MM_MATERIAL
 10
0.7169092554385345
 20
-84.37261968488907
 30
0.0
  0
VERTEX
  5
1D9
  8
5MM_MATERIAL
 10
0.7170272560448695
 20
-84.3727376854829
 30
0.0
  0
VERTEX
  5
1DA
  8
5MM_MATERIAL
 10
0.7171352536289789
 20
-84.37284568305564
 30
0.0
  0
VERTEX
  5
1DB
  8
5MM_MATERIAL
 10
0.7172332568735812
 20
-84.37294368628979
 30
0.0
  0
VERTEX
  5
1DC
  8
5MM_MATERIAL
 10
0.7173212744602581
 20
-84.37303170386737
 30
0.0
  0
VERTEX
  5
1DD
  8
5MM_MATERIAL
 10
0.7173993150715007
 20
-84.37310974446997
 30
0.0
  0
VERTEX
  5
1DE
  8
5MM_MATERIAL
 10
0.7174673873888907
 20
-84.37317781678009
 30
0.0
  0
VERTEX
  5
1DF
  8
5MM_MATERIAL
 10
0.7175255000949193
 20
-84.37323592947997
 30
0.0
  0
VERTEX
  5
1E0
  8
5MM_MATERIAL
 10
0.7175736618713956
 20
-84.37328409125145
 30
0.0
  0
VERTEX
  5
1E1
  8
5MM_MATERIAL
 10
0.7176118814005833
 20
-84.37332231077632
 30
0.0
  0
VERTEX
  5
1E2
  8
5MM_MATERIAL
 10
0.7176401673642915
 20
-84.3733505967373
 30
0.0
  0
VERTEX
  5
1E3
  8
5MM_MATERIAL
 10
0.7176585284450113
 20
-84.37336895781597
 30
0.0
  0
VERTEX
  5
1E4
  8
5MM_MATERIAL
 10
0.7176669733245519
 20
-84.37337740269483
 30
0.0
  0
SEQEND
  5
330
  8
5MM_MATERIAL
  0
POLYLINE
  5
91
  8
5MM_MATERIAL
 66
     1
 10
0.0
 20
0.0
 30
0.0
 70
     1
  0
VERTEX
  5
1E5
  8
5MM_MATERIAL
 10
-7.908559082319104
 20
-74.8616771880577
 30
0.0
  0
VERTEX
  5
1E6
  8
5MM_MATERIAL
 10
-7.888724757944234
 20
-75.1195281486887
 30
0.0
  0
VERTEX
  5
1E7
  8
5MM_MATERIAL
 10
-7.8335521109278
 20
-75.35678563264379
 30
0.0
  0
VERTEX
  5
1E8
  8
5MM_MATERIAL
 10
-7.743705776968315
 20
-75.58159158571972
 30
0.0
  0
VERTEX
  5
1E9
  8
5MM_MATERIAL
 10
-7.608497117550402
 20
-75.8075383606347
 30
0.0
  0
VERTEX
  5
1EA
  8
5MM_MATERIAL
 10
-7.428282405923571
 20
-76.02015749695899
 30
0.0
  0
VERTEX
  5
1EB
  8
5MM_MATERIAL
 10
-6.782827950956604
 20
-76.66562803629292
 30
0.0
  0
VERTEX
  5
1EC
  8
5MM_MATERIAL
 10
-6.125730648925216
 20
-77.3227404275897
 30
0.0
  0
VERTEX
  5
1ED
  8
5MM_MATERIAL
 10
-4.82311249377685
 20
-78.6253553882432
 30
0.0
  0
VERTEX
  5
1EE
  8
5MM_MATERIAL
 10
-4.612928148767511
 20
-78.8036352650977
 30
0.0
  0
VERTEX
  5
1EF
  8
5MM_MATERIAL
 10
-4.390473251148111
 20
-78.9375050112965
 30
0.0
  0
VERTEX
  5
1F0
  8
5MM_MATERIAL
 10
-4.148415683275604
 20
-79.03419907122931
 30
0.0
  0
VERTEX
  5
1F1
  8
5MM_MATERIAL
 10
-3.917599736841882
 20
-79.08667584830916
 30
0.0
  0
VERTEX
  5
1F2
  8
5MM_MATERIAL
 10
-3.665185441648506
 20
-79.10556594615379
 30
0.0
  0
VERTEX
  5
1F3
  8
5MM_MATERIAL
 10
29.04746363233576
 20
-79.10554635279597
 30
0.0
  0
VERTEX
  5
1F4
  8
5MM_MATERIAL
 10
29.30535951170773
 20
-79.08572359902952
 30
0.0
  0
VERTEX
  5
1F5
  8
5MM_MATERIAL
 10
29.54264394367797
 20
-79.03055849085742
 30
0.0
  0
VERTEX
  5
1F6
  8
5MM_MATERIAL
 10
29.76747073149627
 20
-78.94071014613247
 30
0.0
  0
VERTEX
  5
1F7
  8
5MM_MATERIAL
 10
29.99341332288682
 20
-78.80550399021764
 30
0.0
  0
VERTEX
  5
1F8
  8
5MM_MATERIAL
 10
30.20603245934504
 20
-78.6252892784985
 30
0.0
  0
VERTEX
  5
1F9
  8
5MM_MATERIAL
 10
30.85150299875627
 20
-77.97983482348583
 30
0.0
  0
VERTEX
  5
1FA
  8
5MM_MATERIAL
 10
31.50861539044186
 20
-77.32273752111543
 30
0.0
  0
VERTEX
  5
1FB
  8
5MM_MATERIAL
 10
32.811230350903
 20
-76.02011936613577
 30
0.0
  0
VERTEX
  5
1FC
  8
5MM_MATERIAL
 10
32.98951022769339
 20
-75.8099350211062
 30
0.0
  0
VERTEX
  5
1FD
  8
5MM_MATERIAL
 10
33.12337997381806
 20
-75.58748012340881
 30
0.0
  0
VERTEX
  5
1FE
  8
5MM_MATERIAL
 10
33.2200740337004
 20
-75.34542255539306
 30
0.0
  0
VERTEX
  5
1FF
  8
5MM_MATERIAL
 10
33.2725508106993
 20
-75.11460660915851
 30
0.0
  0
VERTEX
  5
200
  8
5MM_MATERIAL
 10
33.29144090852802
 20
-74.86219231423094
 30
0.0
  0
VERTEX
  5
201
  8
5MM_MATERIAL
 10
33.29142131529048
 20
-42.14954323906887
 30
0.0
  0
VERTEX
  5
202
  8
5MM_MATERIAL
 10
33.27159856149152
 20
-41.89164736009366
 30
0.0
  0
VERTEX
  5
203
  8
5MM_MATERIAL
 10
33.21643345327325
 20
-41.65436292846812
 30
0.0
  0
VERTEX
  5
204
  8
5MM_MATERIAL
 10
33.12658510853717
 20
-41.42953614092949
 30
0.0
  0
VERTEX
  5
205
  8
5MM_MATERIAL
 10
32.99137895256254
 20
-41.20359354964808
 30
0.0
  0
VERTEX
  5
206
  8
5MM_MATERIAL
 10
32.81116504787011
 20
-40.99097536534396
 30
0.0
  0
VERTEX
  5
207
  8
5MM_MATERIAL
 10
32.16570829560092
 20
-40.34551057101113
 30
0.0
  0
VERTEX
  5
208
  8
5MM_MATERIAL
 10
31.50860233142853
 20
-39.68840551656195
 30
0.0
  0
VERTEX
  5
209
  8
5MM_MATERIAL
 10
30.20584774073805
 20
-38.38565814009053
 30
0.0
  0
VERTEX
  5
20A
  8
5MM_MATERIAL
 10
30.00330959947282
 20
-38.21353732433091
 30
0.0
  0
VERTEX
  5
20B
  8
5MM_MATERIAL
 10
29.7887067555645
 20
-38.08295986840427
 30
0.0
  0
VERTEX
  5
20C
  8
5MM_MATERIAL
 10
29.55580578754839
 20
-37.98648912883323
 30
0.0
  0
VERTEX
  5
20D
  8
5MM_MATERIAL
 10
29.31172645670781
 20
-37.92707420729335
 30
0.0
  0
VERTEX
  5
20E
  8
5MM_MATERIAL
 10
29.04680312031237
 20
-37.90556595510612
 30
0.0
  0
VERTEX
  5
20F
  8
5MM_MATERIAL
 10
-3.663921285654257
 20
-37.90556595510612
 30
0.0
  0
VERTEX
  5
210
  8
5MM_MATERIAL
 10
-3.928844622029007
 20
-37.9270742073677
 30
0.0
  0
VERTEX
  5
211
  8
5MM_MATERIAL
 10
-4.172923953044889
 20
-37.98648912909244
 30
0.0
  0
VERTEX
  5
212
  8
5MM_MATERIAL
 10
-4.405824921369091
 20
-38.08295986892791
 30
0.0
  0
VERTEX
  5
213
  8
5MM_MATERIAL
 10
-4.620427765562542
 20
-38.21353732511421
 30
0.0
  0
VERTEX
  5
214
  8
5MM_MATERIAL
 10
-4.822966435295117
 20
-38.3856585900071
 30
0.0
  0
VERTEX
  5
215
  8
5MM_MATERIAL
 10
-5.468616286807761
 20
-39.03130039686176
 30
0.0
  0
VERTEX
  5
216
  8
5MM_MATERIAL
 10
-6.1257304057352
 20
-39.68839851670942
 30
0.0
  0
VERTEX
  5
217
  8
5MM_MATERIAL
 10
-7.428348874239052
 20
-40.99101296641607
 30
0.0
  0
VERTEX
  5
218
  8
5MM_MATERIAL
 10
-7.60662839245501
 20
-41.20119688872774
 30
0.0
  0
VERTEX
  5
219
  8
5MM_MATERIAL
 10
-7.740498138733162
 20
-41.42365178676074
 30
0.0
  0
VERTEX
  5
21A
  8
5MM_MATERIAL
 10
-7.83719219873669
 20
-41.66570935525193
 30
0.0
  0
VERTEX
  5
21B
  8
5MM_MATERIAL
 10
-7.889668975759466
 20
-41.89652530132094
 30
0.0
  0
VERTEX
  5
21C
  8
5MM_MATERIAL
 10
-7.908559082519647
 20
-42.14893971560242
 30
0.0
  0
SEQEND
  5
331
  8
5MM_MATERIAL
  0
POLYLINE
  5
92
  8
5MM_MATERIAL
 66
     1
 10
0.0
 20
0.0
 30
0.0
 70
     1
  0
VERTEX
  5
21D
  8
5MM_MATERIAL
 10
228.842022424076
 20
-186.7246966914794
 30
0.0
 42
0.9999999999999998
  0
VERTEX
  5
21E
  8
5MM_MATERIAL
 10
228.8487071252609
 20
-190.8666025163463
 30
0.0
 42
0.9999999999999998
  0
SEQEND
  5
332
  8
5MM_MATERIAL
  0
POLYLINE
  5
93
  8
5MM_MATERIAL
 66
     1
 10
0.0
 20
0.0
 30
0.0
 70
     1
  0
VERTEX
  5
21F
  8
5MM_MATERIAL
 10
249.0586391310951
 20
-37.08974396135534
 30
0.0
 42
0.9999999999999998
  0
VERTEX
  5
220
  8
5MM_MATERIAL
 10
249.0653238322801
 20
-41.23164978622219
 30
0.0
 42
0.9999999999999998
  0
SEQEND
  5
333
  8
5MM_MATERIAL
  0
POLYLINE
  5
94
  8
5MM_MATERIAL
 66
     1
 10
0.0
 20
0.0
 30
0.0
 70
     1
  0
VERTEX
  5
221
  8
5MM_MATERIAL
 10
184.8768250937642
 20
-125.3482701383488
 30
0.0
 42
0.4142135623730966
  0
VERTEX
  5
222
  8
5MM_MATERIAL
 10
188.9920114581356
 20
-121.219779145111
 30
0.0
  0
VERTEX
  5
223
  8
5MM_MATERIAL
 10
188.9920114581356
 20
-121.219779145111
 30
0.0
 42
0.4142135623730959
  0
VERTEX
  5
224
  8
5MM_MATERIAL
 10
184.8635204648976
 20
-117.1045927807397
 30
0.0
 42
0.4142135623730966
  0
VERTEX
  5
225
  8
5MM_MATERIAL
 10
180.7483341005264
 20
-121.2330837739776
 30
0.0
 42
0.4142135623730966
  0
SEQEND
  5
334
  8
5MM_MATERIAL
  0
POLYLINE
  5
95
  8
5MM_MATERIAL
 66
     1
 10
0.0
 20
0.0
 30
0.0
 70
     1
  0
VERTEX
  5
226
  8
5MM_MATERIAL
 10
171.4084257278778
 20
-11.32282485879916
 30
0.0
 42
0.9999999999999998
  0
VERTEX
  5
227
  8
5MM_MATERIAL
 10
171.4164953131867
 20
-16.32281834697429
 30
0.0
 42
0.9999999999999998
  0
SEQEND
  5
335
  8
5MM_MATERIAL
  0
POLYLINE
  5
96
  8
5MM_MATERIAL
 66
     1
 10
0.0
 20
0.0
 30
0.0
 70
     1
  0
VERTEX
  5
228
  8
5MM_MATERIAL
 10
215.6247397468173
 20
-145.3175872185928
 30
0.0
 42
0.9999999999999998
  0
VERTEX
  5
229
  8
5MM_MATERIAL
 10
215.6328093321261
 20
-150.3175807067678
 30
0.0
 42
0.9999999999999998
  0
SEQEND
  5
336
  8
5MM_MATERIAL
  0
POLYLINE
  5
97
  8
5MM_MATERIAL
 66
     1
 10
0.0
 20
0.0
 30
0.0
 70
     1
  0
VERTEX
  5
22A
  8
5MM_MATERIAL
 10
249.0586391310951
 20
-37.08974396135534
 30
0.0
 42
0.9999999999999998
  0
VERTEX
  5
22B
  8
5MM_MATERIAL
 10
249.0653238322801
 20
-41.23164978622219
 30
0.0
 42
0.9999999999999998
  0
SEQEND
  5
337
  8
5MM_MATERIAL
  0
POLYLINE
  5
98
  8
5MM_MATERIAL
 66
     1
 10
0.0
 20
0.0
 30
0.0
 70
     1
  0
VERTEX
  5
22C
  8
5MM_MATERIAL
 10
223.4083580048986
 20
-11.23890117158719
 30
0.0
 42
0.9999999999999998
  0
VERTEX
  5
22D
  8
5MM_MATERIAL
 10
223.4164275902074
 20
-16.23889465976227
 30
0.0
 42
0.9999999999999998
  0
SEQEND
  5
338
  8
5MM_MATERIAL
  0
POLYLINE
  5
99
  8
5MM_MATERIAL
 66
     1
 10
0.0
 20
0.0
 30
0.0
 70
     1
  0
VERTEX
  5
22E
  8
5MM_MATERIAL
 10
228.6005769941406
 20
-37.12276161988984
 30
0.0
 42
0.9999999999999998
  0
VERTEX
  5
22F
  8
5MM_MATERIAL
 10
228.6072616953256
 20
-41.26466744475668
 30
0.0
 42
0.9999999999999998
  0
SEQEND
  5
339
  8
5MM_MATERIAL
  0
POLYLINE
  5
9A
  8
5MM_MATERIAL
 66
     1
 10
0.0
 20
0.0
 30
0.0
 70
     1
  0
VERTEX
  5
230
  8
5MM_MATERIAL
 10
228.6005769941406
 20
-37.12276161988984
 30
0.0
 42
0.9999999999999998
  0
VERTEX
  5
231
  8
5MM_MATERIAL
 10
228.6072616953256
 20
-41.26466744475668
 30
0.0
 42
0.9999999999999998
  0
SEQEND
  5
33A
  8
5MM_MATERIAL
  0
POLYLINE
  5
9B
  8
5MM_MATERIAL
 66
     1
 10
0.0
 20
0.0
 30
0.0
 70
     1
  0
VERTEX
  5
232
  8
5MM_MATERIAL
 10
249.0586391310951
 20
-37.08974396135534
 30
0.0
 42
-0.9999999999999998
  0
VERTEX
  5
233
  8
5MM_MATERIAL
 10
249.0653238322801
 20
-41.23164978622219
 30
0.0
 42
-0.9999999999999998
  0
SEQEND
  5
33B
  8
5MM_MATERIAL
  0
POLYLINE
  5
9C
  8
5MM_MATERIAL
 66
     1
 10
0.0
 20
0.0
 30
0.0
 70
     1
  0
VERTEX
  5
234
  8
5MM_MATERIAL
 10
228.6005769941408
 20
-37.12276161988989
 30
0.0
 42
-0.9999999999999998
  0
VERTEX
  5
235
  8
5MM_MATERIAL
 10
228.6072616953258
 20
-41.26466744475674
 30
0.0
 42
-0.9999999999999998
  0
SEQEND
  5
33C
  8
5MM_MATERIAL
  0
POLYLINE
  5
9D
  8
5MM_MATERIAL
 66
     1
 10
0.0
 20
0.0
 30
0.0
 70
     1
  0
VERTEX
  5
236
  8
5MM_MATERIAL
 10
210.0152083543713
 20
-125.3076988198606
 30
0.0
 42
-0.4142135623730917
  0
VERTEX
  5
237
  8
5MM_MATERIAL
 10
205.8867173611333
 20
-121.1925124554894
 30
0.0
  0
VERTEX
  5
238
  8
5MM_MATERIAL
 10
205.8867173611333
 20
-121.1925124554894
 30
0.0
 42
-0.4142135623730767
  0
VERTEX
  5
239
  8
5MM_MATERIAL
 10
210.0019037255047
 20
-117.0640214622517
 30
0.0
 42
-0.4142135623730954
  0
VERTEX
  5
23A
  8
5MM_MATERIAL
 10
214.1303947187426
 20
-121.1792078266227
 30
0.0
 42
-0.4142135623730764
  0
SEQEND
  5
33D
  8
5MM_MATERIAL
  0
POLYLINE
  5
9E
  8
5MM_MATERIAL
 66
     1
 10
0.0
 20
0.0
 30
0.0
 70
     1
  0
VERTEX
  5
23B
  8
5MM_MATERIAL
 10
166.0069072949034
 20
-37.22378274294235
 30
0.0
 42
0.9999999999999998
  0
VERTEX
  5
23C
  8
5MM_MATERIAL
 10
166.0135919960885
 20
-41.36568856780919
 30
0.0
 42
0.9999999999999998
  0
SEQEND
  5
33E
  8
5MM_MATERIAL
  0
POLYLINE
  5
9F
  8
5MM_MATERIAL
 66
     1
 10
0.0
 20
0.0
 30
0.0
 70
     1
  0
VERTEX
  5
23D
  8
5MM_MATERIAL
 10
145.5488451579487
 20
-37.25680040147691
 30
0.0
 42
0.9999999999999998
  0
VERTEX
  5
23E
  8
5MM_MATERIAL
 10
145.5555298591337
 20
-41.39870622634376
 30
0.0
 42
0.9999999999999998
  0
SEQEND
  5
33F
  8
5MM_MATERIAL
  0
POLYLINE
  5
A0
  8
5MM_MATERIAL
 66
     1
 10
0.0
 20
0.0
 30
0.0
 70
     1
  0
VERTEX
  5
23F
  8
5MM_MATERIAL
 10
230.4305083694099
 20
-24.95770130729757
 30
0.0
  0
VERTEX
  5
240
  8
5MM_MATERIAL
 10
230.4013629594109
 20
-6.8989219987244
 30
0.0
 42
0.4142135623730951
  0
VERTEX
  5
241
  8
5MM_MATERIAL
 10
220.3852368124434
 20
3.084925807008023
 30
0.0
  0
VERTEX
  5
242
  8
5MM_MATERIAL
 10
174.0924211026641
 20
3.010212944593377
 30
0.0
 42
0.414213562373095
  0
VERTEX
  5
243
  8
5MM_MATERIAL
 10
164.1085732969317
 20
-7.005913202374288
 30
0.0
  0
VERTEX
  5
244
  8
5MM_MATERIAL
 10
164.1377187069305
 20
-25.06469251094752
 30
0.0
 42
-0.4142135623730951
  0
VERTEX
  5
245
  8
5MM_MATERIAL
 10
159.1457948040642
 20
-30.07275558443136
 30
0.0
  0
VERTEX
  5
246
  8
5MM_MATERIAL
 10
144.7922514976406
 20
-30.0959210430403
 30
0.0
 42
0.4142135623730951
  0
VERTEX
  5
247
  8
5MM_MATERIAL
 10
134.8084036919081
 20
-40.11204719000813
 30
0.0
  0
VERTEX
  5
248
  8
5MM_MATERIAL
 10
135.0455545971007
 20
-187.0530529912119
 30
0.0
 42
0.4142135623730951
  0
VERTEX
  5
249
  8
5MM_MATERIAL
 10
145.0616807440686
 20
-197.0369007969442
 30
0.0
  0
VERTEX
  5
24A
  8
5MM_MATERIAL
 10
250.061543995745
 20
-196.8674395054588
 30
0.0
 42
0.4142135623730951
  0
VERTEX
  5
24B
  8
5MM_MATERIAL
 10
260.0453918014774
 20
-186.8513133584909
 30
0.0
  0
VERTEX
  5
24C
  8
5MM_MATERIAL
 10
259.8082408962846
 20
-39.91030755728727
 30
0.0
 42
0.4142135623730951
  0
VERTEX
  5
24D
  8
5MM_MATERIAL
 10
249.792114749317
 20
-29.92645975155485
 30
0.0
  0
VERTEX
  5
24E
  8
5MM_MATERIAL
 10
235.4385714428939
 20
-29.94962521016378
 30
0.0
 42
-0.4142135623730951
  0
SEQEND
  5
340
  8
5MM_MATERIAL
  0
POLYLINE
  5
A1
  8
5MM_MATERIAL
 66
     1
 10
0.0
 20
0.0
 30
0.0
 70
     1
  0
VERTEX
  5
24F
  8
5MM_MATERIAL
 10
249.3000845610303
 20
-186.6916790329448
 30
0.0
 42
-0.9999999999999998
  0
VERTEX
  5
250
  8
5MM_MATERIAL
 10
249.3067692622151
 20
-190.8335848578117
 30
0.0
 42
-0.9999999999999998
  0
SEQEND
  5
341
  8
5MM_MATERIAL
  0
POLYLINE
  5
A2
  8
5MM_MATERIAL
 66
     1
 10
0.0
 20
0.0
 30
0.0
 70
     1
  0
VERTEX
  5
251
  8
5MM_MATERIAL
 10
145.7902905878847
 20
-186.8587354730665
 30
0.0
 42
0.9999999999999998
  0
VERTEX
  5
252
  8
5MM_MATERIAL
 10
145.7969752890696
 20
-191.0006412979333
 30
0.0
 42
0.9999999999999998
  0
SEQEND
  5
342
  8
5MM_MATERIAL
  0
POLYLINE
  5
A3
  8
5MM_MATERIAL
 66
     1
 10
0.0
 20
0.0
 30
0.0
 70
     1
  0
VERTEX
  5
253
  8
5MM_MATERIAL
 10
166.2483527248389
 20
-186.8257178145319
 30
0.0
 42
-0.9999999999999998
  0
VERTEX
  5
254
  8
5MM_MATERIAL
 10
166.2550374260238
 20
-190.9676236393987
 30
0.0
 42
-0.9999999999999998
  0
SEQEND
  5
343
  8
5MM_MATERIAL
  0
POLYLINE
  5
A4
  8
5MM_MATERIAL
 66
     1
 10
0.0
 20
0.0
 30
0.0
 70
     1
  0
VERTEX
  5
255
  8
5MM_MATERIAL
 10
179.6247866319566
 20
-145.3756882328163
 30
0.0
 42
0.9999999999999998
  0
VERTEX
  5
256
  8
5MM_MATERIAL
 10
179.6328562172653
 20
-150.3756817209914
 30
0.0
 42
0.9999999999999998
  0
SEQEND
  5
344
  8
5MM_MATERIAL
  0
POLYLINE
  5
A5
  8
5MM_MATERIAL
 66
     1
 10
0.0
 20
0.0
 30
0.0
 70
     1
  0
VERTEX
  5
257
  8
5MM_MATERIAL
 10
205.067993609944
 20
-142.609147240544
 30
0.0
  0
VERTEX
  5
258
  8
5MM_MATERIAL
 10
205.069975227073
 20
-143.8369764736566
 30
0.0
  0
VERTEX
  5
259
  8
5MM_MATERIAL
 10
199.9575362516099
 20
-150.2504200534155
 30
0.0
  0
VERTEX
  5
25A
  8
5MM_MATERIAL
 10
199.6886285072803
 20
-150.5808340146845
 30
0.0
  0
VERTEX
  5
25B
  8
5MM_MATERIAL
 10
199.4265062572698
 20
-150.8890678280383
 30
0.0
  0
VERTEX
  5
25C
  8
5MM_MATERIAL
 10
199.1711695015784
 20
-151.1751214934768
 30
0.0
  0
VERTEX
  5
25D
  8
5MM_MATERIAL
 10
198.9226182402062
 20
-151.438995011
 30
0.0
  0
VERTEX
  5
25E
  8
5MM_MATERIAL
 10
204.5024199773511
 20
-151.4299896620469
 30
0.0
  0
VERTEX
  5
25F
  8
5MM_MATERIAL
 10
204.5043245315918
 20
-152.6100699805384
 30
0.0
  0
VERTEX
  5
260
  8
5MM_MATERIAL
 10
197.3419873384352
 20
-152.6216294137912
 30
0.0
  0
VERTEX
  5
261
  8
5MM_MATERIAL
 10
197.3400827841945
 20
-151.4415490952996
 30
0.0
  0
VERTEX
  5
262
  8
5MM_MATERIAL
 10
202.9427947521467
 20
-144.4952535343403
 30
0.0
  0
VERTEX
  5
263
  8
5MM_MATERIAL
 10
203.5487541698285
 20
-143.7916825624787
 30
0.0
  0
VERTEX
  5
264
  8
5MM_MATERIAL
 10
197.1640421576432
 20
-143.8019869715498
 30
0.0
  0
VERTEX
  5
265
  8
5MM_MATERIAL
 10
197.1621376034025
 20
-142.6219066530583
 30
0.0
  0
SEQEND
  5
345
  8
5MM_MATERIAL
  0
POLYLINE
  5
A6
  8
5MM_MATERIAL
 66
     1
 10
0.0
 20
0.0
 30
0.0
 70
     1
  0
VERTEX
  5
266
  8
5MM_MATERIAL
 10
195.7910616264268
 20
-142.6241194588524
 30
0.0
  0
VERTEX
  5
267
  8
5MM_MATERIAL
 10
195.8072007970444
 20
-152.6241064352025
 30
0.0
  0
VERTEX
  5
268
  8
5MM_MATERIAL
 10
192.0555003625338
 20
-152.6301613764301
 30
0.0
  0
VERTEX
  5
269
  8
5MM_MATERIAL
 10
191.7760869496374
 20
-152.6258693979952
 30
0.0
  0
VERTEX
  5
26A
  8
5MM_MATERIAL
 10
191.5108336864006
 20
-152.6120687080304
 30
0.0
  0
VERTEX
  5
26B
  8
5MM_MATERIAL
 10
191.2597405728236
 20
-152.5887593065356
 30
0.0
  0
VERTEX
  5
26C
  8
5MM_MATERIAL
 10
191.0228076089062
 20
-152.5559411935108
 30
0.0
  0
VERTEX
  5
26D
  8
5MM_MATERIAL
 10
190.8000347946485
 20
-152.5136143689561
 30
0.0
  0
VERTEX
  5
26E
  8
5MM_MATERIAL
 10
190.5914221300504
 20
-152.4617788328714
 30
0.0
  0
VERTEX
  5
26F
  8
5MM_MATERIAL
 10
190.3969696151121
 20
-152.4004345852568
 30
0.0
  0
VERTEX
  5
270
  8
5MM_MATERIAL
 10
190.2166772498334
 20
-152.3295816261121
 30
0.0
  0
VERTEX
  5
271
  8
5MM_MATERIAL
 10
190.0481463281897
 20
-152.2488507873881
 30
0.0
  0
VERTEX
  5
272
  8
5MM_MATERIAL
 10
189.8889781441561
 20
-152.157872901035
 30
0.0
  0
VERTEX
  5
273
  8
5MM_MATERIAL
 10
189.7391726977327
 20
-152.0566479670528
 30
0.0
  0
VERTEX
  5
274
  8
5MM_MATERIAL
 10
189.5987299889196
 20
-151.9451759854417
 30
0.0
  0
VERTEX
  5
275
  8
5MM_MATERIAL
 10
189.4676500177167
 20
-151.8234569562016
 30
0.0
  0
VERTEX
  5
276
  8
5MM_MATERIAL
 10
189.3459327841239
 20
-151.6914908793325
 30
0.0
  0
VERTEX
  5
277
  8
5MM_MATERIAL
 10
189.2335782881414
 20
-151.5492777548343
 30
0.0
  0
VERTEX
  5
278
  8
5MM_MATERIAL
 10
189.1305865297691
 20
-151.3968175827071
 30
0.0
  0
VERTEX
  5
279
  8
5MM_MATERIAL
 10
189.0384031659969
 20
-151.2383180454923
 30
0.0
  0
VERTEX
  5
27A
  8
5MM_MATERIAL
 10
188.9584738538146
 20
-151.0779868257313
 30
0.0
  0
VERTEX
  5
27B
  8
5MM_MATERIAL
 10
188.8907985932224
 20
-150.9158239234241
 30
0.0
  0
VERTEX
  5
27C
  8
5MM_MATERIAL
 10
188.8353773842201
 20
-150.7518293385705
 30
0.0
  0
VERTEX
  5
27D
  8
5MM_MATERIAL
 10
188.7922102268079
 20
-150.5860030711708
 30
0.0
  0
VERTEX
  5
27E
  8
5MM_MATERIAL
 10
188.7612971209856
 20
-150.4183451212248
 30
0.0
  0
VERTEX
  5
27F
  8
5MM_MATERIAL
 10
188.7426380667534
 20
-150.2488554887325
 30
0.0
  0
VERTEX
  5
280
  8
5MM_MATERIAL
 10
188.7362330641111
 20
-150.077534173694
 30
0.0
  0
VERTEX
  5
281
  8
5MM_MATERIAL
 10
188.7414119474891
 20
-149.9183978796393
 30
0.0
  0
VERTEX
  5
282
  8
5MM_MATERIAL
 10
188.7574660198736
 20
-149.7615888527878
 30
0.0
  0
VERTEX
  5
283
  8
5MM_MATERIAL
 10
188.7843952812646
 20
-149.6071070931395
 30
0.0
  0
VERTEX
  5
284
  8
5MM_MATERIAL
 10
188.822199731662
 20
-149.4549526006945
 30
0.0
  0
VERTEX
  5
285
  8
5MM_MATERIAL
 10
188.8708793710658
 20
-149.3051253754527
 30
0.0
  0
VERTEX
  5
286
  8
5MM_MATERIAL
 10
188.9304341994761
 20
-149.1576254174142
 30
0.0
  0
VERTEX
  5
287
  8
5MM_MATERIAL
 10
189.0008642168929
 20
-149.0124527265789
 30
0.0
  0
VERTEX
  5
288
  8
5MM_MATERIAL
 10
189.0821694233161
 20
-148.8696073029468
 30
0.0
  0
VERTEX
  5
289
  8
5MM_MATERIAL
 10
189.1744600134673
 20
-148.7313272048754
 30
0.0
  0
VERTEX
  5
28A
  8
5MM_MATERIAL
 10
189.2778461820682
 20
-148.5998504907223
 30
0.0
  0
VERTEX
  5
28B
  8
5MM_MATERIAL
 10
189.3923279291188
 20
-148.4751771604874
 30
0.0
  0
VERTEX
  5
28C
  8
5MM_MATERIAL
 10
189.517905254619
 20
-148.3573072141706
 30
0.0
  0
VERTEX
  5
28D
  8
5MM_MATERIAL
 10
189.6545781585689
 20
-148.2462406517722
 30
0.0
  0
VERTEX
  5
28E
  8
5MM_MATERIAL
 10
189.8023466409684
 20
-148.1419774732919
 30
0.0
  0
VERTEX
  5
28F
  8
5MM_MATERIAL
 10
189.9612107018175
 20
-148.0445176787298
 30
0.0
  0
VERTEX
  5
290
  8
5MM_MATERIAL
 10
190.1311703411163
 20
-147.9538612680859
 30
0.0
  0
VERTEX
  5
291
  8
5MM_MATERIAL
 10
189.9108010157467
 20
-147.8818472891374
 30
0.0
  0
VERTEX
  5
292
  8
5MM_MATERIAL
 10
189.7035224037268
 20
-147.7980880884399
 30
0.0
  0
VERTEX
  5
293
  8
5MM_MATERIAL
 10
189.5093345050566
 20
-147.7025836659933
 30
0.0
  0
VERTEX
  5
294
  8
5MM_MATERIAL
 10
189.3282373197362
 20
-147.5953340217976
 30
0.0
  0
VERTEX
  5
295
  8
5MM_MATERIAL
 10
189.1602308477654
 20
-147.4763391558529
 30
0.0
  0
VERTEX
  5
296
  8
5MM_MATERIAL
 10
189.0053150891444
 20
-147.3455990681591
 30
0.0
  0
VERTEX
  5
297
  8
5MM_MATERIAL
 10
188.863490043873
 20
-147.2031137587163
 30
0.0
  0
VERTEX
  5
298
  8
5MM_MATERIAL
 10
188.7347557119514
 20
-147.0488832275243
 30
0.0
  0
VERTEX
  5
299
  8
5MM_MATERIAL
 10
188.6201815296894
 20
-146.8851439848025
 30
0.0
  0
VERTEX
  5
29A
  8
5MM_MATERIAL
 10
188.5208369333971
 20
-146.7141325407697
 30
0.0
  0
VERTEX
  5
29B
  8
5MM_MATERIAL
 10
188.4367219230745
 20
-146.5358488954261
 30
0.0
  0
VERTEX
  5
29C
  8
5MM_MATERIAL
 10
188.3678364987215
 20
-146.3502930487716
 30
0.0
  0
VERTEX
  5
29D
  8
5MM_MATERIAL
 10
188.3141806603381
 20
-146.1574650008063
 30
0.0
  0
VERTEX
  5
29E
  8
5MM_MATERIAL
 10
188.2757544079244
 20
-145.9573647515301
 30
0.0
  0
VERTEX
  5
29F
  8
5MM_MATERIAL
 10
188.2525577414803
 20
-145.749992300943
 30
0.0
  0
VERTEX
  5
2A0
  8
5MM_MATERIAL
 10
188.2445906610059
 20
-145.5353476490451
 30
0.0
  0
VERTEX
  5
2A1
  8
5MM_MATERIAL
 10
188.2489460082333
 20
-145.3612378180872
 30
0.0
  0
VERTEX
  5
2A2
  8
5MM_MATERIAL
 10
188.2625790125942
 20
-145.1902039113542
 30
0.0
  0
VERTEX
  5
2A3
  8
5MM_MATERIAL
 10
188.2854896740886
 20
-145.022245928846
 30
0.0
  0
VERTEX
  5
2A4
  8
5MM_MATERIAL
 10
188.3176779927164
 20
-144.8573638705627
 30
0.0
  0
VERTEX
  5
2A5
  8
5MM_MATERIAL
 10
188.3591439684777
 20
-144.6955577365041
 30
0.0
  0
VERTEX
  5
2A6
  8
5MM_MATERIAL
 10
188.4098876013725
 20
-144.5368275266704
 30
0.0
  0
VERTEX
  5
2A7
  8
5MM_MATERIAL
 10
188.4699088914007
 20
-144.3811732410615
 30
0.0
  0
VERTEX
  5
2A8
  8
5MM_MATERIAL
 10
188.5392078385624
 20
-144.2285948796775
 30
0.0
  0
VERTEX
  5
2A9
  8
5MM_MATERIAL
 10
188.6153375200871
 20
-144.0818675412383
 30
0.0
  0
VERTEX
  5
2AA
  8
5MM_MATERIAL
 10
188.6958510132042
 20
-143.943766324464
 30
0.0
  0
VERTEX
  5
2AB
  8
5MM_MATERIAL
 10
188.7807483179138
 20
-143.8142912293547
 30
0.0
  0
VERTEX
  5
2AC
  8
5MM_MATERIAL
 10
188.8700294342158
 20
-143.6934422559103
 30
0.0
  0
VERTEX
  5
2AD
  8
5MM_MATERIAL
 10
188.9636943621103
 20
-143.5812194041308
 30
0.0
  0
VERTEX
  5
2AE
  8
5MM_MATERIAL
 10
189.0617431015972
 20
-143.4776226740162
 30
0.0
  0
VERTEX
  5
2AF
  8
5MM_MATERIAL
 10
189.1641756526766
 20
-143.3826520655665
 30
0.0
  0
VERTEX
  5
2B0
  8
5MM_MATERIAL
 10
189.2709920153485
 20
-143.2963075787817
 30
0.0
  0
VERTEX
  5
2B1
  8
5MM_MATERIAL
 10
189.3834682541359
 20
-143.2167752486993
 30
0.0
  0
VERTEX
  5
2B2
  8
5MM_MATERIAL
 10
189.5028804335619
 20
-143.1422411103568
 30
0.0
  0
VERTEX
  5
2B3
  8
5MM_MATERIAL
 10
189.6292285536267
 20
-143.0727051637541
 30
0.0
  0
VERTEX
  5
2B4
  8
5MM_MATERIAL
 10
189.76251261433
 20
-143.0081674088912
 30
0.0
  0
VERTEX
  5
2B5
  8
5MM_MATERIAL
 10
190.0498885576528
 20
-142.8940864743849
 30
0.0
  0
VERTEX
  5
2B6
  8
5MM_MATERIAL
 10
190.3650082635302
 20
-142.799998306838
 30
0.0
  0
VERTEX
  5
2B7
  8
5MM_MATERIAL
 10
190.7125620455669
 20
-142.7263216671687
 30
0.0
  0
VERTEX
  5
2B8
  8
5MM_MATERIAL
 10
191.0972402173675
 20
-142.6734753162953
 30
0.0
  0
VERTEX
  5
2B9
  8
5MM_MATERIAL
 10
191.5190427789321
 20
-142.6414592542179
 30
0.0
  0
VERTEX
  5
2BA
  8
5MM_MATERIAL
 10
191.9779697302605
 20
-142.6302734809364
 30
0.0
  0
SEQEND
  5
346
  8
5MM_MATERIAL
  0
POLYLINE
  5
A7
  8
5MM_MATERIAL
 66
     1
 10
0.0
 20
0.0
 30
0.0
 70
     1
  0
VERTEX
  5
2BB
  8
5MM_MATERIAL
 10
194.4770922005148
 20
-148.4243376914563
 30
0.0
  0
VERTEX
  5
2BC
  8
5MM_MATERIAL
 10
192.3147484955333
 20
-148.4278275394003
 30
0.0
  0
VERTEX
  5
2BD
  8
5MM_MATERIAL
 10
191.9059101111361
 20
-148.4357349934939
 30
0.0
  0
VERTEX
  5
2BE
  8
5MM_MATERIAL
 10
191.5593392416754
 20
-148.4580371968323
 30
0.0
  0
VERTEX
  5
2BF
  8
5MM_MATERIAL
 10
191.275035887151
 20
-148.4947341494155
 30
0.0
  0
VERTEX
  5
2C0
  8
5MM_MATERIAL
 10
191.0530000475631
 20
-148.5458258512435
 30
0.0
  0
VERTEX
  5
2C1
  8
5MM_MATERIAL
 10
190.9307622829042
 20
-148.5866311327948
 30
0.0
  0
VERTEX
  5
2C2
  8
5MM_MATERIAL
 10
190.8163150102428
 20
-148.6336056363488
 30
0.0
  0
VERTEX
  5
2C3
  8
5MM_MATERIAL
 10
190.7096582295788
 20
-148.6867493619054
 30
0.0
  0
VERTEX
  5
2C4
  8
5MM_MATERIAL
 10
190.6107919409122
 20
-148.7460623094646
 30
0.0
  0
VERTEX
  5
2C5
  8
5MM_MATERIAL
 10
190.5197161442432
 20
-148.8115444790264
 30
0.0
  0
VERTEX
  5
2C6
  8
5MM_MATERIAL
 10
190.4364308395716
 20
-148.8831958705908
 30
0.0
  0
VERTEX
  5
2C7
  8
5MM_MATERIAL
 10
190.3609360268974
 20
-148.9610164841578
 30
0.0
  0
VERTEX
  5
2C8
  8
5MM_MATERIAL
 10
190.2932317062207
 20
-149.0450063197274
 30
0.0
  0
VERTEX
  5
2C9
  8
5MM_MATERIAL
 10
190.2334239438941
 20
-149.1348454580882
 30
0.0
  0
VERTEX
  5
2CA
  8
5MM_MATERIAL
 10
190.18161880627
 20
-149.2302139800286
 30
0.0
  0
VERTEX
  5
2CB
  8
5MM_MATERIAL
 10
190.1378162933486
 20
-149.3311118855485
 30
0.0
  0
VERTEX
  5
2CC
  8
5MM_MATERIAL
 10
190.1020164051297
 20
-149.4375391746481
 30
0.0
  0
VERTEX
  5
2CD
  8
5MM_MATERIAL
 10
190.0742191416136
 20
-149.5494958473273
 30
0.0
  0
VERTEX
  5
2CE
  8
5MM_MATERIAL
 10
190.0544245028
 20
-149.6669819035862
 30
0.0
  0
VERTEX
  5
2CF
  8
5MM_MATERIAL
 10
190.0426324886891
 20
-149.7899973434246
 30
0.0
  0
VERTEX
  5
2D0
  8
5MM_MATERIAL
 10
190.0388430992807
 20
-149.9185421668427
 30
0.0
  0
VERTEX
  5
2D1
  8
5MM_MATERIAL
 10
190.0427713869253
 20
-150.0411591960178
 30
0.0
  0
VERTEX
  5
2D2
  8
5MM_MATERIAL
 10
190.0541544219413
 20
-150.1600338001617
 30
0.0
  0
VERTEX
  5
2D3
  8
5MM_MATERIAL
 10
190.0729922043287
 20
-150.2751659792746
 30
0.0
  0
VERTEX
  5
2D4
  8
5MM_MATERIAL
 10
190.0992847340875
 20
-150.3865557333564
 30
0.0
  0
VERTEX
  5
2D5
  8
5MM_MATERIAL
 10
190.1330320112176
 20
-150.4942030624072
 30
0.0
  0
VERTEX
  5
2D6
  8
5MM_MATERIAL
 10
190.1742340357191
 20
-150.5981079664269
 30
0.0
  0
VERTEX
  5
2D7
  8
5MM_MATERIAL
 10
190.222890807592
 20
-150.6982704454155
 30
0.0
  0
VERTEX
  5
2D8
  8
5MM_MATERIAL
 10
190.2790023268363
 20
-150.794690499373
 30
0.0
  0
VERTEX
  5
2D9
  8
5MM_MATERIAL
 10
190.3420326711894
 20
-150.8855037963989
 30
0.0
  0
VERTEX
  5
2DA
  8
5MM_MATERIAL
 10
190.4114459183887
 20
-150.9688460045928
 30
0.0
  0
VERTEX
  5
2DB
  8
5MM_MATERIAL
 10
190.4872420684341
 20
-151.0447171239545
 30
0.0
  0
VERTEX
  5
2DC
  8
5MM_MATERIAL
 10
190.5694211213256
 20
-151.1131171544842
 30
0.0
  0
VERTEX
  5
2DD
  8
5MM_MATERIAL
 10
190.6579830770633
 20
-151.1740460961818
 30
0.0
  0
VERTEX
  5
2DE
  8
5MM_MATERIAL
 10
190.7529279356472
 20
-151.2275039490473
 30
0.0
  0
VERTEX
  5
2DF
  8
5MM_MATERIAL
 10
190.8542556970772
 20
-151.2734907130807
 30
0.0
  0
VERTEX
  5
2E0
  8
5MM_MATERIAL
 10
190.9619663613534
 20
-151.3120063882821
 30
0.0
  0
VERTEX
  5
2E1
  8
5MM_MATERIAL
 10
191.0827771138173
 20
-151.344585582464
 30
0.0
  0
VERTEX
  5
2E2
  8
5MM_MATERIAL
 10
191.2234051398104
 20
-151.3727629034389
 30
0.0
  0
VERTEX
  5
2E3
  8
5MM_MATERIAL
 10
191.5641130123842
 20
-151.4159119257681
 30
0.0
  0
VERTEX
  5
2E4
  8
5MM_MATERIAL
 10
191.9840899790749
 20
-151.4414534552696
 30
0.0
  0
VERTEX
  5
2E5
  8
5MM_MATERIAL
 10
192.4833360398825
 20
-151.4493874919434
 30
0.0
  0
VERTEX
  5
2E6
  8
5MM_MATERIAL
 10
194.4819691804491
 20
-151.4461618596167
 30
0.0
  0
SEQEND
  5
347
  8
5MM_MATERIAL
  0
POLYLINE
  5
A8
  8
5MM_MATERIAL
 66
     1
 10
0.0
 20
0.0
 30
0.0
 70
     1
  0
VERTEX
  5
2E7
  8
5MM_MATERIAL
 10
194.4696391183128
 20
-143.8063355202496
 30
0.0
  0
VERTEX
  5
2E8
  8
5MM_MATERIAL
 10
191.9798742845012
 20
-143.810353799428
 30
0.0
  0
VERTEX
  5
2E9
  8
5MM_MATERIAL
 10
191.43419166884
 20
-143.8231717468072
 30
0.0
  0
VERTEX
  5
2EA
  8
5MM_MATERIAL
 10
191.2329881822324
 20
-143.8384180476558
 30
0.0
  0
VERTEX
  5
2EB
  8
5MM_MATERIAL
 10
191.079543243107
 20
-143.8595558999436
 30
0.0
  0
VERTEX
  5
2EC
  8
5MM_MATERIAL
 10
190.8604868942524
 20
-143.9076584781773
 30
0.0
  0
VERTEX
  5
2ED
  8
5MM_MATERIAL
 10
190.6602110655384
 20
-143.9693733287394
 30
0.0
  0
VERTEX
  5
2EE
  8
5MM_MATERIAL
 10
190.478715756965
 20
-144.04470045163
 30
0.0
  0
VERTEX
  5
2EF
  8
5MM_MATERIAL
 10
190.3160009685323
 20
-144.133639846849
 30
0.0
  0
VERTEX
  5
2F0
  8
5MM_MATERIAL
 10
190.1695152592556
 20
-144.2402457739163
 30
0.0
  0
VERTEX
  5
2F1
  8
5MM_MATERIAL
 10
190.0367071881501
 20
-144.3685724923519
 30
0.0
  0
VERTEX
  5
2F2
  8
5MM_MATERIAL
 10
189.9175767552158
 20
-144.5186200021558
 30
0.0
  0
VERTEX
  5
2F3
  8
5MM_MATERIAL
 10
189.8121239604528
 20
-144.690388303328
 30
0.0
  0
VERTEX
  5
2F4
  8
5MM_MATERIAL
 10
189.7258848960403
 20
-144.8800314847154
 30
0.0
  0
VERTEX
  5
2F5
  8
5MM_MATERIAL
 10
189.6643956541576
 20
-145.083703635165
 30
0.0
  0
VERTEX
  5
2F6
  8
5MM_MATERIAL
 10
189.6276562348047
 20
-145.3014047546769
 30
0.0
  0
VERTEX
  5
2F7
  8
5MM_MATERIAL
 10
189.6156666379815
 20
-145.533134843251
 30
0.0
  0
VERTEX
  5
2F8
  8
5MM_MATERIAL
 10
189.6203650845697
 20
-145.6706722041375
 30
0.0
  0
VERTEX
  5
2F9
  8
5MM_MATERIAL
 10
189.6340090559882
 20
-145.803612072588
 30
0.0
  0
VERTEX
  5
2FA
  8
5MM_MATERIAL
 10
189.6565985522369
 20
-145.9319544486024
 30
0.0
  0
VERTEX
  5
2FB
  8
5MM_MATERIAL
 10
189.688133573316
 20
-146.055699332181
 30
0.0
  0
VERTEX
  5
2FC
  8
5MM_MATERIAL
 10
189.7286141192253
 20
-146.1748467233234
 30
0.0
  0
VERTEX
  5
2FD
  8
5MM_MATERIAL
 10
189.7780401899649
 20
-146.28939662203
 30
0.0
  0
VERTEX
  5
2FE
  8
5MM_MATERIAL
 10
189.8364117855348
 20
-146.3993490283005
 30
0.0
  0
VERTEX
  5
2FF
  8
5MM_MATERIAL
 10
189.903728905935
 20
-146.504703942135
 30
0.0
  0
VERTEX
  5
300
  8
5MM_MATERIAL
 10
189.9789765241548
 20
-146.6039175528983
 30
0.0
  0
VERTEX
  5
301
  8
5MM_MATERIAL
 10
190.0611396131835
 20
-146.6954460499553
 30
0.0
  0
VERTEX
  5
302
  8
5MM_MATERIAL
 10
190.1502181730212
 20
-146.7792894333058
 30
0.0
  0
VERTEX
  5
303
  8
5MM_MATERIAL
 10
190.2462122036678
 20
-146.85544770295
 30
0.0
  0
VERTEX
  5
304
  8
5MM_MATERIAL
 10
190.3491217051234
 20
-146.9239208588878
 30
0.0
  0
VERTEX
  5
305
  8
5MM_MATERIAL
 10
190.4589466773879
 20
-146.9847089011193
 30
0.0
  0
VERTEX
  5
306
  8
5MM_MATERIAL
 10
190.5756871204614
 20
-147.0378118296443
 30
0.0
  0
VERTEX
  5
307
  8
5MM_MATERIAL
 10
190.6993430343438
 20
-147.083229644463
 30
0.0
  0
VERTEX
  5
308
  8
5MM_MATERIAL
 10
190.8334336163693
 20
-147.122182366653
 30
0.0
  0
VERTEX
  5
309
  8
5MM_MATERIAL
 10
190.9814780638721
 20
-147.1558900172921
 30
0.0
  0
VERTEX
  5
30A
  8
5MM_MATERIAL
 10
191.3194285553096
 20
-147.2075701039176
 30
0.0
  0
VERTEX
  5
30B
  8
5MM_MATERIAL
 10
191.7131945086563
 20
-147.2382699043396
 30
0.0
  0
VERTEX
  5
30C
  8
5MM_MATERIAL
 10
192.1627759239121
 20
-147.2479894185578
 30
0.0
  0
VERTEX
  5
30D
  8
5MM_MATERIAL
 10
194.4751876462742
 20
-147.2442573729648
 30
0.0
  0
SEQEND
  5
348
  8
5MM_MATERIAL
  0
ENDSEC
  0
EOF
