  0
SECTION
  2
HEADER
  9
$ACADVER
  1
AC1009
  9
$DWGCODEPAGE
  3
ansi_1252
  9
$INSBASE
 10
0.0
 20
0.0
 30
0.0
  9
$EXTMIN
 10
-296.8844916355149
 20
-193.8473748850147
 30
0.0
  9
$EXTMAX
 10
294.8826532148047
 20
191.752640273722
 30
0.0
  9
$LIMMIN
 10
0.0
 20
0.0
  9
$LIMMAX
 10
12.0
 20
9.0
  9
$ORTHOMODE
 70
     0
  9
$REGENMODE
 70
     1
  9
$FILLMODE
 70
     1
  9
$QTEXTMODE
 70
     0
  9
$MIRRTEXT
 70
     1
  9
$DRAGMODE
 70
     2
  9
$LTSCALE
 40
1.0
  9
$OSMODE
 70
    37
  9
$ATTMODE
 70
     1
  9
$TEXTSIZE
 40
0.2
  9
$TRACEWID
 40
0.05
  9
$TEXTSTYLE
  7
STANDARD
  9
$CLAYER
  8
0
  9
$CELTYPE
  6
BYLAYER
  9
$CECOLOR
 62
   256
  9
$DIMSCALE
 40
1.0
  9
$DIMASZ
 40
0.18
  9
$DIMEXO
 40
0.0625
  9
$DIMDLI
 40
0.38
  9
$DIMRND
 40
0.0
  9
$DIMDLE
 40
0.0
  9
$DIMEXE
 40
0.18
  9
$DIMTP
 40
0.0
  9
$DIMTM
 40
0.0
  9
$DIMTXT
 40
0.18
  9
$DIMCEN
 40
0.09
  9
$DIMTSZ
 40
0.0
  9
$DIMTOL
 70
     0
  9
$DIMLIM
 70
     0
  9
$DIMTIH
 70
     1
  9
$DIMTOH
 70
     1
  9
$DIMSE1
 70
     0
  9
$DIMSE2
 70
     0
  9
$DIMTAD
 70
     0
  9
$DIMZIN
 70
     0
  9
$DIMBLK
  1

  9
$DIMASO
 70
     1
  9
$DIMSHO
 70
     1
  9
$DIMPOST
  1

  9
$DIMAPOST
  1

  9
$DIMALT
 70
     0
  9
$DIMALTD
 70
     2
  9
$DIMALTF
 40
25.4
  9
$DIMLFAC
 40
1.0
  9
$DIMTOFL
 70
     0
  9
$DIMTVP
 40
0.0
  9
$DIMTIX
 70
     0
  9
$DIMSOXD
 70
     0
  9
$DIMSAH
 70
     0
  9
$DIMBLK1
  1

  9
$DIMBLK2
  1

  9
$DIMSTYLE
  2
STANDARD
  9
$DIMCLRD
 70
     0
  9
$DIMCLRE
 70
     0
  9
$DIMCLRT
 70
     0
  9
$DIMTFAC
 40
1.0
  9
$DIMGAP
 40
0.09
  9
$LUNITS
 70
     2
  9
$LUPREC
 70
     4
  9
$SKETCHINC
 40
0.1
  9
$FILLETRAD
 40
0.5
  9
$AUNITS
 70
     0
  9
$AUPREC
 70
     0
  9
$MENU
  1
.
  9
$ELEVATION
 40
0.0
  9
$PELEVATION
 40
0.0
  9
$THICKNESS
 40
0.0
  9
$LIMCHECK
 70
     0
  9
$CHAMFERA
 40
0.0
  9
$CHAMFERB
 40
0.0
  9
$SKPOLY
 70
     0
  9
$TDCREATE
 40
2454910.5
  9
$TDUPDATE
 40
2457724.649428414
  9
$TDINDWG
 40
0.0000000116
  9
$TDUSRTIMER
 40
0.0000000116
  9
$USRTIMER
 70
     1
  9
$ANGBASE
 50
0.0
  9
$ANGDIR
 70
     0
  9
$PDMODE
 70
     0
  9
$PDSIZE
 40
0.0
  9
$PLINEWID
 40
0.0
  9
$COORDS
 70
     1
  9
$SPLFRAME
 70
     0
  9
$SPLINETYPE
 70
     6
  9
$SPLINESEGS
 70
     8
  9
$ATTDIA
 70
     0
  9
$ATTREQ
 70
     1
  9
$HANDLING
 70
     1
  9
$HANDSEED
  5
792
  9
$SURFTAB1
 70
     6
  9
$SURFTAB2
 70
     6
  9
$SURFTYPE
 70
     6
  9
$SURFU
 70
     6
  9
$SURFV
 70
     6
  9
$UCSNAME
  2

  9
$UCSORG
 10
0.0
 20
0.0
 30
0.0
  9
$UCSXDIR
 10
1.0
 20
0.0
 30
0.0
  9
$UCSYDIR
 10
0.0
 20
1.0
 30
0.0
  9
$PUCSNAME
  2

  9
$PUCSORG
 10
0.0
 20
0.0
 30
0.0
  9
$PUCSXDIR
 10
1.0
 20
0.0
 30
0.0
  9
$PUCSYDIR
 10
0.0
 20
1.0
 30
0.0
  9
$USERI1
 70
     0
  9
$USERI2
 70
     0
  9
$USERI3
 70
     0
  9
$USERI4
 70
     0
  9
$USERI5
 70
     0
  9
$USERR1
 40
0.0
  9
$USERR2
 40
0.0
  9
$USERR3
 40
0.0
  9
$USERR4
 40
0.0
  9
$USERR5
 40
0.0
  9
$WORLDVIEW
 70
     1
  9
$SHADEDGE
 70
     3
  9
$SHADEDIF
 70
    70
  9
$TILEMODE
 70
     1
  9
$MAXACTVP
 70
    64
  9
$PLIMCHECK
 70
     0
  9
$PEXTMIN
 10
1.000000000000000E+20
 20
1.000000000000000E+20
 30
1.000000000000000E+20
  9
$PEXTMAX
 10
-1.000000000000000E+20
 20
-1.000000000000000E+20
 30
-1.000000000000000E+20
  9
$PLIMMIN
 10
0.0
 20
0.0
  9
$PLIMMAX
 10
12.0
 20
9.0
  9
$UNITMODE
 70
     0
  9
$VISRETAIN
 70
     1
  9
$PLINEGEN
 70
     0
  9
$PSLTSCALE
 70
     1
  0
ENDSEC
  0
SECTION
  2
TABLES
  0
TABLE
  2
VPORT
 70
     1
  0
VPORT
  2
*ACTIVE
 70
     0
 10
0.0
 20
0.0
 11
1.0
 21
1.0
 12
10.42990654205607
 22
4.5
 13
0.0
 23
0.0
 14
0.5
 24
0.5
 15
0.5
 25
0.5
 16
0.0
 26
0.0
 36
1.0
 17
0.0
 27
0.0
 37
0.0
 40
9.0
 41
1.972972972850329
 42
50.0
 43
0.0
 44
0.0
 50
0.0
 51
0.0
 71
     0
 72
   100
 73
     1
 74
     3
 75
     0
 76
     0
 77
     0
 78
     0
  0
ENDTAB
  0
TABLE
  2
LTYPE
 70
     2
  0
LTYPE
  2
CONTINUOUS
 70
     0
  3
Solid line
 72
    65
 73
     0
 40
0.0
  0
LTYPE
  2
CONTINUOUS2
 70
     0
  3
Solid Line
 72
    65
 73
     0
 40
0.0
  0
ENDTAB
  0
TABLE
  2
LAYER
 70
     3
  0
LAYER
  2
0
 70
     0
 62
     7
  6
CONTINUOUS
  0
LAYER
  2
10MM_MATERIAL
 70
     0
 62
    18
  6
CONTINUOUS
  0
LAYER
  2
TEXT_ONLY
 70
     0
 62
     1
  6
CONTINUOUS
  0
ENDTAB
  0
TABLE
  2
STYLE
 70
     1
  0
STYLE
  2
STANDARD
 70
     0
 40
0.0
 41
1.0
 50
0.0
 71
     0
 42
0.2
  3
txt
  4

  0
ENDTAB
  0
TABLE
  2
VIEW
 70
     0
  0
ENDTAB
  0
TABLE
  2
UCS
 70
     0
  0
ENDTAB
  0
TABLE
  2
APPID
 70
     1
  0
APPID
  2
ACAD
 70
     0
  0
ENDTAB
  0
TABLE
  2
DIMSTYLE
 70
     1
  0
DIMSTYLE
  2
STANDARD
 70
     0
  3

  4

  5

  6

  7

 40
1.0
 41
0.18
 42
0.0625
 43
0.38
 44
0.18
 45
0.0
 46
0.0
 47
0.0
 48
0.0
140
0.18
141
0.09
142
0.0
143
25.4
144
1.0
145
0.0
146
1.0
147
0.09
 71
     0
 72
     0
 73
     1
 74
     1
 75
     0
 76
     0
 77
     0
 78
     0
170
     0
171
     2
172
     0
173
     0
174
     0
175
     0
176
     0
177
     0
178
     0
  0
ENDTAB
  0
ENDSEC
  0
SECTION
  2
BLOCKS
  0
BLOCK
  8
0
  2
$MODEL_SPACE
 70
     0
 10
0.0
 20
0.0
 30
0.0
  3
$MODEL_SPACE
  1

  0
ENDBLK
  5
21
  8
0
  0
BLOCK
 67
     1
  8
0
  2
$PAPER_SPACE
 70
     0
 10
0.0
 20
0.0
 30
0.0
  3
$PAPER_SPACE
  1

  0
ENDBLK
  5
1D
 67
     1
  8
0
  0
ENDSEC
  0
SECTION
  2
ENTITIES
  0
POLYLINE
  5
70
  8
10MM_MATERIAL
 66
     1
 10
0.0
 20
0.0
 30
0.0
 70
     1
  0
VERTEX
  5
B1
  8
10MM_MATERIAL
 10
-242.9528758025615
 20
79.7166687189152
 30
0.0
 42
-0.9999999999999998
  0
VERTEX
  5
B2
  8
10MM_MATERIAL
 10
-241.6599987120055
 20
70.81001565344125
 30
0.0
 42
-0.9999999999999998
  0
SEQEND
  5
759
  8
10MM_MATERIAL
  0
POLYLINE
  5
71
  8
10MM_MATERIAL
 66
     1
 10
0.0
 20
0.0
 30
0.0
 70
     1
  0
VERTEX
  5
B3
  8
10MM_MATERIAL
 10
-135.8682614547097
 20
-91.2202922331069
 30
0.0
 42
-0.9999999999999998
  0
VERTEX
  5
B4
  8
10MM_MATERIAL
 10
-134.5753843641538
 20
-100.1269452985806
 30
0.0
 42
-0.9999999999999998
  0
SEQEND
  5
75A
  8
10MM_MATERIAL
  0
POLYLINE
  5
72
  8
10MM_MATERIAL
 66
     1
 10
0.0
 20
0.0
 30
0.0
 70
     1
  0
VERTEX
  5
B5
  8
10MM_MATERIAL
 10
-48.06120214541541
 20
-133.2890638726658
 30
0.0
  0
VERTEX
  5
B6
  8
10MM_MATERIAL
 10
-44.03830963935505
 20
-132.6579407691247
 30
0.0
  0
VERTEX
  5
B7
  8
10MM_MATERIAL
 10
-46.21495921627535
 20
-117.6629634159439
 30
0.0
  0
VERTEX
  5
B8
  8
10MM_MATERIAL
 10
-36.3186780324155
 20
-116.2264333153263
 30
0.0
  0
VERTEX
  5
B9
  8
10MM_MATERIAL
 10
-43.50132853550366
 20
-66.74502739602677
 30
0.0
  0
VERTEX
  5
BA
  8
10MM_MATERIAL
 10
-53.39760971936356
 20
-68.18155749664434
 30
0.0
  0
VERTEX
  5
BB
  8
10MM_MATERIAL
 10
-55.5525025512356
 20
-53.33646279509772
 30
0.0
  0
VERTEX
  5
BC
  8
10MM_MATERIAL
 10
-65.44545458415779
 20
-54.77810184676308
 30
0.0
  0
VERTEX
  5
BD
  8
10MM_MATERIAL
 10
-75.22622742972383
 20
-56.1994200700783
 30
0.0
  0
VERTEX
  5
BE
  8
10MM_MATERIAL
 10
-80.3683822718384
 20
-56.92636289762055
 30
0.0
  0
VERTEX
  5
BF
  8
10MM_MATERIAL
 10
-85.51601654124157
 20
-57.61334983486449
 30
0.0
  0
VERTEX
  5
C0
  8
10MM_MATERIAL
 10
-90.66973977799212
 20
-58.25157031667816
 30
0.0
  0
VERTEX
  5
C1
  8
10MM_MATERIAL
 10
-95.83016152214732
 20
-58.83221377792868
 30
0.0
  0
VERTEX
  5
C2
  8
10MM_MATERIAL
 10
-100.9978913137657
 20
-59.34646965348475
 30
0.0
  0
VERTEX
  5
C3
  8
10MM_MATERIAL
 10
-104.7748805987833
 20
-59.66854358195472
 30
0.0
  0
VERTEX
  5
C4
  8
10MM_MATERIAL
 10
-108.5557637863908
 20
-59.93785600053986
 30
0.0
  0
VERTEX
  5
C5
  8
10MM_MATERIAL
 10
-112.340367175647
 20
-60.15606109147603
 30
0.0
  0
VERTEX
  5
C6
  8
10MM_MATERIAL
 10
-115.1820751140959
 20
-60.27859901305757
 30
0.0
  0
VERTEX
  5
C7
  8
10MM_MATERIAL
 10
-118.0255327821646
 20
-60.36638463914034
 30
0.0
  0
VERTEX
  5
C8
  8
10MM_MATERIAL
 10
-119.6946135127845
 20
-60.37466681045374
 30
0.0
  0
VERTEX
  5
C9
  8
10MM_MATERIAL
 10
-121.3618171554464
 20
-60.31198121193208
 30
0.0
  0
VERTEX
  5
CA
  8
10MM_MATERIAL
 10
-123.0247423218922
 20
-60.17991630110647
 30
0.0
  0
VERTEX
  5
CB
  8
10MM_MATERIAL
 10
-124.680987623863
 20
-59.98006053550796
 30
0.0
  0
VERTEX
  5
CC
  8
10MM_MATERIAL
 10
-126.3281516730995
 20
-59.71400237266703
 30
0.0
  0
VERTEX
  5
CD
  8
10MM_MATERIAL
 10
-127.9638330813428
 20
-59.38333027011536
 30
0.0
  0
VERTEX
  5
CE
  8
10MM_MATERIAL
 10
-129.5856304603346
 20
-58.98963268538326
 30
0.0
  0
VERTEX
  5
CF
  8
10MM_MATERIAL
 10
-131.1911424218148
 20
-58.53449807600223
 30
0.0
  0
VERTEX
  5
D0
  8
10MM_MATERIAL
 10
-132.8491496998549
 20
-57.99561742779927
 30
0.0
  0
VERTEX
  5
D1
  8
10MM_MATERIAL
 10
-134.4854009559778
 20
-57.39504921119966
 30
0.0
  0
VERTEX
  5
D2
  8
10MM_MATERIAL
 10
-136.098766034986
 20
-56.73532852888713
 30
0.0
  0
VERTEX
  5
D3
  8
10MM_MATERIAL
 10
-137.6881147816812
 20
-56.01899048354563
 30
0.0
  0
VERTEX
  5
D4
  8
10MM_MATERIAL
 10
-139.2523170408648
 20
-55.24857017785854
 30
0.0
  0
VERTEX
  5
D5
  8
10MM_MATERIAL
 10
-140.7902426573387
 20
-54.42660271451049
 30
0.0
  0
VERTEX
  5
D6
  8
10MM_MATERIAL
 10
-142.3007614759046
 20
-53.55562319618497
 30
0.0
  0
VERTEX
  5
D7
  8
10MM_MATERIAL
 10
-143.7827433413641
 20
-52.6381667255653
 30
0.0
  0
VERTEX
  5
D8
  8
10MM_MATERIAL
 10
-145.2465316851672
 20
-51.66970991934307
 30
0.0
  0
VERTEX
  5
D9
  8
10MM_MATERIAL
 10
-146.6818474406936
 20
-50.65882521441366
 30
0.0
  0
VERTEX
  5
DA
  8
10MM_MATERIAL
 10
-148.0881401648308
 20
-49.60750662697754
 30
0.0
  0
VERTEX
  5
DB
  8
10MM_MATERIAL
 10
-149.4648594144672
 20
-48.51774817323481
 30
0.0
  0
VERTEX
  5
DC
  8
10MM_MATERIAL
 10
-150.8114547464902
 20
-47.39154386938598
 30
0.0
  0
VERTEX
  5
DD
  8
10MM_MATERIAL
 10
-152.1779913241608
 20
-46.18593055478833
 30
0.0
  0
VERTEX
  5
DE
  8
10MM_MATERIAL
 10
-153.5127610787615
 20
-44.94504835933956
 30
0.0
  0
VERTEX
  5
DF
  8
10MM_MATERIAL
 10
-154.8153565183669
 20
-43.67027336585087
 30
0.0
  0
VERTEX
  5
E0
  8
10MM_MATERIAL
 10
-156.0853701510537
 20
-42.36298165713318
 30
0.0
  0
VERTEX
  5
E1
  8
10MM_MATERIAL
 10
-157.5257262433736
 20
-40.79818736248486
 30
0.0
  0
VERTEX
  5
E2
  8
10MM_MATERIAL
 10
-158.9238458955913
 20
-39.19582036374395
 30
0.0
  0
VERTEX
  5
E3
  8
10MM_MATERIAL
 10
-160.2845983404136
 20
-37.56125029785139
 30
0.0
  0
VERTEX
  5
E4
  8
10MM_MATERIAL
 10
-161.6128528105469
 20
-35.89984680174979
 30
0.0
  0
VERTEX
  5
E5
  8
10MM_MATERIAL
 10
-162.9134785386962
 20
-34.21697951238027
 30
0.0
  0
VERTEX
  5
E6
  8
10MM_MATERIAL
 10
-164.4705606536513
 20
-32.12451957203332
 30
0.0
  0
VERTEX
  5
E7
  8
10MM_MATERIAL
 10
-165.9816725974993
 20
-29.99872148720559
 30
0.0
  0
VERTEX
  5
E8
  8
10MM_MATERIAL
 10
-167.4478033642231
 20
-27.84142541783074
 30
0.0
  0
VERTEX
  5
E9
  8
10MM_MATERIAL
 10
-168.8699419478076
 20
-25.65447152384286
 30
0.0
  0
VERTEX
  5
EA
  8
10MM_MATERIAL
 10
-170.3776484719433
 20
-23.22647376517698
 30
0.0
  0
VERTEX
  5
EB
  8
10MM_MATERIAL
 10
-171.8323079880173
 20
-20.76691442285443
 30
0.0
  0
VERTEX
  5
EC
  8
10MM_MATERIAL
 10
-173.2345118265252
 20
-18.27731142281714
 30
0.0
  0
VERTEX
  5
ED
  8
10MM_MATERIAL
 10
-174.5848513179653
 20
-15.75918269100645
 30
0.0
  0
VERTEX
  5
EE
  8
10MM_MATERIAL
 10
-175.8839177928336
 20
-13.21404615336274
 30
0.0
  0
VERTEX
  5
EF
  8
10MM_MATERIAL
 10
-177.1323025816273
 20
-10.64341973582816
 30
0.0
  0
VERTEX
  5
F0
  8
10MM_MATERIAL
 10
-178.3305970148427
 20
-8.04882136434349
 30
0.0
  0
VERTEX
  5
F1
  8
10MM_MATERIAL
 10
-179.4793924229772
 20
-5.431768964850276
 30
0.0
  0
VERTEX
  5
F2
  8
10MM_MATERIAL
 10
-180.7382546624084
 20
-2.403985729047757
 30
0.0
  0
VERTEX
  5
F3
  8
10MM_MATERIAL
 10
-181.935478983369
 20
0.6477377765458039
 30
0.0
  0
VERTEX
  5
F4
  8
10MM_MATERIAL
 10
-183.0722463265935
 20
3.72211435808037
 30
0.0
  0
VERTEX
  5
F5
  8
10MM_MATERIAL
 10
-184.1497376328157
 20
6.817856821705227
 30
0.0
  0
VERTEX
  5
F6
  8
10MM_MATERIAL
 10
-185.1691338427704
 20
9.933677973570463
 30
0.0
  0
VERTEX
  5
F7
  8
10MM_MATERIAL
 10
-186.1316158971914
 20
13.06829061982501
 30
0.0
  0
VERTEX
  5
F8
  8
10MM_MATERIAL
 10
-187.0383647368126
 20
16.22040756661908
 30
0.0
  0
VERTEX
  5
F9
  8
10MM_MATERIAL
 10
-188.023707062321
 20
19.89408478508818
 30
0.0
  0
VERTEX
  5
FA
  8
10MM_MATERIAL
 10
-188.9417359774965
 20
23.58359036595228
 30
0.0
  0
VERTEX
  5
FB
  8
10MM_MATERIAL
 10
-189.7947268103978
 20
27.28778243178323
 30
0.0
  0
VERTEX
  5
FC
  8
10MM_MATERIAL
 10
-190.5849548890843
 20
31.00551910515424
 30
0.0
  0
VERTEX
  5
FD
  8
10MM_MATERIAL
 10
-191.314695541614
 20
34.7356585086378
 30
0.0
  0
VERTEX
  5
FE
  8
10MM_MATERIAL
 10
-191.9862240960459
 20
38.47705876480654
 30
0.0
  0
VERTEX
  5
FF
  8
10MM_MATERIAL
 10
-192.601815880439
 20
42.22857799623284
 30
0.0
  0
VERTEX
  5
100
  8
10MM_MATERIAL
 10
-193.163746222852
 20
45.9890743254896
 30
0.0
  0
VERTEX
  5
101
  8
10MM_MATERIAL
 10
-193.6742904513434
 20
49.75740587514871
 30
0.0
  0
VERTEX
  5
102
  8
10MM_MATERIAL
 10
-194.135723893972
 20
53.53243076778329
 30
0.0
  0
VERTEX
  5
103
  8
10MM_MATERIAL
 10
-194.5503218787972
 20
57.31300712596627
 30
0.0
  0
VERTEX
  5
104
  8
10MM_MATERIAL
 10
-194.9203597338771
 20
61.09799307226933
 30
0.0
  0
VERTEX
  5
105
  8
10MM_MATERIAL
 10
-195.2481127872706
 20
64.88624672926545
 30
0.0
  0
VERTEX
  5
106
  8
10MM_MATERIAL
 10
-195.5358563670365
 20
68.67662621952742
 30
0.0
  0
VERTEX
  5
107
  8
10MM_MATERIAL
 10
-195.7858658012334
 20
72.46798966562737
 30
0.0
  0
VERTEX
  5
108
  8
10MM_MATERIAL
 10
-195.8722439353734
 20
74.40359824810321
 30
0.0
  0
VERTEX
  5
109
  8
10MM_MATERIAL
 10
-195.8956334586974
 20
76.3423360619558
 30
0.0
  0
VERTEX
  5
10A
  8
10MM_MATERIAL
 10
-195.8571417125353
 20
78.28166131094721
 30
0.0
  0
VERTEX
  5
10B
  8
10MM_MATERIAL
 10
-195.757876038217
 20
80.21903219883859
 30
0.0
  0
VERTEX
  5
10C
  8
10MM_MATERIAL
 10
-195.598943777072
 20
82.15190692939106
 30
0.0
  0
VERTEX
  5
10D
  8
10MM_MATERIAL
 10
-195.3814522704296
 20
84.07774370636605
 30
0.0
  0
VERTEX
  5
10E
  8
10MM_MATERIAL
 10
-195.1049243789782
 20
86.00236245553732
 30
0.0
  0
VERTEX
  5
10F
  8
10MM_MATERIAL
 10
-194.7696367433272
 20
87.91854231897034
 30
0.0
  0
VERTEX
  5
110
  8
10MM_MATERIAL
 10
-194.375304336974
 20
89.82385525573387
 30
0.0
  0
VERTEX
  5
111
  8
10MM_MATERIAL
 10
-193.921642133416
 20
91.71587322489793
 30
0.0
  0
VERTEX
  5
112
  8
10MM_MATERIAL
 10
-193.4083651061511
 20
93.59216818553197
 30
0.0
  0
VERTEX
  5
113
  8
10MM_MATERIAL
 10
-192.8351882286772
 20
95.45031209670529
 30
0.0
  0
VERTEX
  5
114
  8
10MM_MATERIAL
 10
-192.3276857389535
 20
96.94626033138596
 30
0.0
  0
VERTEX
  5
115
  8
10MM_MATERIAL
 10
-191.780435823869
 20
98.42898330406537
 30
0.0
  0
VERTEX
  5
116
  8
10MM_MATERIAL
 10
-191.1867806631246
 20
99.89345102473237
 30
0.0
  0
VERTEX
  5
117
  8
10MM_MATERIAL
 10
-190.54006243642
 20
101.3346335033765
 30
0.0
  0
VERTEX
  5
118
  8
10MM_MATERIAL
 10
-189.8336233234558
 20
102.7475007499856
 30
0.0
  0
VERTEX
  5
119
  8
10MM_MATERIAL
 10
-189.2926637572915
 20
103.7255456345453
 30
0.0
  0
VERTEX
  5
11A
  8
10MM_MATERIAL
 10
-188.7130844207376
 20
104.6814646074196
 30
0.0
  0
VERTEX
  5
11B
  8
10MM_MATERIAL
 10
-188.0932518384105
 20
105.6113892909615
 30
0.0
  0
VERTEX
  5
11C
  8
10MM_MATERIAL
 10
-187.4315325349266
 20
106.5114513075234
 30
0.0
  0
VERTEX
  5
11D
  8
10MM_MATERIAL
 10
-186.7262930349028
 20
107.377782279458
 30
0.0
  0
VERTEX
  5
11E
  8
10MM_MATERIAL
 10
-185.9758998629553
 20
108.206513829118
 30
0.0
  0
VERTEX
  5
11F
  8
10MM_MATERIAL
 10
-184.5775989774516
 20
109.7357951521019
 30
0.0
  0
VERTEX
  5
120
  8
10MM_MATERIAL
 10
-183.1308702973017
 20
111.2127767451946
 30
0.0
  0
VERTEX
  5
121
  8
10MM_MATERIAL
 10
-181.6372516507499
 20
112.6365098076299
 30
0.0
  0
VERTEX
  5
122
  8
10MM_MATERIAL
 10
-180.0982808660408
 20
114.0060455386411
 30
0.0
  0
VERTEX
  5
123
  8
10MM_MATERIAL
 10
-178.5154957714185
 20
115.3204351374631
 30
0.0
  0
VERTEX
  5
124
  8
10MM_MATERIAL
 10
-176.8904341951277
 20
116.5787298033294
 30
0.0
  0
VERTEX
  5
125
  8
10MM_MATERIAL
 10
-175.2246339654124
 20
117.7799807354737
 30
0.0
  0
VERTEX
  5
126
  8
10MM_MATERIAL
 10
-176.0869258041615
 20
123.7203244116271
 30
0.0
  0
VERTEX
  5
127
  8
10MM_MATERIAL
 10
109.2274000290346
 20
165.1361461311302
 30
0.0
  0
VERTEX
  5
128
  8
10MM_MATERIAL
 10
106.3168265915775
 20
185.187137844402
 30
0.0
  0
VERTEX
  5
129
  8
10MM_MATERIAL
 10
83.37103304226004
 20
181.8563590898622
 30
0.0
  0
VERTEX
  5
12A
  8
10MM_MATERIAL
 10
81.93450294164244
 20
191.752640273722
 30
0.0
  0
VERTEX
  5
12B
  8
10MM_MATERIAL
 10
-258.6891506406191
 20
142.3081952076992
 30
0.0
  0
VERTEX
  5
12C
  8
10MM_MATERIAL
 10
-257.2526205400017
 20
132.4119140238395
 30
0.0
  0
VERTEX
  5
12D
  8
10MM_MATERIAL
 10
-280.1984140893192
 20
129.0811352692996
 30
0.0
  0
VERTEX
  5
12E
  8
10MM_MATERIAL
 10
-277.2822592670703
 20
108.99169329782
 30
0.0
  0
VERTEX
  5
12F
  8
10MM_MATERIAL
 10
-296.8844916355149
 20
106.1462611286801
 30
0.0
  0
VERTEX
  5
130
  8
10MM_MATERIAL
 10
-296.7708807462071
 20
102.625811839921
 30
0.0
  0
VERTEX
  5
131
  8
10MM_MATERIAL
 10
-296.5876639159819
 20
99.10989391504071
 30
0.0
  0
VERTEX
  5
132
  8
10MM_MATERIAL
 10
-296.3375371671364
 20
95.59883552498238
 30
0.0
  0
VERTEX
  5
133
  8
10MM_MATERIAL
 10
-296.023196521968
 20
92.09296484068928
 30
0.0
  0
VERTEX
  5
134
  8
10MM_MATERIAL
 10
-295.6473380027739
 20
88.59261003310453
 30
0.0
  0
VERTEX
  5
135
  8
10MM_MATERIAL
 10
-295.2126576318503
 20
85.09809927317103
 30
0.0
  0
VERTEX
  5
136
  8
10MM_MATERIAL
 10
-294.7218514314949
 20
81.60976073183173
 30
0.0
  0
VERTEX
  5
137
  8
10MM_MATERIAL
 10
-294.177615424006
 20
78.12792258003049
 30
0.0
  0
VERTEX
  5
138
  8
10MM_MATERIAL
 10
-293.5826456316788
 20
74.65291298870977
 30
0.0
  0
VERTEX
  5
139
  8
10MM_MATERIAL
 10
-292.9396380768121
 20
71.1850601288132
 30
0.0
  0
VERTEX
  5
13A
  8
10MM_MATERIAL
 10
-292.0190607038649
 20
66.59097359460655
 30
0.0
  0
VERTEX
  5
13B
  8
10MM_MATERIAL
 10
-291.030143745258
 20
62.01127863533574
 30
0.0
  0
VERTEX
  5
13C
  8
10MM_MATERIAL
 10
-289.9776818427271
 20
57.44559769035276
 30
0.0
  0
VERTEX
  5
13D
  8
10MM_MATERIAL
 10
-288.866469638009
 20
52.89355319900977
 30
0.0
  0
VERTEX
  5
13E
  8
10MM_MATERIAL
 10
-287.7013017728391
 20
48.35476760065873
 30
0.0
  0
VERTEX
  5
13F
  8
10MM_MATERIAL
 10
-286.4869728889553
 20
43.8288633346519
 30
0.0
  0
VERTEX
  5
140
  8
10MM_MATERIAL
 10
-285.2282776280924
 20
39.31546284034135
 30
0.0
  0
VERTEX
  5
141
  8
10MM_MATERIAL
 10
-283.9300106319872
 20
34.81418855707894
 30
0.0
  0
VERTEX
  5
142
  8
10MM_MATERIAL
 10
-282.111796534621
 20
28.740904776077
 30
0.0
  0
VERTEX
  5
143
  8
10MM_MATERIAL
 10
-280.2219719141661
 20
22.68866320582385
 30
0.0
  0
VERTEX
  5
144
  8
10MM_MATERIAL
 10
-278.2630195059024
 20
16.65802223385244
 30
0.0
  0
VERTEX
  5
145
  8
10MM_MATERIAL
 10
-276.2374220451095
 20
10.6495402476961
 30
0.0
  0
VERTEX
  5
146
  8
10MM_MATERIAL
 10
-274.1476622670681
 20
4.663775634887671
 30
0.0
  0
VERTEX
  5
147
  8
10MM_MATERIAL
 10
-272.6323837114808
 20
0.322452571328796
 30
0.0
  0
VERTEX
  5
148
  8
10MM_MATERIAL
 10
-271.0492027518227
 20
-3.994881106679332
 30
0.0
  0
VERTEX
  5
149
  8
10MM_MATERIAL
 10
-269.3980723200944
 20
-8.286614345474666
 30
0.0
  0
VERTEX
  5
14A
  8
10MM_MATERIAL
 10
-267.6789453482957
 20
-12.55113609139659
 30
0.0
  0
VERTEX
  5
14B
  8
10MM_MATERIAL
 10
-265.8917747684261
 20
-16.78683529078394
 30
0.0
  0
VERTEX
  5
14C
  8
10MM_MATERIAL
 10
-264.0365135124856
 20
-20.99210088997502
 30
0.0
  0
VERTEX
  5
14D
  8
10MM_MATERIAL
 10
-262.113114512474
 20
-25.16532183530963
 30
0.0
  0
VERTEX
  5
14E
  8
10MM_MATERIAL
 10
-260.1215307003908
 20
-29.30488707312547
 30
0.0
  0
VERTEX
  5
14F
  8
10MM_MATERIAL
 10
-258.2930394342126
 20
-32.95557219009436
 30
0.0
  0
VERTEX
  5
150
  8
10MM_MATERIAL
 10
-256.4085979755152
 20
-36.57822246652741
 30
0.0
  0
VERTEX
  5
151
  8
10MM_MATERIAL
 10
-254.4679097475139
 20
-40.17126460050066
 30
0.0
  0
VERTEX
  5
152
  8
10MM_MATERIAL
 10
-252.4706781734253
 20
-43.73312529009129
 30
0.0
  0
VERTEX
  5
153
  8
10MM_MATERIAL
 10
-250.4166066764645
 20
-47.26223123337537
 30
0.0
  0
VERTEX
  5
154
  8
10MM_MATERIAL
 10
-248.3053986798477
 20
-50.7570091284293
 30
0.0
  0
VERTEX
  5
155
  8
10MM_MATERIAL
 10
-246.1367576067905
 20
-54.21588567332952
 30
0.0
  0
VERTEX
  5
156
  8
10MM_MATERIAL
 10
-243.9103868805087
 20
-57.63728756615259
 30
0.0
  0
VERTEX
  5
157
  8
10MM_MATERIAL
 10
-241.625989924218
 20
-61.01964150497476
 30
0.0
  0
VERTEX
  5
158
  8
10MM_MATERIAL
 10
-239.5189220558942
 20
-64.03006321346919
 30
0.0
  0
VERTEX
  5
159
  8
10MM_MATERIAL
 10
-237.362167985063
 20
-67.0073189161281
 30
0.0
  0
VERTEX
  5
15A
  8
10MM_MATERIAL
 10
-235.1559279013313
 20
-69.94861940390187
 30
0.0
  0
VERTEX
  5
15B
  8
10MM_MATERIAL
 10
-232.9004019943076
 20
-72.85117546774188
 30
0.0
  0
VERTEX
  5
15C
  8
10MM_MATERIAL
 10
-230.5957904535994
 20
-75.71219789859852
 30
0.0
  0
VERTEX
  5
15D
  8
10MM_MATERIAL
 10
-228.2417547412611
 20
-78.52989734881777
 30
0.0
  0
VERTEX
  5
15E
  8
10MM_MATERIAL
 10
-225.8369778843616
 20
-81.30361147053596
 30
0.0
  0
VERTEX
  5
15F
  8
10MM_MATERIAL
 10
-223.3801924200333
 20
-84.03224155438933
 30
0.0
  0
VERTEX
  5
160
  8
10MM_MATERIAL
 10
-220.8701308854069
 20
-86.71468889101477
 30
0.0
  0
VERTEX
  5
161
  8
10MM_MATERIAL
 10
-218.3055258176144
 20
-89.349854771049
 30
0.0
  0
VERTEX
  5
162
  8
10MM_MATERIAL
 10
-216.1283301827249
 20
-91.50667817845505
 30
0.0
  0
VERTEX
  5
163
  8
10MM_MATERIAL
 10
-213.9168193048314
 20
-93.62444353789714
 30
0.0
  0
VERTEX
  5
164
  8
10MM_MATERIAL
 10
-211.6703589190978
 20
-95.70199084342221
 30
0.0
  0
VERTEX
  5
165
  8
10MM_MATERIAL
 10
-209.3883147606893
 20
-97.73816008907708
 30
0.0
  0
VERTEX
  5
166
  8
10MM_MATERIAL
 10
-207.0700525647696
 20
-99.73179126890896
 30
0.0
  0
VERTEX
  5
167
  8
10MM_MATERIAL
 10
-204.7149380665047
 20
-101.6817243769645
 30
0.0
  0
VERTEX
  5
168
  8
10MM_MATERIAL
 10
-202.3220258066195
 20
-103.5869099842617
 30
0.0
  0
VERTEX
  5
169
  8
10MM_MATERIAL
 10
-199.8902658467713
 20
-105.4464524346636
 30
0.0
  0
VERTEX
  5
16A
  8
10MM_MATERIAL
 10
-197.4188672035227
 20
-107.2594223814868
 30
0.0
  0
VERTEX
  5
16B
  8
10MM_MATERIAL
 10
-194.9124736876012
 20
-109.0271387019528
 30
0.0
  0
VERTEX
  5
16C
  8
10MM_MATERIAL
 10
-192.3731299208849
 20
-110.7455322735439
 30
0.0
  0
VERTEX
  5
16D
  8
10MM_MATERIAL
 10
-189.7961461366617
 20
-112.4055917499673
 30
0.0
  0
VERTEX
  5
16E
  8
10MM_MATERIAL
 10
-187.8342285027024
 20
-113.6049573427126
 30
0.0
  0
VERTEX
  5
16F
  8
10MM_MATERIAL
 10
-185.8516292732037
 20
-114.7722400325002
 30
0.0
  0
VERTEX
  5
170
  8
10MM_MATERIAL
 10
-181.8627880883669
 20
-117.0674195986952
 30
0.0
  0
VERTEX
  5
171
  8
10MM_MATERIAL
 10
-179.86141619356
 20
-118.2023010196287
 30
0.0
  0
VERTEX
  5
172
  8
10MM_MATERIAL
 10
-177.8463394511075
 20
-119.3121221399154
 30
0.0
  0
VERTEX
  5
173
  8
10MM_MATERIAL
 10
-175.8103191063166
 20
-120.3836463754208
 30
0.0
  0
VERTEX
  5
174
  8
10MM_MATERIAL
 10
-173.7535739289183
 20
-121.4172737623489
 30
0.0
  0
VERTEX
  5
175
  8
10MM_MATERIAL
 10
-170.986431967628
 20
-122.7344852875035
 30
0.0
  0
VERTEX
  5
176
  8
10MM_MATERIAL
 10
-168.1975797304206
 20
-123.9810899960145
 30
0.0
  0
VERTEX
  5
177
  8
10MM_MATERIAL
 10
-165.3878561585287
 20
-125.1590065424377
 30
0.0
  0
VERTEX
  5
178
  8
10MM_MATERIAL
 10
-162.5581001931844
 20
-126.2701535813292
 30
0.0
  0
VERTEX
  5
179
  8
10MM_MATERIAL
 10
-159.70915077562
 20
-127.3164497672444
 30
0.0
  0
VERTEX
  5
17A
  8
10MM_MATERIAL
 10
-156.8418468470678
 20
-128.2998137547398
 30
0.0
  0
VERTEX
  5
17B
  8
10MM_MATERIAL
 10
-153.956528263765
 20
-129.2215391775959
 30
0.0
  0
VERTEX
  5
17C
  8
10MM_MATERIAL
 10
-151.0532261295349
 20
-130.0824872987222
 30
0.0
  0
VERTEX
  5
17D
  8
10MM_MATERIAL
 10
-148.1323162569909
 20
-130.8839282163664
 30
0.0
  0
VERTEX
  5
17E
  8
10MM_MATERIAL
 10
-145.194174458744
 20
-131.6271320287766
 30
0.0
  0
VERTEX
  5
17F
  8
10MM_MATERIAL
 10
-142.2391765474069
 20
-132.3133688342003
 30
0.0
  0
VERTEX
  5
180
  8
10MM_MATERIAL
 10
-139.2676983355916
 20
-132.9439087308862
 30
0.0
  0
VERTEX
  5
181
  8
10MM_MATERIAL
 10
-136.2791412252621
 20
-133.5210168658103
 30
0.0
  0
VERTEX
  5
182
  8
10MM_MATERIAL
 10
-133.2747666161
 20
-134.0467587578889
 30
0.0
  0
VERTEX
  5
183
  8
10MM_MATERIAL
 10
-130.2577403172963
 20
-134.5221050632768
 30
0.0
  0
VERTEX
  5
184
  8
10MM_MATERIAL
 10
-127.2312281380403
 20
-134.9480264381297
 30
0.0
  0
VERTEX
  5
185
  8
10MM_MATERIAL
 10
-124.1983958875218
 20
-135.325493538602
 30
0.0
  0
VERTEX
  5
186
  8
10MM_MATERIAL
 10
-121.162409374931
 20
-135.6554770208496
 30
0.0
  0
VERTEX
  5
187
  8
10MM_MATERIAL
 10
-117.5170224896906
 20
-135.990928010555
 30
0.0
  0
VERTEX
  5
188
  8
10MM_MATERIAL
 10
-113.8685697811644
 20
-136.2633310510021
 30
0.0
  0
VERTEX
  5
189
  8
10MM_MATERIAL
 10
-110.2171830241182
 20
-136.4753960598592
 30
0.0
  0
VERTEX
  5
18A
  8
10MM_MATERIAL
 10
-106.5629939933161
 20
-136.6298329547946
 30
0.0
  0
VERTEX
  5
18B
  8
10MM_MATERIAL
 10
-102.9061344635232
 20
-136.7293516534768
 30
0.0
  0
VERTEX
  5
18C
  8
10MM_MATERIAL
 10
-99.24622008248974
 20
-136.776566396033
 30
0.0
  0
VERTEX
  5
18D
  8
10MM_MATERIAL
 10
-95.58349710536837
 20
-136.7739591022569
 30
0.0
  0
VERTEX
  5
18E
  8
10MM_MATERIAL
 10
-91.9190432180307
 20
-136.7240412093136
 30
0.0
  0
VERTEX
  5
18F
  8
10MM_MATERIAL
 10
-88.25393610634653
 20
-136.6293241543689
 30
0.0
  0
VERTEX
  5
190
  8
10MM_MATERIAL
 10
-84.58925345618712
 20
-136.492319374589
 30
0.0
  0
VERTEX
  5
191
  8
10MM_MATERIAL
 10
-79.35689419057915
 20
-136.2289360841681
 30
0.0
  0
VERTEX
  5
192
  8
10MM_MATERIAL
 10
-74.12885355457253
 20
-135.8918372360355
 30
0.0
  0
VERTEX
  5
193
  8
10MM_MATERIAL
 10
-68.90535361464902
 20
-135.4864072371332
 30
0.0
  0
VERTEX
  5
194
  8
10MM_MATERIAL
 10
-63.68661643728973
 20
-135.0180304944035
 30
0.0
  0
VERTEX
  5
195
  8
10MM_MATERIAL
 10
-58.47286408897641
 20
-134.4920914147875
 30
0.0
  0
VERTEX
  5
196
  8
10MM_MATERIAL
 10
-53.26431863619124
 20
-133.9139744052276
 30
0.0
  0
SEQEND
  5
75B
  8
10MM_MATERIAL
  0
POLYLINE
  5
73
  8
10MM_MATERIAL
 66
     1
 10
0.0
 20
0.0
 30
0.0
 70
     1
  0
VERTEX
  5
197
  8
10MM_MATERIAL
 10
197.8895416939612
 20
153.6904765928388
 30
0.0
  0
VERTEX
  5
198
  8
10MM_MATERIAL
 10
197.8532493205067
 20
143.690542449874
 30
0.0
  0
VERTEX
  5
199
  8
10MM_MATERIAL
 10
224.9012341488582
 20
143.5923782467359
 30
0.0
  0
VERTEX
  5
19A
  8
10MM_MATERIAL
 10
224.9375265223125
 20
153.5923123897005
 30
0.0
  0
SEQEND
  5
75C
  8
10MM_MATERIAL
  0
POLYLINE
  5
74
  8
10MM_MATERIAL
 66
     1
 10
0.0
 20
0.0
 30
0.0
 70
     1
  0
VERTEX
  5
19B
  8
10MM_MATERIAL
 10
221.5365060444128
 20
133.9340587736955
 30
0.0
 42
0.9999999999999998
  0
VERTEX
  5
19C
  8
10MM_MATERIAL
 10
230.536446773081
 20
133.9013956375869
 30
0.0
 42
0.9999999999999998
  0
SEQEND
  5
75D
  8
10MM_MATERIAL
  0
POLYLINE
  5
75
  8
10MM_MATERIAL
 66
     1
 10
0.0
 20
0.0
 30
0.0
 70
     1
  0
VERTEX
  5
19D
  8
10MM_MATERIAL
 10
36.69518473753713
 20
53.1860235837547
 30
0.0
 42
0.9999999999999998
  0
VERTEX
  5
19E
  8
10MM_MATERIAL
 10
45.69512546620528
 20
53.15336044764577
 30
0.0
 42
0.9999999999999998
  0
SEQEND
  5
75E
  8
10MM_MATERIAL
  0
POLYLINE
  5
76
  8
10MM_MATERIAL
 66
     1
 10
0.0
 20
0.0
 30
0.0
 70
     1
  0
VERTEX
  5
19F
  8
10MM_MATERIAL
 10
27.371649014289
 20
20.2181596665919
 30
0.0
 42
-0.9999999999999998
  0
VERTEX
  5
1A0
  8
10MM_MATERIAL
 10
43.37154364303245
 20
20.16009186906515
 30
0.0
 42
-0.9999999999999998
  0
SEQEND
  5
75F
  8
10MM_MATERIAL
  0
POLYLINE
  5
77
  8
10MM_MATERIAL
 66
     1
 10
0.0
 20
0.0
 30
0.0
 70
     1
  0
VERTEX
  5
1A1
  8
10MM_MATERIAL
 10
27.97634093994359
 20
-11.34311612433405
 30
0.0
 42
0.9999999999999998
  0
VERTEX
  5
1A2
  8
10MM_MATERIAL
 10
34.16249558595684
 20
-11.36556729565675
 30
0.0
 42
0.9999999999999998
  0
SEQEND
  5
760
  8
10MM_MATERIAL
  0
POLYLINE
  5
78
  8
10MM_MATERIAL
 66
     1
 10
0.0
 20
0.0
 30
0.0
 70
     1
  0
VERTEX
  5
1A3
  8
10MM_MATERIAL
 10
59.14615310280995
 20
55.85567632440365
 30
0.0
  0
VERTEX
  5
1A4
  8
10MM_MATERIAL
 10
64.07700490220817
 20
64.55548669776051
 30
0.0
  0
VERTEX
  5
1A5
  8
10MM_MATERIAL
 10
37.5425832634695
 20
79.5945846859256
 30
0.0
  0
VERTEX
  5
1A6
  8
10MM_MATERIAL
 10
32.61173146407108
 20
70.89477431256893
 30
0.0
  0
SEQEND
  5
761
  8
10MM_MATERIAL
  0
POLYLINE
  5
79
  8
10MM_MATERIAL
 66
     1
 10
0.0
 20
0.0
 30
0.0
 70
     1
  0
VERTEX
  5
1A7
  8
10MM_MATERIAL
 10
271.6575472415703
 20
115.1500327595003
 30
0.0
 42
0.9999999999999998
  0
VERTEX
  5
1A8
  8
10MM_MATERIAL
 10
287.6574418703138
 20
115.0919649619737
 30
0.0
 42
0.9999999999999998
  0
SEQEND
  5
762
  8
10MM_MATERIAL
  0
POLYLINE
  5
7A
  8
10MM_MATERIAL
 66
     1
 10
0.0
 20
0.0
 30
0.0
 70
     1
  0
VERTEX
  5
1A9
  8
10MM_MATERIAL
 10
294.2402500352557
 20
-3.734713104656448
 30
0.0
  0
VERTEX
  5
1AA
  8
10MM_MATERIAL
 10
294.8826532148047
 20
173.2718829729458
 30
0.0
  0
VERTEX
  5
1AB
  8
10MM_MATERIAL
 10
264.5858351982914
 20
173.4665587131593
 30
0.0
  0
VERTEX
  5
1AC
  8
10MM_MATERIAL
 10
264.6222249942914
 20
183.4933364859572
 30
0.0
  0
VERTEX
  5
1AD
  8
10MM_MATERIAL
 10
229.458064378146
 20
184.5995399745071
 30
0.0
  0
VERTEX
  5
1AE
  8
10MM_MATERIAL
 10
225.3666032739564
 20
184.39535177564
 30
0.0
  0
VERTEX
  5
1AF
  8
10MM_MATERIAL
 10
221.2396692001226
 20
184.1352063784453
 30
0.0
  0
VERTEX
  5
1B0
  8
10MM_MATERIAL
 10
217.0851154528492
 20
183.822403331029
 30
0.0
  0
VERTEX
  5
1B1
  8
10MM_MATERIAL
 10
212.9107953283419
 20
183.4602421814983
 30
0.0
  0
VERTEX
  5
1B2
  8
10MM_MATERIAL
 10
208.7245621228046
 20
183.0520224779596
 30
0.0
  0
VERTEX
  5
1B3
  8
10MM_MATERIAL
 10
204.5342691324426
 20
182.601043768519
 30
0.0
  0
VERTEX
  5
1B4
  8
10MM_MATERIAL
 10
200.3477696534613
 20
182.1106056012836
 30
0.0
  0
VERTEX
  5
1B5
  8
10MM_MATERIAL
 10
196.1729169820648
 20
181.5840075243605
 30
0.0
  0
VERTEX
  5
1B6
  8
10MM_MATERIAL
 10
192.0175644144585
 20
181.0245490858552
 30
0.0
  0
VERTEX
  5
1B7
  8
10MM_MATERIAL
 10
187.8895652468474
 20
180.4355298338751
 30
0.0
  0
VERTEX
  5
1B8
  8
10MM_MATERIAL
 10
183.7967727754362
 20
179.8202493165265
 30
0.0
  0
VERTEX
  5
1B9
  8
10MM_MATERIAL
 10
179.7470402964296
 20
179.1820070819165
 30
0.0
  0
VERTEX
  5
1BA
  8
10MM_MATERIAL
 10
175.2984104090968
 20
178.4450170073595
 30
0.0
  0
VERTEX
  5
1BB
  8
10MM_MATERIAL
 10
170.8210070181218
 20
177.6642205457069
 30
0.0
  0
VERTEX
  5
1BC
  8
10MM_MATERIAL
 10
166.3303463736925
 20
176.8439731288128
 30
0.0
  0
VERTEX
  5
1BD
  8
10MM_MATERIAL
 10
161.8419447259959
 20
175.9886301885339
 30
0.0
  0
VERTEX
  5
1BE
  8
10MM_MATERIAL
 10
157.3713183252203
 20
175.1025471567253
 30
0.0
  0
VERTEX
  5
1BF
  8
10MM_MATERIAL
 10
152.9339834215527
 20
174.1900794652435
 30
0.0
  0
VERTEX
  5
1C0
  8
10MM_MATERIAL
 10
149.2840800324191
 20
173.4034882633688
 30
0.0
  0
VERTEX
  5
1C1
  8
10MM_MATERIAL
 10
145.643219468357
 20
172.5764750904533
 30
0.0
  0
VERTEX
  5
1C2
  8
10MM_MATERIAL
 10
142.0107784955033
 20
171.7133362875075
 30
0.0
  0
VERTEX
  5
1C3
  8
10MM_MATERIAL
 10
140.1457469482
 20
171.2415655056683
 30
0.0
  0
VERTEX
  5
1C4
  8
10MM_MATERIAL
 10
138.2860629846533
 20
170.747921285005
 30
0.0
  0
VERTEX
  5
1C5
  8
10MM_MATERIAL
 10
134.5043830120012
 20
169.7102545573142
 30
0.0
  0
VERTEX
  5
1C6
  8
10MM_MATERIAL
 10
130.7433412244542
 20
168.6243244442688
 30
0.0
  0
VERTEX
  5
1C7
  8
10MM_MATERIAL
 10
127.0033530561638
 20
167.4890200729421
 30
0.0
  0
VERTEX
  5
1C8
  8
10MM_MATERIAL
 10
123.2848339412798
 20
166.3032305704094
 30
0.0
  0
VERTEX
  5
1C9
  8
10MM_MATERIAL
 10
119.5881993139537
 20
165.0658450637454
 30
0.0
  0
VERTEX
  5
1CA
  8
10MM_MATERIAL
 10
115.9138646083355
 20
163.7757526800242
 30
0.0
  0
VERTEX
  5
1CB
  8
10MM_MATERIAL
 10
112.2622452585759
 20
162.4318425463205
 30
0.0
  0
VERTEX
  5
1CC
  8
10MM_MATERIAL
 10
108.6337566988254
 20
161.0330037897079
 30
0.0
  0
VERTEX
  5
1CD
  8
10MM_MATERIAL
 10
105.0288143632348
 20
159.5781255372614
 30
0.0
  0
VERTEX
  5
1CE
  8
10MM_MATERIAL
 10
101.4478336859546
 20
158.0660969160561
 30
0.0
  0
VERTEX
  5
1CF
  8
10MM_MATERIAL
 10
97.89123010113525
 20
156.495807053165
 30
0.0
  0
VERTEX
  5
1D0
  8
10MM_MATERIAL
 10
94.35941904292775
 20
154.8661450756635
 30
0.0
  0
VERTEX
  5
1D1
  8
10MM_MATERIAL
 10
90.85281594548219
 20
153.1760001106256
 30
0.0
  0
VERTEX
  5
1D2
  8
10MM_MATERIAL
 10
87.37183624294937
 20
151.4242612851264
 30
0.0
  0
VERTEX
  5
1D3
  8
10MM_MATERIAL
 10
83.91689536948
 20
149.6098177262394
 30
0.0
  0
VERTEX
  5
1D4
  8
10MM_MATERIAL
 10
80.48840875922465
 20
147.7315585610394
 30
0.0
  0
VERTEX
  5
1D5
  8
10MM_MATERIAL
 10
77.0867918463338
 20
145.7883729166012
 30
0.0
  0
VERTEX
  5
1D6
  8
10MM_MATERIAL
 10
73.7124600649583
 20
143.7791499199997
 30
0.0
  0
VERTEX
  5
1D7
  8
10MM_MATERIAL
 10
70.88303999769853
 20
142.0278688981679
 30
0.0
  0
VERTEX
  5
1D8
  8
10MM_MATERIAL
 10
68.08323093288386
 20
140.2305233585616
 30
0.0
  0
VERTEX
  5
1D9
  8
10MM_MATERIAL
 10
65.31476866311273
 20
138.3865779708266
 30
0.0
  0
VERTEX
  5
1DA
  8
10MM_MATERIAL
 10
62.57938898098322
 20
136.495497404609
 30
0.0
  0
VERTEX
  5
1DB
  8
10MM_MATERIAL
 10
59.87882767909385
 20
134.5567463295548
 30
0.0
  0
VERTEX
  5
1DC
  8
10MM_MATERIAL
 10
57.21482055004328
 20
132.5697894153089
 30
0.0
  0
VERTEX
  5
1DD
  8
10MM_MATERIAL
 10
54.58910338642958
 20
130.5340913315177
 30
0.0
  0
VERTEX
  5
1DE
  8
10MM_MATERIAL
 10
52.00341198085155
 20
128.449116747827
 30
0.0
  0
VERTEX
  5
1DF
  8
10MM_MATERIAL
 10
49.45948212590685
 20
126.314330333883
 30
0.0
  0
VERTEX
  5
1E0
  8
10MM_MATERIAL
 10
46.95904961419438
 20
124.1291967593316
 30
0.0
  0
VERTEX
  5
1E1
  8
10MM_MATERIAL
 10
44.50385023831284
 20
121.8931806938175
 30
0.0
  0
VERTEX
  5
1E2
  8
10MM_MATERIAL
 10
42.09561979085984
 20
119.6057468069879
 30
0.0
  0
VERTEX
  5
1E3
  8
10MM_MATERIAL
 10
39.73609406443477
 20
117.2663597684883
 30
0.0
  0
VERTEX
  5
1E4
  8
10MM_MATERIAL
 10
37.42700885163523
 20
114.8744842479646
 30
0.0
  0
VERTEX
  5
1E5
  8
10MM_MATERIAL
 10
35.17009994505971
 20
112.4295849150625
 30
0.0
  0
VERTEX
  5
1E6
  8
10MM_MATERIAL
 10
32.96710313730669
 20
109.9311264394273
 30
0.0
  0
VERTEX
  5
1E7
  8
10MM_MATERIAL
 10
30.81975422097466
 20
107.3785734907054
 30
0.0
  0
VERTEX
  5
1E8
  8
10MM_MATERIAL
 10
29.26681701353085
 20
105.4384968960797
 30
0.0
  0
VERTEX
  5
1E9
  8
10MM_MATERIAL
 10
27.74413819672459
 20
103.4744275514869
 30
0.0
  0
VERTEX
  5
1EA
  8
10MM_MATERIAL
 10
26.22335844328009
 20
101.5088022664278
 30
0.0
  0
VERTEX
  5
1EB
  8
10MM_MATERIAL
 10
24.67611842592081
 20
99.56405785039964
 30
0.0
  0
VERTEX
  5
1EC
  8
10MM_MATERIAL
 10
20.26525317681301
 20
94.15277415064583
 30
0.0
  0
VERTEX
  5
1ED
  8
10MM_MATERIAL
 10
15.84560615548729
 20
88.74866669562697
 30
0.0
  0
VERTEX
  5
1EE
  8
10MM_MATERIAL
 10
11.40745733022387
 20
83.3597329179745
 30
0.0
  0
VERTEX
  5
1EF
  8
10MM_MATERIAL
 10
6.905895025399726
 20
77.95154606072764
 30
0.0
  0
VERTEX
  5
1F0
  8
10MM_MATERIAL
 10
2.366257158637722
 20
72.57535412852891
 30
0.0
  0
VERTEX
  5
1F1
  8
10MM_MATERIAL
 10
-2.221425908737092
 20
67.24001812635943
 30
0.0
  0
VERTEX
  5
1F2
  8
10MM_MATERIAL
 10
-4.29954521912996
 20
64.85068994563869
 30
0.0
  0
VERTEX
  5
1F3
  8
10MM_MATERIAL
 10
-6.390437705389778
 20
62.45520814013146
 30
0.0
  0
VERTEX
  5
1F4
  8
10MM_MATERIAL
 10
-8.495515189949234
 20
60.05693311106677
 30
0.0
  0
VERTEX
  5
1F5
  8
10MM_MATERIAL
 10
-10.61618949524171
 20
57.65922525967544
 30
0.0
  0
VERTEX
  5
1F6
  8
10MM_MATERIAL
 10
-12.75387244370112
 20
55.26544498718633
 30
0.0
  0
VERTEX
  5
1F7
  8
10MM_MATERIAL
 10
-14.90997585776078
 20
52.8789526948302
 30
0.0
  0
VERTEX
  5
1F8
  8
10MM_MATERIAL
 10
-17.08591155985371
 20
50.50310878383593
 30
0.0
  0
VERTEX
  5
1F9
  8
10MM_MATERIAL
 10
-19.28309137241366
 20
48.14127365543391
 30
0.0
  0
VERTEX
  5
1FA
  8
10MM_MATERIAL
 10
-21.50292711787339
 20
45.79680771085491
 30
0.0
  0
VERTEX
  5
1FB
  8
10MM_MATERIAL
 10
-23.74683061866621
 20
43.47307135132743
 30
0.0
  0
VERTEX
  5
1FC
  8
10MM_MATERIAL
 10
-26.01621369722659
 20
41.17342497808121
 30
0.0
  0
VERTEX
  5
1FD
  8
10MM_MATERIAL
 10
-28.31248817598664
 20
38.90122899234775
 30
0.0
  0
VERTEX
  5
1FE
  8
10MM_MATERIAL
 10
-30.63706587738061
 20
36.65984379535503
 30
0.0
  0
VERTEX
  5
1FF
  8
10MM_MATERIAL
 10
-32.99135862384076
 20
34.45262978833365
 30
0.0
  0
VERTEX
  5
200
  8
10MM_MATERIAL
 10
-35.37677823780156
 20
32.28294737251427
 30
0.0
  0
VERTEX
  5
201
  8
10MM_MATERIAL
 10
-37.79473654169603
 20
30.15415694912595
 30
0.0
  0
VERTEX
  5
202
  8
10MM_MATERIAL
 10
-40.24664535795711
 20
28.06961891939779
 30
0.0
  0
VERTEX
  5
203
  8
10MM_MATERIAL
 10
-42.73391650901871
 20
26.03269368456129
 30
0.0
  0
VERTEX
  5
204
  8
10MM_MATERIAL
 10
-45.25796181731355
 20
24.04674164584536
 30
0.0
  0
VERTEX
  5
205
  8
10MM_MATERIAL
 10
-47.82019310527575
 20
22.1151232044804
 30
0.0
  0
VERTEX
  5
206
  8
10MM_MATERIAL
 10
-50.42202219533807
 20
20.24119876169492
 30
0.0
  0
VERTEX
  5
207
  8
10MM_MATERIAL
 10
-53.06486090993393
 20
18.42832871872061
 30
0.0
  0
VERTEX
  5
208
  8
10MM_MATERIAL
 10
-55.71231892427817
 20
16.70214633308028
 30
0.0
  0
VERTEX
  5
209
  8
10MM_MATERIAL
 10
-58.39477593934354
 20
15.03968391038237
 30
0.0
  0
VERTEX
  5
20A
  8
10MM_MATERIAL
 10
-61.11100263903017
 20
13.44013753399534
 30
0.0
  0
VERTEX
  5
20B
  8
10MM_MATERIAL
 10
-63.85976970723856
 20
11.90270328728883
 30
0.0
  0
VERTEX
  5
20C
  8
10MM_MATERIAL
 10
-66.63984782786858
 20
10.426577253631
 30
0.0
  0
VERTEX
  5
20D
  8
10MM_MATERIAL
 10
-69.45000768482078
 20
9.010955516392688
 30
0.0
  0
VERTEX
  5
20E
  8
10MM_MATERIAL
 10
-72.28901996199535
 20
7.655034158942303
 30
0.0
  0
VERTEX
  5
20F
  8
10MM_MATERIAL
 10
-75.15565534329168
 20
6.35800926464889
 30
0.0
  0
VERTEX
  5
210
  8
10MM_MATERIAL
 10
-78.048684512611
 20
5.119076916881882
 30
0.0
  0
VERTEX
  5
211
  8
10MM_MATERIAL
 10
-80.96687815385312
 20
3.937433199009885
 30
0.0
  0
VERTEX
  5
212
  8
10MM_MATERIAL
 10
-83.90900695091757
 20
2.812274194402658
 30
0.0
  0
VERTEX
  5
213
  8
10MM_MATERIAL
 10
-86.8738415877055
 20
1.742795986428938
 30
0.0
  0
VERTEX
  5
214
  8
10MM_MATERIAL
 10
-89.86015274811719
 20
0.7281946584586692
 30
0.0
  0
VERTEX
  5
215
  8
10MM_MATERIAL
 10
-92.86671111605187
 20
-0.2323337061393662
 30
0.0
  0
VERTEX
  5
216
  8
10MM_MATERIAL
 10
-95.89228737541052
 20
-1.139593023996547
 30
0.0
  0
VERTEX
  5
217
  8
10MM_MATERIAL
 10
-98.93565221009278
 20
-1.994387211742964
 30
0.0
  0
VERTEX
  5
218
  8
10MM_MATERIAL
 10
-101.9955763039994
 20
-2.797520186008874
 30
0.0
  0
VERTEX
  5
219
  8
10MM_MATERIAL
 10
-105.07083034103
 20
-3.549795863426441
 30
0.0
  0
VERTEX
  5
21A
  8
10MM_MATERIAL
 10
-108.1601850050853
 20
-4.252018160626275
 30
0.0
  0
VERTEX
  5
21B
  8
10MM_MATERIAL
 10
-111.2624109800651
 20
-4.904990994237709
 30
0.0
  0
VERTEX
  5
21C
  8
10MM_MATERIAL
 10
-114.3762789498698
 20
-5.509518280894143
 30
0.0
  0
VERTEX
  5
21D
  8
10MM_MATERIAL
 10
-117.5005595983996
 20
-6.066403937224493
 30
0.0
  0
VERTEX
  5
21E
  8
10MM_MATERIAL
 10
-120.6340236095546
 20
-6.576451879859116
 30
0.0
  0
VERTEX
  5
21F
  8
10MM_MATERIAL
 10
-120.6920216046565
 20
-20.9212992163041
 30
0.0
  0
VERTEX
  5
220
  8
10MM_MATERIAL
 10
-110.7345794198907
 20
-20.9574373740359
 30
0.0
  0
VERTEX
  5
221
  8
10MM_MATERIAL
 10
-110.8082529056204
 20
-41.25729476156352
 30
0.0
  0
VERTEX
  5
222
  8
10MM_MATERIAL
 10
-87.61846155952192
 20
-41.34145657261432
 30
0.0
  0
VERTEX
  5
223
  8
10MM_MATERIAL
 10
-87.6545609959602
 20
-51.28822920341539
 30
0.0
  0
VERTEX
  5
224
  8
10MM_MATERIAL
 10
-13.72430061100846
 20
-51.55654143238658
 30
0.0
  0
VERTEX
  5
225
  8
10MM_MATERIAL
 10
-13.62631120268206
 20
-24.55671924638223
 30
0.0
 42
-0.4142135623730978
  0
VERTEX
  5
226
  8
10MM_MATERIAL
 10
-10.61544324775625
 20
-21.56762671552928
 30
0.0
  0
VERTEX
  5
227
  8
10MM_MATERIAL
 10
-8.878889802304148
 20
-21.5739291216516
 30
0.0
  0
VERTEX
  5
228
  8
10MM_MATERIAL
 10
-8.81204290475715
 20
-31.57423758397533
 30
0.0
  0
VERTEX
  5
229
  8
10MM_MATERIAL
 10
6.339792492736431
 20
-31.62922755299923
 30
0.0
  0
VERTEX
  5
22A
  8
10MM_MATERIAL
 10
6.30350011928214
 20
-41.6291616959638
 30
0.0
  0
VERTEX
  5
22B
  8
10MM_MATERIAL
 10
56.30317083410522
 20
-41.81062356323528
 30
0.0
  0
VERTEX
  5
22C
  8
10MM_MATERIAL
 10
56.33946320755951
 20
-31.8106894202708
 30
0.0
  0
VERTEX
  5
22D
  8
10MM_MATERIAL
 10
71.33649089042643
 20
-31.86511755165537
 30
0.0
  0
VERTEX
  5
22E
  8
10MM_MATERIAL
 10
71.35725701114785
 20
-25.86515572040172
 30
0.0
  0
VERTEX
  5
22F
  8
10MM_MATERIAL
 10
71.36805917821557
 20
-22.33070672980158
 30
0.0
  0
VERTEX
  5
230
  8
10MM_MATERIAL
 10
71.37848687831493
 20
-18.75695253001605
 30
0.0
  0
VERTEX
  5
231
  8
10MM_MATERIAL
 10
71.39175950443583
 20
-15.16471723782882
 30
0.0
  0
VERTEX
  5
232
  8
10MM_MATERIAL
 10
71.41109644956582
 20
-11.57482497002595
 30
0.0
  0
VERTEX
  5
233
  8
10MM_MATERIAL
 10
71.4397171066937
 20
-8.008099843392625
 30
0.0
  0
VERTEX
  5
234
  8
10MM_MATERIAL
 10
71.48084086880823
 20
-4.485365974712778
 30
0.0
  0
VERTEX
  5
235
  8
10MM_MATERIAL
 10
71.53606864961029
 20
-1.099551161726288
 30
0.0
  0
VERTEX
  5
236
  8
10MM_MATERIAL
 10
71.60987215223483
 20
2.242869626977873
 30
0.0
  0
VERTEX
  5
237
  8
10MM_MATERIAL
 10
71.70638227435165
 20
5.555948607521376
 30
0.0
  0
VERTEX
  5
238
  8
10MM_MATERIAL
 10
71.8297299136293
 20
8.85373799602753
 30
0.0
  0
VERTEX
  5
239
  8
10MM_MATERIAL
 10
71.98404596773722
 20
12.15029000862163
 30
0.0
  0
VERTEX
  5
23A
  8
10MM_MATERIAL
 10
72.17346133434465
 20
15.45965686142506
 30
0.0
  0
VERTEX
  5
23B
  8
10MM_MATERIAL
 10
72.4021069111205
 20
18.79589077056323
 30
0.0
  0
VERTEX
  5
23C
  8
10MM_MATERIAL
 10
72.67411359573448
 20
22.17304395215838
 30
0.0
  0
VERTEX
  5
23D
  8
10MM_MATERIAL
 10
72.74829983698729
 20
23.0177951662987
 30
0.0
  0
VERTEX
  5
23E
  8
10MM_MATERIAL
 10
72.81897709939672
 20
23.80041401620424
 30
0.0
  0
VERTEX
  5
23F
  8
10MM_MATERIAL
 10
72.88734258912055
 20
24.53420234046087
 30
0.0
  0
VERTEX
  5
240
  8
10MM_MATERIAL
 10
72.9545935123175
 20
25.23246197765447
 30
0.0
  0
VERTEX
  5
241
  8
10MM_MATERIAL
 10
73.02192707514507
 20
25.90849476636819
 30
0.0
  0
VERTEX
  5
242
  8
10MM_MATERIAL
 10
73.0905404837621
 20
26.57560254518992
 30
0.0
  0
VERTEX
  5
243
  8
10MM_MATERIAL
 10
73.1616309443268
 20
27.2470871527026
 30
0.0
  0
VERTEX
  5
244
  8
10MM_MATERIAL
 10
73.2363956629973
 20
27.93625042749232
 30
0.0
  0
VERTEX
  5
245
  8
10MM_MATERIAL
 10
73.31603184593153
 20
28.65639420814504
 30
0.0
  0
VERTEX
  5
246
  8
10MM_MATERIAL
 10
73.40173669928826
 20
29.42082033324427
 30
0.0
  0
VERTEX
  5
247
  8
10MM_MATERIAL
 10
73.49470742922557
 20
30.24283064137702
 30
0.0
  0
VERTEX
  5
248
  8
10MM_MATERIAL
 10
73.71430586995072
 20
31.90221912244136
 30
0.0
  0
VERTEX
  5
249
  8
10MM_MATERIAL
 10
73.99624087295118
 20
33.55048482251346
 30
0.0
  0
VERTEX
  5
24A
  8
10MM_MATERIAL
 10
74.34149804653062
 20
35.18541964078708
 30
0.0
  0
VERTEX
  5
24B
  8
10MM_MATERIAL
 10
74.75106299899144
 20
36.80481547645512
 30
0.0
  0
VERTEX
  5
24C
  8
10MM_MATERIAL
 10
75.22592133863702
 20
38.40646422871104
 30
0.0
  0
VERTEX
  5
24D
  8
10MM_MATERIAL
 10
75.76705867377058
 20
39.98815779674901
 30
0.0
  0
VERTEX
  5
24E
  8
10MM_MATERIAL
 10
76.37546061269562
 20
41.54768807976168
 30
0.0
  0
VERTEX
  5
24F
  8
10MM_MATERIAL
 10
77.07957168147279
 20
43.1563712683154
 30
0.0
  0
VERTEX
  5
250
  8
10MM_MATERIAL
 10
77.8424989167753
 20
44.73425458538854
 30
0.0
  0
VERTEX
  5
251
  8
10MM_MATERIAL
 10
78.6621500412233
 20
46.28094739296569
 30
0.0
  0
VERTEX
  5
252
  8
10MM_MATERIAL
 10
79.53643277743615
 20
47.79605905302895
 30
0.0
  0
VERTEX
  5
253
  8
10MM_MATERIAL
 10
80.46325484803236
 20
49.27919892756128
 30
0.0
  0
VERTEX
  5
254
  8
10MM_MATERIAL
 10
81.44052397563182
 20
50.72997637854743
 30
0.0
  0
VERTEX
  5
255
  8
10MM_MATERIAL
 10
82.46614788285393
 20
52.14800076796812
 30
0.0
  0
VERTEX
  5
256
  8
10MM_MATERIAL
 10
83.53803429231782
 20
53.53288145780785
 30
0.0
  0
VERTEX
  5
257
  8
10MM_MATERIAL
 10
84.6540909266434
 20
54.88422781004913
 30
0.0
  0
VERTEX
  5
258
  8
10MM_MATERIAL
 10
85.81222550844944
 20
56.20164918667585
 30
0.0
  0
VERTEX
  5
259
  8
10MM_MATERIAL
 10
87.01034576035552
 20
57.4847549496712
 30
0.0
  0
VERTEX
  5
25A
  8
10MM_MATERIAL
 10
88.47645948979155
 20
58.95642202554468
 30
0.0
  0
VERTEX
  5
25B
  8
10MM_MATERIAL
 10
89.99108151876426
 20
60.37642330952545
 30
0.0
  0
VERTEX
  5
25C
  8
10MM_MATERIAL
 10
91.55069962297435
 20
61.74616237159559
 30
0.0
  0
VERTEX
  5
25D
  8
10MM_MATERIAL
 10
93.15180157812311
 20
63.0670427817351
 30
0.0
  0
VERTEX
  5
25E
  8
10MM_MATERIAL
 10
94.79087515991046
 20
64.34046810992531
 30
0.0
  0
VERTEX
  5
25F
  8
10MM_MATERIAL
 10
96.46440814403834
 20
65.56784192614687
 30
0.0
  0
VERTEX
  5
260
  8
10MM_MATERIAL
 10
98.16888830620704
 20
66.7505678003813
 30
0.0
  0
VERTEX
  5
261
  8
10MM_MATERIAL
 10
99.9008034221177
 20
67.89004930260985
 30
0.0
  0
VERTEX
  5
262
  8
10MM_MATERIAL
 10
101.656641267471
 20
68.98769000281277
 30
0.0
  0
VERTEX
  5
263
  8
10MM_MATERIAL
 10
103.4328896179682
 20
70.04489347097127
 30
0.0
  0
VERTEX
  5
264
  8
10MM_MATERIAL
 10
105.2260362493098
 20
71.06306327706646
 30
0.0
  0
VERTEX
  5
265
  8
10MM_MATERIAL
 10
107.9968372535666
 20
72.55681789699075
 30
0.0
  0
VERTEX
  5
266
  8
10MM_MATERIAL
 10
110.7881569051219
 20
73.9753021434418
 30
0.0
  0
VERTEX
  5
267
  8
10MM_MATERIAL
 10
113.6001193390022
 20
75.32018812624837
 30
0.0
  0
VERTEX
  5
268
  8
10MM_MATERIAL
 10
116.4328486902345
 20
76.59314795523895
 30
0.0
  0
VERTEX
  5
269
  8
10MM_MATERIAL
 10
119.2864690938461
 20
77.79585374024343
 30
0.0
  0
VERTEX
  5
26A
  8
10MM_MATERIAL
 10
122.1611046848633
 20
78.92997759109066
 30
0.0
  0
VERTEX
  5
26B
  8
10MM_MATERIAL
 10
125.0568795983133
 20
79.99719161760835
 30
0.0
  0
VERTEX
  5
26C
  8
10MM_MATERIAL
 10
127.9739179692235
 20
80.99916792962604
 30
0.0
  0
VERTEX
  5
26D
  8
10MM_MATERIAL
 10
130.91234393262
 20
81.93757863697202
 30
0.0
  0
VERTEX
  5
26E
  8
10MM_MATERIAL
 10
133.87228162353
 20
82.81409584947613
 30
0.0
  0
VERTEX
  5
26F
  8
10MM_MATERIAL
 10
136.8538551769807
 20
83.63039167696633
 30
0.0
  0
VERTEX
  5
270
  8
10MM_MATERIAL
 10
139.8571887279987
 20
84.38813822927264
 30
0.0
  0
VERTEX
  5
271
  8
10MM_MATERIAL
 10
142.8824064116108
 20
85.08900761622276
 30
0.0
  0
VERTEX
  5
272
  8
10MM_MATERIAL
 10
145.9296323628442
 20
85.7346719476455
 30
0.0
  0
VERTEX
  5
273
  8
10MM_MATERIAL
 10
148.998990716726
 20
86.3268033333706
 30
0.0
  0
VERTEX
  5
274
  8
10MM_MATERIAL
 10
152.0906056082821
 20
86.86707388322588
 30
0.0
  0
VERTEX
  5
275
  8
10MM_MATERIAL
 10
155.7853318312451
 20
87.44181145174448
 30
0.0
  0
VERTEX
  5
276
  8
10MM_MATERIAL
 10
159.4896829087556
 20
87.9432003341308
 30
0.0
  0
VERTEX
  5
277
  8
10MM_MATERIAL
 10
163.202572511507
 20
88.37381388343074
 30
0.0
  0
VERTEX
  5
278
  8
10MM_MATERIAL
 10
166.9229143101925
 20
88.73622545268991
 30
0.0
  0
VERTEX
  5
279
  8
10MM_MATERIAL
 10
170.6496219755055
 20
89.03300839495384
 30
0.0
  0
VERTEX
  5
27A
  8
10MM_MATERIAL
 10
174.3816091781385
 20
89.26673606326833
 30
0.0
  0
VERTEX
  5
27B
  8
10MM_MATERIAL
 10
178.1177895887855
 20
89.43998181067852
 30
0.0
  0
VERTEX
  5
27C
  8
10MM_MATERIAL
 10
181.8570768781391
 20
89.55531899023033
 30
0.0
  0
VERTEX
  5
27D
  8
10MM_MATERIAL
 10
185.5983847168926
 20
89.61532095496955
 30
0.0
  0
VERTEX
  5
27E
  8
10MM_MATERIAL
 10
189.3406267757395
 20
89.62256105794214
 30
0.0
  0
VERTEX
  5
27F
  8
10MM_MATERIAL
 10
193.0827167253724
 20
89.57961265219242
 30
0.0
  0
VERTEX
  5
280
  8
10MM_MATERIAL
 10
196.8235682364851
 20
89.4890490907678
 30
0.0
  0
VERTEX
  5
281
  8
10MM_MATERIAL
 10
200.56209497977
 20
89.35344372671187
 30
0.0
  0
VERTEX
  5
282
  8
10MM_MATERIAL
 10
204.2972106259209
 20
89.17536991307193
 30
0.0
  0
VERTEX
  5
283
  8
10MM_MATERIAL
 10
208.0278288456311
 20
88.95740100289294
 30
0.0
  0
VERTEX
  5
284
  8
10MM_MATERIAL
 10
211.7528633095931
 20
88.70211034922086
 30
0.0
  0
VERTEX
  5
285
  8
10MM_MATERIAL
 10
215.4712276885006
 20
88.41207130510037
 30
0.0
  0
VERTEX
  5
286
  8
10MM_MATERIAL
 10
217.5989952443319
 20
88.20359016013776
 30
0.0
  0
VERTEX
  5
287
  8
10MM_MATERIAL
 10
219.7060949123718
 20
87.9306970609204
 30
0.0
  0
VERTEX
  5
288
  8
10MM_MATERIAL
 10
221.7924603317373
 20
87.59287811903182
 30
0.0
  0
VERTEX
  5
289
  8
10MM_MATERIAL
 10
223.8580251415462
 20
87.18961944605542
 30
0.0
  0
VERTEX
  5
28A
  8
10MM_MATERIAL
 10
225.9027229809172
 20
86.72040715357544
 30
0.0
  0
VERTEX
  5
28B
  8
10MM_MATERIAL
 10
227.9264874889668
 20
86.18472735317431
 30
0.0
  0
VERTEX
  5
28C
  8
10MM_MATERIAL
 10
229.9292523048137
 20
85.58206615643593
 30
0.0
  0
VERTEX
  5
28D
  8
10MM_MATERIAL
 10
231.910951067575
 20
84.91190967494315
 30
0.0
  0
VERTEX
  5
28E
  8
10MM_MATERIAL
 10
233.8715174163694
 20
84.17374402027924
 30
0.0
  0
VERTEX
  5
28F
  8
10MM_MATERIAL
 10
235.8108849903136
 20
83.36705530402817
 30
0.0
  0
VERTEX
  5
290
  8
10MM_MATERIAL
 10
237.7289874285258
 20
82.49132963777369
 30
0.0
  0
VERTEX
  5
291
  8
10MM_MATERIAL
 10
239.6257583701241
 20
81.54605313309791
 30
0.0
  0
VERTEX
  5
292
  8
10MM_MATERIAL
 10
241.5011314542263
 20
80.53071190158494
 30
0.0
  0
VERTEX
  5
293
  8
10MM_MATERIAL
 10
242.4921349544082
 20
79.95693819660016
 30
0.0
  0
VERTEX
  5
294
  8
10MM_MATERIAL
 10
243.4686630015812
 20
79.35748459526658
 30
0.0
  0
VERTEX
  5
295
  8
10MM_MATERIAL
 10
244.4271030140112
 20
78.7299604802582
 30
0.0
  0
VERTEX
  5
296
  8
10MM_MATERIAL
 10
245.3638424099641
 20
78.07197523424719
 30
0.0
  0
VERTEX
  5
297
  8
10MM_MATERIAL
 10
246.2752686077067
 20
77.38113823990847
 30
0.0
  0
VERTEX
  5
298
  8
10MM_MATERIAL
 10
247.1577690255054
 20
76.65505887991424
 30
0.0
  0
VERTEX
  5
299
  8
10MM_MATERIAL
 10
248.0077310816262
 20
75.89134653693947
 30
0.0
  0
VERTEX
  5
29A
  8
10MM_MATERIAL
 10
248.8215421943358
 20
75.08761059365624
 30
0.0
  0
VERTEX
  5
29B
  8
10MM_MATERIAL
 10
249.5955897819001
 20
74.24146043273899
 30
0.0
  0
VERTEX
  5
29C
  8
10MM_MATERIAL
 10
250.3262612625859
 20
73.35050543686027
 30
0.0
  0
VERTEX
  5
29D
  8
10MM_MATERIAL
 10
264.2486964546177
 20
73.26505424733303
 30
0.0
  0
VERTEX
  5
29E
  8
10MM_MATERIAL
 10
264.2003126740599
 20
64.22226158882565
 30
0.0
  0
VERTEX
  5
29F
  8
10MM_MATERIAL
 10
264.0524598437057
 20
33.11212686140055
 30
0.0
  0
VERTEX
  5
2A0
  8
10MM_MATERIAL
 10
263.9324568315525
 20
2.001770201537941
 30
0.0
  0
VERTEX
  5
2A1
  8
10MM_MATERIAL
 10
263.8324414084149
 20
-26.81670192510231
 30
0.0
  0
VERTEX
  5
2A2
  8
10MM_MATERIAL
 10
284.1561459158347
 20
-26.89046195825982
 30
0.0
  0
VERTEX
  5
2A3
  8
10MM_MATERIAL
 10
284.2403099880212
 20
-3.700047582975147
 30
0.0
  0
VERTEX
  5
2A4
  8
10MM_MATERIAL
 10
286.9429664871212
 20
-3.709856229470181
 30
0.0
  0
SEQEND
  5
763
  8
10MM_MATERIAL
  0
POLYLINE
  5
7B
  8
10MM_MATERIAL
 66
     1
 10
0.0
 20
0.0
 30
0.0
 70
     1
  0
VERTEX
  5
2A5
  8
10MM_MATERIAL
 10
-39.53123318184849
 20
90.79449233415129
 30
0.0
  0
VERTEX
  5
2A6
  8
10MM_MATERIAL
 10
-55.35218337146944
 20
88.57447306034311
 30
0.0
  0
VERTEX
  5
2A7
  8
10MM_MATERIAL
 10
-60.69880034041334
 20
126.6770975495174
 30
0.0
  0
VERTEX
  5
2A8
  8
10MM_MATERIAL
 10
-171.231600336555
 20
111.1669705698876
 30
0.0
  0
VERTEX
  5
2A9
  8
10MM_MATERIAL
 10
-165.8849833676111
 20
73.06434608071324
 30
0.0
  0
VERTEX
  5
2AA
  8
10MM_MATERIAL
 10
-181.705933557232
 20
70.84432680690497
 30
0.0
  0
VERTEX
  5
2AB
  8
10MM_MATERIAL
 10
-177.9473184904558
 20
44.05858559510925
 30
0.0
  0
VERTEX
  5
2AC
  8
10MM_MATERIAL
 10
-162.1263683008349
 20
46.27860486891741
 30
0.0
  0
VERTEX
  5
2AD
  8
10MM_MATERIAL
 10
-157.3355916782243
 20
12.13717231013344
 30
0.0
  0
VERTEX
  5
2AE
  8
10MM_MATERIAL
 10
-46.8027916820826
 20
27.64729928976331
 30
0.0
  0
VERTEX
  5
2AF
  8
10MM_MATERIAL
 10
-51.59356830469324
 20
61.78873184854729
 30
0.0
  0
VERTEX
  5
2B0
  8
10MM_MATERIAL
 10
-35.77261811507228
 20
64.00875112235548
 30
0.0
  0
SEQEND
  5
764
  8
10MM_MATERIAL
  0
POLYLINE
  5
7C
  8
10MM_MATERIAL
 66
     1
 10
0.0
 20
0.0
 30
0.0
 70
     1
  0
VERTEX
  5
2B1
  8
10MM_MATERIAL
 10
148.5118149243521
 20
16.62311880887662
 30
0.0
  0
VERTEX
  5
2B2
  8
10MM_MATERIAL
 10
147.3860669996954
 20
16.63228805683845
 30
0.0
  0
VERTEX
  5
2B3
  8
10MM_MATERIAL
 10
200.22373886648
 20
16.63228805683845
 30
0.0
 42
-0.4163923656660823
  0
VERTEX
  5
2B4
  8
10MM_MATERIAL
 10
219.2617114409813
 20
-2.547725474782714
 30
0.0
  0
VERTEX
  5
2B5
  8
10MM_MATERIAL
 10
219.010496845932
 20
-36.34355267624003
 30
0.0
 42
0.3773808788029362
  0
VERTEX
  5
2B6
  8
10MM_MATERIAL
 10
267.3755813923548
 20
-92.12812473987968
 30
0.0
 42
-0.3750991806077726
  0
VERTEX
  5
2B7
  8
10MM_MATERIAL
 10
290.7304631688889
 20
-118.8492149119754
 30
0.0
  0
VERTEX
  5
2B8
  8
10MM_MATERIAL
 10
290.7648339291879
 20
-180.020713663162
 30
0.0
 42
-0.3641245845430773
  0
VERTEX
  5
2B9
  8
10MM_MATERIAL
 10
279.1956689267888
 20
-193.8164109634397
 30
0.0
  0
VERTEX
  5
2BA
  8
10MM_MATERIAL
 10
15.85554226261792
 20
-193.8473748850147
 30
0.0
 42
-0.1943955027975954
  0
VERTEX
  5
2BB
  8
10MM_MATERIAL
 10
9.122608182821011
 20
-190.4124608233508
 30
0.0
 42
-0.1806906456313677
  0
VERTEX
  5
2BC
  8
10MM_MATERIAL
 10
4.915938055487857
 20
-179.1519827841068
 30
0.0
  0
VERTEX
  5
2BD
  8
10MM_MATERIAL
 10
4.915938055487857
 20
-128.6298129359797
 30
0.0
 42
0.0040156315968296
  0
VERTEX
  5
2BE
  8
10MM_MATERIAL
 10
4.842361610501882
 20
-124.0094344985903
 30
0.0
 42
-0.412274288107949
  0
VERTEX
  5
2BF
  8
10MM_MATERIAL
 10
26.36412003935192
 20
-93.85187812925413
 30
0.0
 42
0.3723963748817165
  0
VERTEX
  5
2C0
  8
10MM_MATERIAL
 10
76.98261412967526
 20
-32.38821768917339
 30
0.0
  0
VERTEX
  5
2C1
  8
10MM_MATERIAL
 10
76.30629692584597
 20
-4.254302532362294
 30
0.0
 42
-0.0927923528458304
  0
VERTEX
  5
2C2
  8
10MM_MATERIAL
 10
77.75150863277233
 20
4.643337665140983
 30
0.0
 42
-0.2842136038452447
  0
VERTEX
  5
2C3
  8
10MM_MATERIAL
 10
92.55537054616428
 20
16.62252937275255
 30
0.0
  0
VERTEX
  5
2C4
  8
10MM_MATERIAL
 10
148.4661976329496
 20
16.62252937275255
 30
0.0
 42
0.0064603958905947
  0
SEQEND
  5
765
  8
10MM_MATERIAL
  0
POLYLINE
  5
7D
  8
10MM_MATERIAL
 66
     1
 10
0.0
 20
0.0
 30
0.0
 70
     1
  0
VERTEX
  5
2C5
  8
10MM_MATERIAL
 10
83.93155240392747
 20
-145.871683335107
 30
0.0
 42
-0.4142135623730971
  0
VERTEX
  5
2C6
  8
10MM_MATERIAL
 10
86.93155240392724
 20
-148.8716833351072
 30
0.0
 42
-0.4142135623730999
  0
VERTEX
  5
2C7
  8
10MM_MATERIAL
 10
83.93155240392747
 20
-151.871683335107
 30
0.0
 42
-0.4142135623731035
  0
VERTEX
  5
2C8
  8
10MM_MATERIAL
 10
80.93155240392724
 20
-148.871683335107
 30
0.0
 42
-0.4142135623731062
  0
SEQEND
  5
766
  8
10MM_MATERIAL
  0
POLYLINE
  5
7E
  8
10MM_MATERIAL
 66
     1
 10
0.0
 20
0.0
 30
0.0
 70
     1
  0
VERTEX
  5
2C9
  8
10MM_MATERIAL
 10
16.2677573739108
 20
-145.8716833351068
 30
0.0
 42
-0.4142135623730895
  0
VERTEX
  5
2CA
  8
10MM_MATERIAL
 10
19.2677573739108
 20
-148.8716833351068
 30
0.0
 42
-0.4142135623730895
  0
VERTEX
  5
2CB
  8
10MM_MATERIAL
 10
16.2677573739108
 20
-151.8716833351066
 30
0.0
 42
-0.4142135623730895
  0
VERTEX
  5
2CC
  8
10MM_MATERIAL
 10
13.2677573739108
 20
-148.8716833351066
 30
0.0
 42
-0.4142135623730813
  0
SEQEND
  5
767
  8
10MM_MATERIAL
  0
POLYLINE
  5
7F
  8
10MM_MATERIAL
 66
     1
 10
0.0
 20
0.0
 30
0.0
 70
     1
  0
VERTEX
  5
2CD
  8
10MM_MATERIAL
 10
103.145030662823
 20
-6.959451199225645
 30
0.0
 42
0.9999999999999998
  0
VERTEX
  5
2CE
  8
10MM_MATERIAL
 10
96.14503066282299
 20
-6.959451199225645
 30
0.0
 42
0.9999999999999998
  0
SEQEND
  5
768
  8
10MM_MATERIAL
  0
POLYLINE
  5
80
  8
10MM_MATERIAL
 66
     1
 10
0.0
 20
0.0
 30
0.0
 70
     1
  0
VERTEX
  5
2CF
  8
10MM_MATERIAL
 10
96.38778110663378
 20
-71.14600892121028
 30
0.0
 42
0.9999999999999998
  0
VERTEX
  5
2D0
  8
10MM_MATERIAL
 10
92.38778110663378
 20
-71.14600892121028
 30
0.0
 42
0.9999999999999998
  0
SEQEND
  5
769
  8
10MM_MATERIAL
  0
POLYLINE
  5
81
  8
10MM_MATERIAL
 66
     1
 10
0.0
 20
0.0
 30
0.0
 70
     1
  0
VERTEX
  5
2D1
  8
10MM_MATERIAL
 10
96.38778110663378
 20
-101.6460089212103
 30
0.0
 42
0.9999999999999998
  0
VERTEX
  5
2D2
  8
10MM_MATERIAL
 10
92.38778110663378
 20
-101.6460089212103
 30
0.0
 42
0.9999999999999998
  0
SEQEND
  5
76A
  8
10MM_MATERIAL
  0
POLYLINE
  5
82
  8
10MM_MATERIAL
 66
     1
 10
0.0
 20
0.0
 30
0.0
 70
     1
  0
VERTEX
  5
2D3
  8
10MM_MATERIAL
 10
96.38778110663378
 20
-119.7251748117217
 30
0.0
 42
0.9999999999999998
  0
VERTEX
  5
2D4
  8
10MM_MATERIAL
 10
92.38778110663378
 20
-119.7251748117217
 30
0.0
 42
0.9999999999999998
  0
SEQEND
  5
76B
  8
10MM_MATERIAL
  0
POLYLINE
  5
83
  8
10MM_MATERIAL
 66
     1
 10
0.0
 20
0.0
 30
0.0
 70
     1
  0
VERTEX
  5
2D5
  8
10MM_MATERIAL
 10
96.38778110663378
 20
-89.22517481172166
 30
0.0
 42
0.9999999999999998
  0
VERTEX
  5
2D6
  8
10MM_MATERIAL
 10
92.38778110663378
 20
-89.22517481172166
 30
0.0
 42
0.9999999999999998
  0
SEQEND
  5
76C
  8
10MM_MATERIAL
  0
POLYLINE
  5
84
  8
10MM_MATERIAL
 66
     1
 10
0.0
 20
0.0
 30
0.0
 70
     1
  0
VERTEX
  5
2D7
  8
10MM_MATERIAL
 10
122.3601327491212
 20
-132.4473590425307
 30
0.0
 42
-0.9999999999999998
  0
VERTEX
  5
2D8
  8
10MM_MATERIAL
 10
117.8601327491212
 20
-132.4473590425307
 30
0.0
 42
-0.9999999999999998
  0
SEQEND
  5
76D
  8
10MM_MATERIAL
  0
POLYLINE
  5
85
  8
10MM_MATERIAL
 66
     1
 10
0.0
 20
0.0
 30
0.0
 70
     1
  0
VERTEX
  5
2D9
  8
10MM_MATERIAL
 10
120.3935199646039
 20
-71.14600892121119
 30
0.0
 42
0.9999999999999998
  0
VERTEX
  5
2DA
  8
10MM_MATERIAL
 10
116.3935199646039
 20
-71.14600892121119
 30
0.0
 42
0.9999999999999998
  0
SEQEND
  5
76E
  8
10MM_MATERIAL
  0
POLYLINE
  5
86
  8
10MM_MATERIAL
 66
     1
 10
0.0
 20
0.0
 30
0.0
 70
     1
  0
VERTEX
  5
2DB
  8
10MM_MATERIAL
 10
120.3935199646039
 20
-89.22517481172257
 30
0.0
 42
0.9999999999999998
  0
VERTEX
  5
2DC
  8
10MM_MATERIAL
 10
116.3935199646039
 20
-89.22517481172257
 30
0.0
 42
0.9999999999999998
  0
SEQEND
  5
76F
  8
10MM_MATERIAL
  0
POLYLINE
  5
87
  8
10MM_MATERIAL
 66
     1
 10
0.0
 20
0.0
 30
0.0
 70
     1
  0
VERTEX
  5
2DD
  8
10MM_MATERIAL
 10
120.3935199646039
 20
-119.7251748117226
 30
0.0
 42
0.9999999999999998
  0
VERTEX
  5
2DE
  8
10MM_MATERIAL
 10
116.3935199646039
 20
-119.7251748117226
 30
0.0
 42
0.9999999999999998
  0
SEQEND
  5
770
  8
10MM_MATERIAL
  0
POLYLINE
  5
88
  8
10MM_MATERIAL
 66
     1
 10
0.0
 20
0.0
 30
0.0
 70
     1
  0
VERTEX
  5
2DF
  8
10MM_MATERIAL
 10
120.3935199646039
 20
-101.6460089212112
 30
0.0
 42
0.9999999999999998
  0
VERTEX
  5
2E0
  8
10MM_MATERIAL
 10
116.3935199646039
 20
-101.6460089212112
 30
0.0
 42
0.9999999999999998
  0
SEQEND
  5
771
  8
10MM_MATERIAL
  0
POLYLINE
  5
89
  8
10MM_MATERIAL
 66
     1
 10
0.0
 20
0.0
 30
0.0
 70
     1
  0
VERTEX
  5
2E1
  8
10MM_MATERIAL
 10
158.1756405763553
 20
-9.180457645763886
 30
0.0
  0
VERTEX
  5
2E2
  8
10MM_MATERIAL
 10
158.1443763921256
 20
-9.447746414157995
 30
0.0
  0
VERTEX
  5
2E3
  8
10MM_MATERIAL
 10
158.0620403444152
 20
-9.702563964645583
 30
0.0
  0
VERTEX
  5
2E4
  8
10MM_MATERIAL
 10
157.9328877971008
 20
-9.936355879121242
 30
0.0
  0
VERTEX
  5
2E5
  8
10MM_MATERIAL
 10
157.7611741140601
 20
-10.14056773946775
 30
0.0
  0
VERTEX
  5
2E6
  8
10MM_MATERIAL
 10
157.5519977405854
 20
-10.30677536939399
 30
0.0
  0
VERTEX
  5
2E7
  8
10MM_MATERIAL
 10
157.3141308752483
 20
-10.42962566687036
 30
0.0
  0
VERTEX
  5
2E8
  8
10MM_MATERIAL
 10
157.0573395118451
 20
-10.50517082516783
 30
0.0
  0
VERTEX
  5
2E9
  8
10MM_MATERIAL
 10
156.7913896441725
 20
-10.529463037559
 30
0.0
  0
VERTEX
  5
2EA
  8
10MM_MATERIAL
 10
156.5262449312201
 20
-10.50021337179394
 30
0.0
  0
VERTEX
  5
2EB
  8
10MM_MATERIAL
 10
156.271416952984
 20
-10.42006552216728
 30
0.0
  0
VERTEX
  5
2EC
  8
10MM_MATERIAL
 10
156.0359935847679
 20
-10.29247062176476
 30
0.0
  0
VERTEX
  5
2ED
  8
10MM_MATERIAL
 10
155.8290627018766
 20
-10.12087980367162
 30
0.0
  0
VERTEX
  5
2EE
  8
10MM_MATERIAL
 10
155.6604908900946
 20
-9.91150380566271
 30
0.0
  0
VERTEX
  5
2EF
  8
10MM_MATERIAL
 10
155.5363141163133
 20
-9.67427604711313
 30
0.0
  0
VERTEX
  5
2F0
  8
10MM_MATERIAL
 10
155.4598743274962
 20
-9.41823168350968
 30
0.0
  0
VERTEX
  5
2F1
  8
10MM_MATERIAL
 10
155.4345134706056
 20
-9.152405870339612
 30
0.0
  0
VERTEX
  5
2F2
  8
10MM_MATERIAL
 10
155.4627634163439
 20
-8.886556418558007
 30
0.0
  0
VERTEX
  5
2F3
  8
10MM_MATERIAL
 10
155.542151451382
 20
-8.630842429846757
 30
0.0
  0
VERTEX
  5
2F4
  8
10MM_MATERIAL
 10
155.6685126466361
 20
-8.394900995780722
 30
0.0
  0
VERTEX
  5
2F5
  8
10MM_MATERIAL
 10
155.8376820730234
 20
-8.18836920793476
 30
0.0
  0
VERTEX
  5
2F6
  8
10MM_MATERIAL
 10
156.044443846071
 20
-8.019805735673549
 30
0.0
  0
VERTEX
  5
2F7
  8
10MM_MATERIAL
 10
156.2803369351674
 20
-7.894127117709308
 30
0.0
  0
VERTEX
  5
2F8
  8
10MM_MATERIAL
 10
156.5363286920198
 20
-7.815507249638562
 30
0.0
  0
VERTEX
  5
2F9
  8
10MM_MATERIAL
 10
156.8033864683354
 20
-7.788120027059199
 30
0.0
  0
VERTEX
  5
2FA
  8
10MM_MATERIAL
 10
157.0705116498318
 20
-7.814706580361849
 30
0.0
  0
VERTEX
  5
2FB
  8
10MM_MATERIAL
 10
157.3267477992906
 20
-7.892566854672372
 30
0.0
  0
VERTEX
  5
2FC
  8
10MM_MATERIAL
 10
157.563125534014
 20
-8.017712967690136
 30
0.0
  0
VERTEX
  5
2FD
  8
10MM_MATERIAL
 10
157.7706754713051
 20
-8.186157037114958
 30
0.0
  0
VERTEX
  5
2FE
  8
10MM_MATERIAL
 10
157.9406523188576
 20
-8.392341788202634
 30
0.0
  0
VERTEX
  5
2FF
  8
10MM_MATERIAL
 10
158.0675606510912
 20
-8.6276287905441
 30
0.0
  0
VERTEX
  5
300
  8
10MM_MATERIAL
 10
158.1473058853964
 20
-8.883408428340521
 30
0.0
  0
VERTEX
  5
301
  8
10MM_MATERIAL
 10
158.1757934391639
 20
-9.151071085793296
 30
0.0
  0
VERTEX
  5
302
  8
10MM_MATERIAL
 10
158.1758142871115
 20
-9.158417399888753
 30
0.0
  0
VERTEX
  5
303
  8
10MM_MATERIAL
 10
158.1757651196301
 20
-9.16943751687288
 30
0.0
  0
SEQEND
  5
772
  8
10MM_MATERIAL
  0
POLYLINE
  5
8A
  8
10MM_MATERIAL
 66
     1
 10
0.0
 20
0.0
 30
0.0
 70
     1
  0
VERTEX
  5
304
  8
10MM_MATERIAL
 10
165.5277510801438
 20
-9.234241867857895
 30
0.0
  0
VERTEX
  5
305
  8
10MM_MATERIAL
 10
165.5623519487573
 20
-8.967364519025955
 30
0.0
  0
VERTEX
  5
306
  8
10MM_MATERIAL
 10
165.6478646925422
 20
-8.713595370923235
 30
0.0
  0
VERTEX
  5
307
  8
10MM_MATERIAL
 10
165.7799275262125
 20
-8.481435004706531
 30
0.0
  0
VERTEX
  5
308
  8
10MM_MATERIAL
 10
165.9541786644824
 20
-8.2793840015456
 30
0.0
  0
VERTEX
  5
309
  8
10MM_MATERIAL
 10
166.1654149174287
 20
-8.115802269841174
 30
0.0
  0
VERTEX
  5
30A
  8
10MM_MATERIAL
 10
166.4047978834753
 20
-7.995933037960617
 30
0.0
  0
VERTEX
  5
30B
  8
10MM_MATERIAL
 10
166.6625129598569
 20
-7.923601867025104
 30
0.0
  0
VERTEX
  5
30C
  8
10MM_MATERIAL
 10
166.9287455438088
 20
-7.902634318155583
 30
0.0
  0
VERTEX
  5
30D
  8
10MM_MATERIAL
 10
167.1935040496239
 20
-7.935194687066518
 30
0.0
  0
VERTEX
  5
30E
  8
10MM_MATERIAL
 10
167.4473105988899
 20
-8.018520560113506
 30
0.0
  0
VERTEX
  5
30F
  8
10MM_MATERIAL
 10
167.6811211497847
 20
-8.149047434378621
 30
0.0
  0
VERTEX
  5
310
  8
10MM_MATERIAL
 10
167.885891660486
 20
-8.323210806943484
 30
0.0
  0
VERTEX
  5
311
  8
10MM_MATERIAL
 10
168.0518339503448
 20
-8.534676990846924
 30
0.0
  0
VERTEX
  5
312
  8
10MM_MATERIAL
 10
168.1730367387292
 20
-8.773437879825655
 30
0.0
  0
VERTEX
  5
313
  8
10MM_MATERIAL
 10
168.2462713338418
 20
-9.030417342010855
 30
0.0
  0
VERTEX
  5
314
  8
10MM_MATERIAL
 10
168.2683090438856
 20
-9.2965392455337
 30
0.0
  0
VERTEX
  5
315
  8
10MM_MATERIAL
 10
168.2367401424701
 20
-9.562015041801692
 30
0.0
  0
VERTEX
  5
316
  8
10MM_MATERIAL
 10
168.1541639650806
 20
-9.816717392343412
 30
0.0
  0
VERTEX
  5
317
  8
10MM_MATERIAL
 10
168.0248654127342
 20
-10.05106198047131
 30
0.0
  0
VERTEX
  5
318
  8
10MM_MATERIAL
 10
167.8531293864477
 20
-10.25546448949738
 30
0.0
  0
VERTEX
  5
319
  8
10MM_MATERIAL
 10
167.6442781488699
 20
-10.42143202746749
 30
0.0
  0
VERTEX
  5
31A
  8
10MM_MATERIAL
 10
167.4068334722139
 20
-10.54415403692949
 30
0.0
  0
VERTEX
  5
31B
  8
10MM_MATERIAL
 10
167.149879521844
 20
-10.61956970294998
 30
0.0
  0
VERTEX
  5
31C
  8
10MM_MATERIAL
 10
166.8825004631239
 20
-10.64361821059467
 30
0.0
  0
VERTEX
  5
31D
  8
10MM_MATERIAL
 10
166.6157283718432
 20
-10.61369600810142
 30
0.0
  0
VERTEX
  5
31E
  8
10MM_MATERIAL
 10
166.3604851455981
 20
-10.53263992894174
 30
0.0
  0
VERTEX
  5
31F
  8
10MM_MATERIAL
 10
166.1256896824634
 20
-10.40454973603253
 30
0.0
  0
VERTEX
  5
320
  8
10MM_MATERIAL
 10
165.9202608805126
 20
-10.23352519229136
 30
0.0
  0
VERTEX
  5
321
  8
10MM_MATERIAL
 10
165.7528738317316
 20
-10.02523250234092
 30
0.0
  0
VERTEX
  5
322
  8
10MM_MATERIAL
 10
165.6289154405787
 20
-9.788378074190382
 30
0.0
  0
VERTEX
  5
323
  8
10MM_MATERIAL
 10
165.5523723238366
 20
-9.53162197583672
 30
0.0
  0
VERTEX
  5
324
  8
10MM_MATERIAL
 10
165.5272310982877
 20
-9.26362427527713
 30
0.0
  0
VERTEX
  5
325
  8
10MM_MATERIAL
 10
165.5273020307442
 20
-9.256278261402462
 30
0.0
  0
VERTEX
  5
326
  8
10MM_MATERIAL
 10
165.5274888704977
 20
-9.245259599743553
 30
0.0
  0
SEQEND
  5
773
  8
10MM_MATERIAL
  0
POLYLINE
  5
8B
  8
10MM_MATERIAL
 66
     1
 10
0.0
 20
0.0
 30
0.0
 70
     1
  0
VERTEX
  5
327
  8
10MM_MATERIAL
 10
168.7022592273083
 20
-135.4049570425309
 30
0.0
  0
VERTEX
  5
328
  8
10MM_MATERIAL
 10
126.0280062709341
 20
-135.4049570425309
 30
0.0
  0
VERTEX
  5
329
  8
10MM_MATERIAL
 10
126.0280062709341
 20
-14.40495704253065
 30
0.0
  0
VERTEX
  5
32A
  8
10MM_MATERIAL
 10
168.7022592273083
 20
-14.40495704253065
 30
0.0
  0
SEQEND
  5
774
  8
10MM_MATERIAL
  0
POLYLINE
  5
8C
  8
10MM_MATERIAL
 66
     1
 10
0.0
 20
0.0
 30
0.0
 70
     1
  0
VERTEX
  5
32B
  8
10MM_MATERIAL
 10
199.3881104084145
 20
-6.959451199224963
 30
0.0
 42
0.9999999999999998
  0
VERTEX
  5
32C
  8
10MM_MATERIAL
 10
192.3881104084145
 20
-6.959451199224963
 30
0.0
 42
0.9999999999999998
  0
SEQEND
  5
775
  8
10MM_MATERIAL
  0
POLYLINE
  5
8D
  8
10MM_MATERIAL
 66
     1
 10
0.0
 20
0.0
 30
0.0
 70
     1
  0
VERTEX
  5
32D
  8
10MM_MATERIAL
 10
203.145359964604
 20
-101.6460089212121
 30
0.0
 42
-0.9999999999999998
  0
VERTEX
  5
32E
  8
10MM_MATERIAL
 10
199.145359964604
 20
-101.6460089212121
 30
0.0
 42
-0.9999999999999998
  0
SEQEND
  5
776
  8
10MM_MATERIAL
  0
POLYLINE
  5
8E
  8
10MM_MATERIAL
 66
     1
 10
0.0
 20
0.0
 30
0.0
 70
     1
  0
VERTEX
  5
32F
  8
10MM_MATERIAL
 10
203.145359964604
 20
-71.1460089212121
 30
0.0
 42
-0.9999999999999998
  0
VERTEX
  5
330
  8
10MM_MATERIAL
 10
199.145359964604
 20
-71.1460089212121
 30
0.0
 42
-0.9999999999999998
  0
SEQEND
  5
777
  8
10MM_MATERIAL
  0
POLYLINE
  5
8F
  8
10MM_MATERIAL
 66
     1
 10
0.0
 20
0.0
 30
0.0
 70
     1
  0
VERTEX
  5
331
  8
10MM_MATERIAL
 10
203.145359964604
 20
-119.7251748117235
 30
0.0
 42
-0.9999999999999998
  0
VERTEX
  5
332
  8
10MM_MATERIAL
 10
199.145359964604
 20
-119.7251748117235
 30
0.0
 42
-0.9999999999999998
  0
SEQEND
  5
778
  8
10MM_MATERIAL
  0
POLYLINE
  5
90
  8
10MM_MATERIAL
 66
     1
 10
0.0
 20
0.0
 30
0.0
 70
     1
  0
VERTEX
  5
333
  8
10MM_MATERIAL
 10
214.6015886673103
 20
-148.8716833351075
 30
0.0
 42
-0.4142135623730973
  0
VERTEX
  5
334
  8
10MM_MATERIAL
 10
211.6015886673103
 20
-151.8716833351072
 30
0.0
 42
-0.4142135623731069
  0
VERTEX
  5
335
  8
10MM_MATERIAL
 10
208.6015886673103
 20
-148.8716833351075
 30
0.0
 42
-0.4142135623731075
  0
VERTEX
  5
336
  8
10MM_MATERIAL
 10
211.6015886673103
 20
-145.8716833351075
 30
0.0
 42
-0.4142135623730936
  0
SEQEND
  5
779
  8
10MM_MATERIAL
  0
POLYLINE
  5
91
  8
10MM_MATERIAL
 66
     1
 10
0.0
 20
0.0
 30
0.0
 70
     1
  0
VERTEX
  5
337
  8
10MM_MATERIAL
 10
179.1396211066337
 20
-119.7251748117219
 30
0.0
 42
-0.9999999999999998
  0
VERTEX
  5
338
  8
10MM_MATERIAL
 10
175.1396211066337
 20
-119.7251748117219
 30
0.0
 42
-0.9999999999999998
  0
SEQEND
  5
77A
  8
10MM_MATERIAL
  0
POLYLINE
  5
92
  8
10MM_MATERIAL
 66
     1
 10
0.0
 20
0.0
 30
0.0
 70
     1
  0
VERTEX
  5
339
  8
10MM_MATERIAL
 10
179.1396211066337
 20
-71.14600892121051
 30
0.0
 42
-0.9999999999999998
  0
VERTEX
  5
33A
  8
10MM_MATERIAL
 10
175.1396211066337
 20
-71.14600892121051
 30
0.0
 42
-0.9999999999999998
  0
SEQEND
  5
77B
  8
10MM_MATERIAL
  0
POLYLINE
  5
93
  8
10MM_MATERIAL
 66
     1
 10
0.0
 20
0.0
 30
0.0
 70
     1
  0
VERTEX
  5
33B
  8
10MM_MATERIAL
 10
177.3601327491212
 20
-132.4473590425307
 30
0.0
 42
-0.9999999999999998
  0
VERTEX
  5
33C
  8
10MM_MATERIAL
 10
172.8601327491212
 20
-132.4473590425307
 30
0.0
 42
-0.9999999999999998
  0
SEQEND
  5
77C
  8
10MM_MATERIAL
  0
POLYLINE
  5
94
  8
10MM_MATERIAL
 66
     1
 10
0.0
 20
0.0
 30
0.0
 70
     1
  0
VERTEX
  5
33D
  8
10MM_MATERIAL
 10
179.1396211066337
 20
-101.6460089212105
 30
0.0
 42
-0.9999999999999998
  0
VERTEX
  5
33E
  8
10MM_MATERIAL
 10
175.1396211066337
 20
-101.6460089212105
 30
0.0
 42
-0.9999999999999998
  0
SEQEND
  5
77D
  8
10MM_MATERIAL
  0
POLYLINE
  5
95
  8
10MM_MATERIAL
 66
     1
 10
0.0
 20
0.0
 30
0.0
 70
     1
  0
VERTEX
  5
33F
  8
10MM_MATERIAL
 10
203.145359964604
 20
-89.22517481172348
 30
0.0
 42
-0.9999999999999998
  0
VERTEX
  5
340
  8
10MM_MATERIAL
 10
199.145359964604
 20
-89.22517481172348
 30
0.0
 42
-0.9999999999999998
  0
SEQEND
  5
77E
  8
10MM_MATERIAL
  0
POLYLINE
  5
96
  8
10MM_MATERIAL
 66
     1
 10
0.0
 20
0.0
 30
0.0
 70
     1
  0
VERTEX
  5
341
  8
10MM_MATERIAL
 10
179.1396211066337
 20
-89.22517481172166
 30
0.0
 42
-0.9999999999999998
  0
VERTEX
  5
342
  8
10MM_MATERIAL
 10
175.1396211066337
 20
-89.22517481172166
 30
0.0
 42
-0.9999999999999998
  0
SEQEND
  5
77F
  8
10MM_MATERIAL
  0
POLYLINE
  5
97
  8
10MM_MATERIAL
 66
     1
 10
0.0
 20
0.0
 30
0.0
 70
     1
  0
VERTEX
  5
343
  8
10MM_MATERIAL
 10
279.2653836973265
 20
-145.871683335107
 30
0.0
 42
-0.4142135623731062
  0
VERTEX
  5
344
  8
10MM_MATERIAL
 10
282.2653836973267
 20
-148.871683335107
 30
0.0
 42
-0.4142135623730868
  0
VERTEX
  5
345
  8
10MM_MATERIAL
 10
279.2653836973265
 20
-151.871683335107
 30
0.0
 42
-0.4142135623731062
  0
VERTEX
  5
346
  8
10MM_MATERIAL
 10
276.2653836973267
 20
-148.871683335107
 30
0.0
 42
-0.4142135623730951
  0
SEQEND
  5
780
  8
10MM_MATERIAL
  0
POLYLINE
  5
99
  8
TEXT_ONLY
 66
     1
 10
0.0
 20
0.0
 30
0.0
 70
     1
  0
VERTEX
  5
347
  8
TEXT_ONLY
 10
-255.3400250180431
 20
120.6058118597968
 30
0.0
  0
VERTEX
  5
348
  8
TEXT_ONLY
 10
-255.3010922544585
 20
120.3012480926382
 30
0.0
  0
VERTEX
  5
349
  8
TEXT_ONLY
 10
-255.2737096333374
 20
120.0035429153282
 30
0.0
  0
VERTEX
  5
34A
  8
TEXT_ONLY
 10
-255.2578771546798
 20
119.7126963278669
 30
0.0
  0
VERTEX
  5
34B
  8
TEXT_ONLY
 10
-255.2535948184857
 20
119.4287083302542
 30
0.0
  0
VERTEX
  5
34C
  8
TEXT_ONLY
 10
-255.260862624755
 20
119.1515789224902
 30
0.0
  0
VERTEX
  5
34D
  8
TEXT_ONLY
 10
-255.2796805734877
 20
118.8813081045749
 30
0.0
  0
VERTEX
  5
34E
  8
TEXT_ONLY
 10
-255.310048664684
 20
118.6178958765082
 30
0.0
  0
VERTEX
  5
34F
  8
TEXT_ONLY
 10
-255.3519668983437
 20
118.3613422382902
 30
0.0
  0
VERTEX
  5
350
  8
TEXT_ONLY
 10
-255.4054352744669
 20
118.1116471899208
 30
0.0
  0
VERTEX
  5
351
  8
TEXT_ONLY
 10
-255.4704537930535
 20
117.8688107314001
 30
0.0
  0
VERTEX
  5
352
  8
TEXT_ONLY
 10
-255.5470224541036
 20
117.6328328627281
 30
0.0
  0
VERTEX
  5
353
  8
TEXT_ONLY
 10
-255.6351412576171
 20
117.4037135839046
 30
0.0
  0
VERTEX
  5
354
  8
TEXT_ONLY
 10
-255.7348102035942
 20
117.1814528949299
 30
0.0
  0
VERTEX
  5
355
  8
TEXT_ONLY
 10
-255.8460292920346
 20
116.9660507958038
 30
0.0
  0
VERTEX
  5
356
  8
TEXT_ONLY
 10
-255.9687985229386
 20
116.7575072865264
 30
0.0
  0
VERTEX
  5
357
  8
TEXT_ONLY
 10
-256.1031178963061
 20
116.5558223670976
 30
0.0
  0
VERTEX
  5
358
  8
TEXT_ONLY
 10
-256.2470088629058
 20
116.362575635928
 30
0.0
  0
VERTEX
  5
359
  8
TEXT_ONLY
 10
-256.3984928735068
 20
116.1793466914282
 30
0.0
  0
VERTEX
  5
35A
  8
TEXT_ONLY
 10
-256.5575699281089
 20
116.006135533598
 30
0.0
  0
VERTEX
  5
35B
  8
TEXT_ONLY
 10
-256.7242400267123
 20
115.8429421624375
 30
0.0
  0
VERTEX
  5
35C
  8
TEXT_ONLY
 10
-256.8985031693169
 20
115.6897665779467
 30
0.0
  0
VERTEX
  5
35D
  8
TEXT_ONLY
 10
-257.0803593559227
 20
115.5466087801256
 30
0.0
  0
VERTEX
  5
35E
  8
TEXT_ONLY
 10
-257.2698085865297
 20
115.4134687689742
 30
0.0
  0
VERTEX
  5
35F
  8
TEXT_ONLY
 10
-257.4668508611379
 20
115.2903465444926
 30
0.0
  0
VERTEX
  5
360
  8
TEXT_ONLY
 10
-257.6714861797473
 20
115.1772421066806
 30
0.0
  0
VERTEX
  5
361
  8
TEXT_ONLY
 10
-257.8837145423579
 20
115.0741554555384
 30
0.0
  0
VERTEX
  5
362
  8
TEXT_ONLY
 10
-258.1035359489697
 20
114.9810865910658
 30
0.0
  0
VERTEX
  5
363
  8
TEXT_ONLY
 10
-258.3309503995827
 20
114.898035513263
 30
0.0
  0
VERTEX
  5
364
  8
TEXT_ONLY
 10
-258.5659578941968
 20
114.8250022221299
 30
0.0
  0
VERTEX
  5
365
  8
TEXT_ONLY
 10
-258.8085584328122
 20
114.7619867176664
 30
0.0
  0
VERTEX
  5
366
  8
TEXT_ONLY
 10
-259.0587520154288
 20
114.7089889998727
 30
0.0
  0
VERTEX
  5
367
  8
TEXT_ONLY
 10
-259.3165386420466
 20
114.6660090687487
 30
0.0
  0
VERTEX
  5
368
  8
TEXT_ONLY
 10
-259.6563942595601
 20
114.6271229704375
 30
0.0
  0
VERTEX
  5
369
  8
TEXT_ONLY
 10
-259.9907820260419
 20
114.6099242970679
 30
0.0
  0
VERTEX
  5
36A
  8
TEXT_ONLY
 10
-260.3197019414922
 20
114.6144130486399
 30
0.0
  0
VERTEX
  5
36B
  8
TEXT_ONLY
 10
-260.6431540059108
 20
114.6405892251534
 30
0.0
  0
VERTEX
  5
36C
  8
TEXT_ONLY
 10
-260.9611382192978
 20
114.6884528266086
 30
0.0
  0
VERTEX
  5
36D
  8
TEXT_ONLY
 10
-261.2736545816533
 20
114.7580038530052
 30
0.0
  0
VERTEX
  5
36E
  8
TEXT_ONLY
 10
-261.5807030929772
 20
114.8492423043435
 30
0.0
  0
VERTEX
  5
36F
  8
TEXT_ONLY
 10
-261.8822837532694
 20
114.9621681806234
 30
0.0
  0
VERTEX
  5
370
  8
TEXT_ONLY
 10
-262.1741272986802
 20
115.0951933606232
 30
0.0
  0
VERTEX
  5
371
  8
TEXT_ONLY
 10
-262.4519644653594
 20
115.2467297231214
 30
0.0
  0
VERTEX
  5
372
  8
TEXT_ONLY
 10
-262.7157952533071
 20
115.4167772681179
 30
0.0
  0
VERTEX
  5
373
  8
TEXT_ONLY
 10
-262.9656196625232
 20
115.6053359956128
 30
0.0
  0
VERTEX
  5
374
  8
TEXT_ONLY
 10
-263.201437693008
 20
115.8124059056061
 30
0.0
  0
VERTEX
  5
375
  8
TEXT_ONLY
 10
-263.4232493447612
 20
116.0379869980977
 30
0.0
  0
VERTEX
  5
376
  8
TEXT_ONLY
 10
-263.6310546177829
 20
116.2820792730877
 30
0.0
  0
VERTEX
  5
377
  8
TEXT_ONLY
 10
-263.8248535120731
 20
116.5446827305761
 30
0.0
  0
VERTEX
  5
378
  8
TEXT_ONLY
 10
-264.0033428839533
 20
116.8227555454998
 30
0.0
  0
VERTEX
  5
379
  8
TEXT_ONLY
 10
-264.1652195897452
 20
117.1132558927958
 30
0.0
  0
VERTEX
  5
37A
  8
TEXT_ONLY
 10
-264.3104836294485
 20
117.4161837724643
 30
0.0
  0
VERTEX
  5
37B
  8
TEXT_ONLY
 10
-264.4391350030634
 20
117.7315391845051
 30
0.0
  0
VERTEX
  5
37C
  8
TEXT_ONLY
 10
-264.5511737105899
 20
118.0593221289183
 30
0.0
  0
VERTEX
  5
37D
  8
TEXT_ONLY
 10
-264.6465997520279
 20
118.3995326057038
 30
0.0
  0
VERTEX
  5
37E
  8
TEXT_ONLY
 10
-264.7254131273775
 20
118.7521706148617
 30
0.0
  0
VERTEX
  5
37F
  8
TEXT_ONLY
 10
-264.7876138366386
 20
119.1172361563919
 30
0.0
  0
VERTEX
  5
380
  8
TEXT_ONLY
 10
-264.8320305869129
 20
119.4899989223945
 30
0.0
  0
VERTEX
  5
381
  8
TEXT_ONLY
 10
-264.8560222386776
 20
119.855602805668
 30
0.0
  0
VERTEX
  5
382
  8
TEXT_ONLY
 10
-264.8595887919329
 20
120.2140478062125
 30
0.0
  0
VERTEX
  5
383
  8
TEXT_ONLY
 10
-264.8427302466787
 20
120.5653339240279
 30
0.0
  0
VERTEX
  5
384
  8
TEXT_ONLY
 10
-264.805446602915
 20
120.9094611591142
 30
0.0
  0
VERTEX
  5
385
  8
TEXT_ONLY
 10
-264.7477378606418
 20
121.2464295114715
 30
0.0
  0
VERTEX
  5
386
  8
TEXT_ONLY
 10
-264.6696040198592
 20
121.5762389810997
 30
0.0
  0
VERTEX
  5
387
  8
TEXT_ONLY
 10
-264.571045080567
 20
121.8988895679988
 30
0.0
  0
VERTEX
  5
388
  8
TEXT_ONLY
 10
-264.4530537291664
 20
122.2100907412057
 30
0.0
  0
VERTEX
  5
389
  8
TEXT_ONLY
 10
-264.3166226520582
 20
122.5055519697572
 30
0.0
  0
VERTEX
  5
38A
  8
TEXT_ONLY
 10
-264.1617518492426
 20
122.7852732536533
 30
0.0
  0
VERTEX
  5
38B
  8
TEXT_ONLY
 10
-263.9884413207193
 20
123.0492545928941
 30
0.0
  0
VERTEX
  5
38C
  8
TEXT_ONLY
 10
-263.7966910664885
 20
123.2974959874794
 30
0.0
  0
VERTEX
  5
38D
  8
TEXT_ONLY
 10
-263.5865010865502
 20
123.5299974374094
 30
0.0
  0
VERTEX
  5
38E
  8
TEXT_ONLY
 10
-263.3578713809043
 20
123.746758942684
 30
0.0
  0
VERTEX
  5
38F
  8
TEXT_ONLY
 10
-263.1108019495509
 20
123.9477805033031
 30
0.0
  0
VERTEX
  5
390
  8
TEXT_ONLY
 10
-262.850384614705
 20
124.1317844996722
 30
0.0
  0
VERTEX
  5
391
  8
TEXT_ONLY
 10
-262.5817111985816
 20
124.2974933121967
 30
0.0
  0
VERTEX
  5
392
  8
TEXT_ONLY
 10
-262.3047817011809
 20
124.4449069408763
 30
0.0
  0
VERTEX
  5
393
  8
TEXT_ONLY
 10
-262.0195961225028
 20
124.5740253857113
 30
0.0
  0
VERTEX
  5
394
  8
TEXT_ONLY
 10
-261.7261544625472
 20
124.6848486467016
 30
0.0
  0
VERTEX
  5
395
  8
TEXT_ONLY
 10
-261.4244567213142
 20
124.7773767238471
 30
0.0
  0
VERTEX
  5
396
  8
TEXT_ONLY
 10
-261.1145028988038
 20
124.851609617148
 30
0.0
  0
VERTEX
  5
397
  8
TEXT_ONLY
 10
-260.796292995016
 20
124.9075473266041
 30
0.0
  0
VERTEX
  5
398
  8
TEXT_ONLY
 10
-260.4500628202321
 20
124.9470356478271
 30
0.0
  0
VERTEX
  5
399
  8
TEXT_ONLY
 10
-260.1100524476743
 20
124.9640811944336
 30
0.0
  0
VERTEX
  5
39A
  8
TEXT_ONLY
 10
-259.7762618773426
 20
124.9586839664235
 30
0.0
  0
VERTEX
  5
39B
  8
TEXT_ONLY
 10
-259.448691109237
 20
124.9308439637968
 30
0.0
  0
VERTEX
  5
39C
  8
TEXT_ONLY
 10
-259.1273401433573
 20
124.8805611865536
 30
0.0
  0
VERTEX
  5
39D
  8
TEXT_ONLY
 10
-258.8122089797038
 20
124.8078356346937
 30
0.0
  0
VERTEX
  5
39E
  8
TEXT_ONLY
 10
-258.5032976182762
 20
124.7126673082173
 30
0.0
  0
VERTEX
  5
39F
  8
TEXT_ONLY
 10
-258.2006060590747
 20
124.5950562071242
 30
0.0
  0
VERTEX
  5
3A0
  8
TEXT_ONLY
 10
-257.9082393941242
 20
124.4573143308864
 30
0.0
  0
VERTEX
  5
3A1
  8
TEXT_ONLY
 10
-257.6303027154497
 20
124.3017536789757
 30
0.0
  0
VERTEX
  5
3A2
  8
TEXT_ONLY
 10
-257.3667960230512
 20
124.1283742513919
 30
0.0
  0
VERTEX
  5
3A3
  8
TEXT_ONLY
 10
-257.1177193169287
 20
123.9371760481352
 30
0.0
  0
VERTEX
  5
3A4
  8
TEXT_ONLY
 10
-256.8830725970823
 20
123.7281590692055
 30
0.0
  0
VERTEX
  5
3A5
  8
TEXT_ONLY
 10
-256.6628558635118
 20
123.5013233146028
 30
0.0
  0
VERTEX
  5
3A6
  8
TEXT_ONLY
 10
-256.4570691162173
 20
123.2566687843272
 30
0.0
  0
VERTEX
  5
3A7
  8
TEXT_ONLY
 10
-256.2657123551988
 20
122.9941954783785
 30
0.0
  0
VERTEX
  5
3A8
  8
TEXT_ONLY
 10
-256.0901244436603
 20
122.7194171272762
 30
0.0
  0
VERTEX
  5
3A9
  8
TEXT_ONLY
 10
-255.9316442448059
 20
122.4378474615395
 30
0.0
  0
VERTEX
  5
3AA
  8
TEXT_ONLY
 10
-255.7902717586354
 20
122.1494864811684
 30
0.0
  0
VERTEX
  5
3AB
  8
TEXT_ONLY
 10
-255.6660069851489
 20
121.8543341861629
 30
0.0
  0
VERTEX
  5
3AC
  8
TEXT_ONLY
 10
-255.5588499243464
 20
121.552390576523
 30
0.0
  0
VERTEX
  5
3AD
  8
TEXT_ONLY
 10
-255.468800576228
 20
121.2436556522486
 30
0.0
  0
VERTEX
  5
3AE
  8
TEXT_ONLY
 10
-255.3958589407935
 20
120.9281294133399
 30
0.0
  0
SEQEND
  5
781
  8
TEXT_ONLY
  0
POLYLINE
  5
9A
  8
TEXT_ONLY
 66
     1
 10
0.0
 20
0.0
 30
0.0
 70
     1
  0
VERTEX
  5
3AF
  8
TEXT_ONLY
 10
-256.6930712848056
 20
120.4300839085199
 30
0.0
  0
VERTEX
  5
3B0
  8
TEXT_ONLY
 10
-256.7288573994608
 20
120.6501833160985
 30
0.0
  0
VERTEX
  5
3B1
  8
TEXT_ONLY
 10
-256.7712975175286
 20
120.8632587363576
 30
0.0
  0
VERTEX
  5
3B2
  8
TEXT_ONLY
 10
-256.8203916390091
 20
121.0693101692972
 30
0.0
  0
VERTEX
  5
3B3
  8
TEXT_ONLY
 10
-256.8761397639022
 20
121.2683376149174
 30
0.0
  0
VERTEX
  5
3B4
  8
TEXT_ONLY
 10
-256.938541892208
 20
121.4603410732182
 30
0.0
  0
VERTEX
  5
3B5
  8
TEXT_ONLY
 10
-257.0075980239266
 20
121.6453205441994
 30
0.0
  0
VERTEX
  5
3B6
  8
TEXT_ONLY
 10
-257.0833081590578
 20
121.8232760278612
 30
0.0
  0
VERTEX
  5
3B7
  8
TEXT_ONLY
 10
-257.1656722976015
 20
121.9942075242036
 30
0.0
  0
VERTEX
  5
3B8
  8
TEXT_ONLY
 10
-257.254690439558
 20
122.1581150332265
 30
0.0
  0
VERTEX
  5
3B9
  8
TEXT_ONLY
 10
-257.3503625849272
 20
122.3149985549299
 30
0.0
  0
VERTEX
  5
3BA
  8
TEXT_ONLY
 10
-257.4526887337091
 20
122.4648580893139
 30
0.0
  0
VERTEX
  5
3BB
  8
TEXT_ONLY
 10
-257.5616688859035
 20
122.6076936363784
 30
0.0
  0
VERTEX
  5
3BC
  8
TEXT_ONLY
 10
-257.6773030415108
 20
122.7435051961234
 30
0.0
  0
VERTEX
  5
3BD
  8
TEXT_ONLY
 10
-257.7995912005306
 20
122.872292768549
 30
0.0
  0
VERTEX
  5
3BE
  8
TEXT_ONLY
 10
-257.9285333629631
 20
122.9940563536551
 30
0.0
  0
VERTEX
  5
3BF
  8
TEXT_ONLY
 10
-258.0641295288083
 20
123.1087959514418
 30
0.0
  0
VERTEX
  5
3C0
  8
TEXT_ONLY
 10
-258.2043807402117
 20
123.2157247319393
 30
0.0
  0
VERTEX
  5
3C1
  8
TEXT_ONLY
 10
-258.3472880393193
 20
123.3140558651779
 30
0.0
  0
VERTEX
  5
3C2
  8
TEXT_ONLY
 10
-258.4928514261309
 20
123.4037893511576
 30
0.0
  0
VERTEX
  5
3C3
  8
TEXT_ONLY
 10
-258.6410709006466
 20
123.4849251898785
 30
0.0
  0
VERTEX
  5
3C4
  8
TEXT_ONLY
 10
-258.7919464628662
 20
123.5574633813405
 30
0.0
  0
VERTEX
  5
3C5
  8
TEXT_ONLY
 10
-258.9454781127898
 20
123.6214039255436
 30
0.0
  0
VERTEX
  5
3C6
  8
TEXT_ONLY
 10
-259.1016658504175
 20
123.6767468224878
 30
0.0
  0
VERTEX
  5
3C7
  8
TEXT_ONLY
 10
-259.2605096757493
 20
123.7234920721732
 30
0.0
  0
VERTEX
  5
3C8
  8
TEXT_ONLY
 10
-259.422009588785
 20
123.7616396745997
 30
0.0
  0
VERTEX
  5
3C9
  8
TEXT_ONLY
 10
-259.5861655895249
 20
123.7911896297673
 30
0.0
  0
VERTEX
  5
3CA
  8
TEXT_ONLY
 10
-259.7529776779687
 20
123.812141937676
 30
0.0
  0
VERTEX
  5
3CB
  8
TEXT_ONLY
 10
-259.9224458541166
 20
123.8244965983259
 30
0.0
  0
VERTEX
  5
3CC
  8
TEXT_ONLY
 10
-260.0945701179685
 20
123.8282536117169
 30
0.0
  0
VERTEX
  5
3CD
  8
TEXT_ONLY
 10
-260.2693504695244
 20
123.823412977849
 30
0.0
  0
VERTEX
  5
3CE
  8
TEXT_ONLY
 10
-260.4467869087843
 20
123.8099746967223
 30
0.0
  0
VERTEX
  5
3CF
  8
TEXT_ONLY
 10
-260.6268794357483
 20
123.7879387683366
 30
0.0
  0
VERTEX
  5
3D0
  8
TEXT_ONLY
 10
-260.8090421849096
 20
123.7573498487514
 30
0.0
  0
VERTEX
  5
3D1
  8
TEXT_ONLY
 10
-260.985938757894
 20
123.7192324917754
 30
0.0
  0
VERTEX
  5
3D2
  8
TEXT_ONLY
 10
-261.1575691547015
 20
123.6735866974085
 30
0.0
  0
VERTEX
  5
3D3
  8
TEXT_ONLY
 10
-261.3239333753321
 20
123.6204124656508
 30
0.0
  0
VERTEX
  5
3D4
  8
TEXT_ONLY
 10
-261.4850314197858
 20
123.5597097965022
 30
0.0
  0
VERTEX
  5
3D5
  8
TEXT_ONLY
 10
-261.6408632880626
 20
123.4914786899628
 30
0.0
  0
VERTEX
  5
3D6
  8
TEXT_ONLY
 10
-261.7914289801624
 20
123.4157191460326
 30
0.0
  0
VERTEX
  5
3D7
  8
TEXT_ONLY
 10
-261.9367284960854
 20
123.3324311647115
 30
0.0
  0
VERTEX
  5
3D8
  8
TEXT_ONLY
 10
-262.0767618358315
 20
123.2416147459996
 30
0.0
  0
VERTEX
  5
3D9
  8
TEXT_ONLY
 10
-262.2115289994007
 20
123.1432698898968
 30
0.0
  0
VERTEX
  5
3DA
  8
TEXT_ONLY
 10
-262.3410299867929
 20
123.0373965964032
 30
0.0
  0
VERTEX
  5
3DB
  8
TEXT_ONLY
 10
-262.4652647980083
 20
122.9239948655188
 30
0.0
  0
VERTEX
  5
3DC
  8
TEXT_ONLY
 10
-262.5842334330467
 20
122.8030646972435
 30
0.0
  0
VERTEX
  5
3DD
  8
TEXT_ONLY
 10
-262.6979358919082
 20
122.6746060915773
 30
0.0
  0
VERTEX
  5
3DE
  8
TEXT_ONLY
 10
-262.8063721745928
 20
122.5386190485204
 30
0.0
  0
VERTEX
  5
3DF
  8
TEXT_ONLY
 10
-262.9095422811005
 20
122.3951035680726
 30
0.0
  0
VERTEX
  5
3E0
  8
TEXT_ONLY
 10
-263.0058542713541
 20
122.2449638563966
 30
0.0
  0
VERTEX
  5
3E1
  8
TEXT_ONLY
 10
-263.0937162052761
 20
122.0891041196552
 30
0.0
  0
VERTEX
  5
3E2
  8
TEXT_ONLY
 10
-263.1731280828666
 20
121.9275243578484
 30
0.0
  0
VERTEX
  5
3E3
  8
TEXT_ONLY
 10
-263.2440899041255
 20
121.7602245709761
 30
0.0
  0
VERTEX
  5
3E4
  8
TEXT_ONLY
 10
-263.3066016690529
 20
121.5872047590384
 30
0.0
  0
VERTEX
  5
3E5
  8
TEXT_ONLY
 10
-263.3606633776488
 20
121.4084649220352
 30
0.0
  0
VERTEX
  5
3E6
  8
TEXT_ONLY
 10
-263.4062750299132
 20
121.2240050599666
 30
0.0
  0
VERTEX
  5
3E7
  8
TEXT_ONLY
 10
-263.4434366258462
 20
121.0338251728325
 30
0.0
  0
VERTEX
  5
3E8
  8
TEXT_ONLY
 10
-263.4721481654476
 20
120.837925260633
 30
0.0
  0
VERTEX
  5
3E9
  8
TEXT_ONLY
 10
-263.4924096487174
 20
120.636305323368
 30
0.0
  0
VERTEX
  5
3EA
  8
TEXT_ONLY
 10
-263.5042210756558
 20
120.4289653610376
 30
0.0
  0
VERTEX
  5
3EB
  8
TEXT_ONLY
 10
-263.5075824462626
 20
120.2159053736418
 30
0.0
  0
VERTEX
  5
3EC
  8
TEXT_ONLY
 10
-263.502493760538
 20
119.9971253611805
 30
0.0
  0
VERTEX
  5
3ED
  8
TEXT_ONLY
 10
-263.4889550184818
 20
119.7726253236538
 30
0.0
  0
VERTEX
  5
3EE
  8
TEXT_ONLY
 10
-263.4669662200942
 20
119.5424052610616
 30
0.0
  0
VERTEX
  5
3EF
  8
TEXT_ONLY
 10
-263.4365273653749
 20
119.306465173404
 30
0.0
  0
VERTEX
  5
3F0
  8
TEXT_ONLY
 10
-263.3869922240441
 20
119.0101043441319
 30
0.0
  0
VERTEX
  5
3F1
  8
TEXT_ONLY
 10
-263.3260876486231
 20
118.7251945479634
 30
0.0
  0
VERTEX
  5
3F2
  8
TEXT_ONLY
 10
-263.2538136391117
 20
118.4517357848984
 30
0.0
  0
VERTEX
  5
3F3
  8
TEXT_ONLY
 10
-263.17017019551
 20
118.1897280549369
 30
0.0
  0
VERTEX
  5
3F4
  8
TEXT_ONLY
 10
-263.075157317818
 20
117.939171358079
 30
0.0
  0
VERTEX
  5
3F5
  8
TEXT_ONLY
 10
-262.9687750060356
 20
117.7000656943246
 30
0.0
  0
VERTEX
  5
3F6
  8
TEXT_ONLY
 10
-262.8510232601629
 20
117.4724110636738
 30
0.0
  0
VERTEX
  5
3F7
  8
TEXT_ONLY
 10
-262.7219020801999
 20
117.2562074661265
 30
0.0
  0
VERTEX
  5
3F8
  8
TEXT_ONLY
 10
-262.5821081210727
 20
117.052915420225
 30
0.0
  0
VERTEX
  5
3F9
  8
TEXT_ONLY
 10
-262.4323380377073
 20
116.8639954445116
 30
0.0
  0
VERTEX
  5
3FA
  8
TEXT_ONLY
 10
-262.2725918301038
 20
116.6894475389864
 30
0.0
  0
VERTEX
  5
3FB
  8
TEXT_ONLY
 10
-262.1028694982622
 20
116.5292717036494
 30
0.0
  0
VERTEX
  5
3FC
  8
TEXT_ONLY
 10
-261.9231710421824
 20
116.3834679385005
 30
0.0
  0
VERTEX
  5
3FD
  8
TEXT_ONLY
 10
-261.7334964618645
 20
116.2520362435397
 30
0.0
  0
VERTEX
  5
3FE
  8
TEXT_ONLY
 10
-261.5338457573085
 20
116.1349766187671
 30
0.0
  0
VERTEX
  5
3FF
  8
TEXT_ONLY
 10
-261.3242189285144
 20
116.0322890641826
 30
0.0
  0
VERTEX
  5
400
  8
TEXT_ONLY
 10
-261.1077232922551
 20
115.9449764704988
 30
0.0
  0
VERTEX
  5
401
  8
TEXT_ONLY
 10
-260.8874661653039
 20
115.8740417284283
 30
0.0
  0
VERTEX
  5
402
  8
TEXT_ONLY
 10
-260.6634475476606
 20
115.8194848379711
 30
0.0
  0
VERTEX
  5
403
  8
TEXT_ONLY
 10
-260.4356674393252
 20
115.7813057991271
 30
0.0
  0
VERTEX
  5
404
  8
TEXT_ONLY
 10
-260.2041258402979
 20
115.7595046118963
 30
0.0
  0
VERTEX
  5
405
  8
TEXT_ONLY
 10
-259.9688227505785
 20
115.7540812762789
 30
0.0
  0
VERTEX
  5
406
  8
TEXT_ONLY
 10
-259.7297581701671
 20
115.7650357922747
 30
0.0
  0
VERTEX
  5
407
  8
TEXT_ONLY
 10
-259.4869320990636
 20
115.7923681598837
 30
0.0
  0
VERTEX
  5
408
  8
TEXT_ONLY
 10
-259.3151637338621
 20
115.8211116842751
 30
0.0
  0
VERTEX
  5
409
  8
TEXT_ONLY
 10
-259.1475110809372
 20
115.8568775233554
 30
0.0
  0
VERTEX
  5
40A
  8
TEXT_ONLY
 10
-258.9839741402891
 20
115.8996656771245
 30
0.0
  0
VERTEX
  5
40B
  8
TEXT_ONLY
 10
-258.8245529119178
 20
115.9494761455824
 30
0.0
  0
VERTEX
  5
40C
  8
TEXT_ONLY
 10
-258.6692473958233
 20
116.0063089287292
 30
0.0
  0
VERTEX
  5
40D
  8
TEXT_ONLY
 10
-258.5180575920054
 20
116.0701640265648
 30
0.0
  0
VERTEX
  5
40E
  8
TEXT_ONLY
 10
-258.3709835004644
 20
116.1410414390892
 30
0.0
  0
VERTEX
  5
40F
  8
TEXT_ONLY
 10
-258.2280251212002
 20
116.2189411663025
 30
0.0
  0
VERTEX
  5
410
  8
TEXT_ONLY
 10
-258.0891824542127
 20
116.3038632082046
 30
0.0
  0
VERTEX
  5
411
  8
TEXT_ONLY
 10
-257.9544554995019
 20
116.3958075647955
 30
0.0
  0
VERTEX
  5
412
  8
TEXT_ONLY
 10
-257.8238442570679
 20
116.4947742360753
 30
0.0
  0
VERTEX
  5
413
  8
TEXT_ONLY
 10
-257.6973487269107
 20
116.6007632220439
 30
0.0
  0
VERTEX
  5
414
  8
TEXT_ONLY
 10
-257.5749689090302
 20
116.7137745227014
 30
0.0
  0
VERTEX
  5
415
  8
TEXT_ONLY
 10
-257.4567048034265
 20
116.8338081380476
 30
0.0
  0
VERTEX
  5
416
  8
TEXT_ONLY
 10
-257.3425564100996
 20
116.9608640680828
 30
0.0
  0
VERTEX
  5
417
  8
TEXT_ONLY
 10
-257.2325237290494
 20
117.0949423128067
 30
0.0
  0
VERTEX
  5
418
  8
TEXT_ONLY
 10
-257.1291900945842
 20
117.2369602741041
 30
0.0
  0
VERTEX
  5
419
  8
TEXT_ONLY
 10
-257.0351388410124
 20
117.3878353538594
 30
0.0
  0
VERTEX
  5
41A
  8
TEXT_ONLY
 10
-256.9503699683339
 20
117.5475675520727
 30
0.0
  0
VERTEX
  5
41B
  8
TEXT_ONLY
 10
-256.8748834765487
 20
117.7161568687439
 30
0.0
  0
VERTEX
  5
41C
  8
TEXT_ONLY
 10
-256.8086793656568
 20
117.8936033038731
 30
0.0
  0
VERTEX
  5
41D
  8
TEXT_ONLY
 10
-256.7517576356583
 20
118.0799068574603
 30
0.0
  0
VERTEX
  5
41E
  8
TEXT_ONLY
 10
-256.7041182865531
 20
118.2750675295054
 30
0.0
  0
VERTEX
  5
41F
  8
TEXT_ONLY
 10
-256.6657613183412
 20
118.4790853200085
 30
0.0
  0
VERTEX
  5
420
  8
TEXT_ONLY
 10
-256.6366867310226
 20
118.6919602289695
 30
0.0
  0
VERTEX
  5
421
  8
TEXT_ONLY
 10
-256.6168945245973
 20
118.9136922563886
 30
0.0
  0
VERTEX
  5
422
  8
TEXT_ONLY
 10
-256.6063846990654
 20
119.1442814022656
 30
0.0
  0
VERTEX
  5
423
  8
TEXT_ONLY
 10
-256.6051572544268
 20
119.3837276666005
 30
0.0
  0
VERTEX
  5
424
  8
TEXT_ONLY
 10
-256.6132121906815
 20
119.6320310493934
 30
0.0
  0
VERTEX
  5
425
  8
TEXT_ONLY
 10
-256.6305495078295
 20
119.8891915506443
 30
0.0
  0
VERTEX
  5
426
  8
TEXT_ONLY
 10
-256.6571692058709
 20
120.1552091703531
 30
0.0
  0
SEQEND
  5
782
  8
TEXT_ONLY
  0
POLYLINE
  5
9B
  8
TEXT_ONLY
 66
     1
 10
0.0
 20
0.0
 30
0.0
 70
     1
  0
VERTEX
  5
427
  8
TEXT_ONLY
 10
-267.1915523083415
 20
123.8069012452371
 30
0.0
  0
VERTEX
  5
428
  8
TEXT_ONLY
 10
-265.7550222077239
 20
113.9106200613772
 30
0.0
  0
VERTEX
  5
429
  8
TEXT_ONLY
 10
-269.4880668834909
 20
113.36873660596
 30
0.0
  0
VERTEX
  5
42A
  8
TEXT_ONLY
 10
-269.952601520363
 20
113.3073365955573
 30
0.0
  0
VERTEX
  5
42B
  8
TEXT_ONLY
 10
-270.3606276323137
 20
113.2662016357615
 30
0.0
  0
VERTEX
  5
42C
  8
TEXT_ONLY
 10
-270.712145219343
 20
113.2453317265724
 30
0.0
  0
VERTEX
  5
42D
  8
TEXT_ONLY
 10
-271.0071542814509
 20
113.2447268679902
 30
0.0
  0
VERTEX
  5
42E
  8
TEXT_ONLY
 10
-271.1906341154116
 20
113.2526109132141
 30
0.0
  0
VERTEX
  5
42F
  8
TEXT_ONLY
 10
-271.3677257627
 20
113.2684227315449
 30
0.0
  0
VERTEX
  5
430
  8
TEXT_ONLY
 10
-271.5384292233164
 20
113.2921623229828
 30
0.0
  0
VERTEX
  5
431
  8
TEXT_ONLY
 10
-271.7027444972605
 20
113.3238296875278
 30
0.0
  0
VERTEX
  5
432
  8
TEXT_ONLY
 10
-271.8606715845324
 20
113.3634248251797
 30
0.0
  0
VERTEX
  5
433
  8
TEXT_ONLY
 10
-272.0122104851321
 20
113.4109477359387
 30
0.0
  0
VERTEX
  5
434
  8
TEXT_ONLY
 10
-272.1573611990597
 20
113.4663984198047
 30
0.0
  0
VERTEX
  5
435
  8
TEXT_ONLY
 10
-272.2961237263152
 20
113.5297768767778
 30
0.0
  0
VERTEX
  5
436
  8
TEXT_ONLY
 10
-272.4293061551114
 20
113.6018274026012
 30
0.0
  0
VERTEX
  5
437
  8
TEXT_ONLY
 10
-272.5577165736617
 20
113.6832942930181
 30
0.0
  0
VERTEX
  5
438
  8
TEXT_ONLY
 10
-272.6813549819657
 20
113.7741775480286
 30
0.0
  0
VERTEX
  5
439
  8
TEXT_ONLY
 10
-272.8002213800237
 20
113.8744771676327
 30
0.0
  0
VERTEX
  5
43A
  8
TEXT_ONLY
 10
-272.9143157678356
 20
113.9841931518304
 30
0.0
  0
VERTEX
  5
43B
  8
TEXT_ONLY
 10
-273.0236381454014
 20
114.1033255006217
 30
0.0
  0
VERTEX
  5
43C
  8
TEXT_ONLY
 10
-273.1281885127211
 20
114.2318742140065
 30
0.0
  0
VERTEX
  5
43D
  8
TEXT_ONLY
 10
-273.2279668697947
 20
114.3698392919849
 30
0.0
  0
VERTEX
  5
43E
  8
TEXT_ONLY
 10
-273.3209410881027
 20
114.515092474783
 30
0.0
  0
VERTEX
  5
43F
  8
TEXT_ONLY
 10
-273.4050790391259
 20
114.6655055026268
 30
0.0
  0
VERTEX
  5
440
  8
TEXT_ONLY
 10
-273.4803807228641
 20
114.8210783755164
 30
0.0
  0
VERTEX
  5
441
  8
TEXT_ONLY
 10
-273.5468461393174
 20
114.9818110934518
 30
0.0
  0
VERTEX
  5
442
  8
TEXT_ONLY
 10
-273.6044752884857
 20
115.147703656433
 30
0.0
  0
VERTEX
  5
443
  8
TEXT_ONLY
 10
-273.6532681703692
 20
115.3187560644599
 30
0.0
  0
VERTEX
  5
444
  8
TEXT_ONLY
 10
-273.6932247849676
 20
115.4949683175326
 30
0.0
  0
VERTEX
  5
445
  8
TEXT_ONLY
 10
-273.7243451322812
 20
115.676340415651
 30
0.0
  0
VERTEX
  5
446
  8
TEXT_ONLY
 10
-273.7567232031307
 20
115.9876848927146
 30
0.0
  0
VERTEX
  5
447
  8
TEXT_ONLY
 10
-273.7622369761106
 20
116.2905435007873
 30
0.0
  0
VERTEX
  5
448
  8
TEXT_ONLY
 10
-273.7408864512206
 20
116.5849162398691
 30
0.0
  0
VERTEX
  5
449
  8
TEXT_ONLY
 10
-273.6926716284609
 20
116.8708031099601
 30
0.0
  0
VERTEX
  5
44A
  8
TEXT_ONLY
 10
-273.6175925078314
 20
117.1482041110603
 30
0.0
  0
VERTEX
  5
44B
  8
TEXT_ONLY
 10
-273.5156490893323
 20
117.4171192431697
 30
0.0
  0
VERTEX
  5
44C
  8
TEXT_ONLY
 10
-273.3868413729634
 20
117.6775485062881
 30
0.0
  0
VERTEX
  5
44D
  8
TEXT_ONLY
 10
-273.2311693587247
 20
117.9294919004158
 30
0.0
  0
VERTEX
  5
44E
  8
TEXT_ONLY
 10
-273.1410586870242
 20
118.0506622332066
 30
0.0
  0
VERTEX
  5
44F
  8
TEXT_ONLY
 10
-273.0398308350962
 20
118.166472771947
 30
0.0
  0
VERTEX
  5
450
  8
TEXT_ONLY
 10
-272.9274858029407
 20
118.2769235166368
 30
0.0
  0
VERTEX
  5
451
  8
TEXT_ONLY
 10
-272.8040235905577
 20
118.3820144672761
 30
0.0
  0
VERTEX
  5
452
  8
TEXT_ONLY
 10
-272.6694441979471
 20
118.4817456238649
 30
0.0
  0
VERTEX
  5
453
  8
TEXT_ONLY
 10
-272.5237476251091
 20
118.5761169864032
 30
0.0
  0
VERTEX
  5
454
  8
TEXT_ONLY
 10
-272.3669338720437
 20
118.6651285548909
 30
0.0
  0
VERTEX
  5
455
  8
TEXT_ONLY
 10
-272.1990029387506
 20
118.7487803293282
 30
0.0
  0
VERTEX
  5
456
  8
TEXT_ONLY
 10
-272.01995482523
 20
118.8270723097149
 30
0.0
  0
VERTEX
  5
457
  8
TEXT_ONLY
 10
-271.829789531482
 20
118.9000044960511
 30
0.0
  0
VERTEX
  5
458
  8
TEXT_ONLY
 10
-271.6285070575065
 20
118.9675768883368
 30
0.0
  0
VERTEX
  5
459
  8
TEXT_ONLY
 10
-271.4161074033033
 20
119.0297894865719
 30
0.0
  0
VERTEX
  5
45A
  8
TEXT_ONLY
 10
-271.1925905688728
 20
119.0866422907566
 30
0.0
  0
VERTEX
  5
45B
  8
TEXT_ONLY
 10
-270.9579565542147
 20
119.1381353008908
 30
0.0
  0
VERTEX
  5
45C
  8
TEXT_ONLY
 10
-270.455336984216
 20
119.2250419390075
 30
0.0
  0
VERTEX
  5
45D
  8
TEXT_ONLY
 10
-267.9171366260091
 20
119.5934834927812
 30
0.0
  0
VERTEX
  5
45E
  8
TEXT_ONLY
 10
-268.5011556846504
 20
123.6168010818538
 30
0.0
  0
SEQEND
  5
783
  8
TEXT_ONLY
  0
POLYLINE
  5
9C
  8
TEXT_ONLY
 66
     1
 10
0.0
 20
0.0
 30
0.0
 70
     1
  0
VERTEX
  5
45F
  8
TEXT_ONLY
 10
-267.7476143153632
 20
118.4256413066913
 30
0.0
  0
VERTEX
  5
460
  8
TEXT_ONLY
 10
-270.3060662721728
 20
118.0542600596694
 30
0.0
  0
VERTEX
  5
461
  8
TEXT_ONLY
 10
-270.6107725524952
 20
118.0024903584782
 30
0.0
  0
VERTEX
  5
462
  8
TEXT_ONLY
 10
-270.8903413039106
 20
117.9392916433481
 30
0.0
  0
VERTEX
  5
463
  8
TEXT_ONLY
 10
-271.144772526419
 20
117.8646639142791
 30
0.0
  0
VERTEX
  5
464
  8
TEXT_ONLY
 10
-271.3740662200205
 20
117.7786071712711
 30
0.0
  0
VERTEX
  5
465
  8
TEXT_ONLY
 10
-271.578222384715
 20
117.6811214143243
 30
0.0
  0
VERTEX
  5
466
  8
TEXT_ONLY
 10
-271.7572410205025
 20
117.5722066434385
 30
0.0
  0
VERTEX
  5
467
  8
TEXT_ONLY
 10
-271.911122127383
 20
117.4518628586137
 30
0.0
  0
VERTEX
  5
468
  8
TEXT_ONLY
 10
-272.0398657053566
 20
117.3200900598501
 30
0.0
  0
VERTEX
  5
469
  8
TEXT_ONLY
 10
-272.1468351084353
 20
117.1778001220662
 30
0.0
  0
VERTEX
  5
46A
  8
TEXT_ONLY
 10
-272.2353936906309
 20
117.0259049201808
 30
0.0
  0
VERTEX
  5
46B
  8
TEXT_ONLY
 10
-272.3055414519436
 20
116.8644044541938
 30
0.0
  0
VERTEX
  5
46C
  8
TEXT_ONLY
 10
-272.3572783923734
 20
116.6932987241054
 30
0.0
  0
VERTEX
  5
46D
  8
TEXT_ONLY
 10
-272.3906045119203
 20
116.5125877299153
 30
0.0
  0
VERTEX
  5
46E
  8
TEXT_ONLY
 10
-272.4055198105842
 20
116.3222714716238
 30
0.0
  0
VERTEX
  5
46F
  8
TEXT_ONLY
 10
-272.4020242883652
 20
116.1223499492307
 30
0.0
  0
VERTEX
  5
470
  8
TEXT_ONLY
 10
-272.3801179452633
 20
115.912823162736
 30
0.0
  0
VERTEX
  5
471
  8
TEXT_ONLY
 10
-272.3530813519025
 20
115.7610680062559
 30
0.0
  0
VERTEX
  5
472
  8
TEXT_ONLY
 10
-272.3170468682921
 20
115.6163270487239
 30
0.0
  0
VERTEX
  5
473
  8
TEXT_ONLY
 10
-272.2720144944323
 20
115.4786002901399
 30
0.0
  0
VERTEX
  5
474
  8
TEXT_ONLY
 10
-272.2179842303229
 20
115.3478877305039
 30
0.0
  0
VERTEX
  5
475
  8
TEXT_ONLY
 10
-272.1549560759642
 20
115.224189369816
 30
0.0
  0
VERTEX
  5
476
  8
TEXT_ONLY
 10
-272.0829300313559
 20
115.1075052080761
 30
0.0
  0
VERTEX
  5
477
  8
TEXT_ONLY
 10
-272.0019060964983
 20
114.9978352452843
 30
0.0
  0
VERTEX
  5
478
  8
TEXT_ONLY
 10
-271.911884271391
 20
114.8951794814406
 30
0.0
  0
VERTEX
  5
479
  8
TEXT_ONLY
 10
-271.8149332625694
 20
114.8011762185742
 30
0.0
  0
VERTEX
  5
47A
  8
TEXT_ONLY
 10
-271.7131217765682
 20
114.7174637587145
 30
0.0
  0
VERTEX
  5
47B
  8
TEXT_ONLY
 10
-271.6064498133874
 20
114.6440421018615
 30
0.0
  0
VERTEX
  5
47C
  8
TEXT_ONLY
 10
-271.4949173730271
 20
114.5809112480152
 30
0.0
  0
VERTEX
  5
47D
  8
TEXT_ONLY
 10
-271.3785244554873
 20
114.5280711971755
 30
0.0
  0
VERTEX
  5
47E
  8
TEXT_ONLY
 10
-271.2572710607679
 20
114.4855219493426
 30
0.0
  0
VERTEX
  5
47F
  8
TEXT_ONLY
 10
-271.131157188869
 20
114.4532635045164
 30
0.0
  0
VERTEX
  5
480
  8
TEXT_ONLY
 10
-271.0001828397906
 20
114.4312958626969
 30
0.0
  0
VERTEX
  5
481
  8
TEXT_ONLY
 10
-270.7942032268348
 20
114.4219929214478
 30
0.0
  0
VERTEX
  5
482
  8
TEXT_ONLY
 10
-270.5197791692208
 20
114.4338260352586
 30
0.0
  0
VERTEX
  5
483
  8
TEXT_ONLY
 10
-270.1769106669485
 20
114.4667952041291
 30
0.0
  0
VERTEX
  5
484
  8
TEXT_ONLY
 10
-269.7655977200179
 20
114.5209004280595
 30
0.0
  0
VERTEX
  5
485
  8
TEXT_ONLY
 10
-267.2341478946786
 20
114.8883620840838
 30
0.0
  0
SEQEND
  5
784
  8
TEXT_ONLY
  0
POLYLINE
  5
9D
  8
TEXT_ONLY
 66
     1
 10
0.0
 20
0.0
 30
0.0
 70
     1
  0
VERTEX
  5
486
  8
TEXT_ONLY
 10
284.0639623156944
 20
159.5907338689535
 30
0.0
  0
VERTEX
  5
487
  8
TEXT_ONLY
 10
284.3615518189046
 20
160.9227841072927
 30
0.0
  0
VERTEX
  5
488
  8
TEXT_ONLY
 10
284.7600337240837
 20
160.8193270737975
 30
0.0
  0
VERTEX
  5
489
  8
TEXT_ONLY
 10
285.1349042715968
 20
160.6944265643931
 30
0.0
  0
VERTEX
  5
48A
  8
TEXT_ONLY
 10
285.4861634614444
 20
160.5480825790797
 30
0.0
  0
VERTEX
  5
48B
  8
TEXT_ONLY
 10
285.8138112936261
 20
160.3802951178572
 30
0.0
  0
VERTEX
  5
48C
  8
TEXT_ONLY
 10
285.9687809505924
 20
160.28836008378
 30
0.0
  0
VERTEX
  5
48D
  8
TEXT_ONLY
 10
286.1178477681422
 20
160.1910641807255
 30
0.0
  0
VERTEX
  5
48E
  8
TEXT_ONLY
 10
286.2610117462755
 20
160.0884074086938
 30
0.0
  0
VERTEX
  5
48F
  8
TEXT_ONLY
 10
286.3982728849924
 20
159.9803897676848
 30
0.0
  0
VERTEX
  5
490
  8
TEXT_ONLY
 10
286.5296311842928
 20
159.8670112576986
 30
0.0
  0
VERTEX
  5
491
  8
TEXT_ONLY
 10
286.6550866441768
 20
159.748271878735
 30
0.0
  0
VERTEX
  5
492
  8
TEXT_ONLY
 10
286.7746392646444
 20
159.6241716307942
 30
0.0
  0
VERTEX
  5
493
  8
TEXT_ONLY
 10
286.8882890456956
 20
159.4947105138761
 30
0.0
  0
VERTEX
  5
494
  8
TEXT_ONLY
 10
286.9956965040642
 20
159.3605988604627
 30
0.0
  0
VERTEX
  5
495
  8
TEXT_ONLY
 10
287.0965221564842
 20
159.2225470030359
 30
0.0
  0
VERTEX
  5
496
  8
TEXT_ONLY
 10
287.1907660029556
 20
159.0805549415958
 30
0.0
  0
VERTEX
  5
497
  8
TEXT_ONLY
 10
287.2784280434782
 20
158.9346226761423
 30
0.0
  0
VERTEX
  5
498
  8
TEXT_ONLY
 10
287.3595082780524
 20
158.7847502066755
 30
0.0
  0
VERTEX
  5
499
  8
TEXT_ONLY
 10
287.4340067066779
 20
158.6309375331953
 30
0.0
  0
VERTEX
  5
49A
  8
TEXT_ONLY
 10
287.5019233293548
 20
158.4731846557017
 30
0.0
  0
VERTEX
  5
49B
  8
TEXT_ONLY
 10
287.5632581460831
 20
158.3114915741948
 30
0.0
  0
VERTEX
  5
49C
  8
TEXT_ONLY
 10
287.6661823616938
 20
157.9762847991408
 30
0.0
  0
VERTEX
  5
49D
  8
TEXT_ONLY
 10
287.74277935351
 20
157.6253172080335
 30
0.0
  0
VERTEX
  5
49E
  8
TEXT_ONLY
 10
287.7930491215317
 20
157.2585888008727
 30
0.0
  0
VERTEX
  5
49F
  8
TEXT_ONLY
 10
287.816991665759
 20
156.8760995776584
 30
0.0
  0
VERTEX
  5
4A0
  8
TEXT_ONLY
 10
287.8176055048609
 20
156.4812376518203
 30
0.0
  0
VERTEX
  5
4A1
  8
TEXT_ONLY
 10
287.7971360443308
 20
156.1046658708484
 30
0.0
  0
VERTEX
  5
4A2
  8
TEXT_ONLY
 10
287.7555832841686
 20
155.7463842347428
 30
0.0
  0
VERTEX
  5
4A3
  8
TEXT_ONLY
 10
287.6929472243743
 20
155.4063927435035
 30
0.0
  0
VERTEX
  5
4A4
  8
TEXT_ONLY
 10
287.6092278649479
 20
155.0846913971304
 30
0.0
  0
VERTEX
  5
4A5
  8
TEXT_ONLY
 10
287.5044252058896
 20
154.7812801956235
 30
0.0
  0
VERTEX
  5
4A6
  8
TEXT_ONLY
 10
287.378539247199
 20
154.496159138983
 30
0.0
  0
VERTEX
  5
4A7
  8
TEXT_ONLY
 10
287.2315699888764
 20
154.2293282272086
 30
0.0
  0
VERTEX
  5
4A8
  8
TEXT_ONLY
 10
287.0646343325669
 20
153.9789523950103
 30
0.0
  0
VERTEX
  5
4A9
  8
TEXT_ONLY
 10
286.878849179916
 20
153.7431965770978
 30
0.0
  0
VERTEX
  5
4AA
  8
TEXT_ONLY
 10
286.6742145309233
 20
153.5220607734711
 30
0.0
  0
VERTEX
  5
4AB
  8
TEXT_ONLY
 10
286.4507303855892
 20
153.3155449841301
 30
0.0
  0
VERTEX
  5
4AC
  8
TEXT_ONLY
 10
286.2083967439135
 20
153.123649209075
 30
0.0
  0
VERTEX
  5
4AD
  8
TEXT_ONLY
 10
285.9472136058961
 20
152.9463734483056
 30
0.0
  0
VERTEX
  5
4AE
  8
TEXT_ONLY
 10
285.6671809715372
 20
152.783717701822
 30
0.0
  0
VERTEX
  5
4AF
  8
TEXT_ONLY
 10
285.3682988408368
 20
152.6356819696242
 30
0.0
  0
VERTEX
  5
4B0
  8
TEXT_ONLY
 10
285.0568873366109
 20
152.5031338142331
 30
0.0
  0
VERTEX
  5
4B1
  8
TEXT_ONLY
 10
284.739266581676
 20
152.3869407981697
 30
0.0
  0
VERTEX
  5
4B2
  8
TEXT_ONLY
 10
284.4154365760319
 20
152.2871029214339
 30
0.0
  0
VERTEX
  5
4B3
  8
TEXT_ONLY
 10
284.0853973196788
 20
152.2036201840259
 30
0.0
  0
VERTEX
  5
4B4
  8
TEXT_ONLY
 10
283.7491488126165
 20
152.1364925859454
 30
0.0
  0
VERTEX
  5
4B5
  8
TEXT_ONLY
 10
283.4066910548452
 20
152.0857201271926
 30
0.0
  0
VERTEX
  5
4B6
  8
TEXT_ONLY
 10
283.0580240463647
 20
152.0513028077675
 30
0.0
  0
VERTEX
  5
4B7
  8
TEXT_ONLY
 10
282.7031477871751
 20
152.03324062767
 30
0.0
  0
VERTEX
  5
4B8
  8
TEXT_ONLY
 10
282.3187534471046
 20
152.0319562123364
 30
0.0
  0
VERTEX
  5
4B9
  8
TEXT_ONLY
 10
281.9463096893751
 20
152.0496608309956
 30
0.0
  0
VERTEX
  5
4BA
  8
TEXT_ONLY
 10
281.5858165139866
 20
152.0863544836477
 30
0.0
  0
VERTEX
  5
4BB
  8
TEXT_ONLY
 10
281.2372739209392
 20
152.1420371702926
 30
0.0
  0
VERTEX
  5
4BC
  8
TEXT_ONLY
 10
280.9006819102327
 20
152.2167088909304
 30
0.0
  0
VERTEX
  5
4BD
  8
TEXT_ONLY
 10
280.5760404818673
 20
152.310369645561
 30
0.0
  0
VERTEX
  5
4BE
  8
TEXT_ONLY
 10
280.2633496358428
 20
152.4230194341845
 30
0.0
  0
VERTEX
  5
4BF
  8
TEXT_ONLY
 10
279.9626093721593
 20
152.5546582568008
 30
0.0
  0
VERTEX
  5
4C0
  8
TEXT_ONLY
 10
279.6763631411227
 20
152.703916930792
 30
0.0
  0
VERTEX
  5
4C1
  8
TEXT_ONLY
 10
279.4071543930388
 20
152.8694262735403
 30
0.0
  0
VERTEX
  5
4C2
  8
TEXT_ONLY
 10
279.1549831279076
 20
153.0511862850457
 30
0.0
  0
VERTEX
  5
4C3
  8
TEXT_ONLY
 10
278.9198493457291
 20
153.249196965308
 30
0.0
  0
VERTEX
  5
4C4
  8
TEXT_ONLY
 10
278.7017530465033
 20
153.4634583143275
 30
0.0
  0
VERTEX
  5
4C5
  8
TEXT_ONLY
 10
278.5006942302301
 20
153.6939703321039
 30
0.0
  0
VERTEX
  5
4C6
  8
TEXT_ONLY
 10
278.3166728969097
 20
153.9407330186374
 30
0.0
  0
VERTEX
  5
4C7
  8
TEXT_ONLY
 10
278.1496890465419
 20
154.2037463739279
 30
0.0
  0
VERTEX
  5
4C8
  8
TEXT_ONLY
 10
278.0005572883776
 20
154.4786080298979
 30
0.0
  0
VERTEX
  5
4C9
  8
TEXT_ONLY
 10
277.8700922316676
 20
154.7609156184697
 30
0.0
  0
VERTEX
  5
4CA
  8
TEXT_ONLY
 10
277.7582938764117
 20
155.0506691396433
 30
0.0
  0
VERTEX
  5
4CB
  8
TEXT_ONLY
 10
277.66516222261
 20
155.3478685934187
 30
0.0
  0
VERTEX
  5
4CC
  8
TEXT_ONLY
 10
277.5906972702626
 20
155.6525139797959
 30
0.0
  0
VERTEX
  5
4CD
  8
TEXT_ONLY
 10
277.5348990193693
 20
155.964605298775
 30
0.0
  0
VERTEX
  5
4CE
  8
TEXT_ONLY
 10
277.4977674699302
 20
156.2841425503559
 30
0.0
  0
VERTEX
  5
4CF
  8
TEXT_ONLY
 10
277.4793026219454
 20
156.6111257345387
 30
0.0
  0
VERTEX
  5
4D0
  8
TEXT_ONLY
 10
277.4810859413123
 20
156.9790248797904
 30
0.0
  0
VERTEX
  5
4D1
  8
TEXT_ONLY
 10
277.5071465117502
 20
157.3326671288817
 30
0.0
  0
VERTEX
  5
4D2
  8
TEXT_ONLY
 10
277.5574843332592
 20
157.6720524818126
 30
0.0
  0
VERTEX
  5
4D3
  8
TEXT_ONLY
 10
277.6320994058391
 20
157.997180938583
 30
0.0
  0
VERTEX
  5
4D4
  8
TEXT_ONLY
 10
277.7309917294901
 20
158.308052499193
 30
0.0
  0
VERTEX
  5
4D5
  8
TEXT_ONLY
 10
277.854161304212
 20
158.6046671636427
 30
0.0
  0
VERTEX
  5
4D6
  8
TEXT_ONLY
 10
278.001608130005
 20
158.8870249319318
 30
0.0
  0
VERTEX
  5
4D7
  8
TEXT_ONLY
 10
278.173332206869
 20
159.1551258040606
 30
0.0
  0
VERTEX
  5
4D8
  8
TEXT_ONLY
 10
278.3671579330908
 20
159.4066706206852
 30
0.0
  0
VERTEX
  5
4D9
  8
TEXT_ONLY
 10
278.5809097069572
 20
159.6393602224623
 30
0.0
  0
VERTEX
  5
4DA
  8
TEXT_ONLY
 10
278.8145875284683
 20
159.8531946093917
 30
0.0
  0
VERTEX
  5
4DB
  8
TEXT_ONLY
 10
279.068191397624
 20
160.0481737814735
 30
0.0
  0
VERTEX
  5
4DC
  8
TEXT_ONLY
 10
279.3417213144244
 20
160.2242977387075
 30
0.0
  0
VERTEX
  5
4DD
  8
TEXT_ONLY
 10
279.6351772788694
 20
160.381566481094
 30
0.0
  0
VERTEX
  5
4DE
  8
TEXT_ONLY
 10
279.948559290959
 20
160.5199800086328
 30
0.0
  0
VERTEX
  5
4DF
  8
TEXT_ONLY
 10
280.2818673506932
 20
160.6395383213239
 30
0.0
  0
VERTEX
  5
4E0
  8
TEXT_ONLY
 10
280.624669263023
 20
159.3456422931636
 30
0.0
  0
VERTEX
  5
4E1
  8
TEXT_ONLY
 10
280.3637269435933
 20
159.2465279586161
 30
0.0
  0
VERTEX
  5
4E2
  8
TEXT_ONLY
 10
280.1215935700179
 20
159.1381236481274
 30
0.0
  0
VERTEX
  5
4E3
  8
TEXT_ONLY
 10
279.8982691422968
 20
159.0204293616975
 30
0.0
  0
VERTEX
  5
4E4
  8
TEXT_ONLY
 10
279.6937536604302
 20
158.8934450993263
 30
0.0
  0
VERTEX
  5
4E5
  8
TEXT_ONLY
 10
279.5080471244178
 20
158.7571708610138
 30
0.0
  0
VERTEX
  5
4E6
  8
TEXT_ONLY
 10
279.3411495342598
 20
158.6116066467601
 30
0.0
  0
VERTEX
  5
4E7
  8
TEXT_ONLY
 10
279.1930608899561
 20
158.4567524565651
 30
0.0
  0
VERTEX
  5
4E8
  8
TEXT_ONLY
 10
279.0637811915067
 20
158.2926082904289
 30
0.0
  0
VERTEX
  5
4E9
  8
TEXT_ONLY
 10
278.9518306192862
 20
158.1187067947549
 30
0.0
  0
VERTEX
  5
4EA
  8
TEXT_ONLY
 10
278.8557293536688
 20
157.9345806159467
 30
0.0
  0
VERTEX
  5
4EB
  8
TEXT_ONLY
 10
278.7754773946547
 20
157.7402297540042
 30
0.0
  0
VERTEX
  5
4EC
  8
TEXT_ONLY
 10
278.7110747422438
 20
157.5356542089274
 30
0.0
  0
VERTEX
  5
4ED
  8
TEXT_ONLY
 10
278.6625213964361
 20
157.3208539807164
 30
0.0
  0
VERTEX
  5
4EE
  8
TEXT_ONLY
 10
278.6298173572316
 20
157.0958290693712
 30
0.0
  0
VERTEX
  5
4EF
  8
TEXT_ONLY
 10
278.6129626246303
 20
156.8605794748917
 30
0.0
  0
VERTEX
  5
4F0
  8
TEXT_ONLY
 10
278.6119571986322
 20
156.6151051972779
 30
0.0
  0
VERTEX
  5
4F1
  8
TEXT_ONLY
 10
278.6283785802934
 20
156.3331671855904
 30
0.0
  0
VERTEX
  5
4F2
  8
TEXT_ONLY
 10
278.6617332094362
 20
156.063531907556
 30
0.0
  0
VERTEX
  5
4F3
  8
TEXT_ONLY
 10
278.7120210860605
 20
155.8061993631749
 30
0.0
  0
VERTEX
  5
4F4
  8
TEXT_ONLY
 10
278.7792422101663
 20
155.5611695524469
 30
0.0
  0
VERTEX
  5
4F5
  8
TEXT_ONLY
 10
278.8633965817537
 20
155.3284424753721
 30
0.0
  0
VERTEX
  5
4F6
  8
TEXT_ONLY
 10
278.9644842008227
 20
155.1080181319504
 30
0.0
  0
VERTEX
  5
4F7
  8
TEXT_ONLY
 10
279.0825050673732
 20
154.8998965221819
 30
0.0
  0
VERTEX
  5
4F8
  8
TEXT_ONLY
 10
279.2174591814053
 20
154.7040776460666
 30
0.0
  0
VERTEX
  5
4F9
  8
TEXT_ONLY
 10
279.3665944215257
 20
154.5217649896308
 30
0.0
  0
VERTEX
  5
4FA
  8
TEXT_ONLY
 10
279.5271586663413
 20
154.3541620389008
 30
0.0
  0
VERTEX
  5
4FB
  8
TEXT_ONLY
 10
279.6991519158521
 20
154.2012687938766
 30
0.0
  0
VERTEX
  5
4FC
  8
TEXT_ONLY
 10
279.8825741700581
 20
154.0630852545583
 30
0.0
  0
VERTEX
  5
4FD
  8
TEXT_ONLY
 10
280.0774254289594
 20
153.9396114209458
 30
0.0
  0
VERTEX
  5
4FE
  8
TEXT_ONLY
 10
280.2837056925557
 20
153.8308472930391
 30
0.0
  0
VERTEX
  5
4FF
  8
TEXT_ONLY
 10
280.5014149608473
 20
153.7367928708383
 30
0.0
  0
VERTEX
  5
500
  8
TEXT_ONLY
 10
280.7305532338342
 20
153.6574481543433
 30
0.0
  0
VERTEX
  5
501
  8
TEXT_ONLY
 10
280.9661762905491
 20
153.5903842251887
 30
0.0
  0
VERTEX
  5
502
  8
TEXT_ONLY
 10
281.2033399100252
 20
153.5331721650088
 30
0.0
  0
VERTEX
  5
503
  8
TEXT_ONLY
 10
281.4420440922623
 20
153.4858119738038
 30
0.0
  0
VERTEX
  5
504
  8
TEXT_ONLY
 10
281.6822888372607
 20
153.4483036515737
 30
0.0
  0
VERTEX
  5
505
  8
TEXT_ONLY
 10
281.9240741450201
 20
153.4206471983183
 30
0.0
  0
VERTEX
  5
506
  8
TEXT_ONLY
 10
282.1674000155407
 20
153.4028426140378
 30
0.0
  0
VERTEX
  5
507
  8
TEXT_ONLY
 10
282.4122664488223
 20
153.3948898987321
 30
0.0
  0
VERTEX
  5
508
  8
TEXT_ONLY
 10
282.6586734448651
 20
153.3967890524013
 30
0.0
  0
VERTEX
  5
509
  8
TEXT_ONLY
 10
282.9722258267911
 20
153.4112578600291
 30
0.0
  0
VERTEX
  5
50A
  8
TEXT_ONLY
 10
283.275336063905
 20
153.4370602624261
 30
0.0
  0
VERTEX
  5
50B
  8
TEXT_ONLY
 10
283.5680041562067
 20
153.474196259592
 30
0.0
  0
VERTEX
  5
50C
  8
TEXT_ONLY
 10
283.8502301036962
 20
153.5226658515272
 30
0.0
  0
VERTEX
  5
50D
  8
TEXT_ONLY
 10
284.1220139063735
 20
153.5824690382313
 30
0.0
  0
VERTEX
  5
50E
  8
TEXT_ONLY
 10
284.3833555642386
 20
153.6536058197046
 30
0.0
  0
VERTEX
  5
50F
  8
TEXT_ONLY
 10
284.6342550772915
 20
153.7360761959469
 30
0.0
  0
VERTEX
  5
510
  8
TEXT_ONLY
 10
284.8747124455323
 20
153.8298801669583
 30
0.0
  0
VERTEX
  5
511
  8
TEXT_ONLY
 10
285.1022595534826
 20
153.9355893218065
 30
0.0
  0
VERTEX
  5
512
  8
TEXT_ONLY
 10
285.314428285664
 20
154.053775249559
 30
0.0
  0
VERTEX
  5
513
  8
TEXT_ONLY
 10
285.5112186420765
 20
154.1844379502159
 30
0.0
  0
VERTEX
  5
514
  8
TEXT_ONLY
 10
285.6926306227203
 20
154.3275774237771
 30
0.0
  0
VERTEX
  5
515
  8
TEXT_ONLY
 10
285.8586642275953
 20
154.4831936702428
 30
0.0
  0
VERTEX
  5
516
  8
TEXT_ONLY
 10
286.0093194567015
 20
154.6512866896128
 30
0.0
  0
VERTEX
  5
517
  8
TEXT_ONLY
 10
286.1445963100389
 20
154.8318564818872
 30
0.0
  0
VERTEX
  5
518
  8
TEXT_ONLY
 10
286.2644947876075
 20
155.0249030470659
 30
0.0
  0
VERTEX
  5
519
  8
TEXT_ONLY
 10
286.3692967890084
 20
155.2260093078297
 30
0.0
  0
VERTEX
  5
51A
  8
TEXT_ONLY
 10
286.4592842138428
 20
155.4307581868593
 30
0.0
  0
VERTEX
  5
51B
  8
TEXT_ONLY
 10
286.5344570621106
 20
155.6391496841545
 30
0.0
  0
VERTEX
  5
51C
  8
TEXT_ONLY
 10
286.5948153338119
 20
155.8511837997155
 30
0.0
  0
VERTEX
  5
51D
  8
TEXT_ONLY
 10
286.6403590289466
 20
156.0668605335422
 30
0.0
  0
VERTEX
  5
51E
  8
TEXT_ONLY
 10
286.6710881475148
 20
156.2861798856346
 30
0.0
  0
VERTEX
  5
51F
  8
TEXT_ONLY
 10
286.6870026895165
 20
156.5091418559927
 30
0.0
  0
VERTEX
  5
520
  8
TEXT_ONLY
 10
286.6881026549516
 20
156.7357464446166
 30
0.0
  0
VERTEX
  5
521
  8
TEXT_ONLY
 10
286.6705624654764
 20
157.0080041676176
 30
0.0
  0
VERTEX
  5
522
  8
TEXT_ONLY
 10
286.6332865780099
 20
157.2690546301376
 30
0.0
  0
VERTEX
  5
523
  8
TEXT_ONLY
 10
286.576274992552
 20
157.5188978321767
 30
0.0
  0
VERTEX
  5
524
  8
TEXT_ONLY
 10
286.4995277091029
 20
157.7575337737348
 30
0.0
  0
VERTEX
  5
525
  8
TEXT_ONLY
 10
286.4030447276624
 20
157.984962454812
 30
0.0
  0
VERTEX
  5
526
  8
TEXT_ONLY
 10
286.2868260482306
 20
158.2011838754082
 30
0.0
  0
VERTEX
  5
527
  8
TEXT_ONLY
 10
286.1508716708074
 20
158.4061980355236
 30
0.0
  0
VERTEX
  5
528
  8
TEXT_ONLY
 10
285.9951815953928
 20
158.600004935158
 30
0.0
  0
VERTEX
  5
529
  8
TEXT_ONLY
 10
285.8201431102885
 20
158.7801629354682
 30
0.0
  0
VERTEX
  5
52A
  8
TEXT_ONLY
 10
285.6261435037962
 20
158.9442303976111
 30
0.0
  0
VERTEX
  5
52B
  8
TEXT_ONLY
 10
285.413182775916
 20
159.0922073215866
 30
0.0
  0
VERTEX
  5
52C
  8
TEXT_ONLY
 10
285.1812609266477
 20
159.2240937073947
 30
0.0
  0
VERTEX
  5
52D
  8
TEXT_ONLY
 10
284.9303779559914
 20
159.3398895550354
 30
0.0
  0
VERTEX
  5
52E
  8
TEXT_ONLY
 10
284.6605338639471
 20
159.4395948645088
 30
0.0
  0
VERTEX
  5
52F
  8
TEXT_ONLY
 10
284.3717286505147
 20
159.5232096358148
 30
0.0
  0
SEQEND
  5
785
  8
TEXT_ONLY
  0
POLYLINE
  5
9E
  8
TEXT_ONLY
 66
     1
 10
0.0
 20
0.0
 30
0.0
 70
     1
  0
VERTEX
  5
530
  8
TEXT_ONLY
 10
287.4872411411787
 20
162.6399988741053
 30
0.0
  0
VERTEX
  5
531
  8
TEXT_ONLY
 10
277.4910511080033
 20
162.3639828951389
 30
0.0
  0
VERTEX
  5
532
  8
TEXT_ONLY
 10
277.3869332114355
 20
166.1347148790038
 30
0.0
  0
VERTEX
  5
533
  8
TEXT_ONLY
 10
277.3799671941939
 20
166.6032379464563
 30
0.0
  0
VERTEX
  5
534
  8
TEXT_ONLY
 10
277.3865577733892
 20
167.0132793556053
 30
0.0
  0
VERTEX
  5
535
  8
TEXT_ONLY
 10
277.4067049490216
 20
167.3648391064507
 30
0.0
  0
VERTEX
  5
536
  8
TEXT_ONLY
 10
277.4404087210909
 20
167.6579171989927
 30
0.0
  0
VERTEX
  5
537
  8
TEXT_ONLY
 10
277.4695748603863
 20
167.8392355487478
 30
0.0
  0
VERTEX
  5
538
  8
TEXT_ONLY
 10
277.5058721545107
 20
168.0132871835506
 30
0.0
  0
VERTEX
  5
539
  8
TEXT_ONLY
 10
277.5493006034642
 20
168.180072103401
 30
0.0
  0
VERTEX
  5
53A
  8
TEXT_ONLY
 10
277.5998602072467
 20
168.3395903082991
 30
0.0
  0
VERTEX
  5
53B
  8
TEXT_ONLY
 10
277.6575509658584
 20
168.4918417982448
 30
0.0
  0
VERTEX
  5
53C
  8
TEXT_ONLY
 10
277.7223728792991
 20
168.6368265732381
 30
0.0
  0
VERTEX
  5
53D
  8
TEXT_ONLY
 10
277.7943259475689
 20
168.7745446332792
 30
0.0
  0
VERTEX
  5
53E
  8
TEXT_ONLY
 10
277.8734101706677
 20
168.9049959783678
 30
0.0
  0
VERTEX
  5
53F
  8
TEXT_ONLY
 10
277.9604587620208
 20
169.0288966658354
 30
0.0
  0
VERTEX
  5
540
  8
TEXT_ONLY
 10
278.0563049350534
 20
169.1469627530131
 30
0.0
  0
VERTEX
  5
541
  8
TEXT_ONLY
 10
278.1609486897653
 20
169.2591942399009
 30
0.0
  0
VERTEX
  5
542
  8
TEXT_ONLY
 10
278.2743900261567
 20
169.365591126499
 30
0.0
  0
VERTEX
  5
543
  8
TEXT_ONLY
 10
278.3966289442274
 20
169.4661534128071
 30
0.0
  0
VERTEX
  5
544
  8
TEXT_ONLY
 10
278.5276654439775
 20
169.5608810988255
 30
0.0
  0
VERTEX
  5
545
  8
TEXT_ONLY
 10
278.6674995254072
 20
169.6497741845539
 30
0.0
  0
VERTEX
  5
546
  8
TEXT_ONLY
 10
278.8161311885161
 20
169.7328326699925
 30
0.0
  0
VERTEX
  5
547
  8
TEXT_ONLY
 10
278.9712103094547
 20
169.8082856926748
 30
0.0
  0
VERTEX
  5
548
  8
TEXT_ONLY
 10
279.130386764373
 20
169.8743623901342
 30
0.0
  0
VERTEX
  5
549
  8
TEXT_ONLY
 10
279.2936605532713
 20
169.9310627623707
 30
0.0
  0
VERTEX
  5
54A
  8
TEXT_ONLY
 10
279.4610316761493
 20
169.9783868093844
 30
0.0
  0
VERTEX
  5
54B
  8
TEXT_ONLY
 10
279.6325001330072
 20
170.0163345311752
 30
0.0
  0
VERTEX
  5
54C
  8
TEXT_ONLY
 10
279.8080659238448
 20
170.0449059277432
 30
0.0
  0
VERTEX
  5
54D
  8
TEXT_ONLY
 10
279.9877290486622
 20
170.0641009990883
 30
0.0
  0
VERTEX
  5
54E
  8
TEXT_ONLY
 10
280.1714895074596
 20
170.0739197452106
 30
0.0
  0
VERTEX
  5
54F
  8
TEXT_ONLY
 10
280.484486880774
 20
170.0698741095132
 30
0.0
  0
VERTEX
  5
550
  8
TEXT_ONLY
 10
280.7859320920529
 20
170.0401331819344
 30
0.0
  0
VERTEX
  5
551
  8
TEXT_ONLY
 10
281.0758251412962
 20
169.9846969624743
 30
0.0
  0
VERTEX
  5
552
  8
TEXT_ONLY
 10
281.354166028504
 20
169.9035654511329
 30
0.0
  0
VERTEX
  5
553
  8
TEXT_ONLY
 10
281.6209547536763
 20
169.79673864791
 30
0.0
  0
VERTEX
  5
554
  8
TEXT_ONLY
 10
281.8761913168131
 20
169.6642165528058
 30
0.0
  0
VERTEX
  5
555
  8
TEXT_ONLY
 10
282.1198757179144
 20
169.5059991658203
 30
0.0
  0
VERTEX
  5
556
  8
TEXT_ONLY
 10
282.3520079569801
 20
169.3220864869534
 30
0.0
  0
VERTEX
  5
557
  8
TEXT_ONLY
 10
282.4618779497432
 20
169.2184970695731
 30
0.0
  0
VERTEX
  5
558
  8
TEXT_ONLY
 10
282.5651317699848
 20
169.10448914224
 30
0.0
  0
VERTEX
  5
559
  8
TEXT_ONLY
 10
282.6617694177048
 20
168.9800627049539
 30
0.0
  0
VERTEX
  5
55A
  8
TEXT_ONLY
 10
282.7517908929031
 20
168.8452177577148
 30
0.0
  0
VERTEX
  5
55B
  8
TEXT_ONLY
 10
282.8351961955798
 20
168.6999543005229
 30
0.0
  0
VERTEX
  5
55C
  8
TEXT_ONLY
 10
282.911985325735
 20
168.544272333378
 30
0.0
  0
VERTEX
  5
55D
  8
TEXT_ONLY
 10
282.9821582833684
 20
168.3781718562802
 30
0.0
  0
VERTEX
  5
55E
  8
TEXT_ONLY
 10
283.0457150684804
 20
168.2016528692295
 30
0.0
  0
VERTEX
  5
55F
  8
TEXT_ONLY
 10
283.1026556810707
 20
168.0147153722259
 30
0.0
  0
VERTEX
  5
560
  8
TEXT_ONLY
 10
283.1529801211394
 20
167.8173593652693
 30
0.0
  0
VERTEX
  5
561
  8
TEXT_ONLY
 10
283.1966883886865
 20
167.6095848483599
 30
0.0
  0
VERTEX
  5
562
  8
TEXT_ONLY
 10
283.2337804837121
 20
167.3913918214975
 30
0.0
  0
VERTEX
  5
563
  8
TEXT_ONLY
 10
283.264256406216
 20
167.1627802846821
 30
0.0
  0
VERTEX
  5
564
  8
TEXT_ONLY
 10
283.2881161561982
 20
166.9237502379139
 30
0.0
  0
VERTEX
  5
565
  8
TEXT_ONLY
 10
283.3159871385979
 20
166.4144346145187
 30
0.0
  0
VERTEX
  5
566
  8
TEXT_ONLY
 10
283.3867797771323
 20
163.8506096128311
 30
0.0
  0
VERTEX
  5
567
  8
TEXT_ONLY
 10
287.4507151521476
 20
163.9628234760399
 30
0.0
  0
SEQEND
  5
786
  8
TEXT_ONLY
  0
POLYLINE
  5
9F
  8
TEXT_ONLY
 66
     1
 10
0.0
 20
0.0
 30
0.0
 70
     1
  0
VERTEX
  5
568
  8
TEXT_ONLY
 10
282.2071475290154
 20
163.8180374679736
 30
0.0
  0
VERTEX
  5
569
  8
TEXT_ONLY
 10
282.1357900555991
 20
166.4023185202065
 30
0.0
  0
VERTEX
  5
56A
  8
TEXT_ONLY
 10
282.1198037021571
 20
166.7109776456717
 30
0.0
  0
VERTEX
  5
56B
  8
TEXT_ONLY
 10
282.0895428014645
 20
166.9959987716454
 30
0.0
  0
VERTEX
  5
56C
  8
TEXT_ONLY
 10
282.0450073535215
 20
167.2573818981277
 30
0.0
  0
VERTEX
  5
56D
  8
TEXT_ONLY
 10
281.986197358328
 20
167.4951270251185
 30
0.0
  0
VERTEX
  5
56E
  8
TEXT_ONLY
 10
281.913112815884
 20
167.7092341526179
 30
0.0
  0
VERTEX
  5
56F
  8
TEXT_ONLY
 10
281.8257537261895
 20
167.8997032806257
 30
0.0
  0
VERTEX
  5
570
  8
TEXT_ONLY
 10
281.7241200892445
 20
168.0665344091422
 30
0.0
  0
VERTEX
  5
571
  8
TEXT_ONLY
 10
281.6082119050491
 20
168.2097275381671
 30
0.0
  0
VERTEX
  5
572
  8
TEXT_ONLY
 10
281.4793259632418
 20
168.3325171696267
 30
0.0
  0
VERTEX
  5
573
  8
TEXT_ONLY
 10
281.3387590534616
 20
168.4381378054472
 30
0.0
  0
VERTEX
  5
574
  8
TEXT_ONLY
 10
281.1865111757081
 20
168.5265894456286
 30
0.0
  0
VERTEX
  5
575
  8
TEXT_ONLY
 10
281.0225823299817
 20
168.597872090171
 30
0.0
  0
VERTEX
  5
576
  8
TEXT_ONLY
 10
280.8469725162821
 20
168.6519857390742
 30
0.0
  0
VERTEX
  5
577
  8
TEXT_ONLY
 10
280.6596817346095
 20
168.6889303923383
 30
0.0
  0
VERTEX
  5
578
  8
TEXT_ONLY
 10
280.4607099849638
 20
168.7087060499632
 30
0.0
  0
VERTEX
  5
579
  8
TEXT_ONLY
 10
280.2500572673452
 20
168.7113127119491
 30
0.0
  0
VERTEX
  5
57A
  8
TEXT_ONLY
 10
280.0961877035883
 20
168.7021060704273
 30
0.0
  0
VERTEX
  5
57B
  8
TEXT_ONLY
 10
279.9482384540132
 20
168.6831469473848
 30
0.0
  0
VERTEX
  5
57C
  8
TEXT_ONLY
 10
279.80620951862
 20
168.6544353428216
 30
0.0
  0
VERTEX
  5
57D
  8
TEXT_ONLY
 10
279.6701008974087
 20
168.6159712567377
 30
0.0
  0
VERTEX
  5
57E
  8
TEXT_ONLY
 10
279.5399125903793
 20
168.567754689133
 30
0.0
  0
VERTEX
  5
57F
  8
TEXT_ONLY
 10
279.4156445975319
 20
168.5097856400077
 30
0.0
  0
VERTEX
  5
580
  8
TEXT_ONLY
 10
279.2972969188663
 20
168.4420641093616
 30
0.0
  0
VERTEX
  5
581
  8
TEXT_ONLY
 10
279.1848695543826
 20
168.3645900971948
 30
0.0
  0
VERTEX
  5
582
  8
TEXT_ONLY
 10
279.0802302473976
 20
168.2792277695861
 30
0.0
  0
VERTEX
  5
583
  8
TEXT_ONLY
 10
278.9852467412281
 20
168.1878412926145
 30
0.0
  0
VERTEX
  5
584
  8
TEXT_ONLY
 10
278.899919035874
 20
168.09043066628
 30
0.0
  0
VERTEX
  5
585
  8
TEXT_ONLY
 10
278.8242471313354
 20
167.9869958905825
 30
0.0
  0
VERTEX
  5
586
  8
TEXT_ONLY
 10
278.7582310276123
 20
167.877536965522
 30
0.0
  0
VERTEX
  5
587
  8
TEXT_ONLY
 10
278.7018707247047
 20
167.7620538910986
 30
0.0
  0
VERTEX
  5
588
  8
TEXT_ONLY
 10
278.6551662226126
 20
167.6405466673123
 30
0.0
  0
VERTEX
  5
589
  8
TEXT_ONLY
 10
278.618117521336
 20
167.513015294163
 30
0.0
  0
VERTEX
  5
58A
  8
TEXT_ONLY
 10
278.584925770696
 20
167.3095147945107
 30
0.0
  0
VERTEX
  5
58B
  8
TEXT_ONLY
 10
278.5647677680682
 20
167.0355764056167
 30
0.0
  0
VERTEX
  5
58C
  8
TEXT_ONLY
 10
278.5576435134525
 20
166.6912001274809
 30
0.0
  0
VERTEX
  5
58D
  8
TEXT_ONLY
 10
278.5635530068487
 20
166.2763859601034
 30
0.0
  0
VERTEX
  5
58E
  8
TEXT_ONLY
 10
278.6341573670891
 20
163.719379641931
 30
0.0
  0
SEQEND
  5
787
  8
TEXT_ONLY
  0
POLYLINE
  5
A0
  8
TEXT_ONLY
 66
     1
 10
0.0
 20
0.0
 30
0.0
 70
     1
  0
VERTEX
  5
58F
  8
TEXT_ONLY
 10
-55.42362150835336
 20
69.01818175759495
 30
0.0
  0
VERTEX
  5
590
  8
TEXT_ONLY
 10
-56.81322237418643
 20
78.92116158357035
 30
0.0
  0
VERTEX
  5
591
  8
TEXT_ONLY
 10
-53.09791616389552
 20
79.44249887975603
 30
0.0
  0
VERTEX
  5
592
  8
TEXT_ONLY
 10
-52.82056176787398
 20
79.47662827167628
 30
0.0
  0
VERTEX
  5
593
  8
TEXT_ONLY
 10
-52.55592716465382
 20
79.49939402401958
 30
0.0
  0
VERTEX
  5
594
  8
TEXT_ONLY
 10
-52.30401235423503
 20
79.51079613678594
 30
0.0
  0
VERTEX
  5
595
  8
TEXT_ONLY
 10
-52.06481733661761
 20
79.51083460997535
 30
0.0
  0
VERTEX
  5
596
  8
TEXT_ONLY
 10
-51.83834211180155
 20
79.49950944358781
 30
0.0
  0
VERTEX
  5
597
  8
TEXT_ONLY
 10
-51.62458667978686
 20
79.4768206376233
 30
0.0
  0
VERTEX
  5
598
  8
TEXT_ONLY
 10
-51.42355104057354
 20
79.44276819208187
 30
0.0
  0
VERTEX
  5
599
  8
TEXT_ONLY
 10
-51.23523519416159
 20
79.39735210696347
 30
0.0
  0
VERTEX
  5
59A
  8
TEXT_ONLY
 10
-51.05721246241839
 20
79.34053620378597
 30
0.0
  0
VERTEX
  5
59B
  8
TEXT_ONLY
 10
-50.88705616721131
 20
79.27228430406723
 30
0.0
  0
VERTEX
  5
59C
  8
TEXT_ONLY
 10
-50.72476630854037
 20
79.19259640780723
 30
0.0
  0
VERTEX
  5
59D
  8
TEXT_ONLY
 10
-50.57034288640556
 20
79.10147251500595
 30
0.0
  0
VERTEX
  5
59E
  8
TEXT_ONLY
 10
-50.42378590080688
 20
78.99891262566342
 30
0.0
  0
VERTEX
  5
59F
  8
TEXT_ONLY
 10
-50.28509535174432
 20
78.88491673977964
 30
0.0
  0
VERTEX
  5
5A0
  8
TEXT_ONLY
 10
-50.1542712392179
 20
78.75948485735461
 30
0.0
  0
VERTEX
  5
5A1
  8
TEXT_ONLY
 10
-50.03131356322761
 20
78.62261697838831
 30
0.0
  0
VERTEX
  5
5A2
  8
TEXT_ONLY
 10
-49.91823225153022
 20
78.47828232281847
 30
0.0
  0
VERTEX
  5
5A3
  8
TEXT_ONLY
 10
-49.81703723188249
 20
78.33045011058285
 30
0.0
  0
VERTEX
  5
5A4
  8
TEXT_ONLY
 10
-49.72772850428443
 20
78.17912034168141
 30
0.0
  0
VERTEX
  5
5A5
  8
TEXT_ONLY
 10
-49.65030606873603
 20
78.02429301611417
 30
0.0
  0
VERTEX
  5
5A6
  8
TEXT_ONLY
 10
-49.58476992523731
 20
77.86596813388114
 30
0.0
  0
VERTEX
  5
5A7
  8
TEXT_ONLY
 10
-49.53112007378825
 20
77.7041456949823
 30
0.0
  0
VERTEX
  5
5A8
  8
TEXT_ONLY
 10
-49.48935651438887
 20
77.53882569941764
 30
0.0
  0
VERTEX
  5
5A9
  8
TEXT_ONLY
 10
-49.45947924703914
 20
77.37000814718719
 30
0.0
  0
VERTEX
  5
5AA
  8
TEXT_ONLY
 10
-49.44274981617322
 20
77.21166893201475
 30
0.0
  0
VERTEX
  5
5AB
  8
TEXT_ONLY
 10
-49.43711216524951
 20
77.0541410899223
 30
0.0
  0
VERTEX
  5
5AC
  8
TEXT_ONLY
 10
-49.442566294268
 20
76.89742462090982
 30
0.0
  0
VERTEX
  5
5AD
  8
TEXT_ONLY
 10
-49.45911220322871
 20
76.74151952497735
 30
0.0
  0
VERTEX
  5
5AE
  8
TEXT_ONLY
 10
-49.48674989213163
 20
76.58642580212484
 30
0.0
  0
VERTEX
  5
5AF
  8
TEXT_ONLY
 10
-49.52547936097676
 20
76.43214345235234
 30
0.0
  0
VERTEX
  5
5B0
  8
TEXT_ONLY
 10
-49.57530060976409
 20
76.27867247565979
 30
0.0
  0
VERTEX
  5
5B1
  8
TEXT_ONLY
 10
-49.63621363849364
 20
76.12601287204727
 30
0.0
  0
VERTEX
  5
5B2
  8
TEXT_ONLY
 10
-49.70863502072875
 20
75.97636634870562
 30
0.0
  0
VERTEX
  5
5B3
  8
TEXT_ONLY
 10
-49.79298133003279
 20
75.83193461282576
 30
0.0
  0
VERTEX
  5
5B4
  8
TEXT_ONLY
 10
-49.88925256640574
 20
75.6927176644077
 30
0.0
  0
VERTEX
  5
5B5
  8
TEXT_ONLY
 10
-49.99744872984763
 20
75.55871550345144
 30
0.0
  0
VERTEX
  5
5B6
  8
TEXT_ONLY
 10
-50.11756982035843
 20
75.42992812995698
 30
0.0
  0
VERTEX
  5
5B7
  8
TEXT_ONLY
 10
-50.24961583793817
 20
75.30635554392431
 30
0.0
  0
VERTEX
  5
5B8
  8
TEXT_ONLY
 10
-50.39358678258682
 20
75.18799774535346
 30
0.0
  0
VERTEX
  5
5B9
  8
TEXT_ONLY
 10
-50.54948265430441
 20
75.0748547342444
 30
0.0
  0
VERTEX
  5
5BA
  8
TEXT_ONLY
 10
-50.32131025919997
 20
75.0337936719086
 30
0.0
  0
VERTEX
  5
5BB
  8
TEXT_ONLY
 10
-50.10449114708659
 20
74.97930055927273
 30
0.0
  0
VERTEX
  5
5BC
  8
TEXT_ONLY
 10
-49.89902531796427
 20
74.91137539633678
 30
0.0
  0
VERTEX
  5
5BD
  8
TEXT_ONLY
 10
-49.70491277183302
 20
74.83001818310075
 30
0.0
  0
VERTEX
  5
5BE
  8
TEXT_ONLY
 10
-49.52215350869282
 20
74.73522891956463
 30
0.0
  0
VERTEX
  5
5BF
  8
TEXT_ONLY
 10
-49.35074752854369
 20
74.62700760572844
 30
0.0
  0
VERTEX
  5
5C0
  8
TEXT_ONLY
 10
-49.19069483138562
 20
74.50535424159216
 30
0.0
  0
VERTEX
  5
5C1
  8
TEXT_ONLY
 10
-49.04199541721862
 20
74.37026882715581
 30
0.0
  0
VERTEX
  5
5C2
  8
TEXT_ONLY
 10
-48.90601579585297
 20
74.22381977314251
 30
0.0
  0
VERTEX
  5
5C3
  8
TEXT_ONLY
 10
-48.784122477099
 20
74.06807549027539
 30
0.0
  0
VERTEX
  5
5C4
  8
TEXT_ONLY
 10
-48.67631546095672
 20
73.90303597855446
 30
0.0
  0
VERTEX
  5
5C5
  8
TEXT_ONLY
 10
-48.5825947474261
 20
73.7287012379797
 30
0.0
  0
VERTEX
  5
5C6
  8
TEXT_ONLY
 10
-48.50296033650716
 20
73.54507126855114
 30
0.0
  0
VERTEX
  5
5C7
  8
TEXT_ONLY
 10
-48.4374122281999
 20
73.35214607026876
 30
0.0
  0
VERTEX
  5
5C8
  8
TEXT_ONLY
 10
-48.38595042250431
 20
73.14992564313255
 30
0.0
  0
VERTEX
  5
5C9
  8
TEXT_ONLY
 10
-48.3485749194204
 20
72.93840998714253
 30
0.0
  0
VERTEX
  5
5CA
  8
TEXT_ONLY
 10
-48.32897296904621
 20
72.7653522920603
 30
0.0
  0
VERTEX
  5
5CB
  8
TEXT_ONLY
 10
-48.31898324656646
 20
72.59406697014089
 30
0.0
  0
VERTEX
  5
5CC
  8
TEXT_ONLY
 10
-48.31860575198117
 20
72.42455402138424
 30
0.0
  0
VERTEX
  5
5CD
  8
TEXT_ONLY
 10
-48.32784048529032
 20
72.25681344579039
 30
0.0
  0
VERTEX
  5
5CE
  8
TEXT_ONLY
 10
-48.34668744649394
 20
72.09084524335933
 30
0.0
  0
VERTEX
  5
5CF
  8
TEXT_ONLY
 10
-48.375146635592
 20
71.92664941409106
 30
0.0
  0
VERTEX
  5
5D0
  8
TEXT_ONLY
 10
-48.41321805258452
 20
71.76422595798559
 30
0.0
  0
VERTEX
  5
5D1
  8
TEXT_ONLY
 10
-48.46090169747149
 20
71.60357487504292
 30
0.0
  0
VERTEX
  5
5D2
  8
TEXT_ONLY
 10
-48.51615503408428
 20
71.44778107206075
 30
0.0
  0
VERTEX
  5
5D3
  8
TEXT_ONLY
 10
-48.57693552625425
 20
71.29992945583683
 30
0.0
  0
VERTEX
  5
5D4
  8
TEXT_ONLY
 10
-48.64324317398141
 20
71.16002002637114
 30
0.0
  0
VERTEX
  5
5D5
  8
TEXT_ONLY
 10
-48.71507797726575
 20
71.02805278366368
 30
0.0
  0
VERTEX
  5
5D6
  8
TEXT_ONLY
 10
-48.79243993610729
 20
70.90402772771446
 30
0.0
  0
VERTEX
  5
5D7
  8
TEXT_ONLY
 10
-48.875329050506
 20
70.7879448585235
 30
0.0
  0
VERTEX
  5
5D8
  8
TEXT_ONLY
 10
-48.96374532046191
 20
70.67980417609076
 30
0.0
  0
VERTEX
  5
5D9
  8
TEXT_ONLY
 10
-49.057688745975
 20
70.57960568041625
 30
0.0
  0
VERTEX
  5
5DA
  8
TEXT_ONLY
 10
-49.15817412649096
 20
70.48537731885428
 30
0.0
  0
VERTEX
  5
5DB
  8
TEXT_ONLY
 10
-49.2662162614555
 20
70.39514703875909
 30
0.0
  0
VERTEX
  5
5DC
  8
TEXT_ONLY
 10
-49.38181515086861
 20
70.30891484013074
 30
0.0
  0
VERTEX
  5
5DD
  8
TEXT_ONLY
 10
-49.50497079473028
 20
70.22668072296918
 30
0.0
  0
VERTEX
  5
5DE
  8
TEXT_ONLY
 10
-49.77395234579934
 20
70.07420673304647
 30
0.0
  0
VERTEX
  5
5DF
  8
TEXT_ONLY
 10
-50.07316091466269
 20
69.937725068991
 30
0.0
  0
VERTEX
  5
5E0
  8
TEXT_ONLY
 10
-50.40729987695774
 20
69.81700625307005
 30
0.0
  0
VERTEX
  5
5E1
  8
TEXT_ONLY
 10
-50.78107260832191
 20
69.71182080755094
 30
0.0
  0
VERTEX
  5
5E2
  8
TEXT_ONLY
 10
-51.19447910875524
 20
69.62216873243364
 30
0.0
  0
VERTEX
  5
5E3
  8
TEXT_ONLY
 10
-51.64751937825769
 20
69.5480500277182
 30
0.0
  0
SEQEND
  5
788
  8
TEXT_ONLY
  0
POLYLINE
  5
A1
  8
TEXT_ONLY
 66
     1
 10
0.0
 20
0.0
 30
0.0
 70
     1
  0
VERTEX
  5
5E4
  8
TEXT_ONLY
 10
-54.91883477555587
 20
74.94390851069912
 30
0.0
  0
VERTEX
  5
5E5
  8
TEXT_ONLY
 10
-52.7774673779882
 20
75.24438837050067
 30
0.0
  0
VERTEX
  5
5E6
  8
TEXT_ONLY
 10
-52.37359056871162
 20
75.30837958329806
 30
0.0
  0
VERTEX
  5
5E7
  8
TEXT_ONLY
 10
-52.03336832475014
 20
75.37807592858485
 30
0.0
  0
VERTEX
  5
5E8
  8
TEXT_ONLY
 10
-51.75680064610375
 20
75.45347740636106
 30
0.0
  0
VERTEX
  5
5E9
  8
TEXT_ONLY
 10
-51.54388753277245
 20
75.53458401662667
 30
0.0
  0
VERTEX
  5
5EA
  8
TEXT_ONLY
 10
-51.42841354508887
 20
75.59179328405547
 30
0.0
  0
VERTEX
  5
5EB
  8
TEXT_ONLY
 10
-51.32150361753398
 20
75.65404318039268
 30
0.0
  0
VERTEX
  5
5EC
  8
TEXT_ONLY
 10
-51.22315775010779
 20
75.72133370563824
 30
0.0
  0
VERTEX
  5
5ED
  8
TEXT_ONLY
 10
-51.13337594281029
 20
75.79366485979223
 30
0.0
  0
VERTEX
  5
5EE
  8
TEXT_ONLY
 10
-51.05215819564147
 20
75.8710366428546
 30
0.0
  0
VERTEX
  5
5EF
  8
TEXT_ONLY
 10
-50.97950450860136
 20
75.95344905482536
 30
0.0
  0
VERTEX
  5
5F0
  8
TEXT_ONLY
 10
-50.91541488168993
 20
76.04090209570448
 30
0.0
  0
VERTEX
  5
5F1
  8
TEXT_ONLY
 10
-50.85988931490721
 20
76.13339576549201
 30
0.0
  0
VERTEX
  5
5F2
  8
TEXT_ONLY
 10
-50.81298892456914
 20
76.23059860805363
 30
0.0
  0
VERTEX
  5
5F3
  8
TEXT_ONLY
 10
-50.77477482699167
 20
76.33217916725506
 30
0.0
  0
VERTEX
  5
5F4
  8
TEXT_ONLY
 10
-50.74524702217481
 20
76.43813744309631
 30
0.0
  0
VERTEX
  5
5F5
  8
TEXT_ONLY
 10
-50.72440551011856
 20
76.54847343557736
 30
0.0
  0
VERTEX
  5
5F6
  8
TEXT_ONLY
 10
-50.71225029082292
 20
76.66318714469821
 30
0.0
  0
VERTEX
  5
5F7
  8
TEXT_ONLY
 10
-50.7087813642879
 20
76.78227857045889
 30
0.0
  0
VERTEX
  5
5F8
  8
TEXT_ONLY
 10
-50.71399873051348
 20
76.90574771285937
 30
0.0
  0
VERTEX
  5
5F9
  8
TEXT_ONLY
 10
-50.72790238949968
 20
77.03359457189964
 30
0.0
  0
VERTEX
  5
5FA
  8
TEXT_ONLY
 10
-50.7486363178128
 20
77.15450971364888
 30
0.0
  0
VERTEX
  5
5FB
  8
TEXT_ONLY
 10
-50.77624026400529
 20
77.27069390857729
 30
0.0
  0
VERTEX
  5
5FC
  8
TEXT_ONLY
 10
-50.81071422807715
 20
77.38214715668487
 30
0.0
  0
VERTEX
  5
5FD
  8
TEXT_ONLY
 10
-50.85205821002837
 20
77.48886945797162
 30
0.0
  0
VERTEX
  5
5FE
  8
TEXT_ONLY
 10
-50.90027220985898
 20
77.59086081243754
 30
0.0
  0
VERTEX
  5
5FF
  8
TEXT_ONLY
 10
-50.95535622756896
 20
77.68812122008265
 30
0.0
  0
VERTEX
  5
600
  8
TEXT_ONLY
 10
-51.0173102631583
 20
77.78065068090692
 30
0.0
  0
VERTEX
  5
601
  8
TEXT_ONLY
 10
-51.08613431662702
 20
77.86844919491034
 30
0.0
  0
VERTEX
  5
602
  8
TEXT_ONLY
 10
-51.16104145803946
 20
77.94974371742822
 30
0.0
  0
VERTEX
  5
603
  8
TEXT_ONLY
 10
-51.24124475746
 20
78.02276120379574
 30
0.0
  0
VERTEX
  5
604
  8
TEXT_ONLY
 10
-51.32674421488859
 20
78.08750165401295
 30
0.0
  0
VERTEX
  5
605
  8
TEXT_ONLY
 10
-51.41753983032528
 20
78.14396506807981
 30
0.0
  0
VERTEX
  5
606
  8
TEXT_ONLY
 10
-51.51363160377005
 20
78.19215144599636
 30
0.0
  0
VERTEX
  5
607
  8
TEXT_ONLY
 10
-51.6150195352229
 20
78.23206078776258
 30
0.0
  0
VERTEX
  5
608
  8
TEXT_ONLY
 10
-51.72170362468383
 20
78.26369309337848
 30
0.0
  0
VERTEX
  5
609
  8
TEXT_ONLY
 10
-51.83368387215284
 20
78.28704836284405
 30
0.0
  0
VERTEX
  5
60A
  8
TEXT_ONLY
 10
-51.95782458677888
 20
78.30272397372718
 30
0.0
  0
VERTEX
  5
60B
  8
TEXT_ONLY
 10
-52.1009900777109
 20
78.31131730359576
 30
0.0
  0
VERTEX
  5
60C
  8
TEXT_ONLY
 10
-52.44439538849289
 20
78.30725712028922
 30
0.0
  0
VERTEX
  5
60D
  8
TEXT_ONLY
 10
-52.8638998044988
 20
78.27486781292444
 30
0.0
  0
VERTEX
  5
60E
  8
TEXT_ONLY
 10
-53.35950332572862
 20
78.21414938150144
 30
0.0
  0
VERTEX
  5
60F
  8
TEXT_ONLY
 10
-55.3387482704836
 20
77.93641878553343
 30
0.0
  0
SEQEND
  5
789
  8
TEXT_ONLY
  0
POLYLINE
  5
A2
  8
TEXT_ONLY
 66
     1
 10
0.0
 20
0.0
 30
0.0
 70
     1
  0
VERTEX
  5
610
  8
TEXT_ONLY
 10
-54.27711595825097
 20
70.37070432094103
 30
0.0
  0
VERTEX
  5
611
  8
TEXT_ONLY
 10
-51.81150365505791
 20
70.7166827084097
 30
0.0
  0
VERTEX
  5
612
  8
TEXT_ONLY
 10
-51.27275427950346
 20
70.80433501670582
 30
0.0
  0
VERTEX
  5
613
  8
TEXT_ONLY
 10
-51.07555226519769
 20
70.84707443956489
 30
0.0
  0
VERTEX
  5
614
  8
TEXT_ONLY
 10
-50.92646536653955
 20
70.88908937489796
 30
0.0
  0
VERTEX
  5
615
  8
TEXT_ONLY
 10
-50.71609291029901
 20
70.96682592782886
 30
0.0
  0
VERTEX
  5
616
  8
TEXT_ONLY
 10
-50.52619275709606
 20
71.05546599867992
 30
0.0
  0
VERTEX
  5
617
  8
TEXT_ONLY
 10
-50.35676490693069
 20
71.15500958745108
 30
0.0
  0
VERTEX
  5
618
  8
TEXT_ONLY
 10
-50.2078093598029
 20
71.26545669414239
 30
0.0
  0
VERTEX
  5
619
  8
TEXT_ONLY
 10
-50.07735575969588
 20
71.39117361793278
 30
0.0
  0
VERTEX
  5
61A
  8
TEXT_ONLY
 10
-49.96343375059282
 20
71.53652665800124
 30
0.0
  0
VERTEX
  5
61B
  8
TEXT_ONLY
 10
-49.8660433324937
 20
71.70151581434773
 30
0.0
  0
VERTEX
  5
61C
  8
TEXT_ONLY
 10
-49.78518450539854
 20
71.88614108697229
 30
0.0
  0
VERTEX
  5
61D
  8
TEXT_ONLY
 10
-49.72581260397416
 20
72.08583257351775
 30
0.0
  0
VERTEX
  5
61E
  8
TEXT_ONLY
 10
-49.6928829628874
 20
72.29602037162694
 30
0.0
  0
VERTEX
  5
61F
  8
TEXT_ONLY
 10
-49.68639558213825
 20
72.51670448129985
 30
0.0
  0
VERTEX
  5
620
  8
TEXT_ONLY
 10
-49.70635046172671
 20
72.7478849025365
 30
0.0
  0
VERTEX
  5
621
  8
TEXT_ONLY
 10
-49.72989672995286
 20
72.88347315531891
 30
0.0
  0
VERTEX
  5
622
  8
TEXT_ONLY
 10
-49.76167220891558
 20
73.01327872344443
 30
0.0
  0
VERTEX
  5
623
  8
TEXT_ONLY
 10
-49.80167689861492
 20
73.13730160691307
 30
0.0
  0
VERTEX
  5
624
  8
TEXT_ONLY
 10
-49.84991079905086
 20
73.25554180572485
 30
0.0
  0
VERTEX
  5
625
  8
TEXT_ONLY
 10
-49.90637391022342
 20
73.36799931987974
 30
0.0
  0
VERTEX
  5
626
  8
TEXT_ONLY
 10
-49.97106623213256
 20
73.47467414937775
 30
0.0
  0
VERTEX
  5
627
  8
TEXT_ONLY
 10
-50.04398776477831
 20
73.57556629421889
 30
0.0
  0
VERTEX
  5
628
  8
TEXT_ONLY
 10
-50.12513850816067
 20
73.67067575440315
 30
0.0
  0
VERTEX
  5
629
  8
TEXT_ONLY
 10
-50.21330099637643
 20
73.7586127789153
 30
0.0
  0
VERTEX
  5
62A
  8
TEXT_ONLY
 10
-50.30725776352241
 20
73.83798761674018
 30
0.0
  0
VERTEX
  5
62B
  8
TEXT_ONLY
 10
-50.40700880959861
 20
73.90880026787775
 30
0.0
  0
VERTEX
  5
62C
  8
TEXT_ONLY
 10
-50.51255413460502
 20
73.97105073232801
 30
0.0
  0
VERTEX
  5
62D
  8
TEXT_ONLY
 10
-50.62389373854165
 20
74.02473901009095
 30
0.0
  0
VERTEX
  5
62E
  8
TEXT_ONLY
 10
-50.74102762140848
 20
74.06986510116663
 30
0.0
  0
VERTEX
  5
62F
  8
TEXT_ONLY
 10
-50.86395578320553
 20
74.10642900555499
 30
0.0
  0
VERTEX
  5
630
  8
TEXT_ONLY
 10
-50.9926782239328
 20
74.13443072325605
 30
0.0
  0
VERTEX
  5
631
  8
TEXT_ONLY
 10
-51.13084836642681
 20
74.15459530798128
 30
0.0
  0
VERTEX
  5
632
  8
TEXT_ONLY
 10
-51.28211963352409
 20
74.16764781344219
 30
0.0
  0
VERTEX
  5
633
  8
TEXT_ONLY
 10
-51.62396554152843
 20
74.172416586571
 30
0.0
  0
VERTEX
  5
634
  8
TEXT_ONLY
 10
-52.01821594794585
 20
74.14873704264248
 30
0.0
  0
VERTEX
  5
635
  8
TEXT_ONLY
 10
-52.46487085277634
 20
74.0966091816566
 30
0.0
  0
VERTEX
  5
636
  8
TEXT_ONLY
 10
-54.75485049875565
 20
73.77527583000762
 30
0.0
  0
SEQEND
  5
78A
  8
TEXT_ONLY
  0
POLYLINE
  5
A3
  8
TEXT_ONLY
 66
     1
 10
0.0
 20
0.0
 30
0.0
 70
     1
  0
VERTEX
  5
637
  8
TEXT_ONLY
 10
-46.19615190243101
 20
70.31299402412152
 30
0.0
  0
VERTEX
  5
638
  8
TEXT_ONLY
 10
-47.58575276826408
 20
80.21597385009693
 30
0.0
  0
VERTEX
  5
639
  8
TEXT_ONLY
 10
-43.87044655797317
 20
80.73731114628261
 30
0.0
  0
VERTEX
  5
63A
  8
TEXT_ONLY
 10
-43.59309216195163
 20
80.77144053820285
 30
0.0
  0
VERTEX
  5
63B
  8
TEXT_ONLY
 10
-43.32845755873147
 20
80.79420629054616
 30
0.0
  0
VERTEX
  5
63C
  8
TEXT_ONLY
 10
-43.07654274831268
 20
80.80560840331252
 30
0.0
  0
VERTEX
  5
63D
  8
TEXT_ONLY
 10
-42.83734773069526
 20
80.80564687650192
 30
0.0
  0
VERTEX
  5
63E
  8
TEXT_ONLY
 10
-42.6108725058792
 20
80.79432171011439
 30
0.0
  0
VERTEX
  5
63F
  8
TEXT_ONLY
 10
-42.39711707386451
 20
80.77163290414988
 30
0.0
  0
VERTEX
  5
640
  8
TEXT_ONLY
 10
-42.19608143465119
 20
80.73758045860845
 30
0.0
  0
VERTEX
  5
641
  8
TEXT_ONLY
 10
-42.00776558823924
 20
80.69216437349004
 30
0.0
  0
VERTEX
  5
642
  8
TEXT_ONLY
 10
-41.82974285649604
 20
80.63534847031255
 30
0.0
  0
VERTEX
  5
643
  8
TEXT_ONLY
 10
-41.65958656128896
 20
80.5670965705938
 30
0.0
  0
VERTEX
  5
644
  8
TEXT_ONLY
 10
-41.49729670261802
 20
80.4874086743338
 30
0.0
  0
VERTEX
  5
645
  8
TEXT_ONLY
 10
-41.3428732804832
 20
80.39628478153253
 30
0.0
  0
VERTEX
  5
646
  8
TEXT_ONLY
 10
-41.19631629488453
 20
80.29372489219
 30
0.0
  0
VERTEX
  5
647
  8
TEXT_ONLY
 10
-41.05762574582197
 20
80.17972900630622
 30
0.0
  0
VERTEX
  5
648
  8
TEXT_ONLY
 10
-40.92680163329555
 20
80.05429712388118
 30
0.0
  0
VERTEX
  5
649
  8
TEXT_ONLY
 10
-40.80384395730525
 20
79.91742924491489
 30
0.0
  0
VERTEX
  5
64A
  8
TEXT_ONLY
 10
-40.69076264560787
 20
79.77309458934505
 30
0.0
  0
VERTEX
  5
64B
  8
TEXT_ONLY
 10
-40.58956762596014
 20
79.62526237710942
 30
0.0
  0
VERTEX
  5
64C
  8
TEXT_ONLY
 10
-40.50025889836208
 20
79.47393260820799
 30
0.0
  0
VERTEX
  5
64D
  8
TEXT_ONLY
 10
-40.42283646281368
 20
79.31910528264075
 30
0.0
  0
VERTEX
  5
64E
  8
TEXT_ONLY
 10
-40.35730031931496
 20
79.16078040040772
 30
0.0
  0
VERTEX
  5
64F
  8
TEXT_ONLY
 10
-40.3036504678659
 20
78.99895796150888
 30
0.0
  0
VERTEX
  5
650
  8
TEXT_ONLY
 10
-40.26188690846651
 20
78.83363796594422
 30
0.0
  0
VERTEX
  5
651
  8
TEXT_ONLY
 10
-40.23200964111679
 20
78.66482041371377
 30
0.0
  0
VERTEX
  5
652
  8
TEXT_ONLY
 10
-40.21528021025087
 20
78.50648119854132
 30
0.0
  0
VERTEX
  5
653
  8
TEXT_ONLY
 10
-40.20964255932716
 20
78.34895335644887
 30
0.0
  0
VERTEX
  5
654
  8
TEXT_ONLY
 10
-40.21509668834565
 20
78.1922368874364
 30
0.0
  0
VERTEX
  5
655
  8
TEXT_ONLY
 10
-40.23164259730636
 20
78.03633179150393
 30
0.0
  0
VERTEX
  5
656
  8
TEXT_ONLY
 10
-40.25928028620928
 20
77.88123806865141
 30
0.0
  0
VERTEX
  5
657
  8
TEXT_ONLY
 10
-40.29800975505441
 20
77.72695571887891
 30
0.0
  0
VERTEX
  5
658
  8
TEXT_ONLY
 10
-40.34783100384174
 20
77.57348474218637
 30
0.0
  0
VERTEX
  5
659
  8
TEXT_ONLY
 10
-40.40874403257128
 20
77.42082513857385
 30
0.0
  0
VERTEX
  5
65A
  8
TEXT_ONLY
 10
-40.4811654148064
 20
77.2711786152322
 30
0.0
  0
VERTEX
  5
65B
  8
TEXT_ONLY
 10
-40.56551172411044
 20
77.12674687935234
 30
0.0
  0
VERTEX
  5
65C
  8
TEXT_ONLY
 10
-40.66178296048339
 20
76.98752993093427
 30
0.0
  0
VERTEX
  5
65D
  8
TEXT_ONLY
 10
-40.76997912392527
 20
76.85352776997802
 30
0.0
  0
VERTEX
  5
65E
  8
TEXT_ONLY
 10
-40.89010021443608
 20
76.72474039648355
 30
0.0
  0
VERTEX
  5
65F
  8
TEXT_ONLY
 10
-41.02214623201581
 20
76.60116781045089
 30
0.0
  0
VERTEX
  5
660
  8
TEXT_ONLY
 10
-41.16611717666447
 20
76.48281001188003
 30
0.0
  0
VERTEX
  5
661
  8
TEXT_ONLY
 10
-41.32201304838205
 20
76.36966700077097
 30
0.0
  0
VERTEX
  5
662
  8
TEXT_ONLY
 10
-41.09384065327762
 20
76.32860593843517
 30
0.0
  0
VERTEX
  5
663
  8
TEXT_ONLY
 10
-40.87702154116424
 20
76.2741128257993
 30
0.0
  0
VERTEX
  5
664
  8
TEXT_ONLY
 10
-40.67155571204192
 20
76.20618766286336
 30
0.0
  0
VERTEX
  5
665
  8
TEXT_ONLY
 10
-40.47744316591067
 20
76.12483044962732
 30
0.0
  0
VERTEX
  5
666
  8
TEXT_ONLY
 10
-40.29468390277047
 20
76.03004118609121
 30
0.0
  0
VERTEX
  5
667
  8
TEXT_ONLY
 10
-40.12327792262134
 20
75.92181987225501
 30
0.0
  0
VERTEX
  5
668
  8
TEXT_ONLY
 10
-39.96322522546327
 20
75.80016650811874
 30
0.0
  0
VERTEX
  5
669
  8
TEXT_ONLY
 10
-39.81452581129626
 20
75.66508109368239
 30
0.0
  0
VERTEX
  5
66A
  8
TEXT_ONLY
 10
-39.67854618993061
 20
75.51863203966909
 30
0.0
  0
VERTEX
  5
66B
  8
TEXT_ONLY
 10
-39.55665287117665
 20
75.36288775680197
 30
0.0
  0
VERTEX
  5
66C
  8
TEXT_ONLY
 10
-39.44884585503436
 20
75.19784824508103
 30
0.0
  0
VERTEX
  5
66D
  8
TEXT_ONLY
 10
-39.35512514150375
 20
75.02351350450628
 30
0.0
  0
VERTEX
  5
66E
  8
TEXT_ONLY
 10
-39.27549073058481
 20
74.83988353507772
 30
0.0
  0
VERTEX
  5
66F
  8
TEXT_ONLY
 10
-39.20994262227754
 20
74.64695833679534
 30
0.0
  0
VERTEX
  5
670
  8
TEXT_ONLY
 10
-39.15848081658196
 20
74.44473790965912
 30
0.0
  0
VERTEX
  5
671
  8
TEXT_ONLY
 10
-39.12110531349805
 20
74.23322225366911
 30
0.0
  0
VERTEX
  5
672
  8
TEXT_ONLY
 10
-39.10150336312385
 20
74.06016455858688
 30
0.0
  0
VERTEX
  5
673
  8
TEXT_ONLY
 10
-39.09151364064411
 20
73.88887923666746
 30
0.0
  0
VERTEX
  5
674
  8
TEXT_ONLY
 10
-39.09113614605882
 20
73.71936628791082
 30
0.0
  0
VERTEX
  5
675
  8
TEXT_ONLY
 10
-39.10037087936797
 20
73.55162571231696
 30
0.0
  0
VERTEX
  5
676
  8
TEXT_ONLY
 10
-39.11921784057159
 20
73.3856575098859
 30
0.0
  0
VERTEX
  5
677
  8
TEXT_ONLY
 10
-39.14767702966965
 20
73.22146168061764
 30
0.0
  0
VERTEX
  5
678
  8
TEXT_ONLY
 10
-39.18574844666217
 20
73.05903822451216
 30
0.0
  0
VERTEX
  5
679
  8
TEXT_ONLY
 10
-39.23343209154914
 20
72.8983871415695
 30
0.0
  0
VERTEX
  5
67A
  8
TEXT_ONLY
 10
-39.28868542816193
 20
72.74259333858733
 30
0.0
  0
VERTEX
  5
67B
  8
TEXT_ONLY
 10
-39.34946592033189
 20
72.59474172236341
 30
0.0
  0
VERTEX
  5
67C
  8
TEXT_ONLY
 10
-39.41577356805906
 20
72.45483229289772
 30
0.0
  0
VERTEX
  5
67D
  8
TEXT_ONLY
 10
-39.4876083713434
 20
72.32286505019026
 30
0.0
  0
VERTEX
  5
67E
  8
TEXT_ONLY
 10
-39.56497033018493
 20
72.19883999424104
 30
0.0
  0
VERTEX
  5
67F
  8
TEXT_ONLY
 10
-39.64785944458365
 20
72.08275712505008
 30
0.0
  0
VERTEX
  5
680
  8
TEXT_ONLY
 10
-39.73627571453956
 20
71.97461644261733
 30
0.0
  0
VERTEX
  5
681
  8
TEXT_ONLY
 10
-39.83021914005265
 20
71.87441794694283
 30
0.0
  0
VERTEX
  5
682
  8
TEXT_ONLY
 10
-39.93070452056861
 20
71.78018958538085
 30
0.0
  0
VERTEX
  5
683
  8
TEXT_ONLY
 10
-40.03874665553315
 20
71.68995930528567
 30
0.0
  0
VERTEX
  5
684
  8
TEXT_ONLY
 10
-40.15434554494626
 20
71.60372710665732
 30
0.0
  0
VERTEX
  5
685
  8
TEXT_ONLY
 10
-40.27750118880793
 20
71.52149298949575
 30
0.0
  0
VERTEX
  5
686
  8
TEXT_ONLY
 10
-40.54648273987699
 20
71.36901899957304
 30
0.0
  0
VERTEX
  5
687
  8
TEXT_ONLY
 10
-40.84569130874034
 20
71.23253733551758
 30
0.0
  0
VERTEX
  5
688
  8
TEXT_ONLY
 10
-41.17983027103539
 20
71.11181851959662
 30
0.0
  0
VERTEX
  5
689
  8
TEXT_ONLY
 10
-41.55360300239956
 20
71.00663307407751
 30
0.0
  0
VERTEX
  5
68A
  8
TEXT_ONLY
 10
-41.96700950283289
 20
70.91698099896021
 30
0.0
  0
VERTEX
  5
68B
  8
TEXT_ONLY
 10
-42.42004977233534
 20
70.84286229424478
 30
0.0
  0
SEQEND
  5
78B
  8
TEXT_ONLY
  0
POLYLINE
  5
A4
  8
TEXT_ONLY
 66
     1
 10
0.0
 20
0.0
 30
0.0
 70
     1
  0
VERTEX
  5
68C
  8
TEXT_ONLY
 10
-45.69136516963352
 20
76.2387207772257
 30
0.0
  0
VERTEX
  5
68D
  8
TEXT_ONLY
 10
-43.54999777206585
 20
76.53920063702725
 30
0.0
  0
VERTEX
  5
68E
  8
TEXT_ONLY
 10
-43.14612096278927
 20
76.60319184982464
 30
0.0
  0
VERTEX
  5
68F
  8
TEXT_ONLY
 10
-42.80589871882779
 20
76.67288819511143
 30
0.0
  0
VERTEX
  5
690
  8
TEXT_ONLY
 10
-42.5293310401814
 20
76.74828967288764
 30
0.0
  0
VERTEX
  5
691
  8
TEXT_ONLY
 10
-42.3164179268501
 20
76.82939628315324
 30
0.0
  0
VERTEX
  5
692
  8
TEXT_ONLY
 10
-42.20094393916652
 20
76.88660555058205
 30
0.0
  0
VERTEX
  5
693
  8
TEXT_ONLY
 10
-42.09403401161163
 20
76.94885544691925
 30
0.0
  0
VERTEX
  5
694
  8
TEXT_ONLY
 10
-41.99568814418544
 20
77.01614597216482
 30
0.0
  0
VERTEX
  5
695
  8
TEXT_ONLY
 10
-41.90590633688794
 20
77.08847712631881
 30
0.0
  0
VERTEX
  5
696
  8
TEXT_ONLY
 10
-41.82468858971912
 20
77.16584890938118
 30
0.0
  0
VERTEX
  5
697
  8
TEXT_ONLY
 10
-41.75203490267901
 20
77.24826132135193
 30
0.0
  0
VERTEX
  5
698
  8
TEXT_ONLY
 10
-41.68794527576758
 20
77.33571436223106
 30
0.0
  0
VERTEX
  5
699
  8
TEXT_ONLY
 10
-41.63241970898486
 20
77.42820803201859
 30
0.0
  0
VERTEX
  5
69A
  8
TEXT_ONLY
 10
-41.58551931864679
 20
77.5254108745802
 30
0.0
  0
VERTEX
  5
69B
  8
TEXT_ONLY
 10
-41.54730522106932
 20
77.62699143378164
 30
0.0
  0
VERTEX
  5
69C
  8
TEXT_ONLY
 10
-41.51777741625246
 20
77.73294970962289
 30
0.0
  0
VERTEX
  5
69D
  8
TEXT_ONLY
 10
-41.49693590419621
 20
77.84328570210394
 30
0.0
  0
VERTEX
  5
69E
  8
TEXT_ONLY
 10
-41.48478068490057
 20
77.95799941122479
 30
0.0
  0
VERTEX
  5
69F
  8
TEXT_ONLY
 10
-41.48131175836555
 20
78.07709083698546
 30
0.0
  0
VERTEX
  5
6A0
  8
TEXT_ONLY
 10
-41.48652912459113
 20
78.20055997938594
 30
0.0
  0
VERTEX
  5
6A1
  8
TEXT_ONLY
 10
-41.50043278357732
 20
78.32840683842622
 30
0.0
  0
VERTEX
  5
6A2
  8
TEXT_ONLY
 10
-41.52116671189044
 20
78.44932198017545
 30
0.0
  0
VERTEX
  5
6A3
  8
TEXT_ONLY
 10
-41.54877065808294
 20
78.56550617510386
 30
0.0
  0
VERTEX
  5
6A4
  8
TEXT_ONLY
 10
-41.58324462215479
 20
78.67695942321144
 30
0.0
  0
VERTEX
  5
6A5
  8
TEXT_ONLY
 10
-41.62458860410602
 20
78.7836817244982
 30
0.0
  0
VERTEX
  5
6A6
  8
TEXT_ONLY
 10
-41.67280260393663
 20
78.88567307896412
 30
0.0
  0
VERTEX
  5
6A7
  8
TEXT_ONLY
 10
-41.7278866216466
 20
78.98293348660923
 30
0.0
  0
VERTEX
  5
6A8
  8
TEXT_ONLY
 10
-41.78984065723595
 20
79.0754629474335
 30
0.0
  0
VERTEX
  5
6A9
  8
TEXT_ONLY
 10
-41.85866471070467
 20
79.16326146143692
 30
0.0
  0
VERTEX
  5
6AA
  8
TEXT_ONLY
 10
-41.93357185211711
 20
79.2445559839548
 30
0.0
  0
VERTEX
  5
6AB
  8
TEXT_ONLY
 10
-42.01377515153764
 20
79.31757347032232
 30
0.0
  0
VERTEX
  5
6AC
  8
TEXT_ONLY
 10
-42.09927460896624
 20
79.38231392053953
 30
0.0
  0
VERTEX
  5
6AD
  8
TEXT_ONLY
 10
-42.19007022440293
 20
79.43877733460639
 30
0.0
  0
VERTEX
  5
6AE
  8
TEXT_ONLY
 10
-42.2861619978477
 20
79.48696371252294
 30
0.0
  0
VERTEX
  5
6AF
  8
TEXT_ONLY
 10
-42.38754992930055
 20
79.52687305428915
 30
0.0
  0
VERTEX
  5
6B0
  8
TEXT_ONLY
 10
-42.49423401876147
 20
79.55850535990506
 30
0.0
  0
VERTEX
  5
6B1
  8
TEXT_ONLY
 10
-42.60621426623049
 20
79.58186062937062
 30
0.0
  0
VERTEX
  5
6B2
  8
TEXT_ONLY
 10
-42.73035498085653
 20
79.59753624025376
 30
0.0
  0
VERTEX
  5
6B3
  8
TEXT_ONLY
 10
-42.87352047178855
 20
79.60612957012233
 30
0.0
  0
VERTEX
  5
6B4
  8
TEXT_ONLY
 10
-43.21692578257054
 20
79.6020693868158
 30
0.0
  0
VERTEX
  5
6B5
  8
TEXT_ONLY
 10
-43.63643019857645
 20
79.56968007945102
 30
0.0
  0
VERTEX
  5
6B6
  8
TEXT_ONLY
 10
-44.13203371980627
 20
79.50896164802802
 30
0.0
  0
VERTEX
  5
6B7
  8
TEXT_ONLY
 10
-46.11127866456125
 20
79.23123105206001
 30
0.0
  0
SEQEND
  5
78C
  8
TEXT_ONLY
  0
POLYLINE
  5
A5
  8
TEXT_ONLY
 66
     1
 10
0.0
 20
0.0
 30
0.0
 70
     1
  0
VERTEX
  5
6B8
  8
TEXT_ONLY
 10
-45.04964635232862
 20
71.66551658746761
 30
0.0
  0
VERTEX
  5
6B9
  8
TEXT_ONLY
 10
-42.58403404913556
 20
72.01149497493628
 30
0.0
  0
VERTEX
  5
6BA
  8
TEXT_ONLY
 10
-42.04528467358111
 20
72.0991472832324
 30
0.0
  0
VERTEX
  5
6BB
  8
TEXT_ONLY
 10
-41.84808265927533
 20
72.14188670609147
 30
0.0
  0
VERTEX
  5
6BC
  8
TEXT_ONLY
 10
-41.69899576061719
 20
72.18390164142454
 30
0.0
  0
VERTEX
  5
6BD
  8
TEXT_ONLY
 10
-41.48862330437666
 20
72.26163819435544
 30
0.0
  0
VERTEX
  5
6BE
  8
TEXT_ONLY
 10
-41.2987231511737
 20
72.3502782652065
 30
0.0
  0
VERTEX
  5
6BF
  8
TEXT_ONLY
 10
-41.12929530100833
 20
72.44982185397765
 30
0.0
  0
VERTEX
  5
6C0
  8
TEXT_ONLY
 10
-40.98033975388055
 20
72.56026896066896
 30
0.0
  0
VERTEX
  5
6C1
  8
TEXT_ONLY
 10
-40.84988615377353
 20
72.68598588445936
 30
0.0
  0
VERTEX
  5
6C2
  8
TEXT_ONLY
 10
-40.73596414467047
 20
72.83133892452781
 30
0.0
  0
VERTEX
  5
6C3
  8
TEXT_ONLY
 10
-40.63857372657135
 20
72.9963280808743
 30
0.0
  0
VERTEX
  5
6C4
  8
TEXT_ONLY
 10
-40.55771489947619
 20
73.18095335349886
 30
0.0
  0
VERTEX
  5
6C5
  8
TEXT_ONLY
 10
-40.49834299805181
 20
73.38064484004433
 30
0.0
  0
VERTEX
  5
6C6
  8
TEXT_ONLY
 10
-40.46541335696504
 20
73.59083263815351
 30
0.0
  0
VERTEX
  5
6C7
  8
TEXT_ONLY
 10
-40.45892597621589
 20
73.81151674782643
 30
0.0
  0
VERTEX
  5
6C8
  8
TEXT_ONLY
 10
-40.47888085580436
 20
74.04269716906308
 30
0.0
  0
VERTEX
  5
6C9
  8
TEXT_ONLY
 10
-40.5024271240305
 20
74.17828542184549
 30
0.0
  0
VERTEX
  5
6CA
  8
TEXT_ONLY
 10
-40.53420260299323
 20
74.308090989971
 30
0.0
  0
VERTEX
  5
6CB
  8
TEXT_ONLY
 10
-40.57420729269257
 20
74.43211387343965
 30
0.0
  0
VERTEX
  5
6CC
  8
TEXT_ONLY
 10
-40.62244119312851
 20
74.55035407225142
 30
0.0
  0
VERTEX
  5
6CD
  8
TEXT_ONLY
 10
-40.67890430430106
 20
74.66281158640632
 30
0.0
  0
VERTEX
  5
6CE
  8
TEXT_ONLY
 10
-40.74359662621021
 20
74.76948641590432
 30
0.0
  0
VERTEX
  5
6CF
  8
TEXT_ONLY
 10
-40.81651815885596
 20
74.87037856074546
 30
0.0
  0
VERTEX
  5
6D0
  8
TEXT_ONLY
 10
-40.89766890223832
 20
74.96548802092973
 30
0.0
  0
VERTEX
  5
6D1
  8
TEXT_ONLY
 10
-40.98583139045408
 20
75.05342504544188
 30
0.0
  0
VERTEX
  5
6D2
  8
TEXT_ONLY
 10
-41.07978815760006
 20
75.13279988326676
 30
0.0
  0
VERTEX
  5
6D3
  8
TEXT_ONLY
 10
-41.17953920367626
 20
75.20361253440433
 30
0.0
  0
VERTEX
  5
6D4
  8
TEXT_ONLY
 10
-41.28508452868267
 20
75.26586299885459
 30
0.0
  0
VERTEX
  5
6D5
  8
TEXT_ONLY
 10
-41.39642413261929
 20
75.31955127661753
 30
0.0
  0
VERTEX
  5
6D6
  8
TEXT_ONLY
 10
-41.51355801548613
 20
75.3646773676932
 30
0.0
  0
VERTEX
  5
6D7
  8
TEXT_ONLY
 10
-41.63648617728318
 20
75.40124127208156
 30
0.0
  0
VERTEX
  5
6D8
  8
TEXT_ONLY
 10
-41.76520861801045
 20
75.42924298978262
 30
0.0
  0
VERTEX
  5
6D9
  8
TEXT_ONLY
 10
-41.90337876050446
 20
75.44940757450786
 30
0.0
  0
VERTEX
  5
6DA
  8
TEXT_ONLY
 10
-42.05465002760174
 20
75.46246007996876
 30
0.0
  0
VERTEX
  5
6DB
  8
TEXT_ONLY
 10
-42.39649593560608
 20
75.46722885309758
 30
0.0
  0
VERTEX
  5
6DC
  8
TEXT_ONLY
 10
-42.7907463420235
 20
75.44354930916906
 30
0.0
  0
VERTEX
  5
6DD
  8
TEXT_ONLY
 10
-43.23740124685399
 20
75.39142144818318
 30
0.0
  0
VERTEX
  5
6DE
  8
TEXT_ONLY
 10
-45.5273808928333
 20
75.07008809653419
 30
0.0
  0
SEQEND
  5
78D
  8
TEXT_ONLY
  0
POLYLINE
  5
A6
  8
TEXT_ONLY
 66
     1
 10
0.0
 20
0.0
 30
0.0
 70
     1
  0
VERTEX
  5
6DF
  8
TEXT_ONLY
 10
133.453694962895
 20
-152.1365087918995
 30
0.0
  0
VERTEX
  5
6E0
  8
TEXT_ONLY
 10
133.453694962895
 20
-150.9086779597031
 30
0.0
  0
VERTEX
  5
6E1
  8
TEXT_ONLY
 10
138.5764780461146
 20
-144.5034937850783
 30
0.0
  0
VERTEX
  5
6E2
  8
TEXT_ONLY
 10
138.8459187009577
 20
-144.1735142489254
 30
0.0
  0
VERTEX
  5
6E3
  8
TEXT_ONLY
 10
139.1085380733997
 20
-143.8657038805762
 30
0.0
  0
VERTEX
  5
6E4
  8
TEXT_ONLY
 10
139.3643361634406
 20
-143.5800626800305
 30
0.0
  0
VERTEX
  5
6E5
  8
TEXT_ONLY
 10
139.6133129710805
 20
-143.3165906472883
 30
0.0
  0
VERTEX
  5
6E6
  8
TEXT_ONLY
 10
134.0335039669877
 20
-143.3165906472883
 30
0.0
  0
VERTEX
  5
6E7
  8
TEXT_ONLY
 10
134.0335039669877
 20
-142.1365087918995
 30
0.0
  0
VERTEX
  5
6E8
  8
TEXT_ONLY
 10
141.1958504881337
 20
-142.1365087918995
 30
0.0
  0
VERTEX
  5
6E9
  8
TEXT_ONLY
 10
141.1958504881337
 20
-143.3165906472883
 30
0.0
  0
VERTEX
  5
6EA
  8
TEXT_ONLY
 10
135.5819350720355
 20
-150.2538348491983
 30
0.0
  0
VERTEX
  5
6EB
  8
TEXT_ONLY
 10
134.9748409383383
 20
-150.9564269365107
 30
0.0
  0
VERTEX
  5
6EC
  8
TEXT_ONLY
 10
141.3595612657599
 20
-150.9564269365107
 30
0.0
  0
VERTEX
  5
6ED
  8
TEXT_ONLY
 10
141.3595612657599
 20
-152.1365087918995
 30
0.0
  0
SEQEND
  5
78E
  8
TEXT_ONLY
  0
POLYLINE
  5
A7
  8
TEXT_ONLY
 66
     1
 10
0.0
 20
0.0
 30
0.0
 70
     1
  0
VERTEX
  5
6EE
  8
TEXT_ONLY
 10
142.8534221115989
 20
-152.1365087918995
 30
0.0
  0
VERTEX
  5
6EF
  8
TEXT_ONLY
 10
142.8534221115989
 20
-142.1365087918995
 30
0.0
  0
VERTEX
  5
6F0
  8
TEXT_ONLY
 10
149.5996704062783
 20
-142.1365087918995
 30
0.0
  0
VERTEX
  5
6F1
  8
TEXT_ONLY
 10
149.5996704062783
 20
-143.3165906472883
 30
0.0
  0
VERTEX
  5
6F2
  8
TEXT_ONLY
 10
144.1767508974106
 20
-143.3165906472883
 30
0.0
  0
VERTEX
  5
6F3
  8
TEXT_ONLY
 10
144.1767508974106
 20
-146.4134528573838
 30
0.0
  0
VERTEX
  5
6F4
  8
TEXT_ONLY
 10
148.8697931893615
 20
-146.4134528573838
 30
0.0
  0
VERTEX
  5
6F5
  8
TEXT_ONLY
 10
148.8697931893615
 20
-147.5935347127727
 30
0.0
  0
VERTEX
  5
6F6
  8
TEXT_ONLY
 10
144.1767508974106
 20
-147.5935347127727
 30
0.0
  0
VERTEX
  5
6F7
  8
TEXT_ONLY
 10
144.1767508974106
 20
-152.1365087918995
 30
0.0
  0
SEQEND
  5
78F
  8
TEXT_ONLY
  0
POLYLINE
  5
A8
  8
TEXT_ONLY
 66
     1
 10
0.0
 20
0.0
 30
0.0
 70
     1
  0
VERTEX
  5
6F8
  8
TEXT_ONLY
 10
151.3186335713533
 20
-152.1365087918995
 30
0.0
  0
VERTEX
  5
6F9
  8
TEXT_ONLY
 10
151.3186335713533
 20
-142.1365087918995
 30
0.0
  0
VERTEX
  5
6FA
  8
TEXT_ONLY
 10
155.0908027391569
 20
-142.1365087918995
 30
0.0
  0
VERTEX
  5
6FB
  8
TEXT_ONLY
 10
155.5593395740818
 20
-142.1424774140005
 30
0.0
  0
VERTEX
  5
6FC
  8
TEXT_ONLY
 10
155.9690428482974
 20
-142.1603832803034
 30
0.0
  0
VERTEX
  5
6FD
  8
TEXT_ONLY
 10
156.3199125618035
 20
-142.1902263908081
 30
0.0
  0
VERTEX
  5
6FE
  8
TEXT_ONLY
 10
156.6119487146003
 20
-142.2320067455148
 30
0.0
  0
VERTEX
  5
6FF
  8
TEXT_ONLY
 10
156.7923929506167
 20
-142.266166448789
 30
0.0
  0
VERTEX
  5
700
  8
TEXT_ONLY
 10
156.9653764090068
 20
-142.3072540170018
 30
0.0
  0
VERTEX
  5
701
  8
TEXT_ONLY
 10
157.1308990897708
 20
-142.3552694501533
 30
0.0
  0
VERTEX
  5
702
  8
TEXT_ONLY
 10
157.2889609929086
 20
-142.4102127482433
 30
0.0
  0
VERTEX
  5
703
  8
TEXT_ONLY
 10
157.4395621184202
 20
-142.472083911272
 30
0.0
  0
VERTEX
  5
704
  8
TEXT_ONLY
 10
157.5827024663056
 20
-142.5408829392392
 30
0.0
  0
VERTEX
  5
705
  8
TEXT_ONLY
 10
157.7183820365648
 20
-142.6166098321451
 30
0.0
  0
VERTEX
  5
706
  8
TEXT_ONLY
 10
157.8466008291978
 20
-142.6992645899896
 30
0.0
  0
VERTEX
  5
707
  8
TEXT_ONLY
 10
157.9680516306985
 20
-142.7896998730728
 30
0.0
  0
VERTEX
  5
708
  8
TEXT_ONLY
 10
158.0834272275607
 20
-142.8887683416949
 30
0.0
  0
VERTEX
  5
709
  8
TEXT_ONLY
 10
158.1927276197845
 20
-142.9964699958559
 30
0.0
  0
VERTEX
  5
70A
  8
TEXT_ONLY
 10
158.2959528073697
 20
-143.1128048355557
 30
0.0
  0
VERTEX
  5
70B
  8
TEXT_ONLY
 10
158.3931027903165
 20
-143.2377728607945
 30
0.0
  0
VERTEX
  5
70C
  8
TEXT_ONLY
 10
158.4841775686248
 20
-143.3713740715721
 30
0.0
  0
VERTEX
  5
70D
  8
TEXT_ONLY
 10
158.5691771422947
 20
-143.5136084678886
 30
0.0
  0
VERTEX
  5
70E
  8
TEXT_ONLY
 10
158.648101511326
 20
-143.664476049744
 30
0.0
  0
VERTEX
  5
70F
  8
TEXT_ONLY
 10
158.7192453551187
 20
-143.8215787100441
 30
0.0
  0
VERTEX
  5
710
  8
TEXT_ONLY
 10
158.7809033530723
 20
-143.9825183416949
 30
0.0
  0
VERTEX
  5
711
  8
TEXT_ONLY
 10
158.8330755051869
 20
-144.1472949446962
 30
0.0
  0
VERTEX
  5
712
  8
TEXT_ONLY
 10
158.8757618114624
 20
-144.3159085190482
 30
0.0
  0
VERTEX
  5
713
  8
TEXT_ONLY
 10
158.908962271899
 20
-144.4883590647508
 30
0.0
  0
VERTEX
  5
714
  8
TEXT_ONLY
 10
158.9326768864966
 20
-144.664646581804
 30
0.0
  0
VERTEX
  5
715
  8
TEXT_ONLY
 10
158.9469056552551
 20
-144.8447710702079
 30
0.0
  0
VERTEX
  5
716
  8
TEXT_ONLY
 10
158.9516485781746
 20
-145.0287325299623
 30
0.0
  0
VERTEX
  5
717
  8
TEXT_ONLY
 10
158.9389652562101
 20
-145.3414989863061
 30
0.0
  0
VERTEX
  5
718
  8
TEXT_ONLY
 10
158.9009152903165
 20
-145.6420084508354
 30
0.0
  0
VERTEX
  5
719
  8
TEXT_ONLY
 10
158.8374986804938
 20
-145.9302609235503
 30
0.0
  0
VERTEX
  5
71A
  8
TEXT_ONLY
 10
158.7487154267421
 20
-146.2062564044507
 30
0.0
  0
VERTEX
  5
71B
  8
TEXT_ONLY
 10
158.6345655290613
 20
-146.4699948935366
 30
0.0
  0
VERTEX
  5
71C
  8
TEXT_ONLY
 10
158.4950489874515
 20
-146.7214763908081
 30
0.0
  0
VERTEX
  5
71D
  8
TEXT_ONLY
 10
158.3301658019126
 20
-146.9607008962651
 30
0.0
  0
VERTEX
  5
71E
  8
TEXT_ONLY
 10
158.1399159724447
 20
-147.1876684099077
 30
0.0
  0
VERTEX
  5
71F
  8
TEXT_ONLY
 10
158.0333334349277
 20
-147.2946373091233
 30
0.0
  0
VERTEX
  5
720
  8
TEXT_ONLY
 10
157.916518973809
 20
-147.3947049890346
 30
0.0
  0
VERTEX
  5
721
  8
TEXT_ONLY
 10
157.7894725890887
 20
-147.4878714496417
 30
0.0
  0
VERTEX
  5
722
  8
TEXT_ONLY
 10
157.6521942807667
 20
-147.5741366909446
 30
0.0
  0
VERTEX
  5
723
  8
TEXT_ONLY
 10
157.5046840488431
 20
-147.6535007129432
 30
0.0
  0
VERTEX
  5
724
  8
TEXT_ONLY
 10
157.3469418933178
 20
-147.7259635156376
 30
0.0
  0
VERTEX
  5
725
  8
TEXT_ONLY
 10
157.178967814191
 20
-147.7915250990278
 30
0.0
  0
VERTEX
  5
726
  8
TEXT_ONLY
 10
157.0007618114625
 20
-147.8501854631137
 30
0.0
  0
VERTEX
  5
727
  8
TEXT_ONLY
 10
156.8123238851323
 20
-147.9019446078954
 30
0.0
  0
VERTEX
  5
728
  8
TEXT_ONLY
 10
156.6136540352005
 20
-147.9468025333729
 30
0.0
  0
VERTEX
  5
729
  8
TEXT_ONLY
 10
156.4047522616671
 20
-147.9847592395462
 30
0.0
  0
VERTEX
  5
72A
  8
TEXT_ONLY
 10
156.185618564532
 20
-148.0158147264152
 30
0.0
  0
VERTEX
  5
72B
  8
TEXT_ONLY
 10
155.9562529437953
 20
-148.03996899398
 30
0.0
  0
VERTEX
  5
72C
  8
TEXT_ONLY
 10
155.716655399457
 20
-148.0572220422406
 30
0.0
  0
VERTEX
  5
72D
  8
TEXT_ONLY
 10
155.2067645399754
 20
-148.071024480849
 30
0.0
  0
VERTEX
  5
72E
  8
TEXT_ONLY
 10
152.6419623571651
 20
-148.071024480849
 30
0.0
  0
VERTEX
  5
72F
  8
TEXT_ONLY
 10
152.6419623571651
 20
-152.1365087918995
 30
0.0
  0
SEQEND
  5
790
  8
TEXT_ONLY
  0
POLYLINE
  5
A9
  8
TEXT_ONLY
 66
     1
 10
0.0
 20
0.0
 30
0.0
 70
     1
  0
VERTEX
  5
730
  8
TEXT_ONLY
 10
152.6419623571651
 20
-146.8909426254602
 30
0.0
  0
VERTEX
  5
731
  8
TEXT_ONLY
 10
155.2272283871787
 20
-146.8909426254602
 30
0.0
  0
VERTEX
  5
732
  8
TEXT_ONLY
 10
155.5362111634406
 20
-146.883481847834
 30
0.0
  0
VERTEX
  5
733
  8
TEXT_ONLY
 10
155.8219589465239
 20
-146.8610995149554
 30
0.0
  0
VERTEX
  5
734
  8
TEXT_ONLY
 10
156.0844717364283
 20
-146.8237956268245
 30
0.0
  0
VERTEX
  5
735
  8
TEXT_ONLY
 10
156.3237495331541
 20
-146.7715701834411
 30
0.0
  0
VERTEX
  5
736
  8
TEXT_ONLY
 10
156.5397923367012
 20
-146.7044231848054
 30
0.0
  0
VERTEX
  5
737
  8
TEXT_ONLY
 10
156.7326001470695
 20
-146.6223546309172
 30
0.0
  0
VERTEX
  5
738
  8
TEXT_ONLY
 10
156.9021729642592
 20
-146.5253645217767
 30
0.0
  0
VERTEX
  5
739
  8
TEXT_ONLY
 10
157.0485107882701
 20
-146.4134528573838
 30
0.0
  0
VERTEX
  5
73A
  8
TEXT_ONLY
 10
157.1748110952278
 20
-146.2880052107263
 30
0.0
  0
VERTEX
  5
73B
  8
TEXT_ONLY
 10
157.2842713612578
 20
-146.1504071547918
 30
0.0
  0
VERTEX
  5
73C
  8
TEXT_ONLY
 10
157.3768915863602
 20
-146.0006586895803
 30
0.0
  0
VERTEX
  5
73D
  8
TEXT_ONLY
 10
157.4526717705348
 20
-145.8387598150919
 30
0.0
  0
VERTEX
  5
73E
  8
TEXT_ONLY
 10
157.5116119137817
 20
-145.6647105313265
 30
0.0
  0
VERTEX
  5
73F
  8
TEXT_ONLY
 10
157.5537120161009
 20
-145.4785108382843
 30
0.0
  0
VERTEX
  5
740
  8
TEXT_ONLY
 10
157.5789720774925
 20
-145.280160735965
 30
0.0
  0
VERTEX
  5
741
  8
TEXT_ONLY
 10
157.5873920979563
 20
-145.0696602243688
 30
0.0
  0
VERTEX
  5
742
  8
TEXT_ONLY
 10
157.5824360099618
 20
-144.915595166388
 30
0.0
  0
VERTEX
  5
743
  8
TEXT_ONLY
 10
157.5675677459782
 20
-144.7671789828954
 30
0.0
  0
VERTEX
  5
744
  8
TEXT_ONLY
 10
157.5427873060054
 20
-144.6244116738914
 30
0.0
  0
VERTEX
  5
745
  8
TEXT_ONLY
 10
157.5080946900436
 20
-144.4872932393757
 30
0.0
  0
VERTEX
  5
746
  8
TEXT_ONLY
 10
157.4634898980927
 20
-144.3558236793484
 30
0.0
  0
VERTEX
  5
747
  8
TEXT_ONLY
 10
157.4089729301528
 20
-144.2300029938095
 30
0.0
  0
VERTEX
  5
748
  8
TEXT_ONLY
 10
157.3445437862237
 20
-144.109831182759
 30
0.0
  0
VERTEX
  5
749
  8
TEXT_ONLY
 10
157.2702024663056
 20
-143.9953082461969
 30
0.0
  0
VERTEX
  5
74A
  8
TEXT_ONLY
 10
157.1877608735361
 20
-143.8883526697986
 30
0.0
  0
VERTEX
  5
74B
  8
TEXT_ONLY
 10
157.0990309110532
 20
-143.7908829392392
 30
0.0
  0
VERTEX
  5
74C
  8
TEXT_ONLY
 10
157.0040125788567
 20
-143.7028990545189
 30
0.0
  0
VERTEX
  5
74D
  8
TEXT_ONLY
 10
156.9027058769468
 20
-143.6244010156376
 30
0.0
  0
VERTEX
  5
74E
  8
TEXT_ONLY
 10
156.7951108053233
 20
-143.5553888225953
 30
0.0
  0
VERTEX
  5
74F
  8
TEXT_ONLY
 10
156.6812273639864
 20
-143.495862475392
 30
0.0
  0
VERTEX
  5
750
  8
TEXT_ONLY
 10
156.5610555529359
 20
-143.4458219740278
 30
0.0
  0
VERTEX
  5
751
  8
TEXT_ONLY
 10
156.4345953721719
 20
-143.4052673185025
 30
0.0
  0
VERTEX
  5
752
  8
TEXT_ONLY
 10
156.2320885508895
 20
-143.3664712748463
 30
0.0
  0
VERTEX
  5
753
  8
TEXT_ONLY
 10
155.9588109246958
 20
-143.3387598150919
 30
0.0
  0
VERTEX
  5
754
  8
TEXT_ONLY
 10
155.6147624935907
 20
-143.3221329392392
 30
0.0
  0
VERTEX
  5
755
  8
TEXT_ONLY
 10
155.1999432575743
 20
-143.3165906472883
 30
0.0
  0
VERTEX
  5
756
  8
TEXT_ONLY
 10
152.6419623571651
 20
-143.3165906472883
 30
0.0
  0
SEQEND
  5
791
  8
TEXT_ONLY
  0
ENDSEC
  0
EOF
